M48
; DRILL file {KiCad (5.1.5)-3} date 2020/3/16 20:43:03
; FORMAT={-:-/ absolute / metric / decimal}
; #@! TF.CreationDate,2020-03-16T20:43:03+08:00
; #@! TF.GenerationSoftware,Kicad,Pcbnew,(5.1.5)-3
; #@! TF.FileFunction,Plated,1,2,PTH
FMAT,2
METRIC
T1C0.400
T2C1.000
%
G90
G05
T1
X1.397Y43.243
X1.397Y41.243
X1.397Y39.243
X1.397Y37.243
X1.397Y35.243
X1.397Y33.243
X1.397Y31.243
X1.397Y29.243
X1.397Y27.243
X1.397Y25.243
X1.397Y23.243
X1.397Y21.243
X1.397Y19.243
X1.397Y17.244
X1.397Y15.243
X1.397Y13.243
X1.397Y11.243
X1.397Y9.243
X1.397Y7.244
X1.397Y5.244
X1.397Y3.244
X1.397Y1.244
X2.597Y43.243
X2.597Y41.243
X2.597Y39.243
X2.597Y37.243
X2.597Y35.243
X2.597Y33.243
X2.597Y31.243
X2.597Y29.243
X2.597Y27.243
X2.597Y25.243
X2.597Y23.243
X2.597Y21.243
X2.597Y19.243
X2.597Y17.244
X2.597Y15.243
X2.597Y13.243
X2.597Y11.243
X2.597Y9.243
X2.597Y7.244
X2.597Y5.244
X2.597Y3.244
X2.597Y1.244
X3.797Y43.243
X3.797Y41.243
X3.797Y39.243
X3.797Y37.243
X3.797Y35.243
X3.797Y33.243
X3.797Y31.243
X3.797Y29.243
X3.797Y27.243
X3.797Y25.243
X3.797Y23.243
X3.797Y21.243
X3.797Y19.243
X3.797Y17.244
X3.797Y15.243
X3.797Y13.243
X3.797Y11.243
X3.797Y9.243
X3.797Y7.244
X3.797Y5.244
X3.797Y3.244
X3.797Y1.244
X4.997Y43.243
X4.997Y41.243
X4.997Y39.243
X4.997Y37.243
X4.997Y35.243
X4.997Y33.243
X4.997Y31.243
X4.997Y29.243
X4.997Y27.243
X4.997Y25.243
X4.997Y23.243
X4.997Y21.243
X4.997Y19.243
X4.997Y17.244
X4.997Y15.243
X4.997Y13.243
X4.997Y11.243
X4.997Y9.243
X4.997Y7.244
X4.997Y5.244
X4.997Y3.244
X4.997Y1.244
X6.667Y11.43
X6.667Y10.43
X6.667Y4.318
X6.667Y3.318
X6.731Y25.4
X6.731Y24.4
X6.731Y18.415
X6.731Y17.415
X6.794Y39.37
X6.794Y38.37
X6.794Y32.448
X6.794Y31.448
X7.175Y47.434
X7.175Y46.434
X7.175Y45.434
X7.175Y44.434
X7.667Y11.43
X7.667Y10.43
X7.667Y4.318
X7.667Y3.318
X7.731Y25.4
X7.731Y24.4
X7.731Y18.415
X7.731Y17.415
X7.794Y39.37
X7.794Y38.37
X7.794Y32.448
X7.794Y31.448
X8.175Y47.434
X8.175Y46.434
X8.175Y45.434
X8.175Y44.434
X9.461Y48.704
X12.002Y35.56
X12.002Y28.511
X12.002Y14.414
X12.065Y21.463
X12.065Y7.366
X13.002Y35.56
X13.002Y28.511
X13.002Y14.414
X13.065Y21.463
X13.065Y7.366
X14.002Y35.56
X14.002Y28.511
X14.002Y14.414
X14.065Y21.463
X14.065Y7.366
X15.002Y35.56
X15.002Y28.511
X15.002Y14.414
X15.065Y21.463
X15.065Y7.366
X16.002Y35.56
X16.002Y28.511
X16.002Y14.414
X16.065Y21.463
X16.065Y7.366
X17.002Y35.56
X17.002Y28.511
X17.002Y14.414
X17.065Y21.463
X17.065Y7.366
X18.002Y35.56
X18.002Y28.511
X18.002Y14.414
X18.065Y21.463
X18.065Y7.366
X18.796Y43.151
X19.002Y35.56
X19.002Y28.511
X19.002Y14.414
X19.065Y21.463
X19.065Y7.366
X20.002Y35.56
X20.002Y28.511
X20.002Y14.414
X20.065Y21.463
X20.065Y7.366
X20.701Y48.831
X21.002Y35.56
X21.002Y28.511
X21.002Y14.414
X21.065Y21.463
X21.065Y7.366
X22.002Y35.56
X22.002Y28.511
X22.002Y14.414
X22.065Y21.463
X22.065Y7.366
X24.384Y43.151
X26.289Y4.635
X26.289Y3.635
X26.352Y39.941
X26.352Y38.941
X26.352Y32.956
X26.352Y31.956
X26.352Y25.717
X26.352Y24.717
X26.352Y18.796
X26.352Y17.796
X26.352Y11.811
X26.352Y10.811
X27.289Y4.635
X27.289Y3.635
X27.352Y39.941
X27.352Y38.941
X27.352Y32.956
X27.352Y31.956
X27.352Y25.717
X27.352Y24.717
X27.352Y18.796
X27.352Y17.796
X27.352Y11.811
X27.352Y10.811
X28.892Y48.104
X29.337Y41.783
X29.337Y39.783
X29.337Y39.783
X29.337Y37.783
X29.337Y37.783
X29.337Y35.783
X29.337Y35.783
X29.337Y33.783
X29.337Y33.783
X29.337Y31.783
X29.337Y31.783
X29.337Y29.783
X29.337Y29.783
X29.337Y27.783
X29.337Y27.783
X29.337Y25.783
X29.337Y25.783
X29.337Y23.783
X29.337Y23.783
X29.337Y21.783
X29.337Y21.783
X29.337Y19.783
X29.337Y19.783
X29.337Y17.783
X29.337Y17.783
X29.337Y15.783
X29.337Y15.783
X29.337Y13.783
X29.337Y13.783
X29.337Y11.783
X29.337Y11.783
X29.337Y9.783
X29.337Y9.783
X29.337Y7.783
X29.337Y7.783
X29.337Y5.783
X29.337Y5.783
X29.337Y3.783
X29.337Y3.783
X29.337Y1.783
X29.337Y1.783
X30.537Y41.783
X30.537Y41.783
X30.537Y39.783
X30.537Y39.783
X30.537Y37.783
X30.537Y37.783
X30.537Y35.783
X30.537Y35.783
X30.537Y33.783
X30.537Y33.783
X30.537Y31.783
X30.537Y31.783
X30.537Y29.783
X30.537Y29.783
X30.537Y27.783
X30.537Y27.783
X30.537Y25.783
X30.537Y25.783
X30.537Y23.783
X30.537Y23.783
X30.537Y21.783
X30.537Y21.783
X30.537Y19.783
X30.537Y19.783
X30.537Y17.783
X30.537Y17.783
X30.537Y15.783
X30.537Y15.783
X30.537Y13.783
X30.537Y13.783
X30.537Y11.783
X30.537Y11.783
X30.537Y9.783
X30.537Y9.783
X30.537Y7.783
X30.537Y7.783
X30.537Y5.783
X30.537Y5.783
X30.537Y3.783
X30.537Y3.783
X30.537Y1.783
X30.537Y1.783
X30.67Y49.558
X31.737Y41.783
X31.737Y41.783
X31.737Y39.783
X31.737Y39.783
X31.737Y37.783
X31.737Y37.783
X31.737Y35.783
X31.737Y35.783
X31.737Y33.783
X31.737Y33.783
X31.737Y31.783
X31.737Y31.783
X31.737Y29.783
X31.737Y29.783
X31.737Y27.783
X31.737Y27.783
X31.737Y25.783
X31.737Y25.783
X31.737Y23.783
X31.737Y23.783
X31.737Y21.783
X31.737Y21.783
X31.737Y19.783
X31.737Y19.783
X31.737Y17.783
X31.737Y17.783
X31.737Y15.783
X31.737Y15.783
X31.737Y13.783
X31.737Y13.783
X31.737Y11.783
X31.737Y11.783
X31.737Y9.783
X31.737Y9.783
X31.737Y7.783
X31.737Y7.783
X31.737Y5.783
X31.737Y5.783
X31.737Y3.783
X31.737Y3.783
X31.737Y1.783
X31.737Y1.783
X32.937Y41.783
X32.937Y39.783
X32.937Y37.783
X32.937Y35.783
X32.937Y33.783
X32.937Y31.783
X32.937Y29.783
X32.937Y27.783
X32.937Y25.783
X32.937Y23.783
X32.937Y21.783
X32.937Y19.783
X32.937Y17.783
X32.937Y15.783
X32.937Y13.783
X32.937Y11.783
X32.937Y9.783
X32.937Y7.783
X32.937Y5.783
X32.937Y3.783
X32.937Y1.783
X34.255Y48.104
X35.015Y44.005
X35.496Y20.32
X36.195Y49.558
X37.846Y40.259
X38.608Y36.005
X40.259Y44.069
X40.259Y43.069
X41.259Y44.069
X41.259Y43.069
X42.259Y44.069
X42.259Y43.069
X42.799Y40.195
X43.259Y44.069
X43.259Y43.069
X43.688Y35.877
X45.974Y47.434
X45.974Y46.434
X46.974Y47.434
X46.974Y46.434
X47.752Y40.195
X47.974Y47.434
X47.974Y46.434
X48.578Y35.941
X48.974Y47.434
X48.974Y46.434
X52.387Y40.132
X53.467Y49.212
X53.467Y48.212
X53.467Y47.212
X53.467Y35.877
X54.467Y49.212
X54.467Y48.212
X54.467Y47.212
X55.467Y49.212
X55.467Y48.212
X55.467Y47.212
X56.467Y49.212
X56.467Y48.212
X56.467Y47.212
X57.467Y49.212
X57.467Y48.212
X57.467Y47.212
X57.467Y40.069
X58.293Y35.877
X62.293Y40.069
X63.182Y35.877
X67.12Y39.814
X68.072Y35.877
X72.072Y39.751
X72.898Y35.814
X76.962Y39.878
X77.724Y35.687
X80.328Y49.34
X80.328Y48.34
X80.328Y47.34
X80.328Y46.34
X80.328Y45.34
X81.328Y49.34
X81.328Y48.34
X81.328Y47.34
X81.328Y46.34
X81.328Y45.34
X81.978Y40.259
X82.328Y49.34
X82.328Y48.34
X82.328Y47.34
X82.328Y46.34
X82.328Y45.34
X82.486Y35.433
X83.328Y49.34
X83.328Y48.34
X83.328Y47.34
X83.328Y46.34
X83.328Y45.34
X86.995Y40.259
X87.439Y35.623
X90.17Y49.34
X90.17Y48.34
X90.17Y47.34
X90.17Y46.34
X90.17Y45.34
X91.17Y49.34
X91.17Y48.34
X91.17Y47.34
X91.17Y46.34
X91.17Y45.34
X91.948Y40.259
X92.17Y49.34
X92.17Y48.34
X92.17Y47.34
X92.17Y46.34
X92.17Y45.34
X92.329Y35.75
X93.853Y43.561
X93.853Y42.561
X94.853Y43.561
X94.853Y42.561
X95.853Y43.561
X95.853Y42.561
X96.853Y43.561
X96.853Y42.561
X97.282Y35.814
X97.853Y43.561
X97.853Y42.561
T2
X47.688Y43.561
X50.228Y43.561
X52.768Y43.561
X55.308Y43.561
X57.848Y43.561
X60.389Y43.561
X62.928Y43.561
X65.468Y43.561
X68.008Y43.561
X70.548Y43.561
X73.088Y43.561
X75.629Y43.561
X78.168Y43.561
X80.709Y43.561
T0
M30
