G04 #@! TF.GenerationSoftware,KiCad,Pcbnew,(5.1.5)-3*
G04 #@! TF.CreationDate,2020-03-16T20:43:13+08:00*
G04 #@! TF.ProjectId,sd04,73643034-2e6b-4696-9361-645f70636258,v0.2*
G04 #@! TF.SameCoordinates,PX3e41030PY7464a18*
G04 #@! TF.FileFunction,Paste,Bot*
G04 #@! TF.FilePolarity,Positive*
%FSLAX46Y46*%
G04 Gerber Fmt 4.6, Leading zero omitted, Abs format (unit mm)*
G04 Created by KiCad (PCBNEW (5.1.5)-3) date 2020-03-16 20:43:13*
%MOMM*%
%LPD*%
G04 APERTURE LIST*
%ADD10C,0.300000*%
%ADD11C,0.100000*%
G04 APERTURE END LIST*
D10*
X95633928Y3583858D02*
X95419642Y3512429D01*
X95062500Y3512429D01*
X94919642Y3583858D01*
X94848214Y3655286D01*
X94776785Y3798143D01*
X94776785Y3941000D01*
X94848214Y4083858D01*
X94919642Y4155286D01*
X95062500Y4226715D01*
X95348214Y4298143D01*
X95491071Y4369572D01*
X95562500Y4441000D01*
X95633928Y4583858D01*
X95633928Y4726715D01*
X95562500Y4869572D01*
X95491071Y4941000D01*
X95348214Y5012429D01*
X94991071Y5012429D01*
X94776785Y4941000D01*
X94133928Y3512429D02*
X94133928Y5012429D01*
X93776785Y5012429D01*
X93562500Y4941000D01*
X93419642Y4798143D01*
X93348214Y4655286D01*
X93276785Y4369572D01*
X93276785Y4155286D01*
X93348214Y3869572D01*
X93419642Y3726715D01*
X93562500Y3583858D01*
X93776785Y3512429D01*
X94133928Y3512429D01*
X92348214Y5012429D02*
X92205357Y5012429D01*
X92062500Y4941000D01*
X91991071Y4869572D01*
X91919642Y4726715D01*
X91848214Y4441000D01*
X91848214Y4083858D01*
X91919642Y3798143D01*
X91991071Y3655286D01*
X92062500Y3583858D01*
X92205357Y3512429D01*
X92348214Y3512429D01*
X92491071Y3583858D01*
X92562500Y3655286D01*
X92633928Y3798143D01*
X92705357Y4083858D01*
X92705357Y4441000D01*
X92633928Y4726715D01*
X92562500Y4869572D01*
X92491071Y4941000D01*
X92348214Y5012429D01*
X90562500Y4512429D02*
X90562500Y3512429D01*
X90919642Y5083858D02*
X91276785Y4012429D01*
X90348214Y4012429D01*
X90133928Y3369572D02*
X88991071Y3369572D01*
X87848214Y3512429D02*
X88705357Y3512429D01*
X88276785Y3512429D02*
X88276785Y5012429D01*
X88419642Y4798143D01*
X88562500Y4655286D01*
X88705357Y4583858D01*
X87348214Y5012429D02*
X86419642Y5012429D01*
X86919642Y4441000D01*
X86705357Y4441000D01*
X86562500Y4369572D01*
X86491071Y4298143D01*
X86419642Y4155286D01*
X86419642Y3798143D01*
X86491071Y3655286D01*
X86562500Y3583858D01*
X86705357Y3512429D01*
X87133928Y3512429D01*
X87276785Y3583858D01*
X87348214Y3655286D01*
X85848214Y3583858D02*
X85633928Y3512429D01*
X85276785Y3512429D01*
X85133928Y3583858D01*
X85062500Y3655286D01*
X84991071Y3798143D01*
X84991071Y3941000D01*
X85062500Y4083858D01*
X85133928Y4155286D01*
X85276785Y4226715D01*
X85562500Y4298143D01*
X85705357Y4369572D01*
X85776785Y4441000D01*
X85848214Y4583858D01*
X85848214Y4726715D01*
X85776785Y4869572D01*
X85705357Y4941000D01*
X85562500Y5012429D01*
X85205357Y5012429D01*
X84991071Y4941000D01*
X84705357Y3369572D02*
X83562500Y3369572D01*
X83419642Y5012429D02*
X82919642Y3512429D01*
X82419642Y5012429D01*
X81633928Y5012429D02*
X81491071Y5012429D01*
X81348214Y4941000D01*
X81276785Y4869572D01*
X81205357Y4726715D01*
X81133928Y4441000D01*
X81133928Y4083858D01*
X81205357Y3798143D01*
X81276785Y3655286D01*
X81348214Y3583858D01*
X81491071Y3512429D01*
X81633928Y3512429D01*
X81776785Y3583858D01*
X81848214Y3655286D01*
X81919642Y3798143D01*
X81991071Y4083858D01*
X81991071Y4441000D01*
X81919642Y4726715D01*
X81848214Y4869572D01*
X81776785Y4941000D01*
X81633928Y5012429D01*
X80491071Y3655286D02*
X80419642Y3583858D01*
X80491071Y3512429D01*
X80562500Y3583858D01*
X80491071Y3655286D01*
X80491071Y3512429D01*
X79848214Y4869572D02*
X79776785Y4941000D01*
X79633928Y5012429D01*
X79276785Y5012429D01*
X79133928Y4941000D01*
X79062500Y4869572D01*
X78991071Y4726715D01*
X78991071Y4583858D01*
X79062500Y4369572D01*
X79919642Y3512429D01*
X78991071Y3512429D01*
D11*
G36*
X39948279Y39018856D02*
G01*
X39971334Y39015437D01*
X39993943Y39009773D01*
X40015887Y39001921D01*
X40036957Y38991956D01*
X40056948Y38979974D01*
X40075668Y38966090D01*
X40092938Y38950438D01*
X40108590Y38933168D01*
X40122474Y38914448D01*
X40134456Y38894457D01*
X40144421Y38873387D01*
X40152273Y38851443D01*
X40157937Y38828834D01*
X40161356Y38805779D01*
X40162500Y38782500D01*
X40162500Y38207500D01*
X40161356Y38184221D01*
X40157937Y38161166D01*
X40152273Y38138557D01*
X40144421Y38116613D01*
X40134456Y38095543D01*
X40122474Y38075552D01*
X40108590Y38056832D01*
X40092938Y38039562D01*
X40075668Y38023910D01*
X40056948Y38010026D01*
X40036957Y37998044D01*
X40015887Y37988079D01*
X39993943Y37980227D01*
X39971334Y37974563D01*
X39948279Y37971144D01*
X39925000Y37970000D01*
X39450000Y37970000D01*
X39426721Y37971144D01*
X39403666Y37974563D01*
X39381057Y37980227D01*
X39359113Y37988079D01*
X39338043Y37998044D01*
X39318052Y38010026D01*
X39299332Y38023910D01*
X39282062Y38039562D01*
X39266410Y38056832D01*
X39252526Y38075552D01*
X39240544Y38095543D01*
X39230579Y38116613D01*
X39222727Y38138557D01*
X39217063Y38161166D01*
X39213644Y38184221D01*
X39212500Y38207500D01*
X39212500Y38782500D01*
X39213644Y38805779D01*
X39217063Y38828834D01*
X39222727Y38851443D01*
X39230579Y38873387D01*
X39240544Y38894457D01*
X39252526Y38914448D01*
X39266410Y38933168D01*
X39282062Y38950438D01*
X39299332Y38966090D01*
X39318052Y38979974D01*
X39338043Y38991956D01*
X39359113Y39001921D01*
X39381057Y39009773D01*
X39403666Y39015437D01*
X39426721Y39018856D01*
X39450000Y39020000D01*
X39925000Y39020000D01*
X39948279Y39018856D01*
G37*
G36*
X39948279Y40768856D02*
G01*
X39971334Y40765437D01*
X39993943Y40759773D01*
X40015887Y40751921D01*
X40036957Y40741956D01*
X40056948Y40729974D01*
X40075668Y40716090D01*
X40092938Y40700438D01*
X40108590Y40683168D01*
X40122474Y40664448D01*
X40134456Y40644457D01*
X40144421Y40623387D01*
X40152273Y40601443D01*
X40157937Y40578834D01*
X40161356Y40555779D01*
X40162500Y40532500D01*
X40162500Y39957500D01*
X40161356Y39934221D01*
X40157937Y39911166D01*
X40152273Y39888557D01*
X40144421Y39866613D01*
X40134456Y39845543D01*
X40122474Y39825552D01*
X40108590Y39806832D01*
X40092938Y39789562D01*
X40075668Y39773910D01*
X40056948Y39760026D01*
X40036957Y39748044D01*
X40015887Y39738079D01*
X39993943Y39730227D01*
X39971334Y39724563D01*
X39948279Y39721144D01*
X39925000Y39720000D01*
X39450000Y39720000D01*
X39426721Y39721144D01*
X39403666Y39724563D01*
X39381057Y39730227D01*
X39359113Y39738079D01*
X39338043Y39748044D01*
X39318052Y39760026D01*
X39299332Y39773910D01*
X39282062Y39789562D01*
X39266410Y39806832D01*
X39252526Y39825552D01*
X39240544Y39845543D01*
X39230579Y39866613D01*
X39222727Y39888557D01*
X39217063Y39911166D01*
X39213644Y39934221D01*
X39212500Y39957500D01*
X39212500Y40532500D01*
X39213644Y40555779D01*
X39217063Y40578834D01*
X39222727Y40601443D01*
X39230579Y40623387D01*
X39240544Y40644457D01*
X39252526Y40664448D01*
X39266410Y40683168D01*
X39282062Y40700438D01*
X39299332Y40716090D01*
X39318052Y40729974D01*
X39338043Y40741956D01*
X39359113Y40751921D01*
X39381057Y40759773D01*
X39403666Y40765437D01*
X39426721Y40768856D01*
X39450000Y40770000D01*
X39925000Y40770000D01*
X39948279Y40768856D01*
G37*
G36*
X44821904Y39018856D02*
G01*
X44844959Y39015437D01*
X44867568Y39009773D01*
X44889512Y39001921D01*
X44910582Y38991956D01*
X44930573Y38979974D01*
X44949293Y38966090D01*
X44966563Y38950438D01*
X44982215Y38933168D01*
X44996099Y38914448D01*
X45008081Y38894457D01*
X45018046Y38873387D01*
X45025898Y38851443D01*
X45031562Y38828834D01*
X45034981Y38805779D01*
X45036125Y38782500D01*
X45036125Y38207500D01*
X45034981Y38184221D01*
X45031562Y38161166D01*
X45025898Y38138557D01*
X45018046Y38116613D01*
X45008081Y38095543D01*
X44996099Y38075552D01*
X44982215Y38056832D01*
X44966563Y38039562D01*
X44949293Y38023910D01*
X44930573Y38010026D01*
X44910582Y37998044D01*
X44889512Y37988079D01*
X44867568Y37980227D01*
X44844959Y37974563D01*
X44821904Y37971144D01*
X44798625Y37970000D01*
X44323625Y37970000D01*
X44300346Y37971144D01*
X44277291Y37974563D01*
X44254682Y37980227D01*
X44232738Y37988079D01*
X44211668Y37998044D01*
X44191677Y38010026D01*
X44172957Y38023910D01*
X44155687Y38039562D01*
X44140035Y38056832D01*
X44126151Y38075552D01*
X44114169Y38095543D01*
X44104204Y38116613D01*
X44096352Y38138557D01*
X44090688Y38161166D01*
X44087269Y38184221D01*
X44086125Y38207500D01*
X44086125Y38782500D01*
X44087269Y38805779D01*
X44090688Y38828834D01*
X44096352Y38851443D01*
X44104204Y38873387D01*
X44114169Y38894457D01*
X44126151Y38914448D01*
X44140035Y38933168D01*
X44155687Y38950438D01*
X44172957Y38966090D01*
X44191677Y38979974D01*
X44211668Y38991956D01*
X44232738Y39001921D01*
X44254682Y39009773D01*
X44277291Y39015437D01*
X44300346Y39018856D01*
X44323625Y39020000D01*
X44798625Y39020000D01*
X44821904Y39018856D01*
G37*
G36*
X44821904Y40768856D02*
G01*
X44844959Y40765437D01*
X44867568Y40759773D01*
X44889512Y40751921D01*
X44910582Y40741956D01*
X44930573Y40729974D01*
X44949293Y40716090D01*
X44966563Y40700438D01*
X44982215Y40683168D01*
X44996099Y40664448D01*
X45008081Y40644457D01*
X45018046Y40623387D01*
X45025898Y40601443D01*
X45031562Y40578834D01*
X45034981Y40555779D01*
X45036125Y40532500D01*
X45036125Y39957500D01*
X45034981Y39934221D01*
X45031562Y39911166D01*
X45025898Y39888557D01*
X45018046Y39866613D01*
X45008081Y39845543D01*
X44996099Y39825552D01*
X44982215Y39806832D01*
X44966563Y39789562D01*
X44949293Y39773910D01*
X44930573Y39760026D01*
X44910582Y39748044D01*
X44889512Y39738079D01*
X44867568Y39730227D01*
X44844959Y39724563D01*
X44821904Y39721144D01*
X44798625Y39720000D01*
X44323625Y39720000D01*
X44300346Y39721144D01*
X44277291Y39724563D01*
X44254682Y39730227D01*
X44232738Y39738079D01*
X44211668Y39748044D01*
X44191677Y39760026D01*
X44172957Y39773910D01*
X44155687Y39789562D01*
X44140035Y39806832D01*
X44126151Y39825552D01*
X44114169Y39845543D01*
X44104204Y39866613D01*
X44096352Y39888557D01*
X44090688Y39911166D01*
X44087269Y39934221D01*
X44086125Y39957500D01*
X44086125Y40532500D01*
X44087269Y40555779D01*
X44090688Y40578834D01*
X44096352Y40601443D01*
X44104204Y40623387D01*
X44114169Y40644457D01*
X44126151Y40664448D01*
X44140035Y40683168D01*
X44155687Y40700438D01*
X44172957Y40716090D01*
X44191677Y40729974D01*
X44211668Y40741956D01*
X44232738Y40751921D01*
X44254682Y40759773D01*
X44277291Y40765437D01*
X44300346Y40768856D01*
X44323625Y40770000D01*
X44798625Y40770000D01*
X44821904Y40768856D01*
G37*
G36*
X49695529Y39018856D02*
G01*
X49718584Y39015437D01*
X49741193Y39009773D01*
X49763137Y39001921D01*
X49784207Y38991956D01*
X49804198Y38979974D01*
X49822918Y38966090D01*
X49840188Y38950438D01*
X49855840Y38933168D01*
X49869724Y38914448D01*
X49881706Y38894457D01*
X49891671Y38873387D01*
X49899523Y38851443D01*
X49905187Y38828834D01*
X49908606Y38805779D01*
X49909750Y38782500D01*
X49909750Y38207500D01*
X49908606Y38184221D01*
X49905187Y38161166D01*
X49899523Y38138557D01*
X49891671Y38116613D01*
X49881706Y38095543D01*
X49869724Y38075552D01*
X49855840Y38056832D01*
X49840188Y38039562D01*
X49822918Y38023910D01*
X49804198Y38010026D01*
X49784207Y37998044D01*
X49763137Y37988079D01*
X49741193Y37980227D01*
X49718584Y37974563D01*
X49695529Y37971144D01*
X49672250Y37970000D01*
X49197250Y37970000D01*
X49173971Y37971144D01*
X49150916Y37974563D01*
X49128307Y37980227D01*
X49106363Y37988079D01*
X49085293Y37998044D01*
X49065302Y38010026D01*
X49046582Y38023910D01*
X49029312Y38039562D01*
X49013660Y38056832D01*
X48999776Y38075552D01*
X48987794Y38095543D01*
X48977829Y38116613D01*
X48969977Y38138557D01*
X48964313Y38161166D01*
X48960894Y38184221D01*
X48959750Y38207500D01*
X48959750Y38782500D01*
X48960894Y38805779D01*
X48964313Y38828834D01*
X48969977Y38851443D01*
X48977829Y38873387D01*
X48987794Y38894457D01*
X48999776Y38914448D01*
X49013660Y38933168D01*
X49029312Y38950438D01*
X49046582Y38966090D01*
X49065302Y38979974D01*
X49085293Y38991956D01*
X49106363Y39001921D01*
X49128307Y39009773D01*
X49150916Y39015437D01*
X49173971Y39018856D01*
X49197250Y39020000D01*
X49672250Y39020000D01*
X49695529Y39018856D01*
G37*
G36*
X49695529Y40768856D02*
G01*
X49718584Y40765437D01*
X49741193Y40759773D01*
X49763137Y40751921D01*
X49784207Y40741956D01*
X49804198Y40729974D01*
X49822918Y40716090D01*
X49840188Y40700438D01*
X49855840Y40683168D01*
X49869724Y40664448D01*
X49881706Y40644457D01*
X49891671Y40623387D01*
X49899523Y40601443D01*
X49905187Y40578834D01*
X49908606Y40555779D01*
X49909750Y40532500D01*
X49909750Y39957500D01*
X49908606Y39934221D01*
X49905187Y39911166D01*
X49899523Y39888557D01*
X49891671Y39866613D01*
X49881706Y39845543D01*
X49869724Y39825552D01*
X49855840Y39806832D01*
X49840188Y39789562D01*
X49822918Y39773910D01*
X49804198Y39760026D01*
X49784207Y39748044D01*
X49763137Y39738079D01*
X49741193Y39730227D01*
X49718584Y39724563D01*
X49695529Y39721144D01*
X49672250Y39720000D01*
X49197250Y39720000D01*
X49173971Y39721144D01*
X49150916Y39724563D01*
X49128307Y39730227D01*
X49106363Y39738079D01*
X49085293Y39748044D01*
X49065302Y39760026D01*
X49046582Y39773910D01*
X49029312Y39789562D01*
X49013660Y39806832D01*
X48999776Y39825552D01*
X48987794Y39845543D01*
X48977829Y39866613D01*
X48969977Y39888557D01*
X48964313Y39911166D01*
X48960894Y39934221D01*
X48959750Y39957500D01*
X48959750Y40532500D01*
X48960894Y40555779D01*
X48964313Y40578834D01*
X48969977Y40601443D01*
X48977829Y40623387D01*
X48987794Y40644457D01*
X48999776Y40664448D01*
X49013660Y40683168D01*
X49029312Y40700438D01*
X49046582Y40716090D01*
X49065302Y40729974D01*
X49085293Y40741956D01*
X49106363Y40751921D01*
X49128307Y40759773D01*
X49150916Y40765437D01*
X49173971Y40768856D01*
X49197250Y40770000D01*
X49672250Y40770000D01*
X49695529Y40768856D01*
G37*
G36*
X54569154Y39018856D02*
G01*
X54592209Y39015437D01*
X54614818Y39009773D01*
X54636762Y39001921D01*
X54657832Y38991956D01*
X54677823Y38979974D01*
X54696543Y38966090D01*
X54713813Y38950438D01*
X54729465Y38933168D01*
X54743349Y38914448D01*
X54755331Y38894457D01*
X54765296Y38873387D01*
X54773148Y38851443D01*
X54778812Y38828834D01*
X54782231Y38805779D01*
X54783375Y38782500D01*
X54783375Y38207500D01*
X54782231Y38184221D01*
X54778812Y38161166D01*
X54773148Y38138557D01*
X54765296Y38116613D01*
X54755331Y38095543D01*
X54743349Y38075552D01*
X54729465Y38056832D01*
X54713813Y38039562D01*
X54696543Y38023910D01*
X54677823Y38010026D01*
X54657832Y37998044D01*
X54636762Y37988079D01*
X54614818Y37980227D01*
X54592209Y37974563D01*
X54569154Y37971144D01*
X54545875Y37970000D01*
X54070875Y37970000D01*
X54047596Y37971144D01*
X54024541Y37974563D01*
X54001932Y37980227D01*
X53979988Y37988079D01*
X53958918Y37998044D01*
X53938927Y38010026D01*
X53920207Y38023910D01*
X53902937Y38039562D01*
X53887285Y38056832D01*
X53873401Y38075552D01*
X53861419Y38095543D01*
X53851454Y38116613D01*
X53843602Y38138557D01*
X53837938Y38161166D01*
X53834519Y38184221D01*
X53833375Y38207500D01*
X53833375Y38782500D01*
X53834519Y38805779D01*
X53837938Y38828834D01*
X53843602Y38851443D01*
X53851454Y38873387D01*
X53861419Y38894457D01*
X53873401Y38914448D01*
X53887285Y38933168D01*
X53902937Y38950438D01*
X53920207Y38966090D01*
X53938927Y38979974D01*
X53958918Y38991956D01*
X53979988Y39001921D01*
X54001932Y39009773D01*
X54024541Y39015437D01*
X54047596Y39018856D01*
X54070875Y39020000D01*
X54545875Y39020000D01*
X54569154Y39018856D01*
G37*
G36*
X54569154Y40768856D02*
G01*
X54592209Y40765437D01*
X54614818Y40759773D01*
X54636762Y40751921D01*
X54657832Y40741956D01*
X54677823Y40729974D01*
X54696543Y40716090D01*
X54713813Y40700438D01*
X54729465Y40683168D01*
X54743349Y40664448D01*
X54755331Y40644457D01*
X54765296Y40623387D01*
X54773148Y40601443D01*
X54778812Y40578834D01*
X54782231Y40555779D01*
X54783375Y40532500D01*
X54783375Y39957500D01*
X54782231Y39934221D01*
X54778812Y39911166D01*
X54773148Y39888557D01*
X54765296Y39866613D01*
X54755331Y39845543D01*
X54743349Y39825552D01*
X54729465Y39806832D01*
X54713813Y39789562D01*
X54696543Y39773910D01*
X54677823Y39760026D01*
X54657832Y39748044D01*
X54636762Y39738079D01*
X54614818Y39730227D01*
X54592209Y39724563D01*
X54569154Y39721144D01*
X54545875Y39720000D01*
X54070875Y39720000D01*
X54047596Y39721144D01*
X54024541Y39724563D01*
X54001932Y39730227D01*
X53979988Y39738079D01*
X53958918Y39748044D01*
X53938927Y39760026D01*
X53920207Y39773910D01*
X53902937Y39789562D01*
X53887285Y39806832D01*
X53873401Y39825552D01*
X53861419Y39845543D01*
X53851454Y39866613D01*
X53843602Y39888557D01*
X53837938Y39911166D01*
X53834519Y39934221D01*
X53833375Y39957500D01*
X53833375Y40532500D01*
X53834519Y40555779D01*
X53837938Y40578834D01*
X53843602Y40601443D01*
X53851454Y40623387D01*
X53861419Y40644457D01*
X53873401Y40664448D01*
X53887285Y40683168D01*
X53902937Y40700438D01*
X53920207Y40716090D01*
X53938927Y40729974D01*
X53958918Y40741956D01*
X53979988Y40751921D01*
X54001932Y40759773D01*
X54024541Y40765437D01*
X54047596Y40768856D01*
X54070875Y40770000D01*
X54545875Y40770000D01*
X54569154Y40768856D01*
G37*
G36*
X59442779Y39018856D02*
G01*
X59465834Y39015437D01*
X59488443Y39009773D01*
X59510387Y39001921D01*
X59531457Y38991956D01*
X59551448Y38979974D01*
X59570168Y38966090D01*
X59587438Y38950438D01*
X59603090Y38933168D01*
X59616974Y38914448D01*
X59628956Y38894457D01*
X59638921Y38873387D01*
X59646773Y38851443D01*
X59652437Y38828834D01*
X59655856Y38805779D01*
X59657000Y38782500D01*
X59657000Y38207500D01*
X59655856Y38184221D01*
X59652437Y38161166D01*
X59646773Y38138557D01*
X59638921Y38116613D01*
X59628956Y38095543D01*
X59616974Y38075552D01*
X59603090Y38056832D01*
X59587438Y38039562D01*
X59570168Y38023910D01*
X59551448Y38010026D01*
X59531457Y37998044D01*
X59510387Y37988079D01*
X59488443Y37980227D01*
X59465834Y37974563D01*
X59442779Y37971144D01*
X59419500Y37970000D01*
X58944500Y37970000D01*
X58921221Y37971144D01*
X58898166Y37974563D01*
X58875557Y37980227D01*
X58853613Y37988079D01*
X58832543Y37998044D01*
X58812552Y38010026D01*
X58793832Y38023910D01*
X58776562Y38039562D01*
X58760910Y38056832D01*
X58747026Y38075552D01*
X58735044Y38095543D01*
X58725079Y38116613D01*
X58717227Y38138557D01*
X58711563Y38161166D01*
X58708144Y38184221D01*
X58707000Y38207500D01*
X58707000Y38782500D01*
X58708144Y38805779D01*
X58711563Y38828834D01*
X58717227Y38851443D01*
X58725079Y38873387D01*
X58735044Y38894457D01*
X58747026Y38914448D01*
X58760910Y38933168D01*
X58776562Y38950438D01*
X58793832Y38966090D01*
X58812552Y38979974D01*
X58832543Y38991956D01*
X58853613Y39001921D01*
X58875557Y39009773D01*
X58898166Y39015437D01*
X58921221Y39018856D01*
X58944500Y39020000D01*
X59419500Y39020000D01*
X59442779Y39018856D01*
G37*
G36*
X59442779Y40768856D02*
G01*
X59465834Y40765437D01*
X59488443Y40759773D01*
X59510387Y40751921D01*
X59531457Y40741956D01*
X59551448Y40729974D01*
X59570168Y40716090D01*
X59587438Y40700438D01*
X59603090Y40683168D01*
X59616974Y40664448D01*
X59628956Y40644457D01*
X59638921Y40623387D01*
X59646773Y40601443D01*
X59652437Y40578834D01*
X59655856Y40555779D01*
X59657000Y40532500D01*
X59657000Y39957500D01*
X59655856Y39934221D01*
X59652437Y39911166D01*
X59646773Y39888557D01*
X59638921Y39866613D01*
X59628956Y39845543D01*
X59616974Y39825552D01*
X59603090Y39806832D01*
X59587438Y39789562D01*
X59570168Y39773910D01*
X59551448Y39760026D01*
X59531457Y39748044D01*
X59510387Y39738079D01*
X59488443Y39730227D01*
X59465834Y39724563D01*
X59442779Y39721144D01*
X59419500Y39720000D01*
X58944500Y39720000D01*
X58921221Y39721144D01*
X58898166Y39724563D01*
X58875557Y39730227D01*
X58853613Y39738079D01*
X58832543Y39748044D01*
X58812552Y39760026D01*
X58793832Y39773910D01*
X58776562Y39789562D01*
X58760910Y39806832D01*
X58747026Y39825552D01*
X58735044Y39845543D01*
X58725079Y39866613D01*
X58717227Y39888557D01*
X58711563Y39911166D01*
X58708144Y39934221D01*
X58707000Y39957500D01*
X58707000Y40532500D01*
X58708144Y40555779D01*
X58711563Y40578834D01*
X58717227Y40601443D01*
X58725079Y40623387D01*
X58735044Y40644457D01*
X58747026Y40664448D01*
X58760910Y40683168D01*
X58776562Y40700438D01*
X58793832Y40716090D01*
X58812552Y40729974D01*
X58832543Y40741956D01*
X58853613Y40751921D01*
X58875557Y40759773D01*
X58898166Y40765437D01*
X58921221Y40768856D01*
X58944500Y40770000D01*
X59419500Y40770000D01*
X59442779Y40768856D01*
G37*
G36*
X64316404Y39018856D02*
G01*
X64339459Y39015437D01*
X64362068Y39009773D01*
X64384012Y39001921D01*
X64405082Y38991956D01*
X64425073Y38979974D01*
X64443793Y38966090D01*
X64461063Y38950438D01*
X64476715Y38933168D01*
X64490599Y38914448D01*
X64502581Y38894457D01*
X64512546Y38873387D01*
X64520398Y38851443D01*
X64526062Y38828834D01*
X64529481Y38805779D01*
X64530625Y38782500D01*
X64530625Y38207500D01*
X64529481Y38184221D01*
X64526062Y38161166D01*
X64520398Y38138557D01*
X64512546Y38116613D01*
X64502581Y38095543D01*
X64490599Y38075552D01*
X64476715Y38056832D01*
X64461063Y38039562D01*
X64443793Y38023910D01*
X64425073Y38010026D01*
X64405082Y37998044D01*
X64384012Y37988079D01*
X64362068Y37980227D01*
X64339459Y37974563D01*
X64316404Y37971144D01*
X64293125Y37970000D01*
X63818125Y37970000D01*
X63794846Y37971144D01*
X63771791Y37974563D01*
X63749182Y37980227D01*
X63727238Y37988079D01*
X63706168Y37998044D01*
X63686177Y38010026D01*
X63667457Y38023910D01*
X63650187Y38039562D01*
X63634535Y38056832D01*
X63620651Y38075552D01*
X63608669Y38095543D01*
X63598704Y38116613D01*
X63590852Y38138557D01*
X63585188Y38161166D01*
X63581769Y38184221D01*
X63580625Y38207500D01*
X63580625Y38782500D01*
X63581769Y38805779D01*
X63585188Y38828834D01*
X63590852Y38851443D01*
X63598704Y38873387D01*
X63608669Y38894457D01*
X63620651Y38914448D01*
X63634535Y38933168D01*
X63650187Y38950438D01*
X63667457Y38966090D01*
X63686177Y38979974D01*
X63706168Y38991956D01*
X63727238Y39001921D01*
X63749182Y39009773D01*
X63771791Y39015437D01*
X63794846Y39018856D01*
X63818125Y39020000D01*
X64293125Y39020000D01*
X64316404Y39018856D01*
G37*
G36*
X64316404Y40768856D02*
G01*
X64339459Y40765437D01*
X64362068Y40759773D01*
X64384012Y40751921D01*
X64405082Y40741956D01*
X64425073Y40729974D01*
X64443793Y40716090D01*
X64461063Y40700438D01*
X64476715Y40683168D01*
X64490599Y40664448D01*
X64502581Y40644457D01*
X64512546Y40623387D01*
X64520398Y40601443D01*
X64526062Y40578834D01*
X64529481Y40555779D01*
X64530625Y40532500D01*
X64530625Y39957500D01*
X64529481Y39934221D01*
X64526062Y39911166D01*
X64520398Y39888557D01*
X64512546Y39866613D01*
X64502581Y39845543D01*
X64490599Y39825552D01*
X64476715Y39806832D01*
X64461063Y39789562D01*
X64443793Y39773910D01*
X64425073Y39760026D01*
X64405082Y39748044D01*
X64384012Y39738079D01*
X64362068Y39730227D01*
X64339459Y39724563D01*
X64316404Y39721144D01*
X64293125Y39720000D01*
X63818125Y39720000D01*
X63794846Y39721144D01*
X63771791Y39724563D01*
X63749182Y39730227D01*
X63727238Y39738079D01*
X63706168Y39748044D01*
X63686177Y39760026D01*
X63667457Y39773910D01*
X63650187Y39789562D01*
X63634535Y39806832D01*
X63620651Y39825552D01*
X63608669Y39845543D01*
X63598704Y39866613D01*
X63590852Y39888557D01*
X63585188Y39911166D01*
X63581769Y39934221D01*
X63580625Y39957500D01*
X63580625Y40532500D01*
X63581769Y40555779D01*
X63585188Y40578834D01*
X63590852Y40601443D01*
X63598704Y40623387D01*
X63608669Y40644457D01*
X63620651Y40664448D01*
X63634535Y40683168D01*
X63650187Y40700438D01*
X63667457Y40716090D01*
X63686177Y40729974D01*
X63706168Y40741956D01*
X63727238Y40751921D01*
X63749182Y40759773D01*
X63771791Y40765437D01*
X63794846Y40768856D01*
X63818125Y40770000D01*
X64293125Y40770000D01*
X64316404Y40768856D01*
G37*
G36*
X69190029Y39018856D02*
G01*
X69213084Y39015437D01*
X69235693Y39009773D01*
X69257637Y39001921D01*
X69278707Y38991956D01*
X69298698Y38979974D01*
X69317418Y38966090D01*
X69334688Y38950438D01*
X69350340Y38933168D01*
X69364224Y38914448D01*
X69376206Y38894457D01*
X69386171Y38873387D01*
X69394023Y38851443D01*
X69399687Y38828834D01*
X69403106Y38805779D01*
X69404250Y38782500D01*
X69404250Y38207500D01*
X69403106Y38184221D01*
X69399687Y38161166D01*
X69394023Y38138557D01*
X69386171Y38116613D01*
X69376206Y38095543D01*
X69364224Y38075552D01*
X69350340Y38056832D01*
X69334688Y38039562D01*
X69317418Y38023910D01*
X69298698Y38010026D01*
X69278707Y37998044D01*
X69257637Y37988079D01*
X69235693Y37980227D01*
X69213084Y37974563D01*
X69190029Y37971144D01*
X69166750Y37970000D01*
X68691750Y37970000D01*
X68668471Y37971144D01*
X68645416Y37974563D01*
X68622807Y37980227D01*
X68600863Y37988079D01*
X68579793Y37998044D01*
X68559802Y38010026D01*
X68541082Y38023910D01*
X68523812Y38039562D01*
X68508160Y38056832D01*
X68494276Y38075552D01*
X68482294Y38095543D01*
X68472329Y38116613D01*
X68464477Y38138557D01*
X68458813Y38161166D01*
X68455394Y38184221D01*
X68454250Y38207500D01*
X68454250Y38782500D01*
X68455394Y38805779D01*
X68458813Y38828834D01*
X68464477Y38851443D01*
X68472329Y38873387D01*
X68482294Y38894457D01*
X68494276Y38914448D01*
X68508160Y38933168D01*
X68523812Y38950438D01*
X68541082Y38966090D01*
X68559802Y38979974D01*
X68579793Y38991956D01*
X68600863Y39001921D01*
X68622807Y39009773D01*
X68645416Y39015437D01*
X68668471Y39018856D01*
X68691750Y39020000D01*
X69166750Y39020000D01*
X69190029Y39018856D01*
G37*
G36*
X69190029Y40768856D02*
G01*
X69213084Y40765437D01*
X69235693Y40759773D01*
X69257637Y40751921D01*
X69278707Y40741956D01*
X69298698Y40729974D01*
X69317418Y40716090D01*
X69334688Y40700438D01*
X69350340Y40683168D01*
X69364224Y40664448D01*
X69376206Y40644457D01*
X69386171Y40623387D01*
X69394023Y40601443D01*
X69399687Y40578834D01*
X69403106Y40555779D01*
X69404250Y40532500D01*
X69404250Y39957500D01*
X69403106Y39934221D01*
X69399687Y39911166D01*
X69394023Y39888557D01*
X69386171Y39866613D01*
X69376206Y39845543D01*
X69364224Y39825552D01*
X69350340Y39806832D01*
X69334688Y39789562D01*
X69317418Y39773910D01*
X69298698Y39760026D01*
X69278707Y39748044D01*
X69257637Y39738079D01*
X69235693Y39730227D01*
X69213084Y39724563D01*
X69190029Y39721144D01*
X69166750Y39720000D01*
X68691750Y39720000D01*
X68668471Y39721144D01*
X68645416Y39724563D01*
X68622807Y39730227D01*
X68600863Y39738079D01*
X68579793Y39748044D01*
X68559802Y39760026D01*
X68541082Y39773910D01*
X68523812Y39789562D01*
X68508160Y39806832D01*
X68494276Y39825552D01*
X68482294Y39845543D01*
X68472329Y39866613D01*
X68464477Y39888557D01*
X68458813Y39911166D01*
X68455394Y39934221D01*
X68454250Y39957500D01*
X68454250Y40532500D01*
X68455394Y40555779D01*
X68458813Y40578834D01*
X68464477Y40601443D01*
X68472329Y40623387D01*
X68482294Y40644457D01*
X68494276Y40664448D01*
X68508160Y40683168D01*
X68523812Y40700438D01*
X68541082Y40716090D01*
X68559802Y40729974D01*
X68579793Y40741956D01*
X68600863Y40751921D01*
X68622807Y40759773D01*
X68645416Y40765437D01*
X68668471Y40768856D01*
X68691750Y40770000D01*
X69166750Y40770000D01*
X69190029Y40768856D01*
G37*
G36*
X74063654Y39018856D02*
G01*
X74086709Y39015437D01*
X74109318Y39009773D01*
X74131262Y39001921D01*
X74152332Y38991956D01*
X74172323Y38979974D01*
X74191043Y38966090D01*
X74208313Y38950438D01*
X74223965Y38933168D01*
X74237849Y38914448D01*
X74249831Y38894457D01*
X74259796Y38873387D01*
X74267648Y38851443D01*
X74273312Y38828834D01*
X74276731Y38805779D01*
X74277875Y38782500D01*
X74277875Y38207500D01*
X74276731Y38184221D01*
X74273312Y38161166D01*
X74267648Y38138557D01*
X74259796Y38116613D01*
X74249831Y38095543D01*
X74237849Y38075552D01*
X74223965Y38056832D01*
X74208313Y38039562D01*
X74191043Y38023910D01*
X74172323Y38010026D01*
X74152332Y37998044D01*
X74131262Y37988079D01*
X74109318Y37980227D01*
X74086709Y37974563D01*
X74063654Y37971144D01*
X74040375Y37970000D01*
X73565375Y37970000D01*
X73542096Y37971144D01*
X73519041Y37974563D01*
X73496432Y37980227D01*
X73474488Y37988079D01*
X73453418Y37998044D01*
X73433427Y38010026D01*
X73414707Y38023910D01*
X73397437Y38039562D01*
X73381785Y38056832D01*
X73367901Y38075552D01*
X73355919Y38095543D01*
X73345954Y38116613D01*
X73338102Y38138557D01*
X73332438Y38161166D01*
X73329019Y38184221D01*
X73327875Y38207500D01*
X73327875Y38782500D01*
X73329019Y38805779D01*
X73332438Y38828834D01*
X73338102Y38851443D01*
X73345954Y38873387D01*
X73355919Y38894457D01*
X73367901Y38914448D01*
X73381785Y38933168D01*
X73397437Y38950438D01*
X73414707Y38966090D01*
X73433427Y38979974D01*
X73453418Y38991956D01*
X73474488Y39001921D01*
X73496432Y39009773D01*
X73519041Y39015437D01*
X73542096Y39018856D01*
X73565375Y39020000D01*
X74040375Y39020000D01*
X74063654Y39018856D01*
G37*
G36*
X74063654Y40768856D02*
G01*
X74086709Y40765437D01*
X74109318Y40759773D01*
X74131262Y40751921D01*
X74152332Y40741956D01*
X74172323Y40729974D01*
X74191043Y40716090D01*
X74208313Y40700438D01*
X74223965Y40683168D01*
X74237849Y40664448D01*
X74249831Y40644457D01*
X74259796Y40623387D01*
X74267648Y40601443D01*
X74273312Y40578834D01*
X74276731Y40555779D01*
X74277875Y40532500D01*
X74277875Y39957500D01*
X74276731Y39934221D01*
X74273312Y39911166D01*
X74267648Y39888557D01*
X74259796Y39866613D01*
X74249831Y39845543D01*
X74237849Y39825552D01*
X74223965Y39806832D01*
X74208313Y39789562D01*
X74191043Y39773910D01*
X74172323Y39760026D01*
X74152332Y39748044D01*
X74131262Y39738079D01*
X74109318Y39730227D01*
X74086709Y39724563D01*
X74063654Y39721144D01*
X74040375Y39720000D01*
X73565375Y39720000D01*
X73542096Y39721144D01*
X73519041Y39724563D01*
X73496432Y39730227D01*
X73474488Y39738079D01*
X73453418Y39748044D01*
X73433427Y39760026D01*
X73414707Y39773910D01*
X73397437Y39789562D01*
X73381785Y39806832D01*
X73367901Y39825552D01*
X73355919Y39845543D01*
X73345954Y39866613D01*
X73338102Y39888557D01*
X73332438Y39911166D01*
X73329019Y39934221D01*
X73327875Y39957500D01*
X73327875Y40532500D01*
X73329019Y40555779D01*
X73332438Y40578834D01*
X73338102Y40601443D01*
X73345954Y40623387D01*
X73355919Y40644457D01*
X73367901Y40664448D01*
X73381785Y40683168D01*
X73397437Y40700438D01*
X73414707Y40716090D01*
X73433427Y40729974D01*
X73453418Y40741956D01*
X73474488Y40751921D01*
X73496432Y40759773D01*
X73519041Y40765437D01*
X73542096Y40768856D01*
X73565375Y40770000D01*
X74040375Y40770000D01*
X74063654Y40768856D01*
G37*
G36*
X78937279Y39018856D02*
G01*
X78960334Y39015437D01*
X78982943Y39009773D01*
X79004887Y39001921D01*
X79025957Y38991956D01*
X79045948Y38979974D01*
X79064668Y38966090D01*
X79081938Y38950438D01*
X79097590Y38933168D01*
X79111474Y38914448D01*
X79123456Y38894457D01*
X79133421Y38873387D01*
X79141273Y38851443D01*
X79146937Y38828834D01*
X79150356Y38805779D01*
X79151500Y38782500D01*
X79151500Y38207500D01*
X79150356Y38184221D01*
X79146937Y38161166D01*
X79141273Y38138557D01*
X79133421Y38116613D01*
X79123456Y38095543D01*
X79111474Y38075552D01*
X79097590Y38056832D01*
X79081938Y38039562D01*
X79064668Y38023910D01*
X79045948Y38010026D01*
X79025957Y37998044D01*
X79004887Y37988079D01*
X78982943Y37980227D01*
X78960334Y37974563D01*
X78937279Y37971144D01*
X78914000Y37970000D01*
X78439000Y37970000D01*
X78415721Y37971144D01*
X78392666Y37974563D01*
X78370057Y37980227D01*
X78348113Y37988079D01*
X78327043Y37998044D01*
X78307052Y38010026D01*
X78288332Y38023910D01*
X78271062Y38039562D01*
X78255410Y38056832D01*
X78241526Y38075552D01*
X78229544Y38095543D01*
X78219579Y38116613D01*
X78211727Y38138557D01*
X78206063Y38161166D01*
X78202644Y38184221D01*
X78201500Y38207500D01*
X78201500Y38782500D01*
X78202644Y38805779D01*
X78206063Y38828834D01*
X78211727Y38851443D01*
X78219579Y38873387D01*
X78229544Y38894457D01*
X78241526Y38914448D01*
X78255410Y38933168D01*
X78271062Y38950438D01*
X78288332Y38966090D01*
X78307052Y38979974D01*
X78327043Y38991956D01*
X78348113Y39001921D01*
X78370057Y39009773D01*
X78392666Y39015437D01*
X78415721Y39018856D01*
X78439000Y39020000D01*
X78914000Y39020000D01*
X78937279Y39018856D01*
G37*
G36*
X78937279Y40768856D02*
G01*
X78960334Y40765437D01*
X78982943Y40759773D01*
X79004887Y40751921D01*
X79025957Y40741956D01*
X79045948Y40729974D01*
X79064668Y40716090D01*
X79081938Y40700438D01*
X79097590Y40683168D01*
X79111474Y40664448D01*
X79123456Y40644457D01*
X79133421Y40623387D01*
X79141273Y40601443D01*
X79146937Y40578834D01*
X79150356Y40555779D01*
X79151500Y40532500D01*
X79151500Y39957500D01*
X79150356Y39934221D01*
X79146937Y39911166D01*
X79141273Y39888557D01*
X79133421Y39866613D01*
X79123456Y39845543D01*
X79111474Y39825552D01*
X79097590Y39806832D01*
X79081938Y39789562D01*
X79064668Y39773910D01*
X79045948Y39760026D01*
X79025957Y39748044D01*
X79004887Y39738079D01*
X78982943Y39730227D01*
X78960334Y39724563D01*
X78937279Y39721144D01*
X78914000Y39720000D01*
X78439000Y39720000D01*
X78415721Y39721144D01*
X78392666Y39724563D01*
X78370057Y39730227D01*
X78348113Y39738079D01*
X78327043Y39748044D01*
X78307052Y39760026D01*
X78288332Y39773910D01*
X78271062Y39789562D01*
X78255410Y39806832D01*
X78241526Y39825552D01*
X78229544Y39845543D01*
X78219579Y39866613D01*
X78211727Y39888557D01*
X78206063Y39911166D01*
X78202644Y39934221D01*
X78201500Y39957500D01*
X78201500Y40532500D01*
X78202644Y40555779D01*
X78206063Y40578834D01*
X78211727Y40601443D01*
X78219579Y40623387D01*
X78229544Y40644457D01*
X78241526Y40664448D01*
X78255410Y40683168D01*
X78271062Y40700438D01*
X78288332Y40716090D01*
X78307052Y40729974D01*
X78327043Y40741956D01*
X78348113Y40751921D01*
X78370057Y40759773D01*
X78392666Y40765437D01*
X78415721Y40768856D01*
X78439000Y40770000D01*
X78914000Y40770000D01*
X78937279Y40768856D01*
G37*
G36*
X83810904Y39018856D02*
G01*
X83833959Y39015437D01*
X83856568Y39009773D01*
X83878512Y39001921D01*
X83899582Y38991956D01*
X83919573Y38979974D01*
X83938293Y38966090D01*
X83955563Y38950438D01*
X83971215Y38933168D01*
X83985099Y38914448D01*
X83997081Y38894457D01*
X84007046Y38873387D01*
X84014898Y38851443D01*
X84020562Y38828834D01*
X84023981Y38805779D01*
X84025125Y38782500D01*
X84025125Y38207500D01*
X84023981Y38184221D01*
X84020562Y38161166D01*
X84014898Y38138557D01*
X84007046Y38116613D01*
X83997081Y38095543D01*
X83985099Y38075552D01*
X83971215Y38056832D01*
X83955563Y38039562D01*
X83938293Y38023910D01*
X83919573Y38010026D01*
X83899582Y37998044D01*
X83878512Y37988079D01*
X83856568Y37980227D01*
X83833959Y37974563D01*
X83810904Y37971144D01*
X83787625Y37970000D01*
X83312625Y37970000D01*
X83289346Y37971144D01*
X83266291Y37974563D01*
X83243682Y37980227D01*
X83221738Y37988079D01*
X83200668Y37998044D01*
X83180677Y38010026D01*
X83161957Y38023910D01*
X83144687Y38039562D01*
X83129035Y38056832D01*
X83115151Y38075552D01*
X83103169Y38095543D01*
X83093204Y38116613D01*
X83085352Y38138557D01*
X83079688Y38161166D01*
X83076269Y38184221D01*
X83075125Y38207500D01*
X83075125Y38782500D01*
X83076269Y38805779D01*
X83079688Y38828834D01*
X83085352Y38851443D01*
X83093204Y38873387D01*
X83103169Y38894457D01*
X83115151Y38914448D01*
X83129035Y38933168D01*
X83144687Y38950438D01*
X83161957Y38966090D01*
X83180677Y38979974D01*
X83200668Y38991956D01*
X83221738Y39001921D01*
X83243682Y39009773D01*
X83266291Y39015437D01*
X83289346Y39018856D01*
X83312625Y39020000D01*
X83787625Y39020000D01*
X83810904Y39018856D01*
G37*
G36*
X83810904Y40768856D02*
G01*
X83833959Y40765437D01*
X83856568Y40759773D01*
X83878512Y40751921D01*
X83899582Y40741956D01*
X83919573Y40729974D01*
X83938293Y40716090D01*
X83955563Y40700438D01*
X83971215Y40683168D01*
X83985099Y40664448D01*
X83997081Y40644457D01*
X84007046Y40623387D01*
X84014898Y40601443D01*
X84020562Y40578834D01*
X84023981Y40555779D01*
X84025125Y40532500D01*
X84025125Y39957500D01*
X84023981Y39934221D01*
X84020562Y39911166D01*
X84014898Y39888557D01*
X84007046Y39866613D01*
X83997081Y39845543D01*
X83985099Y39825552D01*
X83971215Y39806832D01*
X83955563Y39789562D01*
X83938293Y39773910D01*
X83919573Y39760026D01*
X83899582Y39748044D01*
X83878512Y39738079D01*
X83856568Y39730227D01*
X83833959Y39724563D01*
X83810904Y39721144D01*
X83787625Y39720000D01*
X83312625Y39720000D01*
X83289346Y39721144D01*
X83266291Y39724563D01*
X83243682Y39730227D01*
X83221738Y39738079D01*
X83200668Y39748044D01*
X83180677Y39760026D01*
X83161957Y39773910D01*
X83144687Y39789562D01*
X83129035Y39806832D01*
X83115151Y39825552D01*
X83103169Y39845543D01*
X83093204Y39866613D01*
X83085352Y39888557D01*
X83079688Y39911166D01*
X83076269Y39934221D01*
X83075125Y39957500D01*
X83075125Y40532500D01*
X83076269Y40555779D01*
X83079688Y40578834D01*
X83085352Y40601443D01*
X83093204Y40623387D01*
X83103169Y40644457D01*
X83115151Y40664448D01*
X83129035Y40683168D01*
X83144687Y40700438D01*
X83161957Y40716090D01*
X83180677Y40729974D01*
X83200668Y40741956D01*
X83221738Y40751921D01*
X83243682Y40759773D01*
X83266291Y40765437D01*
X83289346Y40768856D01*
X83312625Y40770000D01*
X83787625Y40770000D01*
X83810904Y40768856D01*
G37*
G36*
X88684529Y39018856D02*
G01*
X88707584Y39015437D01*
X88730193Y39009773D01*
X88752137Y39001921D01*
X88773207Y38991956D01*
X88793198Y38979974D01*
X88811918Y38966090D01*
X88829188Y38950438D01*
X88844840Y38933168D01*
X88858724Y38914448D01*
X88870706Y38894457D01*
X88880671Y38873387D01*
X88888523Y38851443D01*
X88894187Y38828834D01*
X88897606Y38805779D01*
X88898750Y38782500D01*
X88898750Y38207500D01*
X88897606Y38184221D01*
X88894187Y38161166D01*
X88888523Y38138557D01*
X88880671Y38116613D01*
X88870706Y38095543D01*
X88858724Y38075552D01*
X88844840Y38056832D01*
X88829188Y38039562D01*
X88811918Y38023910D01*
X88793198Y38010026D01*
X88773207Y37998044D01*
X88752137Y37988079D01*
X88730193Y37980227D01*
X88707584Y37974563D01*
X88684529Y37971144D01*
X88661250Y37970000D01*
X88186250Y37970000D01*
X88162971Y37971144D01*
X88139916Y37974563D01*
X88117307Y37980227D01*
X88095363Y37988079D01*
X88074293Y37998044D01*
X88054302Y38010026D01*
X88035582Y38023910D01*
X88018312Y38039562D01*
X88002660Y38056832D01*
X87988776Y38075552D01*
X87976794Y38095543D01*
X87966829Y38116613D01*
X87958977Y38138557D01*
X87953313Y38161166D01*
X87949894Y38184221D01*
X87948750Y38207500D01*
X87948750Y38782500D01*
X87949894Y38805779D01*
X87953313Y38828834D01*
X87958977Y38851443D01*
X87966829Y38873387D01*
X87976794Y38894457D01*
X87988776Y38914448D01*
X88002660Y38933168D01*
X88018312Y38950438D01*
X88035582Y38966090D01*
X88054302Y38979974D01*
X88074293Y38991956D01*
X88095363Y39001921D01*
X88117307Y39009773D01*
X88139916Y39015437D01*
X88162971Y39018856D01*
X88186250Y39020000D01*
X88661250Y39020000D01*
X88684529Y39018856D01*
G37*
G36*
X88684529Y40768856D02*
G01*
X88707584Y40765437D01*
X88730193Y40759773D01*
X88752137Y40751921D01*
X88773207Y40741956D01*
X88793198Y40729974D01*
X88811918Y40716090D01*
X88829188Y40700438D01*
X88844840Y40683168D01*
X88858724Y40664448D01*
X88870706Y40644457D01*
X88880671Y40623387D01*
X88888523Y40601443D01*
X88894187Y40578834D01*
X88897606Y40555779D01*
X88898750Y40532500D01*
X88898750Y39957500D01*
X88897606Y39934221D01*
X88894187Y39911166D01*
X88888523Y39888557D01*
X88880671Y39866613D01*
X88870706Y39845543D01*
X88858724Y39825552D01*
X88844840Y39806832D01*
X88829188Y39789562D01*
X88811918Y39773910D01*
X88793198Y39760026D01*
X88773207Y39748044D01*
X88752137Y39738079D01*
X88730193Y39730227D01*
X88707584Y39724563D01*
X88684529Y39721144D01*
X88661250Y39720000D01*
X88186250Y39720000D01*
X88162971Y39721144D01*
X88139916Y39724563D01*
X88117307Y39730227D01*
X88095363Y39738079D01*
X88074293Y39748044D01*
X88054302Y39760026D01*
X88035582Y39773910D01*
X88018312Y39789562D01*
X88002660Y39806832D01*
X87988776Y39825552D01*
X87976794Y39845543D01*
X87966829Y39866613D01*
X87958977Y39888557D01*
X87953313Y39911166D01*
X87949894Y39934221D01*
X87948750Y39957500D01*
X87948750Y40532500D01*
X87949894Y40555779D01*
X87953313Y40578834D01*
X87958977Y40601443D01*
X87966829Y40623387D01*
X87976794Y40644457D01*
X87988776Y40664448D01*
X88002660Y40683168D01*
X88018312Y40700438D01*
X88035582Y40716090D01*
X88054302Y40729974D01*
X88074293Y40741956D01*
X88095363Y40751921D01*
X88117307Y40759773D01*
X88139916Y40765437D01*
X88162971Y40768856D01*
X88186250Y40770000D01*
X88661250Y40770000D01*
X88684529Y40768856D01*
G37*
G36*
X93558154Y39018856D02*
G01*
X93581209Y39015437D01*
X93603818Y39009773D01*
X93625762Y39001921D01*
X93646832Y38991956D01*
X93666823Y38979974D01*
X93685543Y38966090D01*
X93702813Y38950438D01*
X93718465Y38933168D01*
X93732349Y38914448D01*
X93744331Y38894457D01*
X93754296Y38873387D01*
X93762148Y38851443D01*
X93767812Y38828834D01*
X93771231Y38805779D01*
X93772375Y38782500D01*
X93772375Y38207500D01*
X93771231Y38184221D01*
X93767812Y38161166D01*
X93762148Y38138557D01*
X93754296Y38116613D01*
X93744331Y38095543D01*
X93732349Y38075552D01*
X93718465Y38056832D01*
X93702813Y38039562D01*
X93685543Y38023910D01*
X93666823Y38010026D01*
X93646832Y37998044D01*
X93625762Y37988079D01*
X93603818Y37980227D01*
X93581209Y37974563D01*
X93558154Y37971144D01*
X93534875Y37970000D01*
X93059875Y37970000D01*
X93036596Y37971144D01*
X93013541Y37974563D01*
X92990932Y37980227D01*
X92968988Y37988079D01*
X92947918Y37998044D01*
X92927927Y38010026D01*
X92909207Y38023910D01*
X92891937Y38039562D01*
X92876285Y38056832D01*
X92862401Y38075552D01*
X92850419Y38095543D01*
X92840454Y38116613D01*
X92832602Y38138557D01*
X92826938Y38161166D01*
X92823519Y38184221D01*
X92822375Y38207500D01*
X92822375Y38782500D01*
X92823519Y38805779D01*
X92826938Y38828834D01*
X92832602Y38851443D01*
X92840454Y38873387D01*
X92850419Y38894457D01*
X92862401Y38914448D01*
X92876285Y38933168D01*
X92891937Y38950438D01*
X92909207Y38966090D01*
X92927927Y38979974D01*
X92947918Y38991956D01*
X92968988Y39001921D01*
X92990932Y39009773D01*
X93013541Y39015437D01*
X93036596Y39018856D01*
X93059875Y39020000D01*
X93534875Y39020000D01*
X93558154Y39018856D01*
G37*
G36*
X93558154Y40768856D02*
G01*
X93581209Y40765437D01*
X93603818Y40759773D01*
X93625762Y40751921D01*
X93646832Y40741956D01*
X93666823Y40729974D01*
X93685543Y40716090D01*
X93702813Y40700438D01*
X93718465Y40683168D01*
X93732349Y40664448D01*
X93744331Y40644457D01*
X93754296Y40623387D01*
X93762148Y40601443D01*
X93767812Y40578834D01*
X93771231Y40555779D01*
X93772375Y40532500D01*
X93772375Y39957500D01*
X93771231Y39934221D01*
X93767812Y39911166D01*
X93762148Y39888557D01*
X93754296Y39866613D01*
X93744331Y39845543D01*
X93732349Y39825552D01*
X93718465Y39806832D01*
X93702813Y39789562D01*
X93685543Y39773910D01*
X93666823Y39760026D01*
X93646832Y39748044D01*
X93625762Y39738079D01*
X93603818Y39730227D01*
X93581209Y39724563D01*
X93558154Y39721144D01*
X93534875Y39720000D01*
X93059875Y39720000D01*
X93036596Y39721144D01*
X93013541Y39724563D01*
X92990932Y39730227D01*
X92968988Y39738079D01*
X92947918Y39748044D01*
X92927927Y39760026D01*
X92909207Y39773910D01*
X92891937Y39789562D01*
X92876285Y39806832D01*
X92862401Y39825552D01*
X92850419Y39845543D01*
X92840454Y39866613D01*
X92832602Y39888557D01*
X92826938Y39911166D01*
X92823519Y39934221D01*
X92822375Y39957500D01*
X92822375Y40532500D01*
X92823519Y40555779D01*
X92826938Y40578834D01*
X92832602Y40601443D01*
X92840454Y40623387D01*
X92850419Y40644457D01*
X92862401Y40664448D01*
X92876285Y40683168D01*
X92891937Y40700438D01*
X92909207Y40716090D01*
X92927927Y40729974D01*
X92947918Y40741956D01*
X92968988Y40751921D01*
X92990932Y40759773D01*
X93013541Y40765437D01*
X93036596Y40768856D01*
X93059875Y40770000D01*
X93534875Y40770000D01*
X93558154Y40768856D01*
G37*
G36*
X39948279Y37325856D02*
G01*
X39971334Y37322437D01*
X39993943Y37316773D01*
X40015887Y37308921D01*
X40036957Y37298956D01*
X40056948Y37286974D01*
X40075668Y37273090D01*
X40092938Y37257438D01*
X40108590Y37240168D01*
X40122474Y37221448D01*
X40134456Y37201457D01*
X40144421Y37180387D01*
X40152273Y37158443D01*
X40157937Y37135834D01*
X40161356Y37112779D01*
X40162500Y37089500D01*
X40162500Y36514500D01*
X40161356Y36491221D01*
X40157937Y36468166D01*
X40152273Y36445557D01*
X40144421Y36423613D01*
X40134456Y36402543D01*
X40122474Y36382552D01*
X40108590Y36363832D01*
X40092938Y36346562D01*
X40075668Y36330910D01*
X40056948Y36317026D01*
X40036957Y36305044D01*
X40015887Y36295079D01*
X39993943Y36287227D01*
X39971334Y36281563D01*
X39948279Y36278144D01*
X39925000Y36277000D01*
X39450000Y36277000D01*
X39426721Y36278144D01*
X39403666Y36281563D01*
X39381057Y36287227D01*
X39359113Y36295079D01*
X39338043Y36305044D01*
X39318052Y36317026D01*
X39299332Y36330910D01*
X39282062Y36346562D01*
X39266410Y36363832D01*
X39252526Y36382552D01*
X39240544Y36402543D01*
X39230579Y36423613D01*
X39222727Y36445557D01*
X39217063Y36468166D01*
X39213644Y36491221D01*
X39212500Y36514500D01*
X39212500Y37089500D01*
X39213644Y37112779D01*
X39217063Y37135834D01*
X39222727Y37158443D01*
X39230579Y37180387D01*
X39240544Y37201457D01*
X39252526Y37221448D01*
X39266410Y37240168D01*
X39282062Y37257438D01*
X39299332Y37273090D01*
X39318052Y37286974D01*
X39338043Y37298956D01*
X39359113Y37308921D01*
X39381057Y37316773D01*
X39403666Y37322437D01*
X39426721Y37325856D01*
X39450000Y37327000D01*
X39925000Y37327000D01*
X39948279Y37325856D01*
G37*
G36*
X39948279Y35575856D02*
G01*
X39971334Y35572437D01*
X39993943Y35566773D01*
X40015887Y35558921D01*
X40036957Y35548956D01*
X40056948Y35536974D01*
X40075668Y35523090D01*
X40092938Y35507438D01*
X40108590Y35490168D01*
X40122474Y35471448D01*
X40134456Y35451457D01*
X40144421Y35430387D01*
X40152273Y35408443D01*
X40157937Y35385834D01*
X40161356Y35362779D01*
X40162500Y35339500D01*
X40162500Y34764500D01*
X40161356Y34741221D01*
X40157937Y34718166D01*
X40152273Y34695557D01*
X40144421Y34673613D01*
X40134456Y34652543D01*
X40122474Y34632552D01*
X40108590Y34613832D01*
X40092938Y34596562D01*
X40075668Y34580910D01*
X40056948Y34567026D01*
X40036957Y34555044D01*
X40015887Y34545079D01*
X39993943Y34537227D01*
X39971334Y34531563D01*
X39948279Y34528144D01*
X39925000Y34527000D01*
X39450000Y34527000D01*
X39426721Y34528144D01*
X39403666Y34531563D01*
X39381057Y34537227D01*
X39359113Y34545079D01*
X39338043Y34555044D01*
X39318052Y34567026D01*
X39299332Y34580910D01*
X39282062Y34596562D01*
X39266410Y34613832D01*
X39252526Y34632552D01*
X39240544Y34652543D01*
X39230579Y34673613D01*
X39222727Y34695557D01*
X39217063Y34718166D01*
X39213644Y34741221D01*
X39212500Y34764500D01*
X39212500Y35339500D01*
X39213644Y35362779D01*
X39217063Y35385834D01*
X39222727Y35408443D01*
X39230579Y35430387D01*
X39240544Y35451457D01*
X39252526Y35471448D01*
X39266410Y35490168D01*
X39282062Y35507438D01*
X39299332Y35523090D01*
X39318052Y35536974D01*
X39338043Y35548956D01*
X39359113Y35558921D01*
X39381057Y35566773D01*
X39403666Y35572437D01*
X39426721Y35575856D01*
X39450000Y35577000D01*
X39925000Y35577000D01*
X39948279Y35575856D01*
G37*
G36*
X44821904Y37370856D02*
G01*
X44844959Y37367437D01*
X44867568Y37361773D01*
X44889512Y37353921D01*
X44910582Y37343956D01*
X44930573Y37331974D01*
X44949293Y37318090D01*
X44966563Y37302438D01*
X44982215Y37285168D01*
X44996099Y37266448D01*
X45008081Y37246457D01*
X45018046Y37225387D01*
X45025898Y37203443D01*
X45031562Y37180834D01*
X45034981Y37157779D01*
X45036125Y37134500D01*
X45036125Y36559500D01*
X45034981Y36536221D01*
X45031562Y36513166D01*
X45025898Y36490557D01*
X45018046Y36468613D01*
X45008081Y36447543D01*
X44996099Y36427552D01*
X44982215Y36408832D01*
X44966563Y36391562D01*
X44949293Y36375910D01*
X44930573Y36362026D01*
X44910582Y36350044D01*
X44889512Y36340079D01*
X44867568Y36332227D01*
X44844959Y36326563D01*
X44821904Y36323144D01*
X44798625Y36322000D01*
X44323625Y36322000D01*
X44300346Y36323144D01*
X44277291Y36326563D01*
X44254682Y36332227D01*
X44232738Y36340079D01*
X44211668Y36350044D01*
X44191677Y36362026D01*
X44172957Y36375910D01*
X44155687Y36391562D01*
X44140035Y36408832D01*
X44126151Y36427552D01*
X44114169Y36447543D01*
X44104204Y36468613D01*
X44096352Y36490557D01*
X44090688Y36513166D01*
X44087269Y36536221D01*
X44086125Y36559500D01*
X44086125Y37134500D01*
X44087269Y37157779D01*
X44090688Y37180834D01*
X44096352Y37203443D01*
X44104204Y37225387D01*
X44114169Y37246457D01*
X44126151Y37266448D01*
X44140035Y37285168D01*
X44155687Y37302438D01*
X44172957Y37318090D01*
X44191677Y37331974D01*
X44211668Y37343956D01*
X44232738Y37353921D01*
X44254682Y37361773D01*
X44277291Y37367437D01*
X44300346Y37370856D01*
X44323625Y37372000D01*
X44798625Y37372000D01*
X44821904Y37370856D01*
G37*
G36*
X44821904Y35620856D02*
G01*
X44844959Y35617437D01*
X44867568Y35611773D01*
X44889512Y35603921D01*
X44910582Y35593956D01*
X44930573Y35581974D01*
X44949293Y35568090D01*
X44966563Y35552438D01*
X44982215Y35535168D01*
X44996099Y35516448D01*
X45008081Y35496457D01*
X45018046Y35475387D01*
X45025898Y35453443D01*
X45031562Y35430834D01*
X45034981Y35407779D01*
X45036125Y35384500D01*
X45036125Y34809500D01*
X45034981Y34786221D01*
X45031562Y34763166D01*
X45025898Y34740557D01*
X45018046Y34718613D01*
X45008081Y34697543D01*
X44996099Y34677552D01*
X44982215Y34658832D01*
X44966563Y34641562D01*
X44949293Y34625910D01*
X44930573Y34612026D01*
X44910582Y34600044D01*
X44889512Y34590079D01*
X44867568Y34582227D01*
X44844959Y34576563D01*
X44821904Y34573144D01*
X44798625Y34572000D01*
X44323625Y34572000D01*
X44300346Y34573144D01*
X44277291Y34576563D01*
X44254682Y34582227D01*
X44232738Y34590079D01*
X44211668Y34600044D01*
X44191677Y34612026D01*
X44172957Y34625910D01*
X44155687Y34641562D01*
X44140035Y34658832D01*
X44126151Y34677552D01*
X44114169Y34697543D01*
X44104204Y34718613D01*
X44096352Y34740557D01*
X44090688Y34763166D01*
X44087269Y34786221D01*
X44086125Y34809500D01*
X44086125Y35384500D01*
X44087269Y35407779D01*
X44090688Y35430834D01*
X44096352Y35453443D01*
X44104204Y35475387D01*
X44114169Y35496457D01*
X44126151Y35516448D01*
X44140035Y35535168D01*
X44155687Y35552438D01*
X44172957Y35568090D01*
X44191677Y35581974D01*
X44211668Y35593956D01*
X44232738Y35603921D01*
X44254682Y35611773D01*
X44277291Y35617437D01*
X44300346Y35620856D01*
X44323625Y35622000D01*
X44798625Y35622000D01*
X44821904Y35620856D01*
G37*
G36*
X49695529Y37370856D02*
G01*
X49718584Y37367437D01*
X49741193Y37361773D01*
X49763137Y37353921D01*
X49784207Y37343956D01*
X49804198Y37331974D01*
X49822918Y37318090D01*
X49840188Y37302438D01*
X49855840Y37285168D01*
X49869724Y37266448D01*
X49881706Y37246457D01*
X49891671Y37225387D01*
X49899523Y37203443D01*
X49905187Y37180834D01*
X49908606Y37157779D01*
X49909750Y37134500D01*
X49909750Y36559500D01*
X49908606Y36536221D01*
X49905187Y36513166D01*
X49899523Y36490557D01*
X49891671Y36468613D01*
X49881706Y36447543D01*
X49869724Y36427552D01*
X49855840Y36408832D01*
X49840188Y36391562D01*
X49822918Y36375910D01*
X49804198Y36362026D01*
X49784207Y36350044D01*
X49763137Y36340079D01*
X49741193Y36332227D01*
X49718584Y36326563D01*
X49695529Y36323144D01*
X49672250Y36322000D01*
X49197250Y36322000D01*
X49173971Y36323144D01*
X49150916Y36326563D01*
X49128307Y36332227D01*
X49106363Y36340079D01*
X49085293Y36350044D01*
X49065302Y36362026D01*
X49046582Y36375910D01*
X49029312Y36391562D01*
X49013660Y36408832D01*
X48999776Y36427552D01*
X48987794Y36447543D01*
X48977829Y36468613D01*
X48969977Y36490557D01*
X48964313Y36513166D01*
X48960894Y36536221D01*
X48959750Y36559500D01*
X48959750Y37134500D01*
X48960894Y37157779D01*
X48964313Y37180834D01*
X48969977Y37203443D01*
X48977829Y37225387D01*
X48987794Y37246457D01*
X48999776Y37266448D01*
X49013660Y37285168D01*
X49029312Y37302438D01*
X49046582Y37318090D01*
X49065302Y37331974D01*
X49085293Y37343956D01*
X49106363Y37353921D01*
X49128307Y37361773D01*
X49150916Y37367437D01*
X49173971Y37370856D01*
X49197250Y37372000D01*
X49672250Y37372000D01*
X49695529Y37370856D01*
G37*
G36*
X49695529Y35620856D02*
G01*
X49718584Y35617437D01*
X49741193Y35611773D01*
X49763137Y35603921D01*
X49784207Y35593956D01*
X49804198Y35581974D01*
X49822918Y35568090D01*
X49840188Y35552438D01*
X49855840Y35535168D01*
X49869724Y35516448D01*
X49881706Y35496457D01*
X49891671Y35475387D01*
X49899523Y35453443D01*
X49905187Y35430834D01*
X49908606Y35407779D01*
X49909750Y35384500D01*
X49909750Y34809500D01*
X49908606Y34786221D01*
X49905187Y34763166D01*
X49899523Y34740557D01*
X49891671Y34718613D01*
X49881706Y34697543D01*
X49869724Y34677552D01*
X49855840Y34658832D01*
X49840188Y34641562D01*
X49822918Y34625910D01*
X49804198Y34612026D01*
X49784207Y34600044D01*
X49763137Y34590079D01*
X49741193Y34582227D01*
X49718584Y34576563D01*
X49695529Y34573144D01*
X49672250Y34572000D01*
X49197250Y34572000D01*
X49173971Y34573144D01*
X49150916Y34576563D01*
X49128307Y34582227D01*
X49106363Y34590079D01*
X49085293Y34600044D01*
X49065302Y34612026D01*
X49046582Y34625910D01*
X49029312Y34641562D01*
X49013660Y34658832D01*
X48999776Y34677552D01*
X48987794Y34697543D01*
X48977829Y34718613D01*
X48969977Y34740557D01*
X48964313Y34763166D01*
X48960894Y34786221D01*
X48959750Y34809500D01*
X48959750Y35384500D01*
X48960894Y35407779D01*
X48964313Y35430834D01*
X48969977Y35453443D01*
X48977829Y35475387D01*
X48987794Y35496457D01*
X48999776Y35516448D01*
X49013660Y35535168D01*
X49029312Y35552438D01*
X49046582Y35568090D01*
X49065302Y35581974D01*
X49085293Y35593956D01*
X49106363Y35603921D01*
X49128307Y35611773D01*
X49150916Y35617437D01*
X49173971Y35620856D01*
X49197250Y35622000D01*
X49672250Y35622000D01*
X49695529Y35620856D01*
G37*
G36*
X54569154Y37370856D02*
G01*
X54592209Y37367437D01*
X54614818Y37361773D01*
X54636762Y37353921D01*
X54657832Y37343956D01*
X54677823Y37331974D01*
X54696543Y37318090D01*
X54713813Y37302438D01*
X54729465Y37285168D01*
X54743349Y37266448D01*
X54755331Y37246457D01*
X54765296Y37225387D01*
X54773148Y37203443D01*
X54778812Y37180834D01*
X54782231Y37157779D01*
X54783375Y37134500D01*
X54783375Y36559500D01*
X54782231Y36536221D01*
X54778812Y36513166D01*
X54773148Y36490557D01*
X54765296Y36468613D01*
X54755331Y36447543D01*
X54743349Y36427552D01*
X54729465Y36408832D01*
X54713813Y36391562D01*
X54696543Y36375910D01*
X54677823Y36362026D01*
X54657832Y36350044D01*
X54636762Y36340079D01*
X54614818Y36332227D01*
X54592209Y36326563D01*
X54569154Y36323144D01*
X54545875Y36322000D01*
X54070875Y36322000D01*
X54047596Y36323144D01*
X54024541Y36326563D01*
X54001932Y36332227D01*
X53979988Y36340079D01*
X53958918Y36350044D01*
X53938927Y36362026D01*
X53920207Y36375910D01*
X53902937Y36391562D01*
X53887285Y36408832D01*
X53873401Y36427552D01*
X53861419Y36447543D01*
X53851454Y36468613D01*
X53843602Y36490557D01*
X53837938Y36513166D01*
X53834519Y36536221D01*
X53833375Y36559500D01*
X53833375Y37134500D01*
X53834519Y37157779D01*
X53837938Y37180834D01*
X53843602Y37203443D01*
X53851454Y37225387D01*
X53861419Y37246457D01*
X53873401Y37266448D01*
X53887285Y37285168D01*
X53902937Y37302438D01*
X53920207Y37318090D01*
X53938927Y37331974D01*
X53958918Y37343956D01*
X53979988Y37353921D01*
X54001932Y37361773D01*
X54024541Y37367437D01*
X54047596Y37370856D01*
X54070875Y37372000D01*
X54545875Y37372000D01*
X54569154Y37370856D01*
G37*
G36*
X54569154Y35620856D02*
G01*
X54592209Y35617437D01*
X54614818Y35611773D01*
X54636762Y35603921D01*
X54657832Y35593956D01*
X54677823Y35581974D01*
X54696543Y35568090D01*
X54713813Y35552438D01*
X54729465Y35535168D01*
X54743349Y35516448D01*
X54755331Y35496457D01*
X54765296Y35475387D01*
X54773148Y35453443D01*
X54778812Y35430834D01*
X54782231Y35407779D01*
X54783375Y35384500D01*
X54783375Y34809500D01*
X54782231Y34786221D01*
X54778812Y34763166D01*
X54773148Y34740557D01*
X54765296Y34718613D01*
X54755331Y34697543D01*
X54743349Y34677552D01*
X54729465Y34658832D01*
X54713813Y34641562D01*
X54696543Y34625910D01*
X54677823Y34612026D01*
X54657832Y34600044D01*
X54636762Y34590079D01*
X54614818Y34582227D01*
X54592209Y34576563D01*
X54569154Y34573144D01*
X54545875Y34572000D01*
X54070875Y34572000D01*
X54047596Y34573144D01*
X54024541Y34576563D01*
X54001932Y34582227D01*
X53979988Y34590079D01*
X53958918Y34600044D01*
X53938927Y34612026D01*
X53920207Y34625910D01*
X53902937Y34641562D01*
X53887285Y34658832D01*
X53873401Y34677552D01*
X53861419Y34697543D01*
X53851454Y34718613D01*
X53843602Y34740557D01*
X53837938Y34763166D01*
X53834519Y34786221D01*
X53833375Y34809500D01*
X53833375Y35384500D01*
X53834519Y35407779D01*
X53837938Y35430834D01*
X53843602Y35453443D01*
X53851454Y35475387D01*
X53861419Y35496457D01*
X53873401Y35516448D01*
X53887285Y35535168D01*
X53902937Y35552438D01*
X53920207Y35568090D01*
X53938927Y35581974D01*
X53958918Y35593956D01*
X53979988Y35603921D01*
X54001932Y35611773D01*
X54024541Y35617437D01*
X54047596Y35620856D01*
X54070875Y35622000D01*
X54545875Y35622000D01*
X54569154Y35620856D01*
G37*
G36*
X59442779Y37370856D02*
G01*
X59465834Y37367437D01*
X59488443Y37361773D01*
X59510387Y37353921D01*
X59531457Y37343956D01*
X59551448Y37331974D01*
X59570168Y37318090D01*
X59587438Y37302438D01*
X59603090Y37285168D01*
X59616974Y37266448D01*
X59628956Y37246457D01*
X59638921Y37225387D01*
X59646773Y37203443D01*
X59652437Y37180834D01*
X59655856Y37157779D01*
X59657000Y37134500D01*
X59657000Y36559500D01*
X59655856Y36536221D01*
X59652437Y36513166D01*
X59646773Y36490557D01*
X59638921Y36468613D01*
X59628956Y36447543D01*
X59616974Y36427552D01*
X59603090Y36408832D01*
X59587438Y36391562D01*
X59570168Y36375910D01*
X59551448Y36362026D01*
X59531457Y36350044D01*
X59510387Y36340079D01*
X59488443Y36332227D01*
X59465834Y36326563D01*
X59442779Y36323144D01*
X59419500Y36322000D01*
X58944500Y36322000D01*
X58921221Y36323144D01*
X58898166Y36326563D01*
X58875557Y36332227D01*
X58853613Y36340079D01*
X58832543Y36350044D01*
X58812552Y36362026D01*
X58793832Y36375910D01*
X58776562Y36391562D01*
X58760910Y36408832D01*
X58747026Y36427552D01*
X58735044Y36447543D01*
X58725079Y36468613D01*
X58717227Y36490557D01*
X58711563Y36513166D01*
X58708144Y36536221D01*
X58707000Y36559500D01*
X58707000Y37134500D01*
X58708144Y37157779D01*
X58711563Y37180834D01*
X58717227Y37203443D01*
X58725079Y37225387D01*
X58735044Y37246457D01*
X58747026Y37266448D01*
X58760910Y37285168D01*
X58776562Y37302438D01*
X58793832Y37318090D01*
X58812552Y37331974D01*
X58832543Y37343956D01*
X58853613Y37353921D01*
X58875557Y37361773D01*
X58898166Y37367437D01*
X58921221Y37370856D01*
X58944500Y37372000D01*
X59419500Y37372000D01*
X59442779Y37370856D01*
G37*
G36*
X59442779Y35620856D02*
G01*
X59465834Y35617437D01*
X59488443Y35611773D01*
X59510387Y35603921D01*
X59531457Y35593956D01*
X59551448Y35581974D01*
X59570168Y35568090D01*
X59587438Y35552438D01*
X59603090Y35535168D01*
X59616974Y35516448D01*
X59628956Y35496457D01*
X59638921Y35475387D01*
X59646773Y35453443D01*
X59652437Y35430834D01*
X59655856Y35407779D01*
X59657000Y35384500D01*
X59657000Y34809500D01*
X59655856Y34786221D01*
X59652437Y34763166D01*
X59646773Y34740557D01*
X59638921Y34718613D01*
X59628956Y34697543D01*
X59616974Y34677552D01*
X59603090Y34658832D01*
X59587438Y34641562D01*
X59570168Y34625910D01*
X59551448Y34612026D01*
X59531457Y34600044D01*
X59510387Y34590079D01*
X59488443Y34582227D01*
X59465834Y34576563D01*
X59442779Y34573144D01*
X59419500Y34572000D01*
X58944500Y34572000D01*
X58921221Y34573144D01*
X58898166Y34576563D01*
X58875557Y34582227D01*
X58853613Y34590079D01*
X58832543Y34600044D01*
X58812552Y34612026D01*
X58793832Y34625910D01*
X58776562Y34641562D01*
X58760910Y34658832D01*
X58747026Y34677552D01*
X58735044Y34697543D01*
X58725079Y34718613D01*
X58717227Y34740557D01*
X58711563Y34763166D01*
X58708144Y34786221D01*
X58707000Y34809500D01*
X58707000Y35384500D01*
X58708144Y35407779D01*
X58711563Y35430834D01*
X58717227Y35453443D01*
X58725079Y35475387D01*
X58735044Y35496457D01*
X58747026Y35516448D01*
X58760910Y35535168D01*
X58776562Y35552438D01*
X58793832Y35568090D01*
X58812552Y35581974D01*
X58832543Y35593956D01*
X58853613Y35603921D01*
X58875557Y35611773D01*
X58898166Y35617437D01*
X58921221Y35620856D01*
X58944500Y35622000D01*
X59419500Y35622000D01*
X59442779Y35620856D01*
G37*
G36*
X64316404Y37370856D02*
G01*
X64339459Y37367437D01*
X64362068Y37361773D01*
X64384012Y37353921D01*
X64405082Y37343956D01*
X64425073Y37331974D01*
X64443793Y37318090D01*
X64461063Y37302438D01*
X64476715Y37285168D01*
X64490599Y37266448D01*
X64502581Y37246457D01*
X64512546Y37225387D01*
X64520398Y37203443D01*
X64526062Y37180834D01*
X64529481Y37157779D01*
X64530625Y37134500D01*
X64530625Y36559500D01*
X64529481Y36536221D01*
X64526062Y36513166D01*
X64520398Y36490557D01*
X64512546Y36468613D01*
X64502581Y36447543D01*
X64490599Y36427552D01*
X64476715Y36408832D01*
X64461063Y36391562D01*
X64443793Y36375910D01*
X64425073Y36362026D01*
X64405082Y36350044D01*
X64384012Y36340079D01*
X64362068Y36332227D01*
X64339459Y36326563D01*
X64316404Y36323144D01*
X64293125Y36322000D01*
X63818125Y36322000D01*
X63794846Y36323144D01*
X63771791Y36326563D01*
X63749182Y36332227D01*
X63727238Y36340079D01*
X63706168Y36350044D01*
X63686177Y36362026D01*
X63667457Y36375910D01*
X63650187Y36391562D01*
X63634535Y36408832D01*
X63620651Y36427552D01*
X63608669Y36447543D01*
X63598704Y36468613D01*
X63590852Y36490557D01*
X63585188Y36513166D01*
X63581769Y36536221D01*
X63580625Y36559500D01*
X63580625Y37134500D01*
X63581769Y37157779D01*
X63585188Y37180834D01*
X63590852Y37203443D01*
X63598704Y37225387D01*
X63608669Y37246457D01*
X63620651Y37266448D01*
X63634535Y37285168D01*
X63650187Y37302438D01*
X63667457Y37318090D01*
X63686177Y37331974D01*
X63706168Y37343956D01*
X63727238Y37353921D01*
X63749182Y37361773D01*
X63771791Y37367437D01*
X63794846Y37370856D01*
X63818125Y37372000D01*
X64293125Y37372000D01*
X64316404Y37370856D01*
G37*
G36*
X64316404Y35620856D02*
G01*
X64339459Y35617437D01*
X64362068Y35611773D01*
X64384012Y35603921D01*
X64405082Y35593956D01*
X64425073Y35581974D01*
X64443793Y35568090D01*
X64461063Y35552438D01*
X64476715Y35535168D01*
X64490599Y35516448D01*
X64502581Y35496457D01*
X64512546Y35475387D01*
X64520398Y35453443D01*
X64526062Y35430834D01*
X64529481Y35407779D01*
X64530625Y35384500D01*
X64530625Y34809500D01*
X64529481Y34786221D01*
X64526062Y34763166D01*
X64520398Y34740557D01*
X64512546Y34718613D01*
X64502581Y34697543D01*
X64490599Y34677552D01*
X64476715Y34658832D01*
X64461063Y34641562D01*
X64443793Y34625910D01*
X64425073Y34612026D01*
X64405082Y34600044D01*
X64384012Y34590079D01*
X64362068Y34582227D01*
X64339459Y34576563D01*
X64316404Y34573144D01*
X64293125Y34572000D01*
X63818125Y34572000D01*
X63794846Y34573144D01*
X63771791Y34576563D01*
X63749182Y34582227D01*
X63727238Y34590079D01*
X63706168Y34600044D01*
X63686177Y34612026D01*
X63667457Y34625910D01*
X63650187Y34641562D01*
X63634535Y34658832D01*
X63620651Y34677552D01*
X63608669Y34697543D01*
X63598704Y34718613D01*
X63590852Y34740557D01*
X63585188Y34763166D01*
X63581769Y34786221D01*
X63580625Y34809500D01*
X63580625Y35384500D01*
X63581769Y35407779D01*
X63585188Y35430834D01*
X63590852Y35453443D01*
X63598704Y35475387D01*
X63608669Y35496457D01*
X63620651Y35516448D01*
X63634535Y35535168D01*
X63650187Y35552438D01*
X63667457Y35568090D01*
X63686177Y35581974D01*
X63706168Y35593956D01*
X63727238Y35603921D01*
X63749182Y35611773D01*
X63771791Y35617437D01*
X63794846Y35620856D01*
X63818125Y35622000D01*
X64293125Y35622000D01*
X64316404Y35620856D01*
G37*
G36*
X69190029Y37370856D02*
G01*
X69213084Y37367437D01*
X69235693Y37361773D01*
X69257637Y37353921D01*
X69278707Y37343956D01*
X69298698Y37331974D01*
X69317418Y37318090D01*
X69334688Y37302438D01*
X69350340Y37285168D01*
X69364224Y37266448D01*
X69376206Y37246457D01*
X69386171Y37225387D01*
X69394023Y37203443D01*
X69399687Y37180834D01*
X69403106Y37157779D01*
X69404250Y37134500D01*
X69404250Y36559500D01*
X69403106Y36536221D01*
X69399687Y36513166D01*
X69394023Y36490557D01*
X69386171Y36468613D01*
X69376206Y36447543D01*
X69364224Y36427552D01*
X69350340Y36408832D01*
X69334688Y36391562D01*
X69317418Y36375910D01*
X69298698Y36362026D01*
X69278707Y36350044D01*
X69257637Y36340079D01*
X69235693Y36332227D01*
X69213084Y36326563D01*
X69190029Y36323144D01*
X69166750Y36322000D01*
X68691750Y36322000D01*
X68668471Y36323144D01*
X68645416Y36326563D01*
X68622807Y36332227D01*
X68600863Y36340079D01*
X68579793Y36350044D01*
X68559802Y36362026D01*
X68541082Y36375910D01*
X68523812Y36391562D01*
X68508160Y36408832D01*
X68494276Y36427552D01*
X68482294Y36447543D01*
X68472329Y36468613D01*
X68464477Y36490557D01*
X68458813Y36513166D01*
X68455394Y36536221D01*
X68454250Y36559500D01*
X68454250Y37134500D01*
X68455394Y37157779D01*
X68458813Y37180834D01*
X68464477Y37203443D01*
X68472329Y37225387D01*
X68482294Y37246457D01*
X68494276Y37266448D01*
X68508160Y37285168D01*
X68523812Y37302438D01*
X68541082Y37318090D01*
X68559802Y37331974D01*
X68579793Y37343956D01*
X68600863Y37353921D01*
X68622807Y37361773D01*
X68645416Y37367437D01*
X68668471Y37370856D01*
X68691750Y37372000D01*
X69166750Y37372000D01*
X69190029Y37370856D01*
G37*
G36*
X69190029Y35620856D02*
G01*
X69213084Y35617437D01*
X69235693Y35611773D01*
X69257637Y35603921D01*
X69278707Y35593956D01*
X69298698Y35581974D01*
X69317418Y35568090D01*
X69334688Y35552438D01*
X69350340Y35535168D01*
X69364224Y35516448D01*
X69376206Y35496457D01*
X69386171Y35475387D01*
X69394023Y35453443D01*
X69399687Y35430834D01*
X69403106Y35407779D01*
X69404250Y35384500D01*
X69404250Y34809500D01*
X69403106Y34786221D01*
X69399687Y34763166D01*
X69394023Y34740557D01*
X69386171Y34718613D01*
X69376206Y34697543D01*
X69364224Y34677552D01*
X69350340Y34658832D01*
X69334688Y34641562D01*
X69317418Y34625910D01*
X69298698Y34612026D01*
X69278707Y34600044D01*
X69257637Y34590079D01*
X69235693Y34582227D01*
X69213084Y34576563D01*
X69190029Y34573144D01*
X69166750Y34572000D01*
X68691750Y34572000D01*
X68668471Y34573144D01*
X68645416Y34576563D01*
X68622807Y34582227D01*
X68600863Y34590079D01*
X68579793Y34600044D01*
X68559802Y34612026D01*
X68541082Y34625910D01*
X68523812Y34641562D01*
X68508160Y34658832D01*
X68494276Y34677552D01*
X68482294Y34697543D01*
X68472329Y34718613D01*
X68464477Y34740557D01*
X68458813Y34763166D01*
X68455394Y34786221D01*
X68454250Y34809500D01*
X68454250Y35384500D01*
X68455394Y35407779D01*
X68458813Y35430834D01*
X68464477Y35453443D01*
X68472329Y35475387D01*
X68482294Y35496457D01*
X68494276Y35516448D01*
X68508160Y35535168D01*
X68523812Y35552438D01*
X68541082Y35568090D01*
X68559802Y35581974D01*
X68579793Y35593956D01*
X68600863Y35603921D01*
X68622807Y35611773D01*
X68645416Y35617437D01*
X68668471Y35620856D01*
X68691750Y35622000D01*
X69166750Y35622000D01*
X69190029Y35620856D01*
G37*
G36*
X74063654Y37370856D02*
G01*
X74086709Y37367437D01*
X74109318Y37361773D01*
X74131262Y37353921D01*
X74152332Y37343956D01*
X74172323Y37331974D01*
X74191043Y37318090D01*
X74208313Y37302438D01*
X74223965Y37285168D01*
X74237849Y37266448D01*
X74249831Y37246457D01*
X74259796Y37225387D01*
X74267648Y37203443D01*
X74273312Y37180834D01*
X74276731Y37157779D01*
X74277875Y37134500D01*
X74277875Y36559500D01*
X74276731Y36536221D01*
X74273312Y36513166D01*
X74267648Y36490557D01*
X74259796Y36468613D01*
X74249831Y36447543D01*
X74237849Y36427552D01*
X74223965Y36408832D01*
X74208313Y36391562D01*
X74191043Y36375910D01*
X74172323Y36362026D01*
X74152332Y36350044D01*
X74131262Y36340079D01*
X74109318Y36332227D01*
X74086709Y36326563D01*
X74063654Y36323144D01*
X74040375Y36322000D01*
X73565375Y36322000D01*
X73542096Y36323144D01*
X73519041Y36326563D01*
X73496432Y36332227D01*
X73474488Y36340079D01*
X73453418Y36350044D01*
X73433427Y36362026D01*
X73414707Y36375910D01*
X73397437Y36391562D01*
X73381785Y36408832D01*
X73367901Y36427552D01*
X73355919Y36447543D01*
X73345954Y36468613D01*
X73338102Y36490557D01*
X73332438Y36513166D01*
X73329019Y36536221D01*
X73327875Y36559500D01*
X73327875Y37134500D01*
X73329019Y37157779D01*
X73332438Y37180834D01*
X73338102Y37203443D01*
X73345954Y37225387D01*
X73355919Y37246457D01*
X73367901Y37266448D01*
X73381785Y37285168D01*
X73397437Y37302438D01*
X73414707Y37318090D01*
X73433427Y37331974D01*
X73453418Y37343956D01*
X73474488Y37353921D01*
X73496432Y37361773D01*
X73519041Y37367437D01*
X73542096Y37370856D01*
X73565375Y37372000D01*
X74040375Y37372000D01*
X74063654Y37370856D01*
G37*
G36*
X74063654Y35620856D02*
G01*
X74086709Y35617437D01*
X74109318Y35611773D01*
X74131262Y35603921D01*
X74152332Y35593956D01*
X74172323Y35581974D01*
X74191043Y35568090D01*
X74208313Y35552438D01*
X74223965Y35535168D01*
X74237849Y35516448D01*
X74249831Y35496457D01*
X74259796Y35475387D01*
X74267648Y35453443D01*
X74273312Y35430834D01*
X74276731Y35407779D01*
X74277875Y35384500D01*
X74277875Y34809500D01*
X74276731Y34786221D01*
X74273312Y34763166D01*
X74267648Y34740557D01*
X74259796Y34718613D01*
X74249831Y34697543D01*
X74237849Y34677552D01*
X74223965Y34658832D01*
X74208313Y34641562D01*
X74191043Y34625910D01*
X74172323Y34612026D01*
X74152332Y34600044D01*
X74131262Y34590079D01*
X74109318Y34582227D01*
X74086709Y34576563D01*
X74063654Y34573144D01*
X74040375Y34572000D01*
X73565375Y34572000D01*
X73542096Y34573144D01*
X73519041Y34576563D01*
X73496432Y34582227D01*
X73474488Y34590079D01*
X73453418Y34600044D01*
X73433427Y34612026D01*
X73414707Y34625910D01*
X73397437Y34641562D01*
X73381785Y34658832D01*
X73367901Y34677552D01*
X73355919Y34697543D01*
X73345954Y34718613D01*
X73338102Y34740557D01*
X73332438Y34763166D01*
X73329019Y34786221D01*
X73327875Y34809500D01*
X73327875Y35384500D01*
X73329019Y35407779D01*
X73332438Y35430834D01*
X73338102Y35453443D01*
X73345954Y35475387D01*
X73355919Y35496457D01*
X73367901Y35516448D01*
X73381785Y35535168D01*
X73397437Y35552438D01*
X73414707Y35568090D01*
X73433427Y35581974D01*
X73453418Y35593956D01*
X73474488Y35603921D01*
X73496432Y35611773D01*
X73519041Y35617437D01*
X73542096Y35620856D01*
X73565375Y35622000D01*
X74040375Y35622000D01*
X74063654Y35620856D01*
G37*
G36*
X78937279Y37370856D02*
G01*
X78960334Y37367437D01*
X78982943Y37361773D01*
X79004887Y37353921D01*
X79025957Y37343956D01*
X79045948Y37331974D01*
X79064668Y37318090D01*
X79081938Y37302438D01*
X79097590Y37285168D01*
X79111474Y37266448D01*
X79123456Y37246457D01*
X79133421Y37225387D01*
X79141273Y37203443D01*
X79146937Y37180834D01*
X79150356Y37157779D01*
X79151500Y37134500D01*
X79151500Y36559500D01*
X79150356Y36536221D01*
X79146937Y36513166D01*
X79141273Y36490557D01*
X79133421Y36468613D01*
X79123456Y36447543D01*
X79111474Y36427552D01*
X79097590Y36408832D01*
X79081938Y36391562D01*
X79064668Y36375910D01*
X79045948Y36362026D01*
X79025957Y36350044D01*
X79004887Y36340079D01*
X78982943Y36332227D01*
X78960334Y36326563D01*
X78937279Y36323144D01*
X78914000Y36322000D01*
X78439000Y36322000D01*
X78415721Y36323144D01*
X78392666Y36326563D01*
X78370057Y36332227D01*
X78348113Y36340079D01*
X78327043Y36350044D01*
X78307052Y36362026D01*
X78288332Y36375910D01*
X78271062Y36391562D01*
X78255410Y36408832D01*
X78241526Y36427552D01*
X78229544Y36447543D01*
X78219579Y36468613D01*
X78211727Y36490557D01*
X78206063Y36513166D01*
X78202644Y36536221D01*
X78201500Y36559500D01*
X78201500Y37134500D01*
X78202644Y37157779D01*
X78206063Y37180834D01*
X78211727Y37203443D01*
X78219579Y37225387D01*
X78229544Y37246457D01*
X78241526Y37266448D01*
X78255410Y37285168D01*
X78271062Y37302438D01*
X78288332Y37318090D01*
X78307052Y37331974D01*
X78327043Y37343956D01*
X78348113Y37353921D01*
X78370057Y37361773D01*
X78392666Y37367437D01*
X78415721Y37370856D01*
X78439000Y37372000D01*
X78914000Y37372000D01*
X78937279Y37370856D01*
G37*
G36*
X78937279Y35620856D02*
G01*
X78960334Y35617437D01*
X78982943Y35611773D01*
X79004887Y35603921D01*
X79025957Y35593956D01*
X79045948Y35581974D01*
X79064668Y35568090D01*
X79081938Y35552438D01*
X79097590Y35535168D01*
X79111474Y35516448D01*
X79123456Y35496457D01*
X79133421Y35475387D01*
X79141273Y35453443D01*
X79146937Y35430834D01*
X79150356Y35407779D01*
X79151500Y35384500D01*
X79151500Y34809500D01*
X79150356Y34786221D01*
X79146937Y34763166D01*
X79141273Y34740557D01*
X79133421Y34718613D01*
X79123456Y34697543D01*
X79111474Y34677552D01*
X79097590Y34658832D01*
X79081938Y34641562D01*
X79064668Y34625910D01*
X79045948Y34612026D01*
X79025957Y34600044D01*
X79004887Y34590079D01*
X78982943Y34582227D01*
X78960334Y34576563D01*
X78937279Y34573144D01*
X78914000Y34572000D01*
X78439000Y34572000D01*
X78415721Y34573144D01*
X78392666Y34576563D01*
X78370057Y34582227D01*
X78348113Y34590079D01*
X78327043Y34600044D01*
X78307052Y34612026D01*
X78288332Y34625910D01*
X78271062Y34641562D01*
X78255410Y34658832D01*
X78241526Y34677552D01*
X78229544Y34697543D01*
X78219579Y34718613D01*
X78211727Y34740557D01*
X78206063Y34763166D01*
X78202644Y34786221D01*
X78201500Y34809500D01*
X78201500Y35384500D01*
X78202644Y35407779D01*
X78206063Y35430834D01*
X78211727Y35453443D01*
X78219579Y35475387D01*
X78229544Y35496457D01*
X78241526Y35516448D01*
X78255410Y35535168D01*
X78271062Y35552438D01*
X78288332Y35568090D01*
X78307052Y35581974D01*
X78327043Y35593956D01*
X78348113Y35603921D01*
X78370057Y35611773D01*
X78392666Y35617437D01*
X78415721Y35620856D01*
X78439000Y35622000D01*
X78914000Y35622000D01*
X78937279Y35620856D01*
G37*
G36*
X83810904Y37370856D02*
G01*
X83833959Y37367437D01*
X83856568Y37361773D01*
X83878512Y37353921D01*
X83899582Y37343956D01*
X83919573Y37331974D01*
X83938293Y37318090D01*
X83955563Y37302438D01*
X83971215Y37285168D01*
X83985099Y37266448D01*
X83997081Y37246457D01*
X84007046Y37225387D01*
X84014898Y37203443D01*
X84020562Y37180834D01*
X84023981Y37157779D01*
X84025125Y37134500D01*
X84025125Y36559500D01*
X84023981Y36536221D01*
X84020562Y36513166D01*
X84014898Y36490557D01*
X84007046Y36468613D01*
X83997081Y36447543D01*
X83985099Y36427552D01*
X83971215Y36408832D01*
X83955563Y36391562D01*
X83938293Y36375910D01*
X83919573Y36362026D01*
X83899582Y36350044D01*
X83878512Y36340079D01*
X83856568Y36332227D01*
X83833959Y36326563D01*
X83810904Y36323144D01*
X83787625Y36322000D01*
X83312625Y36322000D01*
X83289346Y36323144D01*
X83266291Y36326563D01*
X83243682Y36332227D01*
X83221738Y36340079D01*
X83200668Y36350044D01*
X83180677Y36362026D01*
X83161957Y36375910D01*
X83144687Y36391562D01*
X83129035Y36408832D01*
X83115151Y36427552D01*
X83103169Y36447543D01*
X83093204Y36468613D01*
X83085352Y36490557D01*
X83079688Y36513166D01*
X83076269Y36536221D01*
X83075125Y36559500D01*
X83075125Y37134500D01*
X83076269Y37157779D01*
X83079688Y37180834D01*
X83085352Y37203443D01*
X83093204Y37225387D01*
X83103169Y37246457D01*
X83115151Y37266448D01*
X83129035Y37285168D01*
X83144687Y37302438D01*
X83161957Y37318090D01*
X83180677Y37331974D01*
X83200668Y37343956D01*
X83221738Y37353921D01*
X83243682Y37361773D01*
X83266291Y37367437D01*
X83289346Y37370856D01*
X83312625Y37372000D01*
X83787625Y37372000D01*
X83810904Y37370856D01*
G37*
G36*
X83810904Y35620856D02*
G01*
X83833959Y35617437D01*
X83856568Y35611773D01*
X83878512Y35603921D01*
X83899582Y35593956D01*
X83919573Y35581974D01*
X83938293Y35568090D01*
X83955563Y35552438D01*
X83971215Y35535168D01*
X83985099Y35516448D01*
X83997081Y35496457D01*
X84007046Y35475387D01*
X84014898Y35453443D01*
X84020562Y35430834D01*
X84023981Y35407779D01*
X84025125Y35384500D01*
X84025125Y34809500D01*
X84023981Y34786221D01*
X84020562Y34763166D01*
X84014898Y34740557D01*
X84007046Y34718613D01*
X83997081Y34697543D01*
X83985099Y34677552D01*
X83971215Y34658832D01*
X83955563Y34641562D01*
X83938293Y34625910D01*
X83919573Y34612026D01*
X83899582Y34600044D01*
X83878512Y34590079D01*
X83856568Y34582227D01*
X83833959Y34576563D01*
X83810904Y34573144D01*
X83787625Y34572000D01*
X83312625Y34572000D01*
X83289346Y34573144D01*
X83266291Y34576563D01*
X83243682Y34582227D01*
X83221738Y34590079D01*
X83200668Y34600044D01*
X83180677Y34612026D01*
X83161957Y34625910D01*
X83144687Y34641562D01*
X83129035Y34658832D01*
X83115151Y34677552D01*
X83103169Y34697543D01*
X83093204Y34718613D01*
X83085352Y34740557D01*
X83079688Y34763166D01*
X83076269Y34786221D01*
X83075125Y34809500D01*
X83075125Y35384500D01*
X83076269Y35407779D01*
X83079688Y35430834D01*
X83085352Y35453443D01*
X83093204Y35475387D01*
X83103169Y35496457D01*
X83115151Y35516448D01*
X83129035Y35535168D01*
X83144687Y35552438D01*
X83161957Y35568090D01*
X83180677Y35581974D01*
X83200668Y35593956D01*
X83221738Y35603921D01*
X83243682Y35611773D01*
X83266291Y35617437D01*
X83289346Y35620856D01*
X83312625Y35622000D01*
X83787625Y35622000D01*
X83810904Y35620856D01*
G37*
G36*
X88684529Y37370856D02*
G01*
X88707584Y37367437D01*
X88730193Y37361773D01*
X88752137Y37353921D01*
X88773207Y37343956D01*
X88793198Y37331974D01*
X88811918Y37318090D01*
X88829188Y37302438D01*
X88844840Y37285168D01*
X88858724Y37266448D01*
X88870706Y37246457D01*
X88880671Y37225387D01*
X88888523Y37203443D01*
X88894187Y37180834D01*
X88897606Y37157779D01*
X88898750Y37134500D01*
X88898750Y36559500D01*
X88897606Y36536221D01*
X88894187Y36513166D01*
X88888523Y36490557D01*
X88880671Y36468613D01*
X88870706Y36447543D01*
X88858724Y36427552D01*
X88844840Y36408832D01*
X88829188Y36391562D01*
X88811918Y36375910D01*
X88793198Y36362026D01*
X88773207Y36350044D01*
X88752137Y36340079D01*
X88730193Y36332227D01*
X88707584Y36326563D01*
X88684529Y36323144D01*
X88661250Y36322000D01*
X88186250Y36322000D01*
X88162971Y36323144D01*
X88139916Y36326563D01*
X88117307Y36332227D01*
X88095363Y36340079D01*
X88074293Y36350044D01*
X88054302Y36362026D01*
X88035582Y36375910D01*
X88018312Y36391562D01*
X88002660Y36408832D01*
X87988776Y36427552D01*
X87976794Y36447543D01*
X87966829Y36468613D01*
X87958977Y36490557D01*
X87953313Y36513166D01*
X87949894Y36536221D01*
X87948750Y36559500D01*
X87948750Y37134500D01*
X87949894Y37157779D01*
X87953313Y37180834D01*
X87958977Y37203443D01*
X87966829Y37225387D01*
X87976794Y37246457D01*
X87988776Y37266448D01*
X88002660Y37285168D01*
X88018312Y37302438D01*
X88035582Y37318090D01*
X88054302Y37331974D01*
X88074293Y37343956D01*
X88095363Y37353921D01*
X88117307Y37361773D01*
X88139916Y37367437D01*
X88162971Y37370856D01*
X88186250Y37372000D01*
X88661250Y37372000D01*
X88684529Y37370856D01*
G37*
G36*
X88684529Y35620856D02*
G01*
X88707584Y35617437D01*
X88730193Y35611773D01*
X88752137Y35603921D01*
X88773207Y35593956D01*
X88793198Y35581974D01*
X88811918Y35568090D01*
X88829188Y35552438D01*
X88844840Y35535168D01*
X88858724Y35516448D01*
X88870706Y35496457D01*
X88880671Y35475387D01*
X88888523Y35453443D01*
X88894187Y35430834D01*
X88897606Y35407779D01*
X88898750Y35384500D01*
X88898750Y34809500D01*
X88897606Y34786221D01*
X88894187Y34763166D01*
X88888523Y34740557D01*
X88880671Y34718613D01*
X88870706Y34697543D01*
X88858724Y34677552D01*
X88844840Y34658832D01*
X88829188Y34641562D01*
X88811918Y34625910D01*
X88793198Y34612026D01*
X88773207Y34600044D01*
X88752137Y34590079D01*
X88730193Y34582227D01*
X88707584Y34576563D01*
X88684529Y34573144D01*
X88661250Y34572000D01*
X88186250Y34572000D01*
X88162971Y34573144D01*
X88139916Y34576563D01*
X88117307Y34582227D01*
X88095363Y34590079D01*
X88074293Y34600044D01*
X88054302Y34612026D01*
X88035582Y34625910D01*
X88018312Y34641562D01*
X88002660Y34658832D01*
X87988776Y34677552D01*
X87976794Y34697543D01*
X87966829Y34718613D01*
X87958977Y34740557D01*
X87953313Y34763166D01*
X87949894Y34786221D01*
X87948750Y34809500D01*
X87948750Y35384500D01*
X87949894Y35407779D01*
X87953313Y35430834D01*
X87958977Y35453443D01*
X87966829Y35475387D01*
X87976794Y35496457D01*
X87988776Y35516448D01*
X88002660Y35535168D01*
X88018312Y35552438D01*
X88035582Y35568090D01*
X88054302Y35581974D01*
X88074293Y35593956D01*
X88095363Y35603921D01*
X88117307Y35611773D01*
X88139916Y35617437D01*
X88162971Y35620856D01*
X88186250Y35622000D01*
X88661250Y35622000D01*
X88684529Y35620856D01*
G37*
G36*
X93558154Y37370856D02*
G01*
X93581209Y37367437D01*
X93603818Y37361773D01*
X93625762Y37353921D01*
X93646832Y37343956D01*
X93666823Y37331974D01*
X93685543Y37318090D01*
X93702813Y37302438D01*
X93718465Y37285168D01*
X93732349Y37266448D01*
X93744331Y37246457D01*
X93754296Y37225387D01*
X93762148Y37203443D01*
X93767812Y37180834D01*
X93771231Y37157779D01*
X93772375Y37134500D01*
X93772375Y36559500D01*
X93771231Y36536221D01*
X93767812Y36513166D01*
X93762148Y36490557D01*
X93754296Y36468613D01*
X93744331Y36447543D01*
X93732349Y36427552D01*
X93718465Y36408832D01*
X93702813Y36391562D01*
X93685543Y36375910D01*
X93666823Y36362026D01*
X93646832Y36350044D01*
X93625762Y36340079D01*
X93603818Y36332227D01*
X93581209Y36326563D01*
X93558154Y36323144D01*
X93534875Y36322000D01*
X93059875Y36322000D01*
X93036596Y36323144D01*
X93013541Y36326563D01*
X92990932Y36332227D01*
X92968988Y36340079D01*
X92947918Y36350044D01*
X92927927Y36362026D01*
X92909207Y36375910D01*
X92891937Y36391562D01*
X92876285Y36408832D01*
X92862401Y36427552D01*
X92850419Y36447543D01*
X92840454Y36468613D01*
X92832602Y36490557D01*
X92826938Y36513166D01*
X92823519Y36536221D01*
X92822375Y36559500D01*
X92822375Y37134500D01*
X92823519Y37157779D01*
X92826938Y37180834D01*
X92832602Y37203443D01*
X92840454Y37225387D01*
X92850419Y37246457D01*
X92862401Y37266448D01*
X92876285Y37285168D01*
X92891937Y37302438D01*
X92909207Y37318090D01*
X92927927Y37331974D01*
X92947918Y37343956D01*
X92968988Y37353921D01*
X92990932Y37361773D01*
X93013541Y37367437D01*
X93036596Y37370856D01*
X93059875Y37372000D01*
X93534875Y37372000D01*
X93558154Y37370856D01*
G37*
G36*
X93558154Y35620856D02*
G01*
X93581209Y35617437D01*
X93603818Y35611773D01*
X93625762Y35603921D01*
X93646832Y35593956D01*
X93666823Y35581974D01*
X93685543Y35568090D01*
X93702813Y35552438D01*
X93718465Y35535168D01*
X93732349Y35516448D01*
X93744331Y35496457D01*
X93754296Y35475387D01*
X93762148Y35453443D01*
X93767812Y35430834D01*
X93771231Y35407779D01*
X93772375Y35384500D01*
X93772375Y34809500D01*
X93771231Y34786221D01*
X93767812Y34763166D01*
X93762148Y34740557D01*
X93754296Y34718613D01*
X93744331Y34697543D01*
X93732349Y34677552D01*
X93718465Y34658832D01*
X93702813Y34641562D01*
X93685543Y34625910D01*
X93666823Y34612026D01*
X93646832Y34600044D01*
X93625762Y34590079D01*
X93603818Y34582227D01*
X93581209Y34576563D01*
X93558154Y34573144D01*
X93534875Y34572000D01*
X93059875Y34572000D01*
X93036596Y34573144D01*
X93013541Y34576563D01*
X92990932Y34582227D01*
X92968988Y34590079D01*
X92947918Y34600044D01*
X92927927Y34612026D01*
X92909207Y34625910D01*
X92891937Y34641562D01*
X92876285Y34658832D01*
X92862401Y34677552D01*
X92850419Y34697543D01*
X92840454Y34718613D01*
X92832602Y34740557D01*
X92826938Y34763166D01*
X92823519Y34786221D01*
X92822375Y34809500D01*
X92822375Y35384500D01*
X92823519Y35407779D01*
X92826938Y35430834D01*
X92832602Y35453443D01*
X92840454Y35475387D01*
X92850419Y35496457D01*
X92862401Y35516448D01*
X92876285Y35535168D01*
X92891937Y35552438D01*
X92909207Y35568090D01*
X92927927Y35581974D01*
X92947918Y35593956D01*
X92968988Y35603921D01*
X92990932Y35611773D01*
X93013541Y35617437D01*
X93036596Y35620856D01*
X93059875Y35622000D01*
X93534875Y35622000D01*
X93558154Y35620856D01*
G37*
G36*
X98431779Y39018856D02*
G01*
X98454834Y39015437D01*
X98477443Y39009773D01*
X98499387Y39001921D01*
X98520457Y38991956D01*
X98540448Y38979974D01*
X98559168Y38966090D01*
X98576438Y38950438D01*
X98592090Y38933168D01*
X98605974Y38914448D01*
X98617956Y38894457D01*
X98627921Y38873387D01*
X98635773Y38851443D01*
X98641437Y38828834D01*
X98644856Y38805779D01*
X98646000Y38782500D01*
X98646000Y38207500D01*
X98644856Y38184221D01*
X98641437Y38161166D01*
X98635773Y38138557D01*
X98627921Y38116613D01*
X98617956Y38095543D01*
X98605974Y38075552D01*
X98592090Y38056832D01*
X98576438Y38039562D01*
X98559168Y38023910D01*
X98540448Y38010026D01*
X98520457Y37998044D01*
X98499387Y37988079D01*
X98477443Y37980227D01*
X98454834Y37974563D01*
X98431779Y37971144D01*
X98408500Y37970000D01*
X97933500Y37970000D01*
X97910221Y37971144D01*
X97887166Y37974563D01*
X97864557Y37980227D01*
X97842613Y37988079D01*
X97821543Y37998044D01*
X97801552Y38010026D01*
X97782832Y38023910D01*
X97765562Y38039562D01*
X97749910Y38056832D01*
X97736026Y38075552D01*
X97724044Y38095543D01*
X97714079Y38116613D01*
X97706227Y38138557D01*
X97700563Y38161166D01*
X97697144Y38184221D01*
X97696000Y38207500D01*
X97696000Y38782500D01*
X97697144Y38805779D01*
X97700563Y38828834D01*
X97706227Y38851443D01*
X97714079Y38873387D01*
X97724044Y38894457D01*
X97736026Y38914448D01*
X97749910Y38933168D01*
X97765562Y38950438D01*
X97782832Y38966090D01*
X97801552Y38979974D01*
X97821543Y38991956D01*
X97842613Y39001921D01*
X97864557Y39009773D01*
X97887166Y39015437D01*
X97910221Y39018856D01*
X97933500Y39020000D01*
X98408500Y39020000D01*
X98431779Y39018856D01*
G37*
G36*
X98431779Y40768856D02*
G01*
X98454834Y40765437D01*
X98477443Y40759773D01*
X98499387Y40751921D01*
X98520457Y40741956D01*
X98540448Y40729974D01*
X98559168Y40716090D01*
X98576438Y40700438D01*
X98592090Y40683168D01*
X98605974Y40664448D01*
X98617956Y40644457D01*
X98627921Y40623387D01*
X98635773Y40601443D01*
X98641437Y40578834D01*
X98644856Y40555779D01*
X98646000Y40532500D01*
X98646000Y39957500D01*
X98644856Y39934221D01*
X98641437Y39911166D01*
X98635773Y39888557D01*
X98627921Y39866613D01*
X98617956Y39845543D01*
X98605974Y39825552D01*
X98592090Y39806832D01*
X98576438Y39789562D01*
X98559168Y39773910D01*
X98540448Y39760026D01*
X98520457Y39748044D01*
X98499387Y39738079D01*
X98477443Y39730227D01*
X98454834Y39724563D01*
X98431779Y39721144D01*
X98408500Y39720000D01*
X97933500Y39720000D01*
X97910221Y39721144D01*
X97887166Y39724563D01*
X97864557Y39730227D01*
X97842613Y39738079D01*
X97821543Y39748044D01*
X97801552Y39760026D01*
X97782832Y39773910D01*
X97765562Y39789562D01*
X97749910Y39806832D01*
X97736026Y39825552D01*
X97724044Y39845543D01*
X97714079Y39866613D01*
X97706227Y39888557D01*
X97700563Y39911166D01*
X97697144Y39934221D01*
X97696000Y39957500D01*
X97696000Y40532500D01*
X97697144Y40555779D01*
X97700563Y40578834D01*
X97706227Y40601443D01*
X97714079Y40623387D01*
X97724044Y40644457D01*
X97736026Y40664448D01*
X97749910Y40683168D01*
X97765562Y40700438D01*
X97782832Y40716090D01*
X97801552Y40729974D01*
X97821543Y40741956D01*
X97842613Y40751921D01*
X97864557Y40759773D01*
X97887166Y40765437D01*
X97910221Y40768856D01*
X97933500Y40770000D01*
X98408500Y40770000D01*
X98431779Y40768856D01*
G37*
G36*
X98431779Y37325856D02*
G01*
X98454834Y37322437D01*
X98477443Y37316773D01*
X98499387Y37308921D01*
X98520457Y37298956D01*
X98540448Y37286974D01*
X98559168Y37273090D01*
X98576438Y37257438D01*
X98592090Y37240168D01*
X98605974Y37221448D01*
X98617956Y37201457D01*
X98627921Y37180387D01*
X98635773Y37158443D01*
X98641437Y37135834D01*
X98644856Y37112779D01*
X98646000Y37089500D01*
X98646000Y36514500D01*
X98644856Y36491221D01*
X98641437Y36468166D01*
X98635773Y36445557D01*
X98627921Y36423613D01*
X98617956Y36402543D01*
X98605974Y36382552D01*
X98592090Y36363832D01*
X98576438Y36346562D01*
X98559168Y36330910D01*
X98540448Y36317026D01*
X98520457Y36305044D01*
X98499387Y36295079D01*
X98477443Y36287227D01*
X98454834Y36281563D01*
X98431779Y36278144D01*
X98408500Y36277000D01*
X97933500Y36277000D01*
X97910221Y36278144D01*
X97887166Y36281563D01*
X97864557Y36287227D01*
X97842613Y36295079D01*
X97821543Y36305044D01*
X97801552Y36317026D01*
X97782832Y36330910D01*
X97765562Y36346562D01*
X97749910Y36363832D01*
X97736026Y36382552D01*
X97724044Y36402543D01*
X97714079Y36423613D01*
X97706227Y36445557D01*
X97700563Y36468166D01*
X97697144Y36491221D01*
X97696000Y36514500D01*
X97696000Y37089500D01*
X97697144Y37112779D01*
X97700563Y37135834D01*
X97706227Y37158443D01*
X97714079Y37180387D01*
X97724044Y37201457D01*
X97736026Y37221448D01*
X97749910Y37240168D01*
X97765562Y37257438D01*
X97782832Y37273090D01*
X97801552Y37286974D01*
X97821543Y37298956D01*
X97842613Y37308921D01*
X97864557Y37316773D01*
X97887166Y37322437D01*
X97910221Y37325856D01*
X97933500Y37327000D01*
X98408500Y37327000D01*
X98431779Y37325856D01*
G37*
G36*
X98431779Y35575856D02*
G01*
X98454834Y35572437D01*
X98477443Y35566773D01*
X98499387Y35558921D01*
X98520457Y35548956D01*
X98540448Y35536974D01*
X98559168Y35523090D01*
X98576438Y35507438D01*
X98592090Y35490168D01*
X98605974Y35471448D01*
X98617956Y35451457D01*
X98627921Y35430387D01*
X98635773Y35408443D01*
X98641437Y35385834D01*
X98644856Y35362779D01*
X98646000Y35339500D01*
X98646000Y34764500D01*
X98644856Y34741221D01*
X98641437Y34718166D01*
X98635773Y34695557D01*
X98627921Y34673613D01*
X98617956Y34652543D01*
X98605974Y34632552D01*
X98592090Y34613832D01*
X98576438Y34596562D01*
X98559168Y34580910D01*
X98540448Y34567026D01*
X98520457Y34555044D01*
X98499387Y34545079D01*
X98477443Y34537227D01*
X98454834Y34531563D01*
X98431779Y34528144D01*
X98408500Y34527000D01*
X97933500Y34527000D01*
X97910221Y34528144D01*
X97887166Y34531563D01*
X97864557Y34537227D01*
X97842613Y34545079D01*
X97821543Y34555044D01*
X97801552Y34567026D01*
X97782832Y34580910D01*
X97765562Y34596562D01*
X97749910Y34613832D01*
X97736026Y34632552D01*
X97724044Y34652543D01*
X97714079Y34673613D01*
X97706227Y34695557D01*
X97700563Y34718166D01*
X97697144Y34741221D01*
X97696000Y34764500D01*
X97696000Y35339500D01*
X97697144Y35362779D01*
X97700563Y35385834D01*
X97706227Y35408443D01*
X97714079Y35430387D01*
X97724044Y35451457D01*
X97736026Y35471448D01*
X97749910Y35490168D01*
X97765562Y35507438D01*
X97782832Y35523090D01*
X97801552Y35536974D01*
X97821543Y35548956D01*
X97842613Y35558921D01*
X97864557Y35566773D01*
X97887166Y35572437D01*
X97910221Y35575856D01*
X97933500Y35577000D01*
X98408500Y35577000D01*
X98431779Y35575856D01*
G37*
M02*
