G04 #@! TF.GenerationSoftware,KiCad,Pcbnew,(5.1.5)-3*
G04 #@! TF.CreationDate,2020-03-16T20:43:13+08:00*
G04 #@! TF.ProjectId,sd04,73643034-2e6b-4696-9361-645f70636258,v0.2*
G04 #@! TF.SameCoordinates,PX3e41030PY7464a18*
G04 #@! TF.FileFunction,Copper,L2,Bot*
G04 #@! TF.FilePolarity,Positive*
%FSLAX46Y46*%
G04 Gerber Fmt 4.6, Leading zero omitted, Abs format (unit mm)*
G04 Created by KiCad (PCBNEW (5.1.5)-3) date 2020-03-16 20:43:13*
%MOMM*%
%LPD*%
G04 APERTURE LIST*
%ADD10C,0.100000*%
%ADD11O,1.700000X1.700000*%
%ADD12R,1.700000X1.700000*%
%ADD13C,0.800000*%
%ADD14C,0.250000*%
%ADD15C,0.254000*%
%ADD16C,0.025400*%
G04 APERTURE END LIST*
G04 #@! TA.AperFunction,SMDPad,CuDef*
D10*
G36*
X39948279Y39018856D02*
G01*
X39971334Y39015437D01*
X39993943Y39009773D01*
X40015887Y39001921D01*
X40036957Y38991956D01*
X40056948Y38979974D01*
X40075668Y38966090D01*
X40092938Y38950438D01*
X40108590Y38933168D01*
X40122474Y38914448D01*
X40134456Y38894457D01*
X40144421Y38873387D01*
X40152273Y38851443D01*
X40157937Y38828834D01*
X40161356Y38805779D01*
X40162500Y38782500D01*
X40162500Y38207500D01*
X40161356Y38184221D01*
X40157937Y38161166D01*
X40152273Y38138557D01*
X40144421Y38116613D01*
X40134456Y38095543D01*
X40122474Y38075552D01*
X40108590Y38056832D01*
X40092938Y38039562D01*
X40075668Y38023910D01*
X40056948Y38010026D01*
X40036957Y37998044D01*
X40015887Y37988079D01*
X39993943Y37980227D01*
X39971334Y37974563D01*
X39948279Y37971144D01*
X39925000Y37970000D01*
X39450000Y37970000D01*
X39426721Y37971144D01*
X39403666Y37974563D01*
X39381057Y37980227D01*
X39359113Y37988079D01*
X39338043Y37998044D01*
X39318052Y38010026D01*
X39299332Y38023910D01*
X39282062Y38039562D01*
X39266410Y38056832D01*
X39252526Y38075552D01*
X39240544Y38095543D01*
X39230579Y38116613D01*
X39222727Y38138557D01*
X39217063Y38161166D01*
X39213644Y38184221D01*
X39212500Y38207500D01*
X39212500Y38782500D01*
X39213644Y38805779D01*
X39217063Y38828834D01*
X39222727Y38851443D01*
X39230579Y38873387D01*
X39240544Y38894457D01*
X39252526Y38914448D01*
X39266410Y38933168D01*
X39282062Y38950438D01*
X39299332Y38966090D01*
X39318052Y38979974D01*
X39338043Y38991956D01*
X39359113Y39001921D01*
X39381057Y39009773D01*
X39403666Y39015437D01*
X39426721Y39018856D01*
X39450000Y39020000D01*
X39925000Y39020000D01*
X39948279Y39018856D01*
G37*
G04 #@! TD.AperFunction*
G04 #@! TA.AperFunction,SMDPad,CuDef*
G36*
X39948279Y40768856D02*
G01*
X39971334Y40765437D01*
X39993943Y40759773D01*
X40015887Y40751921D01*
X40036957Y40741956D01*
X40056948Y40729974D01*
X40075668Y40716090D01*
X40092938Y40700438D01*
X40108590Y40683168D01*
X40122474Y40664448D01*
X40134456Y40644457D01*
X40144421Y40623387D01*
X40152273Y40601443D01*
X40157937Y40578834D01*
X40161356Y40555779D01*
X40162500Y40532500D01*
X40162500Y39957500D01*
X40161356Y39934221D01*
X40157937Y39911166D01*
X40152273Y39888557D01*
X40144421Y39866613D01*
X40134456Y39845543D01*
X40122474Y39825552D01*
X40108590Y39806832D01*
X40092938Y39789562D01*
X40075668Y39773910D01*
X40056948Y39760026D01*
X40036957Y39748044D01*
X40015887Y39738079D01*
X39993943Y39730227D01*
X39971334Y39724563D01*
X39948279Y39721144D01*
X39925000Y39720000D01*
X39450000Y39720000D01*
X39426721Y39721144D01*
X39403666Y39724563D01*
X39381057Y39730227D01*
X39359113Y39738079D01*
X39338043Y39748044D01*
X39318052Y39760026D01*
X39299332Y39773910D01*
X39282062Y39789562D01*
X39266410Y39806832D01*
X39252526Y39825552D01*
X39240544Y39845543D01*
X39230579Y39866613D01*
X39222727Y39888557D01*
X39217063Y39911166D01*
X39213644Y39934221D01*
X39212500Y39957500D01*
X39212500Y40532500D01*
X39213644Y40555779D01*
X39217063Y40578834D01*
X39222727Y40601443D01*
X39230579Y40623387D01*
X39240544Y40644457D01*
X39252526Y40664448D01*
X39266410Y40683168D01*
X39282062Y40700438D01*
X39299332Y40716090D01*
X39318052Y40729974D01*
X39338043Y40741956D01*
X39359113Y40751921D01*
X39381057Y40759773D01*
X39403666Y40765437D01*
X39426721Y40768856D01*
X39450000Y40770000D01*
X39925000Y40770000D01*
X39948279Y40768856D01*
G37*
G04 #@! TD.AperFunction*
G04 #@! TA.AperFunction,SMDPad,CuDef*
G36*
X44821904Y39018856D02*
G01*
X44844959Y39015437D01*
X44867568Y39009773D01*
X44889512Y39001921D01*
X44910582Y38991956D01*
X44930573Y38979974D01*
X44949293Y38966090D01*
X44966563Y38950438D01*
X44982215Y38933168D01*
X44996099Y38914448D01*
X45008081Y38894457D01*
X45018046Y38873387D01*
X45025898Y38851443D01*
X45031562Y38828834D01*
X45034981Y38805779D01*
X45036125Y38782500D01*
X45036125Y38207500D01*
X45034981Y38184221D01*
X45031562Y38161166D01*
X45025898Y38138557D01*
X45018046Y38116613D01*
X45008081Y38095543D01*
X44996099Y38075552D01*
X44982215Y38056832D01*
X44966563Y38039562D01*
X44949293Y38023910D01*
X44930573Y38010026D01*
X44910582Y37998044D01*
X44889512Y37988079D01*
X44867568Y37980227D01*
X44844959Y37974563D01*
X44821904Y37971144D01*
X44798625Y37970000D01*
X44323625Y37970000D01*
X44300346Y37971144D01*
X44277291Y37974563D01*
X44254682Y37980227D01*
X44232738Y37988079D01*
X44211668Y37998044D01*
X44191677Y38010026D01*
X44172957Y38023910D01*
X44155687Y38039562D01*
X44140035Y38056832D01*
X44126151Y38075552D01*
X44114169Y38095543D01*
X44104204Y38116613D01*
X44096352Y38138557D01*
X44090688Y38161166D01*
X44087269Y38184221D01*
X44086125Y38207500D01*
X44086125Y38782500D01*
X44087269Y38805779D01*
X44090688Y38828834D01*
X44096352Y38851443D01*
X44104204Y38873387D01*
X44114169Y38894457D01*
X44126151Y38914448D01*
X44140035Y38933168D01*
X44155687Y38950438D01*
X44172957Y38966090D01*
X44191677Y38979974D01*
X44211668Y38991956D01*
X44232738Y39001921D01*
X44254682Y39009773D01*
X44277291Y39015437D01*
X44300346Y39018856D01*
X44323625Y39020000D01*
X44798625Y39020000D01*
X44821904Y39018856D01*
G37*
G04 #@! TD.AperFunction*
G04 #@! TA.AperFunction,SMDPad,CuDef*
G36*
X44821904Y40768856D02*
G01*
X44844959Y40765437D01*
X44867568Y40759773D01*
X44889512Y40751921D01*
X44910582Y40741956D01*
X44930573Y40729974D01*
X44949293Y40716090D01*
X44966563Y40700438D01*
X44982215Y40683168D01*
X44996099Y40664448D01*
X45008081Y40644457D01*
X45018046Y40623387D01*
X45025898Y40601443D01*
X45031562Y40578834D01*
X45034981Y40555779D01*
X45036125Y40532500D01*
X45036125Y39957500D01*
X45034981Y39934221D01*
X45031562Y39911166D01*
X45025898Y39888557D01*
X45018046Y39866613D01*
X45008081Y39845543D01*
X44996099Y39825552D01*
X44982215Y39806832D01*
X44966563Y39789562D01*
X44949293Y39773910D01*
X44930573Y39760026D01*
X44910582Y39748044D01*
X44889512Y39738079D01*
X44867568Y39730227D01*
X44844959Y39724563D01*
X44821904Y39721144D01*
X44798625Y39720000D01*
X44323625Y39720000D01*
X44300346Y39721144D01*
X44277291Y39724563D01*
X44254682Y39730227D01*
X44232738Y39738079D01*
X44211668Y39748044D01*
X44191677Y39760026D01*
X44172957Y39773910D01*
X44155687Y39789562D01*
X44140035Y39806832D01*
X44126151Y39825552D01*
X44114169Y39845543D01*
X44104204Y39866613D01*
X44096352Y39888557D01*
X44090688Y39911166D01*
X44087269Y39934221D01*
X44086125Y39957500D01*
X44086125Y40532500D01*
X44087269Y40555779D01*
X44090688Y40578834D01*
X44096352Y40601443D01*
X44104204Y40623387D01*
X44114169Y40644457D01*
X44126151Y40664448D01*
X44140035Y40683168D01*
X44155687Y40700438D01*
X44172957Y40716090D01*
X44191677Y40729974D01*
X44211668Y40741956D01*
X44232738Y40751921D01*
X44254682Y40759773D01*
X44277291Y40765437D01*
X44300346Y40768856D01*
X44323625Y40770000D01*
X44798625Y40770000D01*
X44821904Y40768856D01*
G37*
G04 #@! TD.AperFunction*
G04 #@! TA.AperFunction,SMDPad,CuDef*
G36*
X49695529Y39018856D02*
G01*
X49718584Y39015437D01*
X49741193Y39009773D01*
X49763137Y39001921D01*
X49784207Y38991956D01*
X49804198Y38979974D01*
X49822918Y38966090D01*
X49840188Y38950438D01*
X49855840Y38933168D01*
X49869724Y38914448D01*
X49881706Y38894457D01*
X49891671Y38873387D01*
X49899523Y38851443D01*
X49905187Y38828834D01*
X49908606Y38805779D01*
X49909750Y38782500D01*
X49909750Y38207500D01*
X49908606Y38184221D01*
X49905187Y38161166D01*
X49899523Y38138557D01*
X49891671Y38116613D01*
X49881706Y38095543D01*
X49869724Y38075552D01*
X49855840Y38056832D01*
X49840188Y38039562D01*
X49822918Y38023910D01*
X49804198Y38010026D01*
X49784207Y37998044D01*
X49763137Y37988079D01*
X49741193Y37980227D01*
X49718584Y37974563D01*
X49695529Y37971144D01*
X49672250Y37970000D01*
X49197250Y37970000D01*
X49173971Y37971144D01*
X49150916Y37974563D01*
X49128307Y37980227D01*
X49106363Y37988079D01*
X49085293Y37998044D01*
X49065302Y38010026D01*
X49046582Y38023910D01*
X49029312Y38039562D01*
X49013660Y38056832D01*
X48999776Y38075552D01*
X48987794Y38095543D01*
X48977829Y38116613D01*
X48969977Y38138557D01*
X48964313Y38161166D01*
X48960894Y38184221D01*
X48959750Y38207500D01*
X48959750Y38782500D01*
X48960894Y38805779D01*
X48964313Y38828834D01*
X48969977Y38851443D01*
X48977829Y38873387D01*
X48987794Y38894457D01*
X48999776Y38914448D01*
X49013660Y38933168D01*
X49029312Y38950438D01*
X49046582Y38966090D01*
X49065302Y38979974D01*
X49085293Y38991956D01*
X49106363Y39001921D01*
X49128307Y39009773D01*
X49150916Y39015437D01*
X49173971Y39018856D01*
X49197250Y39020000D01*
X49672250Y39020000D01*
X49695529Y39018856D01*
G37*
G04 #@! TD.AperFunction*
G04 #@! TA.AperFunction,SMDPad,CuDef*
G36*
X49695529Y40768856D02*
G01*
X49718584Y40765437D01*
X49741193Y40759773D01*
X49763137Y40751921D01*
X49784207Y40741956D01*
X49804198Y40729974D01*
X49822918Y40716090D01*
X49840188Y40700438D01*
X49855840Y40683168D01*
X49869724Y40664448D01*
X49881706Y40644457D01*
X49891671Y40623387D01*
X49899523Y40601443D01*
X49905187Y40578834D01*
X49908606Y40555779D01*
X49909750Y40532500D01*
X49909750Y39957500D01*
X49908606Y39934221D01*
X49905187Y39911166D01*
X49899523Y39888557D01*
X49891671Y39866613D01*
X49881706Y39845543D01*
X49869724Y39825552D01*
X49855840Y39806832D01*
X49840188Y39789562D01*
X49822918Y39773910D01*
X49804198Y39760026D01*
X49784207Y39748044D01*
X49763137Y39738079D01*
X49741193Y39730227D01*
X49718584Y39724563D01*
X49695529Y39721144D01*
X49672250Y39720000D01*
X49197250Y39720000D01*
X49173971Y39721144D01*
X49150916Y39724563D01*
X49128307Y39730227D01*
X49106363Y39738079D01*
X49085293Y39748044D01*
X49065302Y39760026D01*
X49046582Y39773910D01*
X49029312Y39789562D01*
X49013660Y39806832D01*
X48999776Y39825552D01*
X48987794Y39845543D01*
X48977829Y39866613D01*
X48969977Y39888557D01*
X48964313Y39911166D01*
X48960894Y39934221D01*
X48959750Y39957500D01*
X48959750Y40532500D01*
X48960894Y40555779D01*
X48964313Y40578834D01*
X48969977Y40601443D01*
X48977829Y40623387D01*
X48987794Y40644457D01*
X48999776Y40664448D01*
X49013660Y40683168D01*
X49029312Y40700438D01*
X49046582Y40716090D01*
X49065302Y40729974D01*
X49085293Y40741956D01*
X49106363Y40751921D01*
X49128307Y40759773D01*
X49150916Y40765437D01*
X49173971Y40768856D01*
X49197250Y40770000D01*
X49672250Y40770000D01*
X49695529Y40768856D01*
G37*
G04 #@! TD.AperFunction*
G04 #@! TA.AperFunction,SMDPad,CuDef*
G36*
X54569154Y39018856D02*
G01*
X54592209Y39015437D01*
X54614818Y39009773D01*
X54636762Y39001921D01*
X54657832Y38991956D01*
X54677823Y38979974D01*
X54696543Y38966090D01*
X54713813Y38950438D01*
X54729465Y38933168D01*
X54743349Y38914448D01*
X54755331Y38894457D01*
X54765296Y38873387D01*
X54773148Y38851443D01*
X54778812Y38828834D01*
X54782231Y38805779D01*
X54783375Y38782500D01*
X54783375Y38207500D01*
X54782231Y38184221D01*
X54778812Y38161166D01*
X54773148Y38138557D01*
X54765296Y38116613D01*
X54755331Y38095543D01*
X54743349Y38075552D01*
X54729465Y38056832D01*
X54713813Y38039562D01*
X54696543Y38023910D01*
X54677823Y38010026D01*
X54657832Y37998044D01*
X54636762Y37988079D01*
X54614818Y37980227D01*
X54592209Y37974563D01*
X54569154Y37971144D01*
X54545875Y37970000D01*
X54070875Y37970000D01*
X54047596Y37971144D01*
X54024541Y37974563D01*
X54001932Y37980227D01*
X53979988Y37988079D01*
X53958918Y37998044D01*
X53938927Y38010026D01*
X53920207Y38023910D01*
X53902937Y38039562D01*
X53887285Y38056832D01*
X53873401Y38075552D01*
X53861419Y38095543D01*
X53851454Y38116613D01*
X53843602Y38138557D01*
X53837938Y38161166D01*
X53834519Y38184221D01*
X53833375Y38207500D01*
X53833375Y38782500D01*
X53834519Y38805779D01*
X53837938Y38828834D01*
X53843602Y38851443D01*
X53851454Y38873387D01*
X53861419Y38894457D01*
X53873401Y38914448D01*
X53887285Y38933168D01*
X53902937Y38950438D01*
X53920207Y38966090D01*
X53938927Y38979974D01*
X53958918Y38991956D01*
X53979988Y39001921D01*
X54001932Y39009773D01*
X54024541Y39015437D01*
X54047596Y39018856D01*
X54070875Y39020000D01*
X54545875Y39020000D01*
X54569154Y39018856D01*
G37*
G04 #@! TD.AperFunction*
G04 #@! TA.AperFunction,SMDPad,CuDef*
G36*
X54569154Y40768856D02*
G01*
X54592209Y40765437D01*
X54614818Y40759773D01*
X54636762Y40751921D01*
X54657832Y40741956D01*
X54677823Y40729974D01*
X54696543Y40716090D01*
X54713813Y40700438D01*
X54729465Y40683168D01*
X54743349Y40664448D01*
X54755331Y40644457D01*
X54765296Y40623387D01*
X54773148Y40601443D01*
X54778812Y40578834D01*
X54782231Y40555779D01*
X54783375Y40532500D01*
X54783375Y39957500D01*
X54782231Y39934221D01*
X54778812Y39911166D01*
X54773148Y39888557D01*
X54765296Y39866613D01*
X54755331Y39845543D01*
X54743349Y39825552D01*
X54729465Y39806832D01*
X54713813Y39789562D01*
X54696543Y39773910D01*
X54677823Y39760026D01*
X54657832Y39748044D01*
X54636762Y39738079D01*
X54614818Y39730227D01*
X54592209Y39724563D01*
X54569154Y39721144D01*
X54545875Y39720000D01*
X54070875Y39720000D01*
X54047596Y39721144D01*
X54024541Y39724563D01*
X54001932Y39730227D01*
X53979988Y39738079D01*
X53958918Y39748044D01*
X53938927Y39760026D01*
X53920207Y39773910D01*
X53902937Y39789562D01*
X53887285Y39806832D01*
X53873401Y39825552D01*
X53861419Y39845543D01*
X53851454Y39866613D01*
X53843602Y39888557D01*
X53837938Y39911166D01*
X53834519Y39934221D01*
X53833375Y39957500D01*
X53833375Y40532500D01*
X53834519Y40555779D01*
X53837938Y40578834D01*
X53843602Y40601443D01*
X53851454Y40623387D01*
X53861419Y40644457D01*
X53873401Y40664448D01*
X53887285Y40683168D01*
X53902937Y40700438D01*
X53920207Y40716090D01*
X53938927Y40729974D01*
X53958918Y40741956D01*
X53979988Y40751921D01*
X54001932Y40759773D01*
X54024541Y40765437D01*
X54047596Y40768856D01*
X54070875Y40770000D01*
X54545875Y40770000D01*
X54569154Y40768856D01*
G37*
G04 #@! TD.AperFunction*
G04 #@! TA.AperFunction,SMDPad,CuDef*
G36*
X59442779Y39018856D02*
G01*
X59465834Y39015437D01*
X59488443Y39009773D01*
X59510387Y39001921D01*
X59531457Y38991956D01*
X59551448Y38979974D01*
X59570168Y38966090D01*
X59587438Y38950438D01*
X59603090Y38933168D01*
X59616974Y38914448D01*
X59628956Y38894457D01*
X59638921Y38873387D01*
X59646773Y38851443D01*
X59652437Y38828834D01*
X59655856Y38805779D01*
X59657000Y38782500D01*
X59657000Y38207500D01*
X59655856Y38184221D01*
X59652437Y38161166D01*
X59646773Y38138557D01*
X59638921Y38116613D01*
X59628956Y38095543D01*
X59616974Y38075552D01*
X59603090Y38056832D01*
X59587438Y38039562D01*
X59570168Y38023910D01*
X59551448Y38010026D01*
X59531457Y37998044D01*
X59510387Y37988079D01*
X59488443Y37980227D01*
X59465834Y37974563D01*
X59442779Y37971144D01*
X59419500Y37970000D01*
X58944500Y37970000D01*
X58921221Y37971144D01*
X58898166Y37974563D01*
X58875557Y37980227D01*
X58853613Y37988079D01*
X58832543Y37998044D01*
X58812552Y38010026D01*
X58793832Y38023910D01*
X58776562Y38039562D01*
X58760910Y38056832D01*
X58747026Y38075552D01*
X58735044Y38095543D01*
X58725079Y38116613D01*
X58717227Y38138557D01*
X58711563Y38161166D01*
X58708144Y38184221D01*
X58707000Y38207500D01*
X58707000Y38782500D01*
X58708144Y38805779D01*
X58711563Y38828834D01*
X58717227Y38851443D01*
X58725079Y38873387D01*
X58735044Y38894457D01*
X58747026Y38914448D01*
X58760910Y38933168D01*
X58776562Y38950438D01*
X58793832Y38966090D01*
X58812552Y38979974D01*
X58832543Y38991956D01*
X58853613Y39001921D01*
X58875557Y39009773D01*
X58898166Y39015437D01*
X58921221Y39018856D01*
X58944500Y39020000D01*
X59419500Y39020000D01*
X59442779Y39018856D01*
G37*
G04 #@! TD.AperFunction*
G04 #@! TA.AperFunction,SMDPad,CuDef*
G36*
X59442779Y40768856D02*
G01*
X59465834Y40765437D01*
X59488443Y40759773D01*
X59510387Y40751921D01*
X59531457Y40741956D01*
X59551448Y40729974D01*
X59570168Y40716090D01*
X59587438Y40700438D01*
X59603090Y40683168D01*
X59616974Y40664448D01*
X59628956Y40644457D01*
X59638921Y40623387D01*
X59646773Y40601443D01*
X59652437Y40578834D01*
X59655856Y40555779D01*
X59657000Y40532500D01*
X59657000Y39957500D01*
X59655856Y39934221D01*
X59652437Y39911166D01*
X59646773Y39888557D01*
X59638921Y39866613D01*
X59628956Y39845543D01*
X59616974Y39825552D01*
X59603090Y39806832D01*
X59587438Y39789562D01*
X59570168Y39773910D01*
X59551448Y39760026D01*
X59531457Y39748044D01*
X59510387Y39738079D01*
X59488443Y39730227D01*
X59465834Y39724563D01*
X59442779Y39721144D01*
X59419500Y39720000D01*
X58944500Y39720000D01*
X58921221Y39721144D01*
X58898166Y39724563D01*
X58875557Y39730227D01*
X58853613Y39738079D01*
X58832543Y39748044D01*
X58812552Y39760026D01*
X58793832Y39773910D01*
X58776562Y39789562D01*
X58760910Y39806832D01*
X58747026Y39825552D01*
X58735044Y39845543D01*
X58725079Y39866613D01*
X58717227Y39888557D01*
X58711563Y39911166D01*
X58708144Y39934221D01*
X58707000Y39957500D01*
X58707000Y40532500D01*
X58708144Y40555779D01*
X58711563Y40578834D01*
X58717227Y40601443D01*
X58725079Y40623387D01*
X58735044Y40644457D01*
X58747026Y40664448D01*
X58760910Y40683168D01*
X58776562Y40700438D01*
X58793832Y40716090D01*
X58812552Y40729974D01*
X58832543Y40741956D01*
X58853613Y40751921D01*
X58875557Y40759773D01*
X58898166Y40765437D01*
X58921221Y40768856D01*
X58944500Y40770000D01*
X59419500Y40770000D01*
X59442779Y40768856D01*
G37*
G04 #@! TD.AperFunction*
G04 #@! TA.AperFunction,SMDPad,CuDef*
G36*
X64316404Y39018856D02*
G01*
X64339459Y39015437D01*
X64362068Y39009773D01*
X64384012Y39001921D01*
X64405082Y38991956D01*
X64425073Y38979974D01*
X64443793Y38966090D01*
X64461063Y38950438D01*
X64476715Y38933168D01*
X64490599Y38914448D01*
X64502581Y38894457D01*
X64512546Y38873387D01*
X64520398Y38851443D01*
X64526062Y38828834D01*
X64529481Y38805779D01*
X64530625Y38782500D01*
X64530625Y38207500D01*
X64529481Y38184221D01*
X64526062Y38161166D01*
X64520398Y38138557D01*
X64512546Y38116613D01*
X64502581Y38095543D01*
X64490599Y38075552D01*
X64476715Y38056832D01*
X64461063Y38039562D01*
X64443793Y38023910D01*
X64425073Y38010026D01*
X64405082Y37998044D01*
X64384012Y37988079D01*
X64362068Y37980227D01*
X64339459Y37974563D01*
X64316404Y37971144D01*
X64293125Y37970000D01*
X63818125Y37970000D01*
X63794846Y37971144D01*
X63771791Y37974563D01*
X63749182Y37980227D01*
X63727238Y37988079D01*
X63706168Y37998044D01*
X63686177Y38010026D01*
X63667457Y38023910D01*
X63650187Y38039562D01*
X63634535Y38056832D01*
X63620651Y38075552D01*
X63608669Y38095543D01*
X63598704Y38116613D01*
X63590852Y38138557D01*
X63585188Y38161166D01*
X63581769Y38184221D01*
X63580625Y38207500D01*
X63580625Y38782500D01*
X63581769Y38805779D01*
X63585188Y38828834D01*
X63590852Y38851443D01*
X63598704Y38873387D01*
X63608669Y38894457D01*
X63620651Y38914448D01*
X63634535Y38933168D01*
X63650187Y38950438D01*
X63667457Y38966090D01*
X63686177Y38979974D01*
X63706168Y38991956D01*
X63727238Y39001921D01*
X63749182Y39009773D01*
X63771791Y39015437D01*
X63794846Y39018856D01*
X63818125Y39020000D01*
X64293125Y39020000D01*
X64316404Y39018856D01*
G37*
G04 #@! TD.AperFunction*
G04 #@! TA.AperFunction,SMDPad,CuDef*
G36*
X64316404Y40768856D02*
G01*
X64339459Y40765437D01*
X64362068Y40759773D01*
X64384012Y40751921D01*
X64405082Y40741956D01*
X64425073Y40729974D01*
X64443793Y40716090D01*
X64461063Y40700438D01*
X64476715Y40683168D01*
X64490599Y40664448D01*
X64502581Y40644457D01*
X64512546Y40623387D01*
X64520398Y40601443D01*
X64526062Y40578834D01*
X64529481Y40555779D01*
X64530625Y40532500D01*
X64530625Y39957500D01*
X64529481Y39934221D01*
X64526062Y39911166D01*
X64520398Y39888557D01*
X64512546Y39866613D01*
X64502581Y39845543D01*
X64490599Y39825552D01*
X64476715Y39806832D01*
X64461063Y39789562D01*
X64443793Y39773910D01*
X64425073Y39760026D01*
X64405082Y39748044D01*
X64384012Y39738079D01*
X64362068Y39730227D01*
X64339459Y39724563D01*
X64316404Y39721144D01*
X64293125Y39720000D01*
X63818125Y39720000D01*
X63794846Y39721144D01*
X63771791Y39724563D01*
X63749182Y39730227D01*
X63727238Y39738079D01*
X63706168Y39748044D01*
X63686177Y39760026D01*
X63667457Y39773910D01*
X63650187Y39789562D01*
X63634535Y39806832D01*
X63620651Y39825552D01*
X63608669Y39845543D01*
X63598704Y39866613D01*
X63590852Y39888557D01*
X63585188Y39911166D01*
X63581769Y39934221D01*
X63580625Y39957500D01*
X63580625Y40532500D01*
X63581769Y40555779D01*
X63585188Y40578834D01*
X63590852Y40601443D01*
X63598704Y40623387D01*
X63608669Y40644457D01*
X63620651Y40664448D01*
X63634535Y40683168D01*
X63650187Y40700438D01*
X63667457Y40716090D01*
X63686177Y40729974D01*
X63706168Y40741956D01*
X63727238Y40751921D01*
X63749182Y40759773D01*
X63771791Y40765437D01*
X63794846Y40768856D01*
X63818125Y40770000D01*
X64293125Y40770000D01*
X64316404Y40768856D01*
G37*
G04 #@! TD.AperFunction*
G04 #@! TA.AperFunction,SMDPad,CuDef*
G36*
X69190029Y39018856D02*
G01*
X69213084Y39015437D01*
X69235693Y39009773D01*
X69257637Y39001921D01*
X69278707Y38991956D01*
X69298698Y38979974D01*
X69317418Y38966090D01*
X69334688Y38950438D01*
X69350340Y38933168D01*
X69364224Y38914448D01*
X69376206Y38894457D01*
X69386171Y38873387D01*
X69394023Y38851443D01*
X69399687Y38828834D01*
X69403106Y38805779D01*
X69404250Y38782500D01*
X69404250Y38207500D01*
X69403106Y38184221D01*
X69399687Y38161166D01*
X69394023Y38138557D01*
X69386171Y38116613D01*
X69376206Y38095543D01*
X69364224Y38075552D01*
X69350340Y38056832D01*
X69334688Y38039562D01*
X69317418Y38023910D01*
X69298698Y38010026D01*
X69278707Y37998044D01*
X69257637Y37988079D01*
X69235693Y37980227D01*
X69213084Y37974563D01*
X69190029Y37971144D01*
X69166750Y37970000D01*
X68691750Y37970000D01*
X68668471Y37971144D01*
X68645416Y37974563D01*
X68622807Y37980227D01*
X68600863Y37988079D01*
X68579793Y37998044D01*
X68559802Y38010026D01*
X68541082Y38023910D01*
X68523812Y38039562D01*
X68508160Y38056832D01*
X68494276Y38075552D01*
X68482294Y38095543D01*
X68472329Y38116613D01*
X68464477Y38138557D01*
X68458813Y38161166D01*
X68455394Y38184221D01*
X68454250Y38207500D01*
X68454250Y38782500D01*
X68455394Y38805779D01*
X68458813Y38828834D01*
X68464477Y38851443D01*
X68472329Y38873387D01*
X68482294Y38894457D01*
X68494276Y38914448D01*
X68508160Y38933168D01*
X68523812Y38950438D01*
X68541082Y38966090D01*
X68559802Y38979974D01*
X68579793Y38991956D01*
X68600863Y39001921D01*
X68622807Y39009773D01*
X68645416Y39015437D01*
X68668471Y39018856D01*
X68691750Y39020000D01*
X69166750Y39020000D01*
X69190029Y39018856D01*
G37*
G04 #@! TD.AperFunction*
G04 #@! TA.AperFunction,SMDPad,CuDef*
G36*
X69190029Y40768856D02*
G01*
X69213084Y40765437D01*
X69235693Y40759773D01*
X69257637Y40751921D01*
X69278707Y40741956D01*
X69298698Y40729974D01*
X69317418Y40716090D01*
X69334688Y40700438D01*
X69350340Y40683168D01*
X69364224Y40664448D01*
X69376206Y40644457D01*
X69386171Y40623387D01*
X69394023Y40601443D01*
X69399687Y40578834D01*
X69403106Y40555779D01*
X69404250Y40532500D01*
X69404250Y39957500D01*
X69403106Y39934221D01*
X69399687Y39911166D01*
X69394023Y39888557D01*
X69386171Y39866613D01*
X69376206Y39845543D01*
X69364224Y39825552D01*
X69350340Y39806832D01*
X69334688Y39789562D01*
X69317418Y39773910D01*
X69298698Y39760026D01*
X69278707Y39748044D01*
X69257637Y39738079D01*
X69235693Y39730227D01*
X69213084Y39724563D01*
X69190029Y39721144D01*
X69166750Y39720000D01*
X68691750Y39720000D01*
X68668471Y39721144D01*
X68645416Y39724563D01*
X68622807Y39730227D01*
X68600863Y39738079D01*
X68579793Y39748044D01*
X68559802Y39760026D01*
X68541082Y39773910D01*
X68523812Y39789562D01*
X68508160Y39806832D01*
X68494276Y39825552D01*
X68482294Y39845543D01*
X68472329Y39866613D01*
X68464477Y39888557D01*
X68458813Y39911166D01*
X68455394Y39934221D01*
X68454250Y39957500D01*
X68454250Y40532500D01*
X68455394Y40555779D01*
X68458813Y40578834D01*
X68464477Y40601443D01*
X68472329Y40623387D01*
X68482294Y40644457D01*
X68494276Y40664448D01*
X68508160Y40683168D01*
X68523812Y40700438D01*
X68541082Y40716090D01*
X68559802Y40729974D01*
X68579793Y40741956D01*
X68600863Y40751921D01*
X68622807Y40759773D01*
X68645416Y40765437D01*
X68668471Y40768856D01*
X68691750Y40770000D01*
X69166750Y40770000D01*
X69190029Y40768856D01*
G37*
G04 #@! TD.AperFunction*
G04 #@! TA.AperFunction,SMDPad,CuDef*
G36*
X74063654Y39018856D02*
G01*
X74086709Y39015437D01*
X74109318Y39009773D01*
X74131262Y39001921D01*
X74152332Y38991956D01*
X74172323Y38979974D01*
X74191043Y38966090D01*
X74208313Y38950438D01*
X74223965Y38933168D01*
X74237849Y38914448D01*
X74249831Y38894457D01*
X74259796Y38873387D01*
X74267648Y38851443D01*
X74273312Y38828834D01*
X74276731Y38805779D01*
X74277875Y38782500D01*
X74277875Y38207500D01*
X74276731Y38184221D01*
X74273312Y38161166D01*
X74267648Y38138557D01*
X74259796Y38116613D01*
X74249831Y38095543D01*
X74237849Y38075552D01*
X74223965Y38056832D01*
X74208313Y38039562D01*
X74191043Y38023910D01*
X74172323Y38010026D01*
X74152332Y37998044D01*
X74131262Y37988079D01*
X74109318Y37980227D01*
X74086709Y37974563D01*
X74063654Y37971144D01*
X74040375Y37970000D01*
X73565375Y37970000D01*
X73542096Y37971144D01*
X73519041Y37974563D01*
X73496432Y37980227D01*
X73474488Y37988079D01*
X73453418Y37998044D01*
X73433427Y38010026D01*
X73414707Y38023910D01*
X73397437Y38039562D01*
X73381785Y38056832D01*
X73367901Y38075552D01*
X73355919Y38095543D01*
X73345954Y38116613D01*
X73338102Y38138557D01*
X73332438Y38161166D01*
X73329019Y38184221D01*
X73327875Y38207500D01*
X73327875Y38782500D01*
X73329019Y38805779D01*
X73332438Y38828834D01*
X73338102Y38851443D01*
X73345954Y38873387D01*
X73355919Y38894457D01*
X73367901Y38914448D01*
X73381785Y38933168D01*
X73397437Y38950438D01*
X73414707Y38966090D01*
X73433427Y38979974D01*
X73453418Y38991956D01*
X73474488Y39001921D01*
X73496432Y39009773D01*
X73519041Y39015437D01*
X73542096Y39018856D01*
X73565375Y39020000D01*
X74040375Y39020000D01*
X74063654Y39018856D01*
G37*
G04 #@! TD.AperFunction*
G04 #@! TA.AperFunction,SMDPad,CuDef*
G36*
X74063654Y40768856D02*
G01*
X74086709Y40765437D01*
X74109318Y40759773D01*
X74131262Y40751921D01*
X74152332Y40741956D01*
X74172323Y40729974D01*
X74191043Y40716090D01*
X74208313Y40700438D01*
X74223965Y40683168D01*
X74237849Y40664448D01*
X74249831Y40644457D01*
X74259796Y40623387D01*
X74267648Y40601443D01*
X74273312Y40578834D01*
X74276731Y40555779D01*
X74277875Y40532500D01*
X74277875Y39957500D01*
X74276731Y39934221D01*
X74273312Y39911166D01*
X74267648Y39888557D01*
X74259796Y39866613D01*
X74249831Y39845543D01*
X74237849Y39825552D01*
X74223965Y39806832D01*
X74208313Y39789562D01*
X74191043Y39773910D01*
X74172323Y39760026D01*
X74152332Y39748044D01*
X74131262Y39738079D01*
X74109318Y39730227D01*
X74086709Y39724563D01*
X74063654Y39721144D01*
X74040375Y39720000D01*
X73565375Y39720000D01*
X73542096Y39721144D01*
X73519041Y39724563D01*
X73496432Y39730227D01*
X73474488Y39738079D01*
X73453418Y39748044D01*
X73433427Y39760026D01*
X73414707Y39773910D01*
X73397437Y39789562D01*
X73381785Y39806832D01*
X73367901Y39825552D01*
X73355919Y39845543D01*
X73345954Y39866613D01*
X73338102Y39888557D01*
X73332438Y39911166D01*
X73329019Y39934221D01*
X73327875Y39957500D01*
X73327875Y40532500D01*
X73329019Y40555779D01*
X73332438Y40578834D01*
X73338102Y40601443D01*
X73345954Y40623387D01*
X73355919Y40644457D01*
X73367901Y40664448D01*
X73381785Y40683168D01*
X73397437Y40700438D01*
X73414707Y40716090D01*
X73433427Y40729974D01*
X73453418Y40741956D01*
X73474488Y40751921D01*
X73496432Y40759773D01*
X73519041Y40765437D01*
X73542096Y40768856D01*
X73565375Y40770000D01*
X74040375Y40770000D01*
X74063654Y40768856D01*
G37*
G04 #@! TD.AperFunction*
G04 #@! TA.AperFunction,SMDPad,CuDef*
G36*
X78937279Y39018856D02*
G01*
X78960334Y39015437D01*
X78982943Y39009773D01*
X79004887Y39001921D01*
X79025957Y38991956D01*
X79045948Y38979974D01*
X79064668Y38966090D01*
X79081938Y38950438D01*
X79097590Y38933168D01*
X79111474Y38914448D01*
X79123456Y38894457D01*
X79133421Y38873387D01*
X79141273Y38851443D01*
X79146937Y38828834D01*
X79150356Y38805779D01*
X79151500Y38782500D01*
X79151500Y38207500D01*
X79150356Y38184221D01*
X79146937Y38161166D01*
X79141273Y38138557D01*
X79133421Y38116613D01*
X79123456Y38095543D01*
X79111474Y38075552D01*
X79097590Y38056832D01*
X79081938Y38039562D01*
X79064668Y38023910D01*
X79045948Y38010026D01*
X79025957Y37998044D01*
X79004887Y37988079D01*
X78982943Y37980227D01*
X78960334Y37974563D01*
X78937279Y37971144D01*
X78914000Y37970000D01*
X78439000Y37970000D01*
X78415721Y37971144D01*
X78392666Y37974563D01*
X78370057Y37980227D01*
X78348113Y37988079D01*
X78327043Y37998044D01*
X78307052Y38010026D01*
X78288332Y38023910D01*
X78271062Y38039562D01*
X78255410Y38056832D01*
X78241526Y38075552D01*
X78229544Y38095543D01*
X78219579Y38116613D01*
X78211727Y38138557D01*
X78206063Y38161166D01*
X78202644Y38184221D01*
X78201500Y38207500D01*
X78201500Y38782500D01*
X78202644Y38805779D01*
X78206063Y38828834D01*
X78211727Y38851443D01*
X78219579Y38873387D01*
X78229544Y38894457D01*
X78241526Y38914448D01*
X78255410Y38933168D01*
X78271062Y38950438D01*
X78288332Y38966090D01*
X78307052Y38979974D01*
X78327043Y38991956D01*
X78348113Y39001921D01*
X78370057Y39009773D01*
X78392666Y39015437D01*
X78415721Y39018856D01*
X78439000Y39020000D01*
X78914000Y39020000D01*
X78937279Y39018856D01*
G37*
G04 #@! TD.AperFunction*
G04 #@! TA.AperFunction,SMDPad,CuDef*
G36*
X78937279Y40768856D02*
G01*
X78960334Y40765437D01*
X78982943Y40759773D01*
X79004887Y40751921D01*
X79025957Y40741956D01*
X79045948Y40729974D01*
X79064668Y40716090D01*
X79081938Y40700438D01*
X79097590Y40683168D01*
X79111474Y40664448D01*
X79123456Y40644457D01*
X79133421Y40623387D01*
X79141273Y40601443D01*
X79146937Y40578834D01*
X79150356Y40555779D01*
X79151500Y40532500D01*
X79151500Y39957500D01*
X79150356Y39934221D01*
X79146937Y39911166D01*
X79141273Y39888557D01*
X79133421Y39866613D01*
X79123456Y39845543D01*
X79111474Y39825552D01*
X79097590Y39806832D01*
X79081938Y39789562D01*
X79064668Y39773910D01*
X79045948Y39760026D01*
X79025957Y39748044D01*
X79004887Y39738079D01*
X78982943Y39730227D01*
X78960334Y39724563D01*
X78937279Y39721144D01*
X78914000Y39720000D01*
X78439000Y39720000D01*
X78415721Y39721144D01*
X78392666Y39724563D01*
X78370057Y39730227D01*
X78348113Y39738079D01*
X78327043Y39748044D01*
X78307052Y39760026D01*
X78288332Y39773910D01*
X78271062Y39789562D01*
X78255410Y39806832D01*
X78241526Y39825552D01*
X78229544Y39845543D01*
X78219579Y39866613D01*
X78211727Y39888557D01*
X78206063Y39911166D01*
X78202644Y39934221D01*
X78201500Y39957500D01*
X78201500Y40532500D01*
X78202644Y40555779D01*
X78206063Y40578834D01*
X78211727Y40601443D01*
X78219579Y40623387D01*
X78229544Y40644457D01*
X78241526Y40664448D01*
X78255410Y40683168D01*
X78271062Y40700438D01*
X78288332Y40716090D01*
X78307052Y40729974D01*
X78327043Y40741956D01*
X78348113Y40751921D01*
X78370057Y40759773D01*
X78392666Y40765437D01*
X78415721Y40768856D01*
X78439000Y40770000D01*
X78914000Y40770000D01*
X78937279Y40768856D01*
G37*
G04 #@! TD.AperFunction*
G04 #@! TA.AperFunction,SMDPad,CuDef*
G36*
X83810904Y39018856D02*
G01*
X83833959Y39015437D01*
X83856568Y39009773D01*
X83878512Y39001921D01*
X83899582Y38991956D01*
X83919573Y38979974D01*
X83938293Y38966090D01*
X83955563Y38950438D01*
X83971215Y38933168D01*
X83985099Y38914448D01*
X83997081Y38894457D01*
X84007046Y38873387D01*
X84014898Y38851443D01*
X84020562Y38828834D01*
X84023981Y38805779D01*
X84025125Y38782500D01*
X84025125Y38207500D01*
X84023981Y38184221D01*
X84020562Y38161166D01*
X84014898Y38138557D01*
X84007046Y38116613D01*
X83997081Y38095543D01*
X83985099Y38075552D01*
X83971215Y38056832D01*
X83955563Y38039562D01*
X83938293Y38023910D01*
X83919573Y38010026D01*
X83899582Y37998044D01*
X83878512Y37988079D01*
X83856568Y37980227D01*
X83833959Y37974563D01*
X83810904Y37971144D01*
X83787625Y37970000D01*
X83312625Y37970000D01*
X83289346Y37971144D01*
X83266291Y37974563D01*
X83243682Y37980227D01*
X83221738Y37988079D01*
X83200668Y37998044D01*
X83180677Y38010026D01*
X83161957Y38023910D01*
X83144687Y38039562D01*
X83129035Y38056832D01*
X83115151Y38075552D01*
X83103169Y38095543D01*
X83093204Y38116613D01*
X83085352Y38138557D01*
X83079688Y38161166D01*
X83076269Y38184221D01*
X83075125Y38207500D01*
X83075125Y38782500D01*
X83076269Y38805779D01*
X83079688Y38828834D01*
X83085352Y38851443D01*
X83093204Y38873387D01*
X83103169Y38894457D01*
X83115151Y38914448D01*
X83129035Y38933168D01*
X83144687Y38950438D01*
X83161957Y38966090D01*
X83180677Y38979974D01*
X83200668Y38991956D01*
X83221738Y39001921D01*
X83243682Y39009773D01*
X83266291Y39015437D01*
X83289346Y39018856D01*
X83312625Y39020000D01*
X83787625Y39020000D01*
X83810904Y39018856D01*
G37*
G04 #@! TD.AperFunction*
G04 #@! TA.AperFunction,SMDPad,CuDef*
G36*
X83810904Y40768856D02*
G01*
X83833959Y40765437D01*
X83856568Y40759773D01*
X83878512Y40751921D01*
X83899582Y40741956D01*
X83919573Y40729974D01*
X83938293Y40716090D01*
X83955563Y40700438D01*
X83971215Y40683168D01*
X83985099Y40664448D01*
X83997081Y40644457D01*
X84007046Y40623387D01*
X84014898Y40601443D01*
X84020562Y40578834D01*
X84023981Y40555779D01*
X84025125Y40532500D01*
X84025125Y39957500D01*
X84023981Y39934221D01*
X84020562Y39911166D01*
X84014898Y39888557D01*
X84007046Y39866613D01*
X83997081Y39845543D01*
X83985099Y39825552D01*
X83971215Y39806832D01*
X83955563Y39789562D01*
X83938293Y39773910D01*
X83919573Y39760026D01*
X83899582Y39748044D01*
X83878512Y39738079D01*
X83856568Y39730227D01*
X83833959Y39724563D01*
X83810904Y39721144D01*
X83787625Y39720000D01*
X83312625Y39720000D01*
X83289346Y39721144D01*
X83266291Y39724563D01*
X83243682Y39730227D01*
X83221738Y39738079D01*
X83200668Y39748044D01*
X83180677Y39760026D01*
X83161957Y39773910D01*
X83144687Y39789562D01*
X83129035Y39806832D01*
X83115151Y39825552D01*
X83103169Y39845543D01*
X83093204Y39866613D01*
X83085352Y39888557D01*
X83079688Y39911166D01*
X83076269Y39934221D01*
X83075125Y39957500D01*
X83075125Y40532500D01*
X83076269Y40555779D01*
X83079688Y40578834D01*
X83085352Y40601443D01*
X83093204Y40623387D01*
X83103169Y40644457D01*
X83115151Y40664448D01*
X83129035Y40683168D01*
X83144687Y40700438D01*
X83161957Y40716090D01*
X83180677Y40729974D01*
X83200668Y40741956D01*
X83221738Y40751921D01*
X83243682Y40759773D01*
X83266291Y40765437D01*
X83289346Y40768856D01*
X83312625Y40770000D01*
X83787625Y40770000D01*
X83810904Y40768856D01*
G37*
G04 #@! TD.AperFunction*
G04 #@! TA.AperFunction,SMDPad,CuDef*
G36*
X88684529Y39018856D02*
G01*
X88707584Y39015437D01*
X88730193Y39009773D01*
X88752137Y39001921D01*
X88773207Y38991956D01*
X88793198Y38979974D01*
X88811918Y38966090D01*
X88829188Y38950438D01*
X88844840Y38933168D01*
X88858724Y38914448D01*
X88870706Y38894457D01*
X88880671Y38873387D01*
X88888523Y38851443D01*
X88894187Y38828834D01*
X88897606Y38805779D01*
X88898750Y38782500D01*
X88898750Y38207500D01*
X88897606Y38184221D01*
X88894187Y38161166D01*
X88888523Y38138557D01*
X88880671Y38116613D01*
X88870706Y38095543D01*
X88858724Y38075552D01*
X88844840Y38056832D01*
X88829188Y38039562D01*
X88811918Y38023910D01*
X88793198Y38010026D01*
X88773207Y37998044D01*
X88752137Y37988079D01*
X88730193Y37980227D01*
X88707584Y37974563D01*
X88684529Y37971144D01*
X88661250Y37970000D01*
X88186250Y37970000D01*
X88162971Y37971144D01*
X88139916Y37974563D01*
X88117307Y37980227D01*
X88095363Y37988079D01*
X88074293Y37998044D01*
X88054302Y38010026D01*
X88035582Y38023910D01*
X88018312Y38039562D01*
X88002660Y38056832D01*
X87988776Y38075552D01*
X87976794Y38095543D01*
X87966829Y38116613D01*
X87958977Y38138557D01*
X87953313Y38161166D01*
X87949894Y38184221D01*
X87948750Y38207500D01*
X87948750Y38782500D01*
X87949894Y38805779D01*
X87953313Y38828834D01*
X87958977Y38851443D01*
X87966829Y38873387D01*
X87976794Y38894457D01*
X87988776Y38914448D01*
X88002660Y38933168D01*
X88018312Y38950438D01*
X88035582Y38966090D01*
X88054302Y38979974D01*
X88074293Y38991956D01*
X88095363Y39001921D01*
X88117307Y39009773D01*
X88139916Y39015437D01*
X88162971Y39018856D01*
X88186250Y39020000D01*
X88661250Y39020000D01*
X88684529Y39018856D01*
G37*
G04 #@! TD.AperFunction*
G04 #@! TA.AperFunction,SMDPad,CuDef*
G36*
X88684529Y40768856D02*
G01*
X88707584Y40765437D01*
X88730193Y40759773D01*
X88752137Y40751921D01*
X88773207Y40741956D01*
X88793198Y40729974D01*
X88811918Y40716090D01*
X88829188Y40700438D01*
X88844840Y40683168D01*
X88858724Y40664448D01*
X88870706Y40644457D01*
X88880671Y40623387D01*
X88888523Y40601443D01*
X88894187Y40578834D01*
X88897606Y40555779D01*
X88898750Y40532500D01*
X88898750Y39957500D01*
X88897606Y39934221D01*
X88894187Y39911166D01*
X88888523Y39888557D01*
X88880671Y39866613D01*
X88870706Y39845543D01*
X88858724Y39825552D01*
X88844840Y39806832D01*
X88829188Y39789562D01*
X88811918Y39773910D01*
X88793198Y39760026D01*
X88773207Y39748044D01*
X88752137Y39738079D01*
X88730193Y39730227D01*
X88707584Y39724563D01*
X88684529Y39721144D01*
X88661250Y39720000D01*
X88186250Y39720000D01*
X88162971Y39721144D01*
X88139916Y39724563D01*
X88117307Y39730227D01*
X88095363Y39738079D01*
X88074293Y39748044D01*
X88054302Y39760026D01*
X88035582Y39773910D01*
X88018312Y39789562D01*
X88002660Y39806832D01*
X87988776Y39825552D01*
X87976794Y39845543D01*
X87966829Y39866613D01*
X87958977Y39888557D01*
X87953313Y39911166D01*
X87949894Y39934221D01*
X87948750Y39957500D01*
X87948750Y40532500D01*
X87949894Y40555779D01*
X87953313Y40578834D01*
X87958977Y40601443D01*
X87966829Y40623387D01*
X87976794Y40644457D01*
X87988776Y40664448D01*
X88002660Y40683168D01*
X88018312Y40700438D01*
X88035582Y40716090D01*
X88054302Y40729974D01*
X88074293Y40741956D01*
X88095363Y40751921D01*
X88117307Y40759773D01*
X88139916Y40765437D01*
X88162971Y40768856D01*
X88186250Y40770000D01*
X88661250Y40770000D01*
X88684529Y40768856D01*
G37*
G04 #@! TD.AperFunction*
G04 #@! TA.AperFunction,SMDPad,CuDef*
G36*
X93558154Y39018856D02*
G01*
X93581209Y39015437D01*
X93603818Y39009773D01*
X93625762Y39001921D01*
X93646832Y38991956D01*
X93666823Y38979974D01*
X93685543Y38966090D01*
X93702813Y38950438D01*
X93718465Y38933168D01*
X93732349Y38914448D01*
X93744331Y38894457D01*
X93754296Y38873387D01*
X93762148Y38851443D01*
X93767812Y38828834D01*
X93771231Y38805779D01*
X93772375Y38782500D01*
X93772375Y38207500D01*
X93771231Y38184221D01*
X93767812Y38161166D01*
X93762148Y38138557D01*
X93754296Y38116613D01*
X93744331Y38095543D01*
X93732349Y38075552D01*
X93718465Y38056832D01*
X93702813Y38039562D01*
X93685543Y38023910D01*
X93666823Y38010026D01*
X93646832Y37998044D01*
X93625762Y37988079D01*
X93603818Y37980227D01*
X93581209Y37974563D01*
X93558154Y37971144D01*
X93534875Y37970000D01*
X93059875Y37970000D01*
X93036596Y37971144D01*
X93013541Y37974563D01*
X92990932Y37980227D01*
X92968988Y37988079D01*
X92947918Y37998044D01*
X92927927Y38010026D01*
X92909207Y38023910D01*
X92891937Y38039562D01*
X92876285Y38056832D01*
X92862401Y38075552D01*
X92850419Y38095543D01*
X92840454Y38116613D01*
X92832602Y38138557D01*
X92826938Y38161166D01*
X92823519Y38184221D01*
X92822375Y38207500D01*
X92822375Y38782500D01*
X92823519Y38805779D01*
X92826938Y38828834D01*
X92832602Y38851443D01*
X92840454Y38873387D01*
X92850419Y38894457D01*
X92862401Y38914448D01*
X92876285Y38933168D01*
X92891937Y38950438D01*
X92909207Y38966090D01*
X92927927Y38979974D01*
X92947918Y38991956D01*
X92968988Y39001921D01*
X92990932Y39009773D01*
X93013541Y39015437D01*
X93036596Y39018856D01*
X93059875Y39020000D01*
X93534875Y39020000D01*
X93558154Y39018856D01*
G37*
G04 #@! TD.AperFunction*
G04 #@! TA.AperFunction,SMDPad,CuDef*
G36*
X93558154Y40768856D02*
G01*
X93581209Y40765437D01*
X93603818Y40759773D01*
X93625762Y40751921D01*
X93646832Y40741956D01*
X93666823Y40729974D01*
X93685543Y40716090D01*
X93702813Y40700438D01*
X93718465Y40683168D01*
X93732349Y40664448D01*
X93744331Y40644457D01*
X93754296Y40623387D01*
X93762148Y40601443D01*
X93767812Y40578834D01*
X93771231Y40555779D01*
X93772375Y40532500D01*
X93772375Y39957500D01*
X93771231Y39934221D01*
X93767812Y39911166D01*
X93762148Y39888557D01*
X93754296Y39866613D01*
X93744331Y39845543D01*
X93732349Y39825552D01*
X93718465Y39806832D01*
X93702813Y39789562D01*
X93685543Y39773910D01*
X93666823Y39760026D01*
X93646832Y39748044D01*
X93625762Y39738079D01*
X93603818Y39730227D01*
X93581209Y39724563D01*
X93558154Y39721144D01*
X93534875Y39720000D01*
X93059875Y39720000D01*
X93036596Y39721144D01*
X93013541Y39724563D01*
X92990932Y39730227D01*
X92968988Y39738079D01*
X92947918Y39748044D01*
X92927927Y39760026D01*
X92909207Y39773910D01*
X92891937Y39789562D01*
X92876285Y39806832D01*
X92862401Y39825552D01*
X92850419Y39845543D01*
X92840454Y39866613D01*
X92832602Y39888557D01*
X92826938Y39911166D01*
X92823519Y39934221D01*
X92822375Y39957500D01*
X92822375Y40532500D01*
X92823519Y40555779D01*
X92826938Y40578834D01*
X92832602Y40601443D01*
X92840454Y40623387D01*
X92850419Y40644457D01*
X92862401Y40664448D01*
X92876285Y40683168D01*
X92891937Y40700438D01*
X92909207Y40716090D01*
X92927927Y40729974D01*
X92947918Y40741956D01*
X92968988Y40751921D01*
X92990932Y40759773D01*
X93013541Y40765437D01*
X93036596Y40768856D01*
X93059875Y40770000D01*
X93534875Y40770000D01*
X93558154Y40768856D01*
G37*
G04 #@! TD.AperFunction*
G04 #@! TA.AperFunction,SMDPad,CuDef*
G36*
X39948279Y37325856D02*
G01*
X39971334Y37322437D01*
X39993943Y37316773D01*
X40015887Y37308921D01*
X40036957Y37298956D01*
X40056948Y37286974D01*
X40075668Y37273090D01*
X40092938Y37257438D01*
X40108590Y37240168D01*
X40122474Y37221448D01*
X40134456Y37201457D01*
X40144421Y37180387D01*
X40152273Y37158443D01*
X40157937Y37135834D01*
X40161356Y37112779D01*
X40162500Y37089500D01*
X40162500Y36514500D01*
X40161356Y36491221D01*
X40157937Y36468166D01*
X40152273Y36445557D01*
X40144421Y36423613D01*
X40134456Y36402543D01*
X40122474Y36382552D01*
X40108590Y36363832D01*
X40092938Y36346562D01*
X40075668Y36330910D01*
X40056948Y36317026D01*
X40036957Y36305044D01*
X40015887Y36295079D01*
X39993943Y36287227D01*
X39971334Y36281563D01*
X39948279Y36278144D01*
X39925000Y36277000D01*
X39450000Y36277000D01*
X39426721Y36278144D01*
X39403666Y36281563D01*
X39381057Y36287227D01*
X39359113Y36295079D01*
X39338043Y36305044D01*
X39318052Y36317026D01*
X39299332Y36330910D01*
X39282062Y36346562D01*
X39266410Y36363832D01*
X39252526Y36382552D01*
X39240544Y36402543D01*
X39230579Y36423613D01*
X39222727Y36445557D01*
X39217063Y36468166D01*
X39213644Y36491221D01*
X39212500Y36514500D01*
X39212500Y37089500D01*
X39213644Y37112779D01*
X39217063Y37135834D01*
X39222727Y37158443D01*
X39230579Y37180387D01*
X39240544Y37201457D01*
X39252526Y37221448D01*
X39266410Y37240168D01*
X39282062Y37257438D01*
X39299332Y37273090D01*
X39318052Y37286974D01*
X39338043Y37298956D01*
X39359113Y37308921D01*
X39381057Y37316773D01*
X39403666Y37322437D01*
X39426721Y37325856D01*
X39450000Y37327000D01*
X39925000Y37327000D01*
X39948279Y37325856D01*
G37*
G04 #@! TD.AperFunction*
G04 #@! TA.AperFunction,SMDPad,CuDef*
G36*
X39948279Y35575856D02*
G01*
X39971334Y35572437D01*
X39993943Y35566773D01*
X40015887Y35558921D01*
X40036957Y35548956D01*
X40056948Y35536974D01*
X40075668Y35523090D01*
X40092938Y35507438D01*
X40108590Y35490168D01*
X40122474Y35471448D01*
X40134456Y35451457D01*
X40144421Y35430387D01*
X40152273Y35408443D01*
X40157937Y35385834D01*
X40161356Y35362779D01*
X40162500Y35339500D01*
X40162500Y34764500D01*
X40161356Y34741221D01*
X40157937Y34718166D01*
X40152273Y34695557D01*
X40144421Y34673613D01*
X40134456Y34652543D01*
X40122474Y34632552D01*
X40108590Y34613832D01*
X40092938Y34596562D01*
X40075668Y34580910D01*
X40056948Y34567026D01*
X40036957Y34555044D01*
X40015887Y34545079D01*
X39993943Y34537227D01*
X39971334Y34531563D01*
X39948279Y34528144D01*
X39925000Y34527000D01*
X39450000Y34527000D01*
X39426721Y34528144D01*
X39403666Y34531563D01*
X39381057Y34537227D01*
X39359113Y34545079D01*
X39338043Y34555044D01*
X39318052Y34567026D01*
X39299332Y34580910D01*
X39282062Y34596562D01*
X39266410Y34613832D01*
X39252526Y34632552D01*
X39240544Y34652543D01*
X39230579Y34673613D01*
X39222727Y34695557D01*
X39217063Y34718166D01*
X39213644Y34741221D01*
X39212500Y34764500D01*
X39212500Y35339500D01*
X39213644Y35362779D01*
X39217063Y35385834D01*
X39222727Y35408443D01*
X39230579Y35430387D01*
X39240544Y35451457D01*
X39252526Y35471448D01*
X39266410Y35490168D01*
X39282062Y35507438D01*
X39299332Y35523090D01*
X39318052Y35536974D01*
X39338043Y35548956D01*
X39359113Y35558921D01*
X39381057Y35566773D01*
X39403666Y35572437D01*
X39426721Y35575856D01*
X39450000Y35577000D01*
X39925000Y35577000D01*
X39948279Y35575856D01*
G37*
G04 #@! TD.AperFunction*
G04 #@! TA.AperFunction,SMDPad,CuDef*
G36*
X44821904Y37370856D02*
G01*
X44844959Y37367437D01*
X44867568Y37361773D01*
X44889512Y37353921D01*
X44910582Y37343956D01*
X44930573Y37331974D01*
X44949293Y37318090D01*
X44966563Y37302438D01*
X44982215Y37285168D01*
X44996099Y37266448D01*
X45008081Y37246457D01*
X45018046Y37225387D01*
X45025898Y37203443D01*
X45031562Y37180834D01*
X45034981Y37157779D01*
X45036125Y37134500D01*
X45036125Y36559500D01*
X45034981Y36536221D01*
X45031562Y36513166D01*
X45025898Y36490557D01*
X45018046Y36468613D01*
X45008081Y36447543D01*
X44996099Y36427552D01*
X44982215Y36408832D01*
X44966563Y36391562D01*
X44949293Y36375910D01*
X44930573Y36362026D01*
X44910582Y36350044D01*
X44889512Y36340079D01*
X44867568Y36332227D01*
X44844959Y36326563D01*
X44821904Y36323144D01*
X44798625Y36322000D01*
X44323625Y36322000D01*
X44300346Y36323144D01*
X44277291Y36326563D01*
X44254682Y36332227D01*
X44232738Y36340079D01*
X44211668Y36350044D01*
X44191677Y36362026D01*
X44172957Y36375910D01*
X44155687Y36391562D01*
X44140035Y36408832D01*
X44126151Y36427552D01*
X44114169Y36447543D01*
X44104204Y36468613D01*
X44096352Y36490557D01*
X44090688Y36513166D01*
X44087269Y36536221D01*
X44086125Y36559500D01*
X44086125Y37134500D01*
X44087269Y37157779D01*
X44090688Y37180834D01*
X44096352Y37203443D01*
X44104204Y37225387D01*
X44114169Y37246457D01*
X44126151Y37266448D01*
X44140035Y37285168D01*
X44155687Y37302438D01*
X44172957Y37318090D01*
X44191677Y37331974D01*
X44211668Y37343956D01*
X44232738Y37353921D01*
X44254682Y37361773D01*
X44277291Y37367437D01*
X44300346Y37370856D01*
X44323625Y37372000D01*
X44798625Y37372000D01*
X44821904Y37370856D01*
G37*
G04 #@! TD.AperFunction*
G04 #@! TA.AperFunction,SMDPad,CuDef*
G36*
X44821904Y35620856D02*
G01*
X44844959Y35617437D01*
X44867568Y35611773D01*
X44889512Y35603921D01*
X44910582Y35593956D01*
X44930573Y35581974D01*
X44949293Y35568090D01*
X44966563Y35552438D01*
X44982215Y35535168D01*
X44996099Y35516448D01*
X45008081Y35496457D01*
X45018046Y35475387D01*
X45025898Y35453443D01*
X45031562Y35430834D01*
X45034981Y35407779D01*
X45036125Y35384500D01*
X45036125Y34809500D01*
X45034981Y34786221D01*
X45031562Y34763166D01*
X45025898Y34740557D01*
X45018046Y34718613D01*
X45008081Y34697543D01*
X44996099Y34677552D01*
X44982215Y34658832D01*
X44966563Y34641562D01*
X44949293Y34625910D01*
X44930573Y34612026D01*
X44910582Y34600044D01*
X44889512Y34590079D01*
X44867568Y34582227D01*
X44844959Y34576563D01*
X44821904Y34573144D01*
X44798625Y34572000D01*
X44323625Y34572000D01*
X44300346Y34573144D01*
X44277291Y34576563D01*
X44254682Y34582227D01*
X44232738Y34590079D01*
X44211668Y34600044D01*
X44191677Y34612026D01*
X44172957Y34625910D01*
X44155687Y34641562D01*
X44140035Y34658832D01*
X44126151Y34677552D01*
X44114169Y34697543D01*
X44104204Y34718613D01*
X44096352Y34740557D01*
X44090688Y34763166D01*
X44087269Y34786221D01*
X44086125Y34809500D01*
X44086125Y35384500D01*
X44087269Y35407779D01*
X44090688Y35430834D01*
X44096352Y35453443D01*
X44104204Y35475387D01*
X44114169Y35496457D01*
X44126151Y35516448D01*
X44140035Y35535168D01*
X44155687Y35552438D01*
X44172957Y35568090D01*
X44191677Y35581974D01*
X44211668Y35593956D01*
X44232738Y35603921D01*
X44254682Y35611773D01*
X44277291Y35617437D01*
X44300346Y35620856D01*
X44323625Y35622000D01*
X44798625Y35622000D01*
X44821904Y35620856D01*
G37*
G04 #@! TD.AperFunction*
G04 #@! TA.AperFunction,SMDPad,CuDef*
G36*
X49695529Y37370856D02*
G01*
X49718584Y37367437D01*
X49741193Y37361773D01*
X49763137Y37353921D01*
X49784207Y37343956D01*
X49804198Y37331974D01*
X49822918Y37318090D01*
X49840188Y37302438D01*
X49855840Y37285168D01*
X49869724Y37266448D01*
X49881706Y37246457D01*
X49891671Y37225387D01*
X49899523Y37203443D01*
X49905187Y37180834D01*
X49908606Y37157779D01*
X49909750Y37134500D01*
X49909750Y36559500D01*
X49908606Y36536221D01*
X49905187Y36513166D01*
X49899523Y36490557D01*
X49891671Y36468613D01*
X49881706Y36447543D01*
X49869724Y36427552D01*
X49855840Y36408832D01*
X49840188Y36391562D01*
X49822918Y36375910D01*
X49804198Y36362026D01*
X49784207Y36350044D01*
X49763137Y36340079D01*
X49741193Y36332227D01*
X49718584Y36326563D01*
X49695529Y36323144D01*
X49672250Y36322000D01*
X49197250Y36322000D01*
X49173971Y36323144D01*
X49150916Y36326563D01*
X49128307Y36332227D01*
X49106363Y36340079D01*
X49085293Y36350044D01*
X49065302Y36362026D01*
X49046582Y36375910D01*
X49029312Y36391562D01*
X49013660Y36408832D01*
X48999776Y36427552D01*
X48987794Y36447543D01*
X48977829Y36468613D01*
X48969977Y36490557D01*
X48964313Y36513166D01*
X48960894Y36536221D01*
X48959750Y36559500D01*
X48959750Y37134500D01*
X48960894Y37157779D01*
X48964313Y37180834D01*
X48969977Y37203443D01*
X48977829Y37225387D01*
X48987794Y37246457D01*
X48999776Y37266448D01*
X49013660Y37285168D01*
X49029312Y37302438D01*
X49046582Y37318090D01*
X49065302Y37331974D01*
X49085293Y37343956D01*
X49106363Y37353921D01*
X49128307Y37361773D01*
X49150916Y37367437D01*
X49173971Y37370856D01*
X49197250Y37372000D01*
X49672250Y37372000D01*
X49695529Y37370856D01*
G37*
G04 #@! TD.AperFunction*
G04 #@! TA.AperFunction,SMDPad,CuDef*
G36*
X49695529Y35620856D02*
G01*
X49718584Y35617437D01*
X49741193Y35611773D01*
X49763137Y35603921D01*
X49784207Y35593956D01*
X49804198Y35581974D01*
X49822918Y35568090D01*
X49840188Y35552438D01*
X49855840Y35535168D01*
X49869724Y35516448D01*
X49881706Y35496457D01*
X49891671Y35475387D01*
X49899523Y35453443D01*
X49905187Y35430834D01*
X49908606Y35407779D01*
X49909750Y35384500D01*
X49909750Y34809500D01*
X49908606Y34786221D01*
X49905187Y34763166D01*
X49899523Y34740557D01*
X49891671Y34718613D01*
X49881706Y34697543D01*
X49869724Y34677552D01*
X49855840Y34658832D01*
X49840188Y34641562D01*
X49822918Y34625910D01*
X49804198Y34612026D01*
X49784207Y34600044D01*
X49763137Y34590079D01*
X49741193Y34582227D01*
X49718584Y34576563D01*
X49695529Y34573144D01*
X49672250Y34572000D01*
X49197250Y34572000D01*
X49173971Y34573144D01*
X49150916Y34576563D01*
X49128307Y34582227D01*
X49106363Y34590079D01*
X49085293Y34600044D01*
X49065302Y34612026D01*
X49046582Y34625910D01*
X49029312Y34641562D01*
X49013660Y34658832D01*
X48999776Y34677552D01*
X48987794Y34697543D01*
X48977829Y34718613D01*
X48969977Y34740557D01*
X48964313Y34763166D01*
X48960894Y34786221D01*
X48959750Y34809500D01*
X48959750Y35384500D01*
X48960894Y35407779D01*
X48964313Y35430834D01*
X48969977Y35453443D01*
X48977829Y35475387D01*
X48987794Y35496457D01*
X48999776Y35516448D01*
X49013660Y35535168D01*
X49029312Y35552438D01*
X49046582Y35568090D01*
X49065302Y35581974D01*
X49085293Y35593956D01*
X49106363Y35603921D01*
X49128307Y35611773D01*
X49150916Y35617437D01*
X49173971Y35620856D01*
X49197250Y35622000D01*
X49672250Y35622000D01*
X49695529Y35620856D01*
G37*
G04 #@! TD.AperFunction*
G04 #@! TA.AperFunction,SMDPad,CuDef*
G36*
X54569154Y37370856D02*
G01*
X54592209Y37367437D01*
X54614818Y37361773D01*
X54636762Y37353921D01*
X54657832Y37343956D01*
X54677823Y37331974D01*
X54696543Y37318090D01*
X54713813Y37302438D01*
X54729465Y37285168D01*
X54743349Y37266448D01*
X54755331Y37246457D01*
X54765296Y37225387D01*
X54773148Y37203443D01*
X54778812Y37180834D01*
X54782231Y37157779D01*
X54783375Y37134500D01*
X54783375Y36559500D01*
X54782231Y36536221D01*
X54778812Y36513166D01*
X54773148Y36490557D01*
X54765296Y36468613D01*
X54755331Y36447543D01*
X54743349Y36427552D01*
X54729465Y36408832D01*
X54713813Y36391562D01*
X54696543Y36375910D01*
X54677823Y36362026D01*
X54657832Y36350044D01*
X54636762Y36340079D01*
X54614818Y36332227D01*
X54592209Y36326563D01*
X54569154Y36323144D01*
X54545875Y36322000D01*
X54070875Y36322000D01*
X54047596Y36323144D01*
X54024541Y36326563D01*
X54001932Y36332227D01*
X53979988Y36340079D01*
X53958918Y36350044D01*
X53938927Y36362026D01*
X53920207Y36375910D01*
X53902937Y36391562D01*
X53887285Y36408832D01*
X53873401Y36427552D01*
X53861419Y36447543D01*
X53851454Y36468613D01*
X53843602Y36490557D01*
X53837938Y36513166D01*
X53834519Y36536221D01*
X53833375Y36559500D01*
X53833375Y37134500D01*
X53834519Y37157779D01*
X53837938Y37180834D01*
X53843602Y37203443D01*
X53851454Y37225387D01*
X53861419Y37246457D01*
X53873401Y37266448D01*
X53887285Y37285168D01*
X53902937Y37302438D01*
X53920207Y37318090D01*
X53938927Y37331974D01*
X53958918Y37343956D01*
X53979988Y37353921D01*
X54001932Y37361773D01*
X54024541Y37367437D01*
X54047596Y37370856D01*
X54070875Y37372000D01*
X54545875Y37372000D01*
X54569154Y37370856D01*
G37*
G04 #@! TD.AperFunction*
G04 #@! TA.AperFunction,SMDPad,CuDef*
G36*
X54569154Y35620856D02*
G01*
X54592209Y35617437D01*
X54614818Y35611773D01*
X54636762Y35603921D01*
X54657832Y35593956D01*
X54677823Y35581974D01*
X54696543Y35568090D01*
X54713813Y35552438D01*
X54729465Y35535168D01*
X54743349Y35516448D01*
X54755331Y35496457D01*
X54765296Y35475387D01*
X54773148Y35453443D01*
X54778812Y35430834D01*
X54782231Y35407779D01*
X54783375Y35384500D01*
X54783375Y34809500D01*
X54782231Y34786221D01*
X54778812Y34763166D01*
X54773148Y34740557D01*
X54765296Y34718613D01*
X54755331Y34697543D01*
X54743349Y34677552D01*
X54729465Y34658832D01*
X54713813Y34641562D01*
X54696543Y34625910D01*
X54677823Y34612026D01*
X54657832Y34600044D01*
X54636762Y34590079D01*
X54614818Y34582227D01*
X54592209Y34576563D01*
X54569154Y34573144D01*
X54545875Y34572000D01*
X54070875Y34572000D01*
X54047596Y34573144D01*
X54024541Y34576563D01*
X54001932Y34582227D01*
X53979988Y34590079D01*
X53958918Y34600044D01*
X53938927Y34612026D01*
X53920207Y34625910D01*
X53902937Y34641562D01*
X53887285Y34658832D01*
X53873401Y34677552D01*
X53861419Y34697543D01*
X53851454Y34718613D01*
X53843602Y34740557D01*
X53837938Y34763166D01*
X53834519Y34786221D01*
X53833375Y34809500D01*
X53833375Y35384500D01*
X53834519Y35407779D01*
X53837938Y35430834D01*
X53843602Y35453443D01*
X53851454Y35475387D01*
X53861419Y35496457D01*
X53873401Y35516448D01*
X53887285Y35535168D01*
X53902937Y35552438D01*
X53920207Y35568090D01*
X53938927Y35581974D01*
X53958918Y35593956D01*
X53979988Y35603921D01*
X54001932Y35611773D01*
X54024541Y35617437D01*
X54047596Y35620856D01*
X54070875Y35622000D01*
X54545875Y35622000D01*
X54569154Y35620856D01*
G37*
G04 #@! TD.AperFunction*
G04 #@! TA.AperFunction,SMDPad,CuDef*
G36*
X59442779Y37370856D02*
G01*
X59465834Y37367437D01*
X59488443Y37361773D01*
X59510387Y37353921D01*
X59531457Y37343956D01*
X59551448Y37331974D01*
X59570168Y37318090D01*
X59587438Y37302438D01*
X59603090Y37285168D01*
X59616974Y37266448D01*
X59628956Y37246457D01*
X59638921Y37225387D01*
X59646773Y37203443D01*
X59652437Y37180834D01*
X59655856Y37157779D01*
X59657000Y37134500D01*
X59657000Y36559500D01*
X59655856Y36536221D01*
X59652437Y36513166D01*
X59646773Y36490557D01*
X59638921Y36468613D01*
X59628956Y36447543D01*
X59616974Y36427552D01*
X59603090Y36408832D01*
X59587438Y36391562D01*
X59570168Y36375910D01*
X59551448Y36362026D01*
X59531457Y36350044D01*
X59510387Y36340079D01*
X59488443Y36332227D01*
X59465834Y36326563D01*
X59442779Y36323144D01*
X59419500Y36322000D01*
X58944500Y36322000D01*
X58921221Y36323144D01*
X58898166Y36326563D01*
X58875557Y36332227D01*
X58853613Y36340079D01*
X58832543Y36350044D01*
X58812552Y36362026D01*
X58793832Y36375910D01*
X58776562Y36391562D01*
X58760910Y36408832D01*
X58747026Y36427552D01*
X58735044Y36447543D01*
X58725079Y36468613D01*
X58717227Y36490557D01*
X58711563Y36513166D01*
X58708144Y36536221D01*
X58707000Y36559500D01*
X58707000Y37134500D01*
X58708144Y37157779D01*
X58711563Y37180834D01*
X58717227Y37203443D01*
X58725079Y37225387D01*
X58735044Y37246457D01*
X58747026Y37266448D01*
X58760910Y37285168D01*
X58776562Y37302438D01*
X58793832Y37318090D01*
X58812552Y37331974D01*
X58832543Y37343956D01*
X58853613Y37353921D01*
X58875557Y37361773D01*
X58898166Y37367437D01*
X58921221Y37370856D01*
X58944500Y37372000D01*
X59419500Y37372000D01*
X59442779Y37370856D01*
G37*
G04 #@! TD.AperFunction*
G04 #@! TA.AperFunction,SMDPad,CuDef*
G36*
X59442779Y35620856D02*
G01*
X59465834Y35617437D01*
X59488443Y35611773D01*
X59510387Y35603921D01*
X59531457Y35593956D01*
X59551448Y35581974D01*
X59570168Y35568090D01*
X59587438Y35552438D01*
X59603090Y35535168D01*
X59616974Y35516448D01*
X59628956Y35496457D01*
X59638921Y35475387D01*
X59646773Y35453443D01*
X59652437Y35430834D01*
X59655856Y35407779D01*
X59657000Y35384500D01*
X59657000Y34809500D01*
X59655856Y34786221D01*
X59652437Y34763166D01*
X59646773Y34740557D01*
X59638921Y34718613D01*
X59628956Y34697543D01*
X59616974Y34677552D01*
X59603090Y34658832D01*
X59587438Y34641562D01*
X59570168Y34625910D01*
X59551448Y34612026D01*
X59531457Y34600044D01*
X59510387Y34590079D01*
X59488443Y34582227D01*
X59465834Y34576563D01*
X59442779Y34573144D01*
X59419500Y34572000D01*
X58944500Y34572000D01*
X58921221Y34573144D01*
X58898166Y34576563D01*
X58875557Y34582227D01*
X58853613Y34590079D01*
X58832543Y34600044D01*
X58812552Y34612026D01*
X58793832Y34625910D01*
X58776562Y34641562D01*
X58760910Y34658832D01*
X58747026Y34677552D01*
X58735044Y34697543D01*
X58725079Y34718613D01*
X58717227Y34740557D01*
X58711563Y34763166D01*
X58708144Y34786221D01*
X58707000Y34809500D01*
X58707000Y35384500D01*
X58708144Y35407779D01*
X58711563Y35430834D01*
X58717227Y35453443D01*
X58725079Y35475387D01*
X58735044Y35496457D01*
X58747026Y35516448D01*
X58760910Y35535168D01*
X58776562Y35552438D01*
X58793832Y35568090D01*
X58812552Y35581974D01*
X58832543Y35593956D01*
X58853613Y35603921D01*
X58875557Y35611773D01*
X58898166Y35617437D01*
X58921221Y35620856D01*
X58944500Y35622000D01*
X59419500Y35622000D01*
X59442779Y35620856D01*
G37*
G04 #@! TD.AperFunction*
G04 #@! TA.AperFunction,SMDPad,CuDef*
G36*
X64316404Y37370856D02*
G01*
X64339459Y37367437D01*
X64362068Y37361773D01*
X64384012Y37353921D01*
X64405082Y37343956D01*
X64425073Y37331974D01*
X64443793Y37318090D01*
X64461063Y37302438D01*
X64476715Y37285168D01*
X64490599Y37266448D01*
X64502581Y37246457D01*
X64512546Y37225387D01*
X64520398Y37203443D01*
X64526062Y37180834D01*
X64529481Y37157779D01*
X64530625Y37134500D01*
X64530625Y36559500D01*
X64529481Y36536221D01*
X64526062Y36513166D01*
X64520398Y36490557D01*
X64512546Y36468613D01*
X64502581Y36447543D01*
X64490599Y36427552D01*
X64476715Y36408832D01*
X64461063Y36391562D01*
X64443793Y36375910D01*
X64425073Y36362026D01*
X64405082Y36350044D01*
X64384012Y36340079D01*
X64362068Y36332227D01*
X64339459Y36326563D01*
X64316404Y36323144D01*
X64293125Y36322000D01*
X63818125Y36322000D01*
X63794846Y36323144D01*
X63771791Y36326563D01*
X63749182Y36332227D01*
X63727238Y36340079D01*
X63706168Y36350044D01*
X63686177Y36362026D01*
X63667457Y36375910D01*
X63650187Y36391562D01*
X63634535Y36408832D01*
X63620651Y36427552D01*
X63608669Y36447543D01*
X63598704Y36468613D01*
X63590852Y36490557D01*
X63585188Y36513166D01*
X63581769Y36536221D01*
X63580625Y36559500D01*
X63580625Y37134500D01*
X63581769Y37157779D01*
X63585188Y37180834D01*
X63590852Y37203443D01*
X63598704Y37225387D01*
X63608669Y37246457D01*
X63620651Y37266448D01*
X63634535Y37285168D01*
X63650187Y37302438D01*
X63667457Y37318090D01*
X63686177Y37331974D01*
X63706168Y37343956D01*
X63727238Y37353921D01*
X63749182Y37361773D01*
X63771791Y37367437D01*
X63794846Y37370856D01*
X63818125Y37372000D01*
X64293125Y37372000D01*
X64316404Y37370856D01*
G37*
G04 #@! TD.AperFunction*
G04 #@! TA.AperFunction,SMDPad,CuDef*
G36*
X64316404Y35620856D02*
G01*
X64339459Y35617437D01*
X64362068Y35611773D01*
X64384012Y35603921D01*
X64405082Y35593956D01*
X64425073Y35581974D01*
X64443793Y35568090D01*
X64461063Y35552438D01*
X64476715Y35535168D01*
X64490599Y35516448D01*
X64502581Y35496457D01*
X64512546Y35475387D01*
X64520398Y35453443D01*
X64526062Y35430834D01*
X64529481Y35407779D01*
X64530625Y35384500D01*
X64530625Y34809500D01*
X64529481Y34786221D01*
X64526062Y34763166D01*
X64520398Y34740557D01*
X64512546Y34718613D01*
X64502581Y34697543D01*
X64490599Y34677552D01*
X64476715Y34658832D01*
X64461063Y34641562D01*
X64443793Y34625910D01*
X64425073Y34612026D01*
X64405082Y34600044D01*
X64384012Y34590079D01*
X64362068Y34582227D01*
X64339459Y34576563D01*
X64316404Y34573144D01*
X64293125Y34572000D01*
X63818125Y34572000D01*
X63794846Y34573144D01*
X63771791Y34576563D01*
X63749182Y34582227D01*
X63727238Y34590079D01*
X63706168Y34600044D01*
X63686177Y34612026D01*
X63667457Y34625910D01*
X63650187Y34641562D01*
X63634535Y34658832D01*
X63620651Y34677552D01*
X63608669Y34697543D01*
X63598704Y34718613D01*
X63590852Y34740557D01*
X63585188Y34763166D01*
X63581769Y34786221D01*
X63580625Y34809500D01*
X63580625Y35384500D01*
X63581769Y35407779D01*
X63585188Y35430834D01*
X63590852Y35453443D01*
X63598704Y35475387D01*
X63608669Y35496457D01*
X63620651Y35516448D01*
X63634535Y35535168D01*
X63650187Y35552438D01*
X63667457Y35568090D01*
X63686177Y35581974D01*
X63706168Y35593956D01*
X63727238Y35603921D01*
X63749182Y35611773D01*
X63771791Y35617437D01*
X63794846Y35620856D01*
X63818125Y35622000D01*
X64293125Y35622000D01*
X64316404Y35620856D01*
G37*
G04 #@! TD.AperFunction*
G04 #@! TA.AperFunction,SMDPad,CuDef*
G36*
X69190029Y37370856D02*
G01*
X69213084Y37367437D01*
X69235693Y37361773D01*
X69257637Y37353921D01*
X69278707Y37343956D01*
X69298698Y37331974D01*
X69317418Y37318090D01*
X69334688Y37302438D01*
X69350340Y37285168D01*
X69364224Y37266448D01*
X69376206Y37246457D01*
X69386171Y37225387D01*
X69394023Y37203443D01*
X69399687Y37180834D01*
X69403106Y37157779D01*
X69404250Y37134500D01*
X69404250Y36559500D01*
X69403106Y36536221D01*
X69399687Y36513166D01*
X69394023Y36490557D01*
X69386171Y36468613D01*
X69376206Y36447543D01*
X69364224Y36427552D01*
X69350340Y36408832D01*
X69334688Y36391562D01*
X69317418Y36375910D01*
X69298698Y36362026D01*
X69278707Y36350044D01*
X69257637Y36340079D01*
X69235693Y36332227D01*
X69213084Y36326563D01*
X69190029Y36323144D01*
X69166750Y36322000D01*
X68691750Y36322000D01*
X68668471Y36323144D01*
X68645416Y36326563D01*
X68622807Y36332227D01*
X68600863Y36340079D01*
X68579793Y36350044D01*
X68559802Y36362026D01*
X68541082Y36375910D01*
X68523812Y36391562D01*
X68508160Y36408832D01*
X68494276Y36427552D01*
X68482294Y36447543D01*
X68472329Y36468613D01*
X68464477Y36490557D01*
X68458813Y36513166D01*
X68455394Y36536221D01*
X68454250Y36559500D01*
X68454250Y37134500D01*
X68455394Y37157779D01*
X68458813Y37180834D01*
X68464477Y37203443D01*
X68472329Y37225387D01*
X68482294Y37246457D01*
X68494276Y37266448D01*
X68508160Y37285168D01*
X68523812Y37302438D01*
X68541082Y37318090D01*
X68559802Y37331974D01*
X68579793Y37343956D01*
X68600863Y37353921D01*
X68622807Y37361773D01*
X68645416Y37367437D01*
X68668471Y37370856D01*
X68691750Y37372000D01*
X69166750Y37372000D01*
X69190029Y37370856D01*
G37*
G04 #@! TD.AperFunction*
G04 #@! TA.AperFunction,SMDPad,CuDef*
G36*
X69190029Y35620856D02*
G01*
X69213084Y35617437D01*
X69235693Y35611773D01*
X69257637Y35603921D01*
X69278707Y35593956D01*
X69298698Y35581974D01*
X69317418Y35568090D01*
X69334688Y35552438D01*
X69350340Y35535168D01*
X69364224Y35516448D01*
X69376206Y35496457D01*
X69386171Y35475387D01*
X69394023Y35453443D01*
X69399687Y35430834D01*
X69403106Y35407779D01*
X69404250Y35384500D01*
X69404250Y34809500D01*
X69403106Y34786221D01*
X69399687Y34763166D01*
X69394023Y34740557D01*
X69386171Y34718613D01*
X69376206Y34697543D01*
X69364224Y34677552D01*
X69350340Y34658832D01*
X69334688Y34641562D01*
X69317418Y34625910D01*
X69298698Y34612026D01*
X69278707Y34600044D01*
X69257637Y34590079D01*
X69235693Y34582227D01*
X69213084Y34576563D01*
X69190029Y34573144D01*
X69166750Y34572000D01*
X68691750Y34572000D01*
X68668471Y34573144D01*
X68645416Y34576563D01*
X68622807Y34582227D01*
X68600863Y34590079D01*
X68579793Y34600044D01*
X68559802Y34612026D01*
X68541082Y34625910D01*
X68523812Y34641562D01*
X68508160Y34658832D01*
X68494276Y34677552D01*
X68482294Y34697543D01*
X68472329Y34718613D01*
X68464477Y34740557D01*
X68458813Y34763166D01*
X68455394Y34786221D01*
X68454250Y34809500D01*
X68454250Y35384500D01*
X68455394Y35407779D01*
X68458813Y35430834D01*
X68464477Y35453443D01*
X68472329Y35475387D01*
X68482294Y35496457D01*
X68494276Y35516448D01*
X68508160Y35535168D01*
X68523812Y35552438D01*
X68541082Y35568090D01*
X68559802Y35581974D01*
X68579793Y35593956D01*
X68600863Y35603921D01*
X68622807Y35611773D01*
X68645416Y35617437D01*
X68668471Y35620856D01*
X68691750Y35622000D01*
X69166750Y35622000D01*
X69190029Y35620856D01*
G37*
G04 #@! TD.AperFunction*
G04 #@! TA.AperFunction,SMDPad,CuDef*
G36*
X74063654Y37370856D02*
G01*
X74086709Y37367437D01*
X74109318Y37361773D01*
X74131262Y37353921D01*
X74152332Y37343956D01*
X74172323Y37331974D01*
X74191043Y37318090D01*
X74208313Y37302438D01*
X74223965Y37285168D01*
X74237849Y37266448D01*
X74249831Y37246457D01*
X74259796Y37225387D01*
X74267648Y37203443D01*
X74273312Y37180834D01*
X74276731Y37157779D01*
X74277875Y37134500D01*
X74277875Y36559500D01*
X74276731Y36536221D01*
X74273312Y36513166D01*
X74267648Y36490557D01*
X74259796Y36468613D01*
X74249831Y36447543D01*
X74237849Y36427552D01*
X74223965Y36408832D01*
X74208313Y36391562D01*
X74191043Y36375910D01*
X74172323Y36362026D01*
X74152332Y36350044D01*
X74131262Y36340079D01*
X74109318Y36332227D01*
X74086709Y36326563D01*
X74063654Y36323144D01*
X74040375Y36322000D01*
X73565375Y36322000D01*
X73542096Y36323144D01*
X73519041Y36326563D01*
X73496432Y36332227D01*
X73474488Y36340079D01*
X73453418Y36350044D01*
X73433427Y36362026D01*
X73414707Y36375910D01*
X73397437Y36391562D01*
X73381785Y36408832D01*
X73367901Y36427552D01*
X73355919Y36447543D01*
X73345954Y36468613D01*
X73338102Y36490557D01*
X73332438Y36513166D01*
X73329019Y36536221D01*
X73327875Y36559500D01*
X73327875Y37134500D01*
X73329019Y37157779D01*
X73332438Y37180834D01*
X73338102Y37203443D01*
X73345954Y37225387D01*
X73355919Y37246457D01*
X73367901Y37266448D01*
X73381785Y37285168D01*
X73397437Y37302438D01*
X73414707Y37318090D01*
X73433427Y37331974D01*
X73453418Y37343956D01*
X73474488Y37353921D01*
X73496432Y37361773D01*
X73519041Y37367437D01*
X73542096Y37370856D01*
X73565375Y37372000D01*
X74040375Y37372000D01*
X74063654Y37370856D01*
G37*
G04 #@! TD.AperFunction*
G04 #@! TA.AperFunction,SMDPad,CuDef*
G36*
X74063654Y35620856D02*
G01*
X74086709Y35617437D01*
X74109318Y35611773D01*
X74131262Y35603921D01*
X74152332Y35593956D01*
X74172323Y35581974D01*
X74191043Y35568090D01*
X74208313Y35552438D01*
X74223965Y35535168D01*
X74237849Y35516448D01*
X74249831Y35496457D01*
X74259796Y35475387D01*
X74267648Y35453443D01*
X74273312Y35430834D01*
X74276731Y35407779D01*
X74277875Y35384500D01*
X74277875Y34809500D01*
X74276731Y34786221D01*
X74273312Y34763166D01*
X74267648Y34740557D01*
X74259796Y34718613D01*
X74249831Y34697543D01*
X74237849Y34677552D01*
X74223965Y34658832D01*
X74208313Y34641562D01*
X74191043Y34625910D01*
X74172323Y34612026D01*
X74152332Y34600044D01*
X74131262Y34590079D01*
X74109318Y34582227D01*
X74086709Y34576563D01*
X74063654Y34573144D01*
X74040375Y34572000D01*
X73565375Y34572000D01*
X73542096Y34573144D01*
X73519041Y34576563D01*
X73496432Y34582227D01*
X73474488Y34590079D01*
X73453418Y34600044D01*
X73433427Y34612026D01*
X73414707Y34625910D01*
X73397437Y34641562D01*
X73381785Y34658832D01*
X73367901Y34677552D01*
X73355919Y34697543D01*
X73345954Y34718613D01*
X73338102Y34740557D01*
X73332438Y34763166D01*
X73329019Y34786221D01*
X73327875Y34809500D01*
X73327875Y35384500D01*
X73329019Y35407779D01*
X73332438Y35430834D01*
X73338102Y35453443D01*
X73345954Y35475387D01*
X73355919Y35496457D01*
X73367901Y35516448D01*
X73381785Y35535168D01*
X73397437Y35552438D01*
X73414707Y35568090D01*
X73433427Y35581974D01*
X73453418Y35593956D01*
X73474488Y35603921D01*
X73496432Y35611773D01*
X73519041Y35617437D01*
X73542096Y35620856D01*
X73565375Y35622000D01*
X74040375Y35622000D01*
X74063654Y35620856D01*
G37*
G04 #@! TD.AperFunction*
G04 #@! TA.AperFunction,SMDPad,CuDef*
G36*
X78937279Y37370856D02*
G01*
X78960334Y37367437D01*
X78982943Y37361773D01*
X79004887Y37353921D01*
X79025957Y37343956D01*
X79045948Y37331974D01*
X79064668Y37318090D01*
X79081938Y37302438D01*
X79097590Y37285168D01*
X79111474Y37266448D01*
X79123456Y37246457D01*
X79133421Y37225387D01*
X79141273Y37203443D01*
X79146937Y37180834D01*
X79150356Y37157779D01*
X79151500Y37134500D01*
X79151500Y36559500D01*
X79150356Y36536221D01*
X79146937Y36513166D01*
X79141273Y36490557D01*
X79133421Y36468613D01*
X79123456Y36447543D01*
X79111474Y36427552D01*
X79097590Y36408832D01*
X79081938Y36391562D01*
X79064668Y36375910D01*
X79045948Y36362026D01*
X79025957Y36350044D01*
X79004887Y36340079D01*
X78982943Y36332227D01*
X78960334Y36326563D01*
X78937279Y36323144D01*
X78914000Y36322000D01*
X78439000Y36322000D01*
X78415721Y36323144D01*
X78392666Y36326563D01*
X78370057Y36332227D01*
X78348113Y36340079D01*
X78327043Y36350044D01*
X78307052Y36362026D01*
X78288332Y36375910D01*
X78271062Y36391562D01*
X78255410Y36408832D01*
X78241526Y36427552D01*
X78229544Y36447543D01*
X78219579Y36468613D01*
X78211727Y36490557D01*
X78206063Y36513166D01*
X78202644Y36536221D01*
X78201500Y36559500D01*
X78201500Y37134500D01*
X78202644Y37157779D01*
X78206063Y37180834D01*
X78211727Y37203443D01*
X78219579Y37225387D01*
X78229544Y37246457D01*
X78241526Y37266448D01*
X78255410Y37285168D01*
X78271062Y37302438D01*
X78288332Y37318090D01*
X78307052Y37331974D01*
X78327043Y37343956D01*
X78348113Y37353921D01*
X78370057Y37361773D01*
X78392666Y37367437D01*
X78415721Y37370856D01*
X78439000Y37372000D01*
X78914000Y37372000D01*
X78937279Y37370856D01*
G37*
G04 #@! TD.AperFunction*
G04 #@! TA.AperFunction,SMDPad,CuDef*
G36*
X78937279Y35620856D02*
G01*
X78960334Y35617437D01*
X78982943Y35611773D01*
X79004887Y35603921D01*
X79025957Y35593956D01*
X79045948Y35581974D01*
X79064668Y35568090D01*
X79081938Y35552438D01*
X79097590Y35535168D01*
X79111474Y35516448D01*
X79123456Y35496457D01*
X79133421Y35475387D01*
X79141273Y35453443D01*
X79146937Y35430834D01*
X79150356Y35407779D01*
X79151500Y35384500D01*
X79151500Y34809500D01*
X79150356Y34786221D01*
X79146937Y34763166D01*
X79141273Y34740557D01*
X79133421Y34718613D01*
X79123456Y34697543D01*
X79111474Y34677552D01*
X79097590Y34658832D01*
X79081938Y34641562D01*
X79064668Y34625910D01*
X79045948Y34612026D01*
X79025957Y34600044D01*
X79004887Y34590079D01*
X78982943Y34582227D01*
X78960334Y34576563D01*
X78937279Y34573144D01*
X78914000Y34572000D01*
X78439000Y34572000D01*
X78415721Y34573144D01*
X78392666Y34576563D01*
X78370057Y34582227D01*
X78348113Y34590079D01*
X78327043Y34600044D01*
X78307052Y34612026D01*
X78288332Y34625910D01*
X78271062Y34641562D01*
X78255410Y34658832D01*
X78241526Y34677552D01*
X78229544Y34697543D01*
X78219579Y34718613D01*
X78211727Y34740557D01*
X78206063Y34763166D01*
X78202644Y34786221D01*
X78201500Y34809500D01*
X78201500Y35384500D01*
X78202644Y35407779D01*
X78206063Y35430834D01*
X78211727Y35453443D01*
X78219579Y35475387D01*
X78229544Y35496457D01*
X78241526Y35516448D01*
X78255410Y35535168D01*
X78271062Y35552438D01*
X78288332Y35568090D01*
X78307052Y35581974D01*
X78327043Y35593956D01*
X78348113Y35603921D01*
X78370057Y35611773D01*
X78392666Y35617437D01*
X78415721Y35620856D01*
X78439000Y35622000D01*
X78914000Y35622000D01*
X78937279Y35620856D01*
G37*
G04 #@! TD.AperFunction*
G04 #@! TA.AperFunction,SMDPad,CuDef*
G36*
X83810904Y37370856D02*
G01*
X83833959Y37367437D01*
X83856568Y37361773D01*
X83878512Y37353921D01*
X83899582Y37343956D01*
X83919573Y37331974D01*
X83938293Y37318090D01*
X83955563Y37302438D01*
X83971215Y37285168D01*
X83985099Y37266448D01*
X83997081Y37246457D01*
X84007046Y37225387D01*
X84014898Y37203443D01*
X84020562Y37180834D01*
X84023981Y37157779D01*
X84025125Y37134500D01*
X84025125Y36559500D01*
X84023981Y36536221D01*
X84020562Y36513166D01*
X84014898Y36490557D01*
X84007046Y36468613D01*
X83997081Y36447543D01*
X83985099Y36427552D01*
X83971215Y36408832D01*
X83955563Y36391562D01*
X83938293Y36375910D01*
X83919573Y36362026D01*
X83899582Y36350044D01*
X83878512Y36340079D01*
X83856568Y36332227D01*
X83833959Y36326563D01*
X83810904Y36323144D01*
X83787625Y36322000D01*
X83312625Y36322000D01*
X83289346Y36323144D01*
X83266291Y36326563D01*
X83243682Y36332227D01*
X83221738Y36340079D01*
X83200668Y36350044D01*
X83180677Y36362026D01*
X83161957Y36375910D01*
X83144687Y36391562D01*
X83129035Y36408832D01*
X83115151Y36427552D01*
X83103169Y36447543D01*
X83093204Y36468613D01*
X83085352Y36490557D01*
X83079688Y36513166D01*
X83076269Y36536221D01*
X83075125Y36559500D01*
X83075125Y37134500D01*
X83076269Y37157779D01*
X83079688Y37180834D01*
X83085352Y37203443D01*
X83093204Y37225387D01*
X83103169Y37246457D01*
X83115151Y37266448D01*
X83129035Y37285168D01*
X83144687Y37302438D01*
X83161957Y37318090D01*
X83180677Y37331974D01*
X83200668Y37343956D01*
X83221738Y37353921D01*
X83243682Y37361773D01*
X83266291Y37367437D01*
X83289346Y37370856D01*
X83312625Y37372000D01*
X83787625Y37372000D01*
X83810904Y37370856D01*
G37*
G04 #@! TD.AperFunction*
G04 #@! TA.AperFunction,SMDPad,CuDef*
G36*
X83810904Y35620856D02*
G01*
X83833959Y35617437D01*
X83856568Y35611773D01*
X83878512Y35603921D01*
X83899582Y35593956D01*
X83919573Y35581974D01*
X83938293Y35568090D01*
X83955563Y35552438D01*
X83971215Y35535168D01*
X83985099Y35516448D01*
X83997081Y35496457D01*
X84007046Y35475387D01*
X84014898Y35453443D01*
X84020562Y35430834D01*
X84023981Y35407779D01*
X84025125Y35384500D01*
X84025125Y34809500D01*
X84023981Y34786221D01*
X84020562Y34763166D01*
X84014898Y34740557D01*
X84007046Y34718613D01*
X83997081Y34697543D01*
X83985099Y34677552D01*
X83971215Y34658832D01*
X83955563Y34641562D01*
X83938293Y34625910D01*
X83919573Y34612026D01*
X83899582Y34600044D01*
X83878512Y34590079D01*
X83856568Y34582227D01*
X83833959Y34576563D01*
X83810904Y34573144D01*
X83787625Y34572000D01*
X83312625Y34572000D01*
X83289346Y34573144D01*
X83266291Y34576563D01*
X83243682Y34582227D01*
X83221738Y34590079D01*
X83200668Y34600044D01*
X83180677Y34612026D01*
X83161957Y34625910D01*
X83144687Y34641562D01*
X83129035Y34658832D01*
X83115151Y34677552D01*
X83103169Y34697543D01*
X83093204Y34718613D01*
X83085352Y34740557D01*
X83079688Y34763166D01*
X83076269Y34786221D01*
X83075125Y34809500D01*
X83075125Y35384500D01*
X83076269Y35407779D01*
X83079688Y35430834D01*
X83085352Y35453443D01*
X83093204Y35475387D01*
X83103169Y35496457D01*
X83115151Y35516448D01*
X83129035Y35535168D01*
X83144687Y35552438D01*
X83161957Y35568090D01*
X83180677Y35581974D01*
X83200668Y35593956D01*
X83221738Y35603921D01*
X83243682Y35611773D01*
X83266291Y35617437D01*
X83289346Y35620856D01*
X83312625Y35622000D01*
X83787625Y35622000D01*
X83810904Y35620856D01*
G37*
G04 #@! TD.AperFunction*
G04 #@! TA.AperFunction,SMDPad,CuDef*
G36*
X88684529Y37370856D02*
G01*
X88707584Y37367437D01*
X88730193Y37361773D01*
X88752137Y37353921D01*
X88773207Y37343956D01*
X88793198Y37331974D01*
X88811918Y37318090D01*
X88829188Y37302438D01*
X88844840Y37285168D01*
X88858724Y37266448D01*
X88870706Y37246457D01*
X88880671Y37225387D01*
X88888523Y37203443D01*
X88894187Y37180834D01*
X88897606Y37157779D01*
X88898750Y37134500D01*
X88898750Y36559500D01*
X88897606Y36536221D01*
X88894187Y36513166D01*
X88888523Y36490557D01*
X88880671Y36468613D01*
X88870706Y36447543D01*
X88858724Y36427552D01*
X88844840Y36408832D01*
X88829188Y36391562D01*
X88811918Y36375910D01*
X88793198Y36362026D01*
X88773207Y36350044D01*
X88752137Y36340079D01*
X88730193Y36332227D01*
X88707584Y36326563D01*
X88684529Y36323144D01*
X88661250Y36322000D01*
X88186250Y36322000D01*
X88162971Y36323144D01*
X88139916Y36326563D01*
X88117307Y36332227D01*
X88095363Y36340079D01*
X88074293Y36350044D01*
X88054302Y36362026D01*
X88035582Y36375910D01*
X88018312Y36391562D01*
X88002660Y36408832D01*
X87988776Y36427552D01*
X87976794Y36447543D01*
X87966829Y36468613D01*
X87958977Y36490557D01*
X87953313Y36513166D01*
X87949894Y36536221D01*
X87948750Y36559500D01*
X87948750Y37134500D01*
X87949894Y37157779D01*
X87953313Y37180834D01*
X87958977Y37203443D01*
X87966829Y37225387D01*
X87976794Y37246457D01*
X87988776Y37266448D01*
X88002660Y37285168D01*
X88018312Y37302438D01*
X88035582Y37318090D01*
X88054302Y37331974D01*
X88074293Y37343956D01*
X88095363Y37353921D01*
X88117307Y37361773D01*
X88139916Y37367437D01*
X88162971Y37370856D01*
X88186250Y37372000D01*
X88661250Y37372000D01*
X88684529Y37370856D01*
G37*
G04 #@! TD.AperFunction*
G04 #@! TA.AperFunction,SMDPad,CuDef*
G36*
X88684529Y35620856D02*
G01*
X88707584Y35617437D01*
X88730193Y35611773D01*
X88752137Y35603921D01*
X88773207Y35593956D01*
X88793198Y35581974D01*
X88811918Y35568090D01*
X88829188Y35552438D01*
X88844840Y35535168D01*
X88858724Y35516448D01*
X88870706Y35496457D01*
X88880671Y35475387D01*
X88888523Y35453443D01*
X88894187Y35430834D01*
X88897606Y35407779D01*
X88898750Y35384500D01*
X88898750Y34809500D01*
X88897606Y34786221D01*
X88894187Y34763166D01*
X88888523Y34740557D01*
X88880671Y34718613D01*
X88870706Y34697543D01*
X88858724Y34677552D01*
X88844840Y34658832D01*
X88829188Y34641562D01*
X88811918Y34625910D01*
X88793198Y34612026D01*
X88773207Y34600044D01*
X88752137Y34590079D01*
X88730193Y34582227D01*
X88707584Y34576563D01*
X88684529Y34573144D01*
X88661250Y34572000D01*
X88186250Y34572000D01*
X88162971Y34573144D01*
X88139916Y34576563D01*
X88117307Y34582227D01*
X88095363Y34590079D01*
X88074293Y34600044D01*
X88054302Y34612026D01*
X88035582Y34625910D01*
X88018312Y34641562D01*
X88002660Y34658832D01*
X87988776Y34677552D01*
X87976794Y34697543D01*
X87966829Y34718613D01*
X87958977Y34740557D01*
X87953313Y34763166D01*
X87949894Y34786221D01*
X87948750Y34809500D01*
X87948750Y35384500D01*
X87949894Y35407779D01*
X87953313Y35430834D01*
X87958977Y35453443D01*
X87966829Y35475387D01*
X87976794Y35496457D01*
X87988776Y35516448D01*
X88002660Y35535168D01*
X88018312Y35552438D01*
X88035582Y35568090D01*
X88054302Y35581974D01*
X88074293Y35593956D01*
X88095363Y35603921D01*
X88117307Y35611773D01*
X88139916Y35617437D01*
X88162971Y35620856D01*
X88186250Y35622000D01*
X88661250Y35622000D01*
X88684529Y35620856D01*
G37*
G04 #@! TD.AperFunction*
G04 #@! TA.AperFunction,SMDPad,CuDef*
G36*
X93558154Y37370856D02*
G01*
X93581209Y37367437D01*
X93603818Y37361773D01*
X93625762Y37353921D01*
X93646832Y37343956D01*
X93666823Y37331974D01*
X93685543Y37318090D01*
X93702813Y37302438D01*
X93718465Y37285168D01*
X93732349Y37266448D01*
X93744331Y37246457D01*
X93754296Y37225387D01*
X93762148Y37203443D01*
X93767812Y37180834D01*
X93771231Y37157779D01*
X93772375Y37134500D01*
X93772375Y36559500D01*
X93771231Y36536221D01*
X93767812Y36513166D01*
X93762148Y36490557D01*
X93754296Y36468613D01*
X93744331Y36447543D01*
X93732349Y36427552D01*
X93718465Y36408832D01*
X93702813Y36391562D01*
X93685543Y36375910D01*
X93666823Y36362026D01*
X93646832Y36350044D01*
X93625762Y36340079D01*
X93603818Y36332227D01*
X93581209Y36326563D01*
X93558154Y36323144D01*
X93534875Y36322000D01*
X93059875Y36322000D01*
X93036596Y36323144D01*
X93013541Y36326563D01*
X92990932Y36332227D01*
X92968988Y36340079D01*
X92947918Y36350044D01*
X92927927Y36362026D01*
X92909207Y36375910D01*
X92891937Y36391562D01*
X92876285Y36408832D01*
X92862401Y36427552D01*
X92850419Y36447543D01*
X92840454Y36468613D01*
X92832602Y36490557D01*
X92826938Y36513166D01*
X92823519Y36536221D01*
X92822375Y36559500D01*
X92822375Y37134500D01*
X92823519Y37157779D01*
X92826938Y37180834D01*
X92832602Y37203443D01*
X92840454Y37225387D01*
X92850419Y37246457D01*
X92862401Y37266448D01*
X92876285Y37285168D01*
X92891937Y37302438D01*
X92909207Y37318090D01*
X92927927Y37331974D01*
X92947918Y37343956D01*
X92968988Y37353921D01*
X92990932Y37361773D01*
X93013541Y37367437D01*
X93036596Y37370856D01*
X93059875Y37372000D01*
X93534875Y37372000D01*
X93558154Y37370856D01*
G37*
G04 #@! TD.AperFunction*
G04 #@! TA.AperFunction,SMDPad,CuDef*
G36*
X93558154Y35620856D02*
G01*
X93581209Y35617437D01*
X93603818Y35611773D01*
X93625762Y35603921D01*
X93646832Y35593956D01*
X93666823Y35581974D01*
X93685543Y35568090D01*
X93702813Y35552438D01*
X93718465Y35535168D01*
X93732349Y35516448D01*
X93744331Y35496457D01*
X93754296Y35475387D01*
X93762148Y35453443D01*
X93767812Y35430834D01*
X93771231Y35407779D01*
X93772375Y35384500D01*
X93772375Y34809500D01*
X93771231Y34786221D01*
X93767812Y34763166D01*
X93762148Y34740557D01*
X93754296Y34718613D01*
X93744331Y34697543D01*
X93732349Y34677552D01*
X93718465Y34658832D01*
X93702813Y34641562D01*
X93685543Y34625910D01*
X93666823Y34612026D01*
X93646832Y34600044D01*
X93625762Y34590079D01*
X93603818Y34582227D01*
X93581209Y34576563D01*
X93558154Y34573144D01*
X93534875Y34572000D01*
X93059875Y34572000D01*
X93036596Y34573144D01*
X93013541Y34576563D01*
X92990932Y34582227D01*
X92968988Y34590079D01*
X92947918Y34600044D01*
X92927927Y34612026D01*
X92909207Y34625910D01*
X92891937Y34641562D01*
X92876285Y34658832D01*
X92862401Y34677552D01*
X92850419Y34697543D01*
X92840454Y34718613D01*
X92832602Y34740557D01*
X92826938Y34763166D01*
X92823519Y34786221D01*
X92822375Y34809500D01*
X92822375Y35384500D01*
X92823519Y35407779D01*
X92826938Y35430834D01*
X92832602Y35453443D01*
X92840454Y35475387D01*
X92850419Y35496457D01*
X92862401Y35516448D01*
X92876285Y35535168D01*
X92891937Y35552438D01*
X92909207Y35568090D01*
X92927927Y35581974D01*
X92947918Y35593956D01*
X92968988Y35603921D01*
X92990932Y35611773D01*
X93013541Y35617437D01*
X93036596Y35620856D01*
X93059875Y35622000D01*
X93534875Y35622000D01*
X93558154Y35620856D01*
G37*
G04 #@! TD.AperFunction*
G04 #@! TA.AperFunction,SMDPad,CuDef*
G36*
X98431779Y39018856D02*
G01*
X98454834Y39015437D01*
X98477443Y39009773D01*
X98499387Y39001921D01*
X98520457Y38991956D01*
X98540448Y38979974D01*
X98559168Y38966090D01*
X98576438Y38950438D01*
X98592090Y38933168D01*
X98605974Y38914448D01*
X98617956Y38894457D01*
X98627921Y38873387D01*
X98635773Y38851443D01*
X98641437Y38828834D01*
X98644856Y38805779D01*
X98646000Y38782500D01*
X98646000Y38207500D01*
X98644856Y38184221D01*
X98641437Y38161166D01*
X98635773Y38138557D01*
X98627921Y38116613D01*
X98617956Y38095543D01*
X98605974Y38075552D01*
X98592090Y38056832D01*
X98576438Y38039562D01*
X98559168Y38023910D01*
X98540448Y38010026D01*
X98520457Y37998044D01*
X98499387Y37988079D01*
X98477443Y37980227D01*
X98454834Y37974563D01*
X98431779Y37971144D01*
X98408500Y37970000D01*
X97933500Y37970000D01*
X97910221Y37971144D01*
X97887166Y37974563D01*
X97864557Y37980227D01*
X97842613Y37988079D01*
X97821543Y37998044D01*
X97801552Y38010026D01*
X97782832Y38023910D01*
X97765562Y38039562D01*
X97749910Y38056832D01*
X97736026Y38075552D01*
X97724044Y38095543D01*
X97714079Y38116613D01*
X97706227Y38138557D01*
X97700563Y38161166D01*
X97697144Y38184221D01*
X97696000Y38207500D01*
X97696000Y38782500D01*
X97697144Y38805779D01*
X97700563Y38828834D01*
X97706227Y38851443D01*
X97714079Y38873387D01*
X97724044Y38894457D01*
X97736026Y38914448D01*
X97749910Y38933168D01*
X97765562Y38950438D01*
X97782832Y38966090D01*
X97801552Y38979974D01*
X97821543Y38991956D01*
X97842613Y39001921D01*
X97864557Y39009773D01*
X97887166Y39015437D01*
X97910221Y39018856D01*
X97933500Y39020000D01*
X98408500Y39020000D01*
X98431779Y39018856D01*
G37*
G04 #@! TD.AperFunction*
G04 #@! TA.AperFunction,SMDPad,CuDef*
G36*
X98431779Y40768856D02*
G01*
X98454834Y40765437D01*
X98477443Y40759773D01*
X98499387Y40751921D01*
X98520457Y40741956D01*
X98540448Y40729974D01*
X98559168Y40716090D01*
X98576438Y40700438D01*
X98592090Y40683168D01*
X98605974Y40664448D01*
X98617956Y40644457D01*
X98627921Y40623387D01*
X98635773Y40601443D01*
X98641437Y40578834D01*
X98644856Y40555779D01*
X98646000Y40532500D01*
X98646000Y39957500D01*
X98644856Y39934221D01*
X98641437Y39911166D01*
X98635773Y39888557D01*
X98627921Y39866613D01*
X98617956Y39845543D01*
X98605974Y39825552D01*
X98592090Y39806832D01*
X98576438Y39789562D01*
X98559168Y39773910D01*
X98540448Y39760026D01*
X98520457Y39748044D01*
X98499387Y39738079D01*
X98477443Y39730227D01*
X98454834Y39724563D01*
X98431779Y39721144D01*
X98408500Y39720000D01*
X97933500Y39720000D01*
X97910221Y39721144D01*
X97887166Y39724563D01*
X97864557Y39730227D01*
X97842613Y39738079D01*
X97821543Y39748044D01*
X97801552Y39760026D01*
X97782832Y39773910D01*
X97765562Y39789562D01*
X97749910Y39806832D01*
X97736026Y39825552D01*
X97724044Y39845543D01*
X97714079Y39866613D01*
X97706227Y39888557D01*
X97700563Y39911166D01*
X97697144Y39934221D01*
X97696000Y39957500D01*
X97696000Y40532500D01*
X97697144Y40555779D01*
X97700563Y40578834D01*
X97706227Y40601443D01*
X97714079Y40623387D01*
X97724044Y40644457D01*
X97736026Y40664448D01*
X97749910Y40683168D01*
X97765562Y40700438D01*
X97782832Y40716090D01*
X97801552Y40729974D01*
X97821543Y40741956D01*
X97842613Y40751921D01*
X97864557Y40759773D01*
X97887166Y40765437D01*
X97910221Y40768856D01*
X97933500Y40770000D01*
X98408500Y40770000D01*
X98431779Y40768856D01*
G37*
G04 #@! TD.AperFunction*
G04 #@! TA.AperFunction,SMDPad,CuDef*
G36*
X98431779Y37325856D02*
G01*
X98454834Y37322437D01*
X98477443Y37316773D01*
X98499387Y37308921D01*
X98520457Y37298956D01*
X98540448Y37286974D01*
X98559168Y37273090D01*
X98576438Y37257438D01*
X98592090Y37240168D01*
X98605974Y37221448D01*
X98617956Y37201457D01*
X98627921Y37180387D01*
X98635773Y37158443D01*
X98641437Y37135834D01*
X98644856Y37112779D01*
X98646000Y37089500D01*
X98646000Y36514500D01*
X98644856Y36491221D01*
X98641437Y36468166D01*
X98635773Y36445557D01*
X98627921Y36423613D01*
X98617956Y36402543D01*
X98605974Y36382552D01*
X98592090Y36363832D01*
X98576438Y36346562D01*
X98559168Y36330910D01*
X98540448Y36317026D01*
X98520457Y36305044D01*
X98499387Y36295079D01*
X98477443Y36287227D01*
X98454834Y36281563D01*
X98431779Y36278144D01*
X98408500Y36277000D01*
X97933500Y36277000D01*
X97910221Y36278144D01*
X97887166Y36281563D01*
X97864557Y36287227D01*
X97842613Y36295079D01*
X97821543Y36305044D01*
X97801552Y36317026D01*
X97782832Y36330910D01*
X97765562Y36346562D01*
X97749910Y36363832D01*
X97736026Y36382552D01*
X97724044Y36402543D01*
X97714079Y36423613D01*
X97706227Y36445557D01*
X97700563Y36468166D01*
X97697144Y36491221D01*
X97696000Y36514500D01*
X97696000Y37089500D01*
X97697144Y37112779D01*
X97700563Y37135834D01*
X97706227Y37158443D01*
X97714079Y37180387D01*
X97724044Y37201457D01*
X97736026Y37221448D01*
X97749910Y37240168D01*
X97765562Y37257438D01*
X97782832Y37273090D01*
X97801552Y37286974D01*
X97821543Y37298956D01*
X97842613Y37308921D01*
X97864557Y37316773D01*
X97887166Y37322437D01*
X97910221Y37325856D01*
X97933500Y37327000D01*
X98408500Y37327000D01*
X98431779Y37325856D01*
G37*
G04 #@! TD.AperFunction*
G04 #@! TA.AperFunction,SMDPad,CuDef*
G36*
X98431779Y35575856D02*
G01*
X98454834Y35572437D01*
X98477443Y35566773D01*
X98499387Y35558921D01*
X98520457Y35548956D01*
X98540448Y35536974D01*
X98559168Y35523090D01*
X98576438Y35507438D01*
X98592090Y35490168D01*
X98605974Y35471448D01*
X98617956Y35451457D01*
X98627921Y35430387D01*
X98635773Y35408443D01*
X98641437Y35385834D01*
X98644856Y35362779D01*
X98646000Y35339500D01*
X98646000Y34764500D01*
X98644856Y34741221D01*
X98641437Y34718166D01*
X98635773Y34695557D01*
X98627921Y34673613D01*
X98617956Y34652543D01*
X98605974Y34632552D01*
X98592090Y34613832D01*
X98576438Y34596562D01*
X98559168Y34580910D01*
X98540448Y34567026D01*
X98520457Y34555044D01*
X98499387Y34545079D01*
X98477443Y34537227D01*
X98454834Y34531563D01*
X98431779Y34528144D01*
X98408500Y34527000D01*
X97933500Y34527000D01*
X97910221Y34528144D01*
X97887166Y34531563D01*
X97864557Y34537227D01*
X97842613Y34545079D01*
X97821543Y34555044D01*
X97801552Y34567026D01*
X97782832Y34580910D01*
X97765562Y34596562D01*
X97749910Y34613832D01*
X97736026Y34632552D01*
X97724044Y34652543D01*
X97714079Y34673613D01*
X97706227Y34695557D01*
X97700563Y34718166D01*
X97697144Y34741221D01*
X97696000Y34764500D01*
X97696000Y35339500D01*
X97697144Y35362779D01*
X97700563Y35385834D01*
X97706227Y35408443D01*
X97714079Y35430387D01*
X97724044Y35451457D01*
X97736026Y35471448D01*
X97749910Y35490168D01*
X97765562Y35507438D01*
X97782832Y35523090D01*
X97801552Y35536974D01*
X97821543Y35548956D01*
X97842613Y35558921D01*
X97864557Y35566773D01*
X97887166Y35572437D01*
X97910221Y35575856D01*
X97933500Y35577000D01*
X98408500Y35577000D01*
X98431779Y35575856D01*
G37*
G04 #@! TD.AperFunction*
D11*
X80708500Y43561000D03*
X78168500Y43561000D03*
X75628500Y43561000D03*
X73088500Y43561000D03*
X70548500Y43561000D03*
X68008500Y43561000D03*
X65468500Y43561000D03*
X62928500Y43561000D03*
X60388500Y43561000D03*
X57848500Y43561000D03*
X55308500Y43561000D03*
X52768500Y43561000D03*
X50228500Y43561000D03*
D12*
X47688500Y43561000D03*
D13*
X91948000Y40259000D03*
X86995000Y40259000D03*
X81978500Y40259000D03*
X76962000Y39878000D03*
X72072500Y39751000D03*
X67119500Y39814500D03*
X62293500Y40068500D03*
X57467500Y40068500D03*
X52387500Y40132000D03*
X20701000Y48831500D03*
X47752000Y40195500D03*
X28892500Y48104500D03*
X34255000Y48104500D03*
X30670500Y49558500D03*
X36195000Y49558500D03*
X40259000Y44069000D03*
X45974000Y47434500D03*
X41259000Y44069000D03*
X42259000Y44069000D03*
X43259000Y44069000D03*
X40259000Y43069000D03*
X41259000Y43069000D03*
X42259000Y43069000D03*
X43259000Y43069000D03*
X53467000Y49212500D03*
X46974000Y47434500D03*
X47974000Y47434500D03*
X48974000Y47434500D03*
X45974000Y46434500D03*
X46974000Y46434500D03*
X47974000Y46434500D03*
X48974000Y46434500D03*
X54467000Y49212500D03*
X55467000Y49212500D03*
X56467000Y49212500D03*
X57467000Y49212500D03*
X53467000Y48212500D03*
X54467000Y48212500D03*
X55467000Y48212500D03*
X56467000Y48212500D03*
X57467000Y48212500D03*
X53467000Y47212500D03*
X54467000Y47212500D03*
X55467000Y47212500D03*
X56467000Y47212500D03*
X57467000Y47212500D03*
X42799000Y40195500D03*
X37846000Y40259000D03*
X80327500Y49339500D03*
X90170000Y49339500D03*
X93853000Y43561000D03*
X81327500Y49339500D03*
X82327500Y49339500D03*
X83327500Y49339500D03*
X80327500Y48339500D03*
X81327500Y48339500D03*
X82327500Y48339500D03*
X83327500Y48339500D03*
X80327500Y47339500D03*
X81327500Y47339500D03*
X82327500Y47339500D03*
X83327500Y47339500D03*
X80327500Y46339500D03*
X81327500Y46339500D03*
X82327500Y46339500D03*
X83327500Y46339500D03*
X80327500Y45339500D03*
X81327500Y45339500D03*
X82327500Y45339500D03*
X83327500Y45339500D03*
X91170000Y49339500D03*
X92170000Y49339500D03*
X90170000Y48339500D03*
X91170000Y48339500D03*
X92170000Y48339500D03*
X90170000Y47339500D03*
X91170000Y47339500D03*
X92170000Y47339500D03*
X90170000Y46339500D03*
X91170000Y46339500D03*
X92170000Y46339500D03*
X90170000Y45339500D03*
X91170000Y45339500D03*
X92170000Y45339500D03*
X94853000Y43561000D03*
X95853000Y43561000D03*
X96853000Y43561000D03*
X97853000Y43561000D03*
X93853000Y42561000D03*
X94853000Y42561000D03*
X95853000Y42561000D03*
X96853000Y42561000D03*
X97853000Y42561000D03*
X18796000Y43151500D03*
X24384000Y43151500D03*
X12065000Y21463000D03*
X12001500Y35560000D03*
X12001500Y28511500D03*
X12001500Y14414500D03*
X12065000Y7366000D03*
X13001500Y35560000D03*
X14001500Y35560000D03*
X15001500Y35560000D03*
X16001500Y35560000D03*
X17001500Y35560000D03*
X18001500Y35560000D03*
X19001500Y35560000D03*
X20001500Y35560000D03*
X21001500Y35560000D03*
X22001500Y35560000D03*
X13001500Y28511500D03*
X14001500Y28511500D03*
X15001500Y28511500D03*
X16001500Y28511500D03*
X17001500Y28511500D03*
X18001500Y28511500D03*
X19001500Y28511500D03*
X20001500Y28511500D03*
X21001500Y28511500D03*
X22001500Y28511500D03*
X13065000Y21463000D03*
X14065000Y21463000D03*
X15065000Y21463000D03*
X16065000Y21463000D03*
X17065000Y21463000D03*
X18065000Y21463000D03*
X19065000Y21463000D03*
X20065000Y21463000D03*
X21065000Y21463000D03*
X22065000Y21463000D03*
X13001500Y14414500D03*
X14001500Y14414500D03*
X15001500Y14414500D03*
X16001500Y14414500D03*
X17001500Y14414500D03*
X18001500Y14414500D03*
X19001500Y14414500D03*
X20001500Y14414500D03*
X21001500Y14414500D03*
X22001500Y14414500D03*
X13065000Y7366000D03*
X14065000Y7366000D03*
X15065000Y7366000D03*
X16065000Y7366000D03*
X17065000Y7366000D03*
X18065000Y7366000D03*
X19065000Y7366000D03*
X20065000Y7366000D03*
X21065000Y7366000D03*
X22065000Y7366000D03*
X26289000Y4635500D03*
X26352500Y11811000D03*
X26352500Y18796000D03*
X26352500Y25717500D03*
X26352500Y32956500D03*
X26352500Y39941500D03*
X29337000Y41783000D03*
X27352500Y39941500D03*
X26352500Y38941500D03*
X27352500Y38941500D03*
X27352500Y32956500D03*
X26352500Y31956500D03*
X27352500Y31956500D03*
X27352500Y25717500D03*
X26352500Y24717500D03*
X27352500Y24717500D03*
X27352500Y18796000D03*
X26352500Y17796000D03*
X27352500Y17796000D03*
X27352500Y11811000D03*
X26352500Y10811000D03*
X27352500Y10811000D03*
X27289000Y4635500D03*
X26289000Y3635500D03*
X27289000Y3635500D03*
X30537000Y41783000D03*
X31737000Y41783000D03*
X32937000Y41783000D03*
X29337000Y39783000D03*
X30537000Y39783000D03*
X31737000Y39783000D03*
X32937000Y39783000D03*
X29337000Y37783000D03*
X30537000Y37783000D03*
X31737000Y37783000D03*
X32937000Y37783000D03*
X29337000Y35783000D03*
X30537000Y35783000D03*
X31737000Y35783000D03*
X32937000Y35783000D03*
X29337000Y33783000D03*
X30537000Y33783000D03*
X31737000Y33783000D03*
X32937000Y33783000D03*
X29337000Y31783000D03*
X30537000Y31783000D03*
X31737000Y31783000D03*
X32937000Y31783000D03*
X29337000Y29783000D03*
X30537000Y29783000D03*
X31737000Y29783000D03*
X32937000Y29783000D03*
X29337000Y27783000D03*
X30537000Y27783000D03*
X31737000Y27783000D03*
X32937000Y27783000D03*
X29337000Y25783000D03*
X30537000Y25783000D03*
X31737000Y25783000D03*
X32937000Y25783000D03*
X29337000Y23783000D03*
X30537000Y23783000D03*
X31737000Y23783000D03*
X32937000Y23783000D03*
X29337000Y21783000D03*
X30537000Y21783000D03*
X31737000Y21783000D03*
X32937000Y21783000D03*
X29337000Y19783000D03*
X30537000Y19783000D03*
X31737000Y19783000D03*
X32937000Y19783000D03*
X29337000Y17783000D03*
X30537000Y17783000D03*
X31737000Y17783000D03*
X32937000Y17783000D03*
X29337000Y15783000D03*
X30537000Y15783000D03*
X31737000Y15783000D03*
X32937000Y15783000D03*
X29337000Y13783000D03*
X30537000Y13783000D03*
X31737000Y13783000D03*
X32937000Y13783000D03*
X29337000Y11783000D03*
X30537000Y11783000D03*
X31737000Y11783000D03*
X32937000Y11783000D03*
X29337000Y9783000D03*
X30537000Y9783000D03*
X31737000Y9783000D03*
X32937000Y9783000D03*
X29337000Y7783000D03*
X30537000Y7783000D03*
X31737000Y7783000D03*
X32937000Y7783000D03*
X29337000Y5783000D03*
X30537000Y5783000D03*
X31737000Y5783000D03*
X32937000Y5783000D03*
X29337000Y3783000D03*
X30537000Y3783000D03*
X31737000Y3783000D03*
X32937000Y3783000D03*
X29337000Y1783000D03*
X30537000Y1783000D03*
X31737000Y1783000D03*
X32937000Y1783000D03*
X30537000Y41783000D03*
X31737000Y41783000D03*
X29337000Y39783000D03*
X30537000Y39783000D03*
X31737000Y39783000D03*
X29337000Y37783000D03*
X30537000Y37783000D03*
X31737000Y37783000D03*
X29337000Y35783000D03*
X30537000Y35783000D03*
X31737000Y35783000D03*
X29337000Y33783000D03*
X30537000Y33783000D03*
X31737000Y33783000D03*
X29337000Y31783000D03*
X30537000Y31783000D03*
X31737000Y31783000D03*
X29337000Y29783000D03*
X30537000Y29783000D03*
X31737000Y29783000D03*
X29337000Y27783000D03*
X30537000Y27783000D03*
X31737000Y27783000D03*
X29337000Y25783000D03*
X30537000Y25783000D03*
X31737000Y25783000D03*
X29337000Y23783000D03*
X30537000Y23783000D03*
X31737000Y23783000D03*
X29337000Y21783000D03*
X30537000Y21783000D03*
X31737000Y21783000D03*
X29337000Y19783000D03*
X30537000Y19783000D03*
X31737000Y19783000D03*
X29337000Y17783000D03*
X30537000Y17783000D03*
X31737000Y17783000D03*
X29337000Y15783000D03*
X30537000Y15783000D03*
X31737000Y15783000D03*
X29337000Y13783000D03*
X30537000Y13783000D03*
X31737000Y13783000D03*
X29337000Y11783000D03*
X30537000Y11783000D03*
X31737000Y11783000D03*
X29337000Y9783000D03*
X30537000Y9783000D03*
X31737000Y9783000D03*
X29337000Y7783000D03*
X30537000Y7783000D03*
X31737000Y7783000D03*
X29337000Y5783000D03*
X30537000Y5783000D03*
X31737000Y5783000D03*
X29337000Y3783000D03*
X30537000Y3783000D03*
X31737000Y3783000D03*
X29337000Y1783000D03*
X30537000Y1783000D03*
X31737000Y1783000D03*
X35496500Y20320000D03*
X7175500Y47434500D03*
X8175500Y47434500D03*
X7175500Y46434500D03*
X8175500Y46434500D03*
X7175500Y45434500D03*
X8175500Y45434500D03*
X7175500Y44434500D03*
X8175500Y44434500D03*
X6794500Y39370000D03*
X7794500Y39370000D03*
X6794500Y38370000D03*
X7794500Y38370000D03*
X6794500Y32448500D03*
X6731000Y25400000D03*
X6731000Y18415000D03*
X6667500Y11430000D03*
X6667500Y4318000D03*
X1397000Y43243500D03*
X7794500Y32448500D03*
X6794500Y31448500D03*
X7794500Y31448500D03*
X7731000Y25400000D03*
X6731000Y24400000D03*
X7731000Y24400000D03*
X7731000Y18415000D03*
X6731000Y17415000D03*
X7731000Y17415000D03*
X7667500Y11430000D03*
X6667500Y10430000D03*
X7667500Y10430000D03*
X7667500Y4318000D03*
X6667500Y3318000D03*
X7667500Y3318000D03*
X2597000Y43243500D03*
X3797000Y43243500D03*
X4997000Y43243500D03*
X1397000Y41243500D03*
X2597000Y41243500D03*
X3797000Y41243500D03*
X4997000Y41243500D03*
X1397000Y39243500D03*
X2597000Y39243500D03*
X3797000Y39243500D03*
X4997000Y39243500D03*
X1397000Y37243500D03*
X2597000Y37243500D03*
X3797000Y37243500D03*
X4997000Y37243500D03*
X1397000Y35243500D03*
X2597000Y35243500D03*
X3797000Y35243500D03*
X4997000Y35243500D03*
X1397000Y33243500D03*
X2597000Y33243500D03*
X3797000Y33243500D03*
X4997000Y33243500D03*
X1397000Y31243500D03*
X2597000Y31243500D03*
X3797000Y31243500D03*
X4997000Y31243500D03*
X1397000Y29243500D03*
X2597000Y29243500D03*
X3797000Y29243500D03*
X4997000Y29243500D03*
X1397000Y27243500D03*
X2597000Y27243500D03*
X3797000Y27243500D03*
X4997000Y27243500D03*
X1397000Y25243500D03*
X2597000Y25243500D03*
X3797000Y25243500D03*
X4997000Y25243500D03*
X1397000Y23243500D03*
X2597000Y23243500D03*
X3797000Y23243500D03*
X4997000Y23243500D03*
X1397000Y21243500D03*
X2597000Y21243500D03*
X3797000Y21243500D03*
X4997000Y21243500D03*
X1397000Y19243500D03*
X2597000Y19243500D03*
X3797000Y19243500D03*
X4997000Y19243500D03*
X1397000Y17243500D03*
X2597000Y17243500D03*
X3797000Y17243500D03*
X4997000Y17243500D03*
X1397000Y15243500D03*
X2597000Y15243500D03*
X3797000Y15243500D03*
X4997000Y15243500D03*
X1397000Y13243500D03*
X2597000Y13243500D03*
X3797000Y13243500D03*
X4997000Y13243500D03*
X1397000Y11243500D03*
X2597000Y11243500D03*
X3797000Y11243500D03*
X4997000Y11243500D03*
X1397000Y9243500D03*
X2597000Y9243500D03*
X3797000Y9243500D03*
X4997000Y9243500D03*
X1397000Y7243500D03*
X2597000Y7243500D03*
X3797000Y7243500D03*
X4997000Y7243500D03*
X1397000Y5243500D03*
X2597000Y5243500D03*
X3797000Y5243500D03*
X4997000Y5243500D03*
X1397000Y3243500D03*
X2597000Y3243500D03*
X3797000Y3243500D03*
X4997000Y3243500D03*
X1397000Y1243500D03*
X2597000Y1243500D03*
X3797000Y1243500D03*
X4997000Y1243500D03*
X9461500Y48704500D03*
X35015000Y44005500D03*
X97282000Y35814000D03*
X92329000Y35750500D03*
X87439500Y35623500D03*
X82486500Y35433000D03*
X77724000Y35687000D03*
X72898000Y35814000D03*
X68072000Y35877500D03*
X63182500Y35877500D03*
X58293000Y35877500D03*
X53467000Y35877500D03*
X48577500Y35941000D03*
X43688000Y35877500D03*
X38608000Y36004500D03*
D14*
X93297375Y40245000D02*
X91962000Y40245000D01*
X91962000Y40245000D02*
X91948000Y40259000D01*
X88409750Y40259000D02*
X88423750Y40245000D01*
X86995000Y40259000D02*
X88409750Y40259000D01*
X83536125Y40259000D02*
X83550125Y40245000D01*
X81978500Y40259000D02*
X83536125Y40259000D01*
X78676500Y40245000D02*
X77329000Y40245000D01*
X77329000Y40245000D02*
X76962000Y39878000D01*
X73308875Y39751000D02*
X73802875Y40245000D01*
X72072500Y39751000D02*
X73308875Y39751000D01*
X68929250Y40245000D02*
X67550000Y40245000D01*
X67550000Y40245000D02*
X67119500Y39814500D01*
X63879125Y40068500D02*
X64055625Y40245000D01*
X62293500Y40068500D02*
X63879125Y40068500D01*
X59182000Y40245000D02*
X57644000Y40245000D01*
X57644000Y40245000D02*
X57467500Y40068500D01*
X54195375Y40132000D02*
X54308375Y40245000D01*
X52387500Y40132000D02*
X54195375Y40132000D01*
D15*
X50038000Y48831500D02*
X55308500Y43561000D01*
X20701000Y48831500D02*
X50038000Y48831500D01*
D14*
X49434750Y40245000D02*
X47801500Y40245000D01*
X47801500Y40245000D02*
X47752000Y40195500D01*
D15*
X28892500Y48104500D02*
X34255000Y48104500D01*
X30670500Y49558500D02*
X36195000Y49558500D01*
D14*
X44511625Y40195500D02*
X44561125Y40245000D01*
X42799000Y40195500D02*
X44511625Y40195500D01*
X39687500Y40245000D02*
X37860000Y40245000D01*
X37860000Y40245000D02*
X37846000Y40259000D01*
D15*
X18796000Y43151500D02*
X24384000Y43151500D01*
D14*
X32937000Y19783000D02*
X34959500Y19783000D01*
X34959500Y19783000D02*
X35496500Y20320000D01*
D15*
X9461500Y44259500D02*
X9461500Y48704500D01*
D14*
X9715500Y44005500D02*
X9652000Y44069000D01*
X35015000Y44005500D02*
X9715500Y44005500D01*
D15*
X9652000Y44069000D02*
X9461500Y44259500D01*
D14*
X98171000Y38495000D02*
X98171000Y36802000D01*
X98171000Y35052000D02*
X98044000Y35052000D01*
X98044000Y35052000D02*
X97282000Y35814000D01*
X93297375Y35097000D02*
X92982500Y35097000D01*
X92982500Y35097000D02*
X92329000Y35750500D01*
X93297375Y38495000D02*
X93297375Y36847000D01*
X88423750Y35097000D02*
X87966000Y35097000D01*
X87966000Y35097000D02*
X87439500Y35623500D01*
X88423750Y36847000D02*
X88423750Y38495000D01*
X83550125Y35097000D02*
X82822500Y35097000D01*
X82822500Y35097000D02*
X82486500Y35433000D01*
X83550125Y36847000D02*
X83550125Y38495000D01*
X78086500Y35687000D02*
X78676500Y35097000D01*
X77724000Y35687000D02*
X78086500Y35687000D01*
X78676500Y36847000D02*
X78676500Y38495000D01*
X73802875Y35097000D02*
X73615000Y35097000D01*
X73615000Y35097000D02*
X72898000Y35814000D01*
X73802875Y36847000D02*
X73802875Y38495000D01*
X68929250Y35097000D02*
X68852500Y35097000D01*
X68852500Y35097000D02*
X68072000Y35877500D01*
X68929250Y36847000D02*
X68929250Y38495000D01*
X64055625Y35097000D02*
X63963000Y35097000D01*
X63963000Y35097000D02*
X63182500Y35877500D01*
X64055625Y36847000D02*
X64055625Y38495000D01*
X59182000Y35097000D02*
X59073500Y35097000D01*
X59073500Y35097000D02*
X58293000Y35877500D01*
X59182000Y36847000D02*
X59182000Y38495000D01*
X54308375Y35097000D02*
X54247500Y35097000D01*
X54247500Y35097000D02*
X53467000Y35877500D01*
X54308375Y36847000D02*
X54308375Y38495000D01*
X49434750Y35097000D02*
X49421500Y35097000D01*
X49421500Y35097000D02*
X48577500Y35941000D01*
X49434750Y36847000D02*
X49434750Y38495000D01*
X44561125Y35097000D02*
X44468500Y35097000D01*
X44468500Y35097000D02*
X43688000Y35877500D01*
X44561125Y36847000D02*
X44561125Y38495000D01*
X38735000Y36004500D02*
X39687500Y35052000D01*
X38608000Y36004500D02*
X38735000Y36004500D01*
X39687500Y36802000D02*
X39687500Y38495000D01*
D15*
G36*
X99162001Y39221255D02*
G01*
X99136512Y39268942D01*
X99027623Y39401623D01*
X98894942Y39510512D01*
X98743567Y39591423D01*
X98579316Y39641248D01*
X98408500Y39658072D01*
X97933500Y39658072D01*
X97762684Y39641248D01*
X97598433Y39591423D01*
X97447058Y39510512D01*
X97314377Y39401623D01*
X97205488Y39268942D01*
X97124577Y39117567D01*
X97074752Y38953316D01*
X97057928Y38782500D01*
X97057928Y38207500D01*
X97074752Y38036684D01*
X97124577Y37872433D01*
X97205488Y37721058D01*
X97265035Y37648500D01*
X97205488Y37575942D01*
X97124577Y37424567D01*
X97074752Y37260316D01*
X97057928Y37089500D01*
X97057928Y36824706D01*
X96980102Y36809226D01*
X96837500Y36750158D01*
X96837500Y41719500D01*
X96835060Y41744276D01*
X96827833Y41768101D01*
X96816097Y41790057D01*
X96800303Y41809303D01*
X96781057Y41825097D01*
X96759101Y41836833D01*
X96735276Y41844060D01*
X96710500Y41846500D01*
X79818615Y41846500D01*
X79760618Y50140000D01*
X99162001Y50140000D01*
X99162001Y39221255D01*
G37*
X99162001Y39221255D02*
X99136512Y39268942D01*
X99027623Y39401623D01*
X98894942Y39510512D01*
X98743567Y39591423D01*
X98579316Y39641248D01*
X98408500Y39658072D01*
X97933500Y39658072D01*
X97762684Y39641248D01*
X97598433Y39591423D01*
X97447058Y39510512D01*
X97314377Y39401623D01*
X97205488Y39268942D01*
X97124577Y39117567D01*
X97074752Y38953316D01*
X97057928Y38782500D01*
X97057928Y38207500D01*
X97074752Y38036684D01*
X97124577Y37872433D01*
X97205488Y37721058D01*
X97265035Y37648500D01*
X97205488Y37575942D01*
X97124577Y37424567D01*
X97074752Y37260316D01*
X97057928Y37089500D01*
X97057928Y36824706D01*
X96980102Y36809226D01*
X96837500Y36750158D01*
X96837500Y41719500D01*
X96835060Y41744276D01*
X96827833Y41768101D01*
X96816097Y41790057D01*
X96800303Y41809303D01*
X96781057Y41825097D01*
X96759101Y41836833D01*
X96735276Y41844060D01*
X96710500Y41846500D01*
X79818615Y41846500D01*
X79760618Y50140000D01*
X99162001Y50140000D01*
X99162001Y39221255D01*
G36*
X52745870Y45046000D02*
G01*
X52622240Y45046000D01*
X52335342Y44988932D01*
X52065089Y44876990D01*
X51821868Y44714475D01*
X51615025Y44507632D01*
X51498500Y44333240D01*
X51381975Y44507632D01*
X51175132Y44714475D01*
X50931911Y44876990D01*
X50661658Y44988932D01*
X50374760Y45046000D01*
X50082240Y45046000D01*
X49795342Y44988932D01*
X49525089Y44876990D01*
X49281868Y44714475D01*
X49075025Y44507632D01*
X48912510Y44264411D01*
X48800568Y43994158D01*
X48743500Y43707260D01*
X48743500Y43414740D01*
X48800568Y43127842D01*
X48912510Y42857589D01*
X49075025Y42614368D01*
X49281868Y42407525D01*
X49525089Y42245010D01*
X49795342Y42133068D01*
X50082240Y42076000D01*
X50374760Y42076000D01*
X50661658Y42133068D01*
X50931911Y42245010D01*
X51175132Y42407525D01*
X51381975Y42614368D01*
X51498500Y42788760D01*
X51615025Y42614368D01*
X51821868Y42407525D01*
X52065089Y42245010D01*
X52335342Y42133068D01*
X52622240Y42076000D01*
X52914760Y42076000D01*
X53201658Y42133068D01*
X53471911Y42245010D01*
X53715132Y42407525D01*
X53921975Y42614368D01*
X54038500Y42788760D01*
X54155025Y42614368D01*
X54361868Y42407525D01*
X54605089Y42245010D01*
X54875342Y42133068D01*
X55162240Y42076000D01*
X55454760Y42076000D01*
X55741658Y42133068D01*
X56011911Y42245010D01*
X56255132Y42407525D01*
X56461975Y42614368D01*
X56578500Y42788760D01*
X56695025Y42614368D01*
X56901868Y42407525D01*
X57145089Y42245010D01*
X57415342Y42133068D01*
X57702240Y42076000D01*
X57994760Y42076000D01*
X58281658Y42133068D01*
X58551911Y42245010D01*
X58674000Y42326587D01*
X58674000Y42037000D01*
X37719000Y42037000D01*
X37719000Y48069500D01*
X49722370Y48069500D01*
X52745870Y45046000D01*
G37*
X52745870Y45046000D02*
X52622240Y45046000D01*
X52335342Y44988932D01*
X52065089Y44876990D01*
X51821868Y44714475D01*
X51615025Y44507632D01*
X51498500Y44333240D01*
X51381975Y44507632D01*
X51175132Y44714475D01*
X50931911Y44876990D01*
X50661658Y44988932D01*
X50374760Y45046000D01*
X50082240Y45046000D01*
X49795342Y44988932D01*
X49525089Y44876990D01*
X49281868Y44714475D01*
X49075025Y44507632D01*
X48912510Y44264411D01*
X48800568Y43994158D01*
X48743500Y43707260D01*
X48743500Y43414740D01*
X48800568Y43127842D01*
X48912510Y42857589D01*
X49075025Y42614368D01*
X49281868Y42407525D01*
X49525089Y42245010D01*
X49795342Y42133068D01*
X50082240Y42076000D01*
X50374760Y42076000D01*
X50661658Y42133068D01*
X50931911Y42245010D01*
X51175132Y42407525D01*
X51381975Y42614368D01*
X51498500Y42788760D01*
X51615025Y42614368D01*
X51821868Y42407525D01*
X52065089Y42245010D01*
X52335342Y42133068D01*
X52622240Y42076000D01*
X52914760Y42076000D01*
X53201658Y42133068D01*
X53471911Y42245010D01*
X53715132Y42407525D01*
X53921975Y42614368D01*
X54038500Y42788760D01*
X54155025Y42614368D01*
X54361868Y42407525D01*
X54605089Y42245010D01*
X54875342Y42133068D01*
X55162240Y42076000D01*
X55454760Y42076000D01*
X55741658Y42133068D01*
X56011911Y42245010D01*
X56255132Y42407525D01*
X56461975Y42614368D01*
X56578500Y42788760D01*
X56695025Y42614368D01*
X56901868Y42407525D01*
X57145089Y42245010D01*
X57415342Y42133068D01*
X57702240Y42076000D01*
X57994760Y42076000D01*
X58281658Y42133068D01*
X58551911Y42245010D01*
X58674000Y42326587D01*
X58674000Y42037000D01*
X37719000Y42037000D01*
X37719000Y48069500D01*
X49722370Y48069500D01*
X52745870Y45046000D01*
G36*
X58674000Y44795413D02*
G01*
X58551911Y44876990D01*
X58281658Y44988932D01*
X57994760Y45046000D01*
X57702240Y45046000D01*
X57415342Y44988932D01*
X57145089Y44876990D01*
X56901868Y44714475D01*
X56695025Y44507632D01*
X56578500Y44333240D01*
X56461975Y44507632D01*
X56255132Y44714475D01*
X56011911Y44876990D01*
X55741658Y44988932D01*
X55454760Y45046000D01*
X55307174Y45046000D01*
X55212887Y45048597D01*
X55137184Y45056602D01*
X55066034Y45070008D01*
X54998369Y45088680D01*
X54933101Y45112750D01*
X54869205Y45142616D01*
X54805763Y45178932D01*
X54742156Y45222465D01*
X54677982Y45274069D01*
X54605212Y45341918D01*
X50603284Y49343846D01*
X50579422Y49372922D01*
X50463392Y49468145D01*
X50331015Y49538902D01*
X50187378Y49582474D01*
X50075426Y49593500D01*
X50075423Y49593500D01*
X50038000Y49597186D01*
X50000577Y49593500D01*
X37719000Y49593500D01*
X37719000Y50140000D01*
X58674000Y50140000D01*
X58674000Y44795413D01*
G37*
X58674000Y44795413D02*
X58551911Y44876990D01*
X58281658Y44988932D01*
X57994760Y45046000D01*
X57702240Y45046000D01*
X57415342Y44988932D01*
X57145089Y44876990D01*
X56901868Y44714475D01*
X56695025Y44507632D01*
X56578500Y44333240D01*
X56461975Y44507632D01*
X56255132Y44714475D01*
X56011911Y44876990D01*
X55741658Y44988932D01*
X55454760Y45046000D01*
X55307174Y45046000D01*
X55212887Y45048597D01*
X55137184Y45056602D01*
X55066034Y45070008D01*
X54998369Y45088680D01*
X54933101Y45112750D01*
X54869205Y45142616D01*
X54805763Y45178932D01*
X54742156Y45222465D01*
X54677982Y45274069D01*
X54605212Y45341918D01*
X50603284Y49343846D01*
X50579422Y49372922D01*
X50463392Y49468145D01*
X50331015Y49538902D01*
X50187378Y49582474D01*
X50075426Y49593500D01*
X50075423Y49593500D01*
X50038000Y49597186D01*
X50000577Y49593500D01*
X37719000Y49593500D01*
X37719000Y50140000D01*
X58674000Y50140000D01*
X58674000Y44795413D01*
G36*
X8636000Y49332003D02*
G01*
X8544295Y49194756D01*
X8466274Y49006398D01*
X8426500Y48806439D01*
X8426500Y48602561D01*
X8466274Y48402602D01*
X8544295Y48214244D01*
X8636000Y48076997D01*
X8636000Y660000D01*
X660000Y660000D01*
X660000Y50140000D01*
X8636000Y50140000D01*
X8636000Y49332003D01*
G37*
X8636000Y49332003D02*
X8544295Y49194756D01*
X8466274Y49006398D01*
X8426500Y48806439D01*
X8426500Y48602561D01*
X8466274Y48402602D01*
X8544295Y48214244D01*
X8636000Y48076997D01*
X8636000Y660000D01*
X660000Y660000D01*
X660000Y50140000D01*
X8636000Y50140000D01*
X8636000Y49332003D01*
G36*
X33629960Y20031627D02*
G01*
X33605323Y20034923D01*
X33565429Y20036312D01*
X33531843Y20039941D01*
X33500108Y20045861D01*
X33470010Y20054014D01*
X33441396Y20064364D01*
X33414019Y20076951D01*
X33387678Y20091864D01*
X33362197Y20109234D01*
X33337456Y20129222D01*
X33309937Y20155256D01*
X33300031Y20163709D01*
X33278897Y20176869D01*
X33255602Y20185653D01*
X33231040Y20189723D01*
X33206157Y20188924D01*
X33181907Y20183285D01*
X33159224Y20173024D01*
X32673567Y19893024D01*
X32659626Y19883709D01*
X32641465Y19866679D01*
X32626976Y19846433D01*
X32616715Y19823750D01*
X32611076Y19799500D01*
X32610277Y19774617D01*
X32614347Y19750055D01*
X32623131Y19726760D01*
X32636291Y19705626D01*
X32653321Y19687465D01*
X32673567Y19672976D01*
X33159224Y19392976D01*
X33170826Y19387058D01*
X33194441Y19379174D01*
X33219141Y19376049D01*
X33243975Y19377802D01*
X33267990Y19384367D01*
X33290264Y19395490D01*
X33309939Y19410745D01*
X33337463Y19436785D01*
X33362197Y19456767D01*
X33387678Y19474137D01*
X33414019Y19489050D01*
X33441396Y19501637D01*
X33470010Y19511987D01*
X33500108Y19520140D01*
X33531843Y19526060D01*
X33565429Y19529689D01*
X33605320Y19531077D01*
X33625680Y19533440D01*
X33630581Y19534927D01*
X33654175Y660000D01*
X25970518Y660000D01*
X25908189Y42545000D01*
X31559500Y42545000D01*
X31584276Y42547440D01*
X31608101Y42554667D01*
X31630057Y42566403D01*
X31649303Y42582197D01*
X31665097Y42601443D01*
X31676833Y42623399D01*
X31684060Y42647224D01*
X31686500Y42672000D01*
X31686500Y43245500D01*
X33600943Y43245500D01*
X33629960Y20031627D01*
G37*
X33629960Y20031627D02*
X33605323Y20034923D01*
X33565429Y20036312D01*
X33531843Y20039941D01*
X33500108Y20045861D01*
X33470010Y20054014D01*
X33441396Y20064364D01*
X33414019Y20076951D01*
X33387678Y20091864D01*
X33362197Y20109234D01*
X33337456Y20129222D01*
X33309937Y20155256D01*
X33300031Y20163709D01*
X33278897Y20176869D01*
X33255602Y20185653D01*
X33231040Y20189723D01*
X33206157Y20188924D01*
X33181907Y20183285D01*
X33159224Y20173024D01*
X32673567Y19893024D01*
X32659626Y19883709D01*
X32641465Y19866679D01*
X32626976Y19846433D01*
X32616715Y19823750D01*
X32611076Y19799500D01*
X32610277Y19774617D01*
X32614347Y19750055D01*
X32623131Y19726760D01*
X32636291Y19705626D01*
X32653321Y19687465D01*
X32673567Y19672976D01*
X33159224Y19392976D01*
X33170826Y19387058D01*
X33194441Y19379174D01*
X33219141Y19376049D01*
X33243975Y19377802D01*
X33267990Y19384367D01*
X33290264Y19395490D01*
X33309939Y19410745D01*
X33337463Y19436785D01*
X33362197Y19456767D01*
X33387678Y19474137D01*
X33414019Y19489050D01*
X33441396Y19501637D01*
X33470010Y19511987D01*
X33500108Y19520140D01*
X33531843Y19526060D01*
X33565429Y19529689D01*
X33605320Y19531077D01*
X33625680Y19533440D01*
X33630581Y19534927D01*
X33654175Y660000D01*
X25970518Y660000D01*
X25908189Y42545000D01*
X31559500Y42545000D01*
X31584276Y42547440D01*
X31608101Y42554667D01*
X31630057Y42566403D01*
X31649303Y42582197D01*
X31665097Y42601443D01*
X31676833Y42623399D01*
X31684060Y42647224D01*
X31686500Y42672000D01*
X31686500Y43245500D01*
X33600943Y43245500D01*
X33629960Y20031627D01*
G36*
X18136226Y42347563D02*
G01*
X18305744Y42234295D01*
X18494102Y42156274D01*
X18694061Y42116500D01*
X18897939Y42116500D01*
X19097898Y42156274D01*
X19286256Y42234295D01*
X19455774Y42347563D01*
X19497711Y42389500D01*
X23050500Y42389500D01*
X23050500Y660000D01*
X11493500Y660000D01*
X11493500Y42418000D01*
X18065789Y42418000D01*
X18136226Y42347563D01*
G37*
X18136226Y42347563D02*
X18305744Y42234295D01*
X18494102Y42156274D01*
X18694061Y42116500D01*
X18897939Y42116500D01*
X19097898Y42156274D01*
X19286256Y42234295D01*
X19455774Y42347563D01*
X19497711Y42389500D01*
X23050500Y42389500D01*
X23050500Y660000D01*
X11493500Y660000D01*
X11493500Y42418000D01*
X18065789Y42418000D01*
X18136226Y42347563D01*
D16*
G36*
X92256197Y40500186D02*
G01*
X92256931Y40499543D01*
X92289969Y40472773D01*
X92290765Y40472178D01*
X92325570Y40448228D01*
X92326416Y40447693D01*
X92362989Y40426563D01*
X92363869Y40426100D01*
X92402210Y40407790D01*
X92403108Y40407403D01*
X92443217Y40391913D01*
X92444114Y40391604D01*
X92485990Y40378934D01*
X92486872Y40378702D01*
X92530516Y40368852D01*
X92531369Y40368689D01*
X92576781Y40361659D01*
X92577595Y40361560D01*
X92613204Y40358383D01*
X92613204Y40133002D01*
X92579023Y40133807D01*
X92578090Y40133795D01*
X92532678Y40131525D01*
X92531682Y40131436D01*
X92488038Y40125786D01*
X92486991Y40125606D01*
X92445115Y40116576D01*
X92444038Y40116294D01*
X92403929Y40103884D01*
X92402847Y40103494D01*
X92364506Y40087704D01*
X92363446Y40087209D01*
X92326873Y40068039D01*
X92325863Y40067449D01*
X92291058Y40044899D01*
X92290123Y40044231D01*
X92257085Y40018301D01*
X92256241Y40017577D01*
X92231842Y39994706D01*
X91773426Y40259000D01*
X92231802Y40523271D01*
X92256197Y40500186D01*
G37*
X92256197Y40500186D02*
X92256931Y40499543D01*
X92289969Y40472773D01*
X92290765Y40472178D01*
X92325570Y40448228D01*
X92326416Y40447693D01*
X92362989Y40426563D01*
X92363869Y40426100D01*
X92402210Y40407790D01*
X92403108Y40407403D01*
X92443217Y40391913D01*
X92444114Y40391604D01*
X92485990Y40378934D01*
X92486872Y40378702D01*
X92530516Y40368852D01*
X92531369Y40368689D01*
X92576781Y40361659D01*
X92577595Y40361560D01*
X92613204Y40358383D01*
X92613204Y40133002D01*
X92579023Y40133807D01*
X92578090Y40133795D01*
X92532678Y40131525D01*
X92531682Y40131436D01*
X92488038Y40125786D01*
X92486991Y40125606D01*
X92445115Y40116576D01*
X92444038Y40116294D01*
X92403929Y40103884D01*
X92402847Y40103494D01*
X92364506Y40087704D01*
X92363446Y40087209D01*
X92326873Y40068039D01*
X92325863Y40067449D01*
X92291058Y40044899D01*
X92290123Y40044231D01*
X92257085Y40018301D01*
X92256241Y40017577D01*
X92231842Y39994706D01*
X91773426Y40259000D01*
X92231802Y40523271D01*
X92256197Y40500186D01*
G36*
X87303058Y40500324D02*
G01*
X87303805Y40499671D01*
X87336423Y40473321D01*
X87337250Y40472706D01*
X87371355Y40449456D01*
X87372252Y40448898D01*
X87407845Y40428748D01*
X87408796Y40428261D01*
X87445877Y40411211D01*
X87446863Y40410807D01*
X87485432Y40396857D01*
X87486432Y40396542D01*
X87526488Y40385692D01*
X87527479Y40385465D01*
X87569023Y40377715D01*
X87569988Y40377574D01*
X87613020Y40372924D01*
X87613942Y40372858D01*
X87646204Y40371735D01*
X87646204Y40146266D01*
X87613942Y40145143D01*
X87613020Y40145077D01*
X87569988Y40140427D01*
X87569023Y40140286D01*
X87527479Y40132536D01*
X87526488Y40132309D01*
X87486432Y40121459D01*
X87485432Y40121144D01*
X87446863Y40107194D01*
X87445877Y40106790D01*
X87408796Y40089740D01*
X87407845Y40089253D01*
X87372252Y40069103D01*
X87371355Y40068545D01*
X87337250Y40045295D01*
X87336423Y40044680D01*
X87303805Y40018330D01*
X87303058Y40017676D01*
X87278803Y39994728D01*
X86820426Y40259000D01*
X87278802Y40523272D01*
X87303058Y40500324D01*
G37*
X87303058Y40500324D02*
X87303805Y40499671D01*
X87336423Y40473321D01*
X87337250Y40472706D01*
X87371355Y40449456D01*
X87372252Y40448898D01*
X87407845Y40428748D01*
X87408796Y40428261D01*
X87445877Y40411211D01*
X87446863Y40410807D01*
X87485432Y40396857D01*
X87486432Y40396542D01*
X87526488Y40385692D01*
X87527479Y40385465D01*
X87569023Y40377715D01*
X87569988Y40377574D01*
X87613020Y40372924D01*
X87613942Y40372858D01*
X87646204Y40371735D01*
X87646204Y40146266D01*
X87613942Y40145143D01*
X87613020Y40145077D01*
X87569988Y40140427D01*
X87569023Y40140286D01*
X87527479Y40132536D01*
X87526488Y40132309D01*
X87486432Y40121459D01*
X87485432Y40121144D01*
X87446863Y40107194D01*
X87445877Y40106790D01*
X87408796Y40089740D01*
X87407845Y40089253D01*
X87372252Y40069103D01*
X87371355Y40068545D01*
X87337250Y40045295D01*
X87336423Y40044680D01*
X87303805Y40018330D01*
X87303058Y40017676D01*
X87278803Y39994728D01*
X86820426Y40259000D01*
X87278802Y40523272D01*
X87303058Y40500324D01*
G36*
X82286558Y40500324D02*
G01*
X82287305Y40499671D01*
X82319923Y40473321D01*
X82320750Y40472706D01*
X82354855Y40449456D01*
X82355752Y40448898D01*
X82391345Y40428748D01*
X82392296Y40428261D01*
X82429377Y40411211D01*
X82430363Y40410807D01*
X82468932Y40396857D01*
X82469932Y40396542D01*
X82509988Y40385692D01*
X82510979Y40385465D01*
X82552523Y40377715D01*
X82553488Y40377574D01*
X82596520Y40372924D01*
X82597442Y40372858D01*
X82629704Y40371735D01*
X82629704Y40146266D01*
X82597442Y40145143D01*
X82596520Y40145077D01*
X82553488Y40140427D01*
X82552523Y40140286D01*
X82510979Y40132536D01*
X82509988Y40132309D01*
X82469932Y40121459D01*
X82468932Y40121144D01*
X82430363Y40107194D01*
X82429377Y40106790D01*
X82392296Y40089740D01*
X82391345Y40089253D01*
X82355752Y40069103D01*
X82354855Y40068545D01*
X82320750Y40045295D01*
X82319923Y40044680D01*
X82287305Y40018330D01*
X82286558Y40017676D01*
X82262303Y39994728D01*
X81803926Y40259000D01*
X82262302Y40523272D01*
X82286558Y40500324D01*
G37*
X82286558Y40500324D02*
X82287305Y40499671D01*
X82319923Y40473321D01*
X82320750Y40472706D01*
X82354855Y40449456D01*
X82355752Y40448898D01*
X82391345Y40428748D01*
X82392296Y40428261D01*
X82429377Y40411211D01*
X82430363Y40410807D01*
X82468932Y40396857D01*
X82469932Y40396542D01*
X82509988Y40385692D01*
X82510979Y40385465D01*
X82552523Y40377715D01*
X82553488Y40377574D01*
X82596520Y40372924D01*
X82597442Y40372858D01*
X82629704Y40371735D01*
X82629704Y40146266D01*
X82597442Y40145143D01*
X82596520Y40145077D01*
X82553488Y40140427D01*
X82552523Y40140286D01*
X82510979Y40132536D01*
X82509988Y40132309D01*
X82469932Y40121459D01*
X82468932Y40121144D01*
X82430363Y40107194D01*
X82429377Y40106790D01*
X82392296Y40089740D01*
X82391345Y40089253D01*
X82355752Y40069103D01*
X82354855Y40068545D01*
X82320750Y40045295D01*
X82319923Y40044680D01*
X82287305Y40018330D01*
X82286558Y40017676D01*
X82262303Y39994728D01*
X81803926Y40259000D01*
X82262302Y40523272D01*
X82286558Y40500324D01*
G36*
X72380558Y39992324D02*
G01*
X72381305Y39991671D01*
X72413923Y39965321D01*
X72414750Y39964706D01*
X72448855Y39941456D01*
X72449752Y39940898D01*
X72485345Y39920748D01*
X72486296Y39920261D01*
X72523377Y39903211D01*
X72524363Y39902807D01*
X72562932Y39888857D01*
X72563932Y39888542D01*
X72603988Y39877692D01*
X72604979Y39877465D01*
X72646523Y39869715D01*
X72647488Y39869574D01*
X72690520Y39864924D01*
X72691442Y39864858D01*
X72723704Y39863735D01*
X72723704Y39638266D01*
X72691442Y39637143D01*
X72690520Y39637077D01*
X72647488Y39632427D01*
X72646523Y39632286D01*
X72604979Y39624536D01*
X72603988Y39624309D01*
X72563932Y39613459D01*
X72562932Y39613144D01*
X72524363Y39599194D01*
X72523377Y39598790D01*
X72486296Y39581740D01*
X72485345Y39581253D01*
X72449752Y39561103D01*
X72448855Y39560545D01*
X72414750Y39537295D01*
X72413923Y39536680D01*
X72381305Y39510330D01*
X72380558Y39509676D01*
X72356303Y39486728D01*
X71897926Y39751000D01*
X72356302Y40015272D01*
X72380558Y39992324D01*
G37*
X72380558Y39992324D02*
X72381305Y39991671D01*
X72413923Y39965321D01*
X72414750Y39964706D01*
X72448855Y39941456D01*
X72449752Y39940898D01*
X72485345Y39920748D01*
X72486296Y39920261D01*
X72523377Y39903211D01*
X72524363Y39902807D01*
X72562932Y39888857D01*
X72563932Y39888542D01*
X72603988Y39877692D01*
X72604979Y39877465D01*
X72646523Y39869715D01*
X72647488Y39869574D01*
X72690520Y39864924D01*
X72691442Y39864858D01*
X72723704Y39863735D01*
X72723704Y39638266D01*
X72691442Y39637143D01*
X72690520Y39637077D01*
X72647488Y39632427D01*
X72646523Y39632286D01*
X72604979Y39624536D01*
X72603988Y39624309D01*
X72563932Y39613459D01*
X72562932Y39613144D01*
X72524363Y39599194D01*
X72523377Y39598790D01*
X72486296Y39581740D01*
X72485345Y39581253D01*
X72449752Y39561103D01*
X72448855Y39560545D01*
X72414750Y39537295D01*
X72413923Y39536680D01*
X72381305Y39510330D01*
X72380558Y39509676D01*
X72356303Y39486728D01*
X71897926Y39751000D01*
X72356302Y40015272D01*
X72380558Y39992324D01*
G36*
X67620827Y40156212D02*
G01*
X67606025Y40139999D01*
X67605280Y40139103D01*
X67584762Y40112009D01*
X67584103Y40111051D01*
X67566050Y40082037D01*
X67565492Y40081044D01*
X67549903Y40050112D01*
X67549450Y40049107D01*
X67536327Y40016255D01*
X67535979Y40015266D01*
X67525320Y39980496D01*
X67525067Y39979542D01*
X67516874Y39942852D01*
X67516707Y39941948D01*
X67510978Y39903339D01*
X67510881Y39902494D01*
X67507618Y39861966D01*
X67507579Y39861186D01*
X67506961Y39828287D01*
X66996058Y39691058D01*
X67133287Y40201961D01*
X67166185Y40202580D01*
X67166965Y40202619D01*
X67207493Y40205882D01*
X67208338Y40205979D01*
X67246947Y40211708D01*
X67247851Y40211875D01*
X67284541Y40220068D01*
X67285495Y40220321D01*
X67320265Y40230980D01*
X67321254Y40231328D01*
X67354106Y40244451D01*
X67355111Y40244904D01*
X67386043Y40260493D01*
X67387036Y40261051D01*
X67416050Y40279104D01*
X67417008Y40279763D01*
X67444102Y40300281D01*
X67444997Y40301026D01*
X67461211Y40315828D01*
X67620827Y40156212D01*
G37*
X67620827Y40156212D02*
X67606025Y40139999D01*
X67605280Y40139103D01*
X67584762Y40112009D01*
X67584103Y40111051D01*
X67566050Y40082037D01*
X67565492Y40081044D01*
X67549903Y40050112D01*
X67549450Y40049107D01*
X67536327Y40016255D01*
X67535979Y40015266D01*
X67525320Y39980496D01*
X67525067Y39979542D01*
X67516874Y39942852D01*
X67516707Y39941948D01*
X67510978Y39903339D01*
X67510881Y39902494D01*
X67507618Y39861966D01*
X67507579Y39861186D01*
X67506961Y39828287D01*
X66996058Y39691058D01*
X67133287Y40201961D01*
X67166185Y40202580D01*
X67166965Y40202619D01*
X67207493Y40205882D01*
X67208338Y40205979D01*
X67246947Y40211708D01*
X67247851Y40211875D01*
X67284541Y40220068D01*
X67285495Y40220321D01*
X67320265Y40230980D01*
X67321254Y40231328D01*
X67354106Y40244451D01*
X67355111Y40244904D01*
X67386043Y40260493D01*
X67387036Y40261051D01*
X67416050Y40279104D01*
X67417008Y40279763D01*
X67444102Y40300281D01*
X67444997Y40301026D01*
X67461211Y40315828D01*
X67620827Y40156212D01*
G36*
X62601558Y40309824D02*
G01*
X62602305Y40309171D01*
X62634923Y40282821D01*
X62635750Y40282206D01*
X62669855Y40258956D01*
X62670752Y40258398D01*
X62706345Y40238248D01*
X62707296Y40237761D01*
X62744377Y40220711D01*
X62745363Y40220307D01*
X62783932Y40206357D01*
X62784932Y40206042D01*
X62824988Y40195192D01*
X62825979Y40194965D01*
X62867523Y40187215D01*
X62868488Y40187074D01*
X62911520Y40182424D01*
X62912442Y40182358D01*
X62944704Y40181235D01*
X62944704Y39955766D01*
X62912442Y39954643D01*
X62911520Y39954577D01*
X62868488Y39949927D01*
X62867523Y39949786D01*
X62825979Y39942036D01*
X62824988Y39941809D01*
X62784932Y39930959D01*
X62783932Y39930644D01*
X62745363Y39916694D01*
X62744377Y39916290D01*
X62707296Y39899240D01*
X62706345Y39898753D01*
X62670752Y39878603D01*
X62669855Y39878045D01*
X62635750Y39854795D01*
X62634923Y39854180D01*
X62602305Y39827830D01*
X62601558Y39827176D01*
X62577303Y39804228D01*
X62118926Y40068500D01*
X62577302Y40332772D01*
X62601558Y40309824D01*
G37*
X62601558Y40309824D02*
X62602305Y40309171D01*
X62634923Y40282821D01*
X62635750Y40282206D01*
X62669855Y40258956D01*
X62670752Y40258398D01*
X62706345Y40238248D01*
X62707296Y40237761D01*
X62744377Y40220711D01*
X62745363Y40220307D01*
X62783932Y40206357D01*
X62784932Y40206042D01*
X62824988Y40195192D01*
X62825979Y40194965D01*
X62867523Y40187215D01*
X62868488Y40187074D01*
X62911520Y40182424D01*
X62912442Y40182358D01*
X62944704Y40181235D01*
X62944704Y39955766D01*
X62912442Y39954643D01*
X62911520Y39954577D01*
X62868488Y39949927D01*
X62867523Y39949786D01*
X62825979Y39942036D01*
X62824988Y39941809D01*
X62784932Y39930959D01*
X62783932Y39930644D01*
X62745363Y39916694D01*
X62744377Y39916290D01*
X62707296Y39899240D01*
X62706345Y39898753D01*
X62670752Y39878603D01*
X62669855Y39878045D01*
X62635750Y39854795D01*
X62634923Y39854180D01*
X62602305Y39827830D01*
X62601558Y39827176D01*
X62577303Y39804228D01*
X62118926Y40068500D01*
X62577302Y40332772D01*
X62601558Y40309824D01*
G36*
X58295204Y40128216D02*
G01*
X58224642Y40096500D01*
X58224405Y40096390D01*
X58151368Y40061735D01*
X58151104Y40061606D01*
X58083085Y40027381D01*
X58082790Y40027228D01*
X58019789Y39993433D01*
X58019458Y39993249D01*
X57961474Y39959884D01*
X57961102Y39959661D01*
X57908136Y39926726D01*
X57907716Y39926453D01*
X57859768Y39893948D01*
X57859293Y39893610D01*
X57816363Y39861535D01*
X57815826Y39861111D01*
X57777913Y39829466D01*
X57777309Y39828928D01*
X57751289Y39804236D01*
X57292926Y40068500D01*
X57751788Y40333052D01*
X57777873Y40311098D01*
X57779885Y40309712D01*
X57817798Y40288657D01*
X57819919Y40287721D01*
X57862849Y40273296D01*
X57864856Y40272800D01*
X57912804Y40265005D01*
X57914563Y40264843D01*
X57967529Y40263678D01*
X57969000Y40263731D01*
X58026984Y40269196D01*
X58028186Y40269368D01*
X58091187Y40281463D01*
X58092164Y40281691D01*
X58160183Y40300416D01*
X58160977Y40300662D01*
X58234014Y40326017D01*
X58234665Y40326263D01*
X58295204Y40351070D01*
X58295204Y40128216D01*
G37*
X58295204Y40128216D02*
X58224642Y40096500D01*
X58224405Y40096390D01*
X58151368Y40061735D01*
X58151104Y40061606D01*
X58083085Y40027381D01*
X58082790Y40027228D01*
X58019789Y39993433D01*
X58019458Y39993249D01*
X57961474Y39959884D01*
X57961102Y39959661D01*
X57908136Y39926726D01*
X57907716Y39926453D01*
X57859768Y39893948D01*
X57859293Y39893610D01*
X57816363Y39861535D01*
X57815826Y39861111D01*
X57777913Y39829466D01*
X57777309Y39828928D01*
X57751289Y39804236D01*
X57292926Y40068500D01*
X57751788Y40333052D01*
X57777873Y40311098D01*
X57779885Y40309712D01*
X57817798Y40288657D01*
X57819919Y40287721D01*
X57862849Y40273296D01*
X57864856Y40272800D01*
X57912804Y40265005D01*
X57914563Y40264843D01*
X57967529Y40263678D01*
X57969000Y40263731D01*
X58026984Y40269196D01*
X58028186Y40269368D01*
X58091187Y40281463D01*
X58092164Y40281691D01*
X58160183Y40300416D01*
X58160977Y40300662D01*
X58234014Y40326017D01*
X58234665Y40326263D01*
X58295204Y40351070D01*
X58295204Y40128216D01*
G36*
X52695558Y40373324D02*
G01*
X52696305Y40372671D01*
X52728923Y40346321D01*
X52729750Y40345706D01*
X52763855Y40322456D01*
X52764752Y40321898D01*
X52800345Y40301748D01*
X52801296Y40301261D01*
X52838377Y40284211D01*
X52839363Y40283807D01*
X52877932Y40269857D01*
X52878932Y40269542D01*
X52918988Y40258692D01*
X52919979Y40258465D01*
X52961523Y40250715D01*
X52962488Y40250574D01*
X53005520Y40245924D01*
X53006442Y40245858D01*
X53038704Y40244735D01*
X53038704Y40019266D01*
X53006442Y40018143D01*
X53005520Y40018077D01*
X52962488Y40013427D01*
X52961523Y40013286D01*
X52919979Y40005536D01*
X52918988Y40005309D01*
X52878932Y39994459D01*
X52877932Y39994144D01*
X52839363Y39980194D01*
X52838377Y39979790D01*
X52801296Y39962740D01*
X52800345Y39962253D01*
X52764752Y39942103D01*
X52763855Y39941545D01*
X52729750Y39918295D01*
X52728923Y39917680D01*
X52696305Y39891330D01*
X52695558Y39890676D01*
X52671303Y39867728D01*
X52212926Y40132000D01*
X52671302Y40396272D01*
X52695558Y40373324D01*
G37*
X52695558Y40373324D02*
X52696305Y40372671D01*
X52728923Y40346321D01*
X52729750Y40345706D01*
X52763855Y40322456D01*
X52764752Y40321898D01*
X52800345Y40301748D01*
X52801296Y40301261D01*
X52838377Y40284211D01*
X52839363Y40283807D01*
X52877932Y40269857D01*
X52878932Y40269542D01*
X52918988Y40258692D01*
X52919979Y40258465D01*
X52961523Y40250715D01*
X52962488Y40250574D01*
X53005520Y40245924D01*
X53006442Y40245858D01*
X53038704Y40244735D01*
X53038704Y40019266D01*
X53006442Y40018143D01*
X53005520Y40018077D01*
X52962488Y40013427D01*
X52961523Y40013286D01*
X52919979Y40005536D01*
X52918988Y40005309D01*
X52878932Y39994459D01*
X52877932Y39994144D01*
X52839363Y39980194D01*
X52838377Y39979790D01*
X52801296Y39962740D01*
X52800345Y39962253D01*
X52764752Y39942103D01*
X52763855Y39941545D01*
X52729750Y39918295D01*
X52728923Y39917680D01*
X52696305Y39891330D01*
X52695558Y39890676D01*
X52671303Y39867728D01*
X52212926Y40132000D01*
X52671302Y40396272D01*
X52695558Y40373324D01*
G36*
X54253283Y44784490D02*
G01*
X54253986Y44783882D01*
X54355352Y44702372D01*
X54356137Y44701789D01*
X54460997Y44630022D01*
X54461861Y44629480D01*
X54570213Y44567457D01*
X54571144Y44566974D01*
X54682991Y44514694D01*
X54683975Y44514283D01*
X54799314Y44471748D01*
X54800330Y44471422D01*
X54919163Y44438630D01*
X54920189Y44438392D01*
X55042515Y44415343D01*
X55043532Y44415193D01*
X55169352Y44401889D01*
X55170337Y44401824D01*
X55290190Y44398523D01*
X55591041Y43278459D01*
X54470977Y43579310D01*
X54467676Y43699163D01*
X54467611Y43700148D01*
X54454307Y43825968D01*
X54454157Y43826985D01*
X54431108Y43949311D01*
X54430870Y43950337D01*
X54398078Y44069170D01*
X54397752Y44070186D01*
X54355217Y44185525D01*
X54354806Y44186509D01*
X54302526Y44298356D01*
X54302043Y44299287D01*
X54240020Y44407639D01*
X54239478Y44408503D01*
X54167711Y44513363D01*
X54167128Y44514148D01*
X54085618Y44615514D01*
X54085010Y44616217D01*
X54002119Y44705120D01*
X54164380Y44867381D01*
X54253283Y44784490D01*
G37*
X54253283Y44784490D02*
X54253986Y44783882D01*
X54355352Y44702372D01*
X54356137Y44701789D01*
X54460997Y44630022D01*
X54461861Y44629480D01*
X54570213Y44567457D01*
X54571144Y44566974D01*
X54682991Y44514694D01*
X54683975Y44514283D01*
X54799314Y44471748D01*
X54800330Y44471422D01*
X54919163Y44438630D01*
X54920189Y44438392D01*
X55042515Y44415343D01*
X55043532Y44415193D01*
X55169352Y44401889D01*
X55170337Y44401824D01*
X55290190Y44398523D01*
X55591041Y43278459D01*
X54470977Y43579310D01*
X54467676Y43699163D01*
X54467611Y43700148D01*
X54454307Y43825968D01*
X54454157Y43826985D01*
X54431108Y43949311D01*
X54430870Y43950337D01*
X54398078Y44069170D01*
X54397752Y44070186D01*
X54355217Y44185525D01*
X54354806Y44186509D01*
X54302526Y44298356D01*
X54302043Y44299287D01*
X54240020Y44407639D01*
X54239478Y44408503D01*
X54167711Y44513363D01*
X54167128Y44514148D01*
X54085618Y44615514D01*
X54085010Y44616217D01*
X54002119Y44705120D01*
X54164380Y44867381D01*
X54253283Y44784490D01*
G36*
X21008657Y49073204D02*
G01*
X21009405Y49072551D01*
X21041604Y49046541D01*
X21042431Y49045926D01*
X21076099Y49022976D01*
X21076996Y49022418D01*
X21112133Y49002528D01*
X21113084Y49002041D01*
X21149691Y48985211D01*
X21150677Y48984807D01*
X21188754Y48971037D01*
X21189753Y48970722D01*
X21229299Y48960012D01*
X21230290Y48959785D01*
X21271306Y48952135D01*
X21272271Y48951993D01*
X21314756Y48947403D01*
X21315678Y48947338D01*
X21347376Y48946235D01*
X21347376Y48716766D01*
X21315679Y48715663D01*
X21314756Y48715598D01*
X21272271Y48711008D01*
X21271306Y48710866D01*
X21230290Y48703216D01*
X21229299Y48702989D01*
X21189753Y48692279D01*
X21188754Y48691964D01*
X21150677Y48678194D01*
X21149691Y48677790D01*
X21113084Y48660960D01*
X21112133Y48660473D01*
X21076996Y48640583D01*
X21076099Y48640025D01*
X21042431Y48617075D01*
X21041604Y48616460D01*
X21009405Y48590450D01*
X21008657Y48589797D01*
X20984802Y48567228D01*
X20526426Y48831500D01*
X20984802Y49095772D01*
X21008657Y49073204D01*
G37*
X21008657Y49073204D02*
X21009405Y49072551D01*
X21041604Y49046541D01*
X21042431Y49045926D01*
X21076099Y49022976D01*
X21076996Y49022418D01*
X21112133Y49002528D01*
X21113084Y49002041D01*
X21149691Y48985211D01*
X21150677Y48984807D01*
X21188754Y48971037D01*
X21189753Y48970722D01*
X21229299Y48960012D01*
X21230290Y48959785D01*
X21271306Y48952135D01*
X21272271Y48951993D01*
X21314756Y48947403D01*
X21315678Y48947338D01*
X21347376Y48946235D01*
X21347376Y48716766D01*
X21315679Y48715663D01*
X21314756Y48715598D01*
X21272271Y48711008D01*
X21271306Y48710866D01*
X21230290Y48703216D01*
X21229299Y48702989D01*
X21189753Y48692279D01*
X21188754Y48691964D01*
X21150677Y48678194D01*
X21149691Y48677790D01*
X21113084Y48660960D01*
X21112133Y48660473D01*
X21076996Y48640583D01*
X21076099Y48640025D01*
X21042431Y48617075D01*
X21041604Y48616460D01*
X21009405Y48590450D01*
X21008657Y48589797D01*
X20984802Y48567228D01*
X20526426Y48831500D01*
X20984802Y49095772D01*
X21008657Y49073204D01*
G36*
X48060705Y40437178D02*
G01*
X48061799Y40436283D01*
X48095902Y40411418D01*
X48097112Y40410637D01*
X48133692Y40389862D01*
X48134975Y40389226D01*
X48174033Y40372541D01*
X48175337Y40372066D01*
X48216873Y40359471D01*
X48218149Y40359156D01*
X48262163Y40350651D01*
X48263371Y40350477D01*
X48309862Y40346062D01*
X48310979Y40346005D01*
X48359948Y40345680D01*
X48360959Y40345714D01*
X48412406Y40349479D01*
X48413310Y40349578D01*
X48452704Y40355316D01*
X48452704Y40130380D01*
X48408951Y40121492D01*
X48408353Y40121355D01*
X48356906Y40108290D01*
X48356273Y40108112D01*
X48307304Y40092937D01*
X48306637Y40092710D01*
X48260146Y40075425D01*
X48259451Y40075143D01*
X48215437Y40055748D01*
X48214719Y40055404D01*
X48173183Y40033899D01*
X48172451Y40033489D01*
X48133393Y40009874D01*
X48132658Y40009394D01*
X48096078Y39983669D01*
X48095354Y39983120D01*
X48061251Y39955285D01*
X48060549Y39954668D01*
X48035798Y39931231D01*
X47577426Y40195500D01*
X48035941Y40459852D01*
X48060705Y40437178D01*
G37*
X48060705Y40437178D02*
X48061799Y40436283D01*
X48095902Y40411418D01*
X48097112Y40410637D01*
X48133692Y40389862D01*
X48134975Y40389226D01*
X48174033Y40372541D01*
X48175337Y40372066D01*
X48216873Y40359471D01*
X48218149Y40359156D01*
X48262163Y40350651D01*
X48263371Y40350477D01*
X48309862Y40346062D01*
X48310979Y40346005D01*
X48359948Y40345680D01*
X48360959Y40345714D01*
X48412406Y40349479D01*
X48413310Y40349578D01*
X48452704Y40355316D01*
X48452704Y40130380D01*
X48408951Y40121492D01*
X48408353Y40121355D01*
X48356906Y40108290D01*
X48356273Y40108112D01*
X48307304Y40092937D01*
X48306637Y40092710D01*
X48260146Y40075425D01*
X48259451Y40075143D01*
X48215437Y40055748D01*
X48214719Y40055404D01*
X48173183Y40033899D01*
X48172451Y40033489D01*
X48133393Y40009874D01*
X48132658Y40009394D01*
X48096078Y39983669D01*
X48095354Y39983120D01*
X48061251Y39955285D01*
X48060549Y39954668D01*
X48035798Y39931231D01*
X47577426Y40195500D01*
X48035941Y40459852D01*
X48060705Y40437178D01*
G36*
X29200157Y48346204D02*
G01*
X29200905Y48345551D01*
X29233104Y48319541D01*
X29233931Y48318926D01*
X29267599Y48295976D01*
X29268496Y48295418D01*
X29303633Y48275528D01*
X29304584Y48275041D01*
X29341191Y48258211D01*
X29342177Y48257807D01*
X29380254Y48244037D01*
X29381253Y48243722D01*
X29420799Y48233012D01*
X29421790Y48232785D01*
X29462806Y48225135D01*
X29463771Y48224993D01*
X29506256Y48220403D01*
X29507178Y48220338D01*
X29538876Y48219235D01*
X29538876Y47989766D01*
X29507179Y47988663D01*
X29506256Y47988598D01*
X29463771Y47984008D01*
X29462806Y47983866D01*
X29421790Y47976216D01*
X29420799Y47975989D01*
X29381253Y47965279D01*
X29380254Y47964964D01*
X29342177Y47951194D01*
X29341191Y47950790D01*
X29304584Y47933960D01*
X29303633Y47933473D01*
X29268496Y47913583D01*
X29267599Y47913025D01*
X29233931Y47890075D01*
X29233104Y47889460D01*
X29200905Y47863450D01*
X29200157Y47862797D01*
X29176302Y47840228D01*
X28717926Y48104500D01*
X29176302Y48368772D01*
X29200157Y48346204D01*
G37*
X29200157Y48346204D02*
X29200905Y48345551D01*
X29233104Y48319541D01*
X29233931Y48318926D01*
X29267599Y48295976D01*
X29268496Y48295418D01*
X29303633Y48275528D01*
X29304584Y48275041D01*
X29341191Y48258211D01*
X29342177Y48257807D01*
X29380254Y48244037D01*
X29381253Y48243722D01*
X29420799Y48233012D01*
X29421790Y48232785D01*
X29462806Y48225135D01*
X29463771Y48224993D01*
X29506256Y48220403D01*
X29507178Y48220338D01*
X29538876Y48219235D01*
X29538876Y47989766D01*
X29507179Y47988663D01*
X29506256Y47988598D01*
X29463771Y47984008D01*
X29462806Y47983866D01*
X29421790Y47976216D01*
X29420799Y47975989D01*
X29381253Y47965279D01*
X29380254Y47964964D01*
X29342177Y47951194D01*
X29341191Y47950790D01*
X29304584Y47933960D01*
X29303633Y47933473D01*
X29268496Y47913583D01*
X29267599Y47913025D01*
X29233931Y47890075D01*
X29233104Y47889460D01*
X29200905Y47863450D01*
X29200157Y47862797D01*
X29176302Y47840228D01*
X28717926Y48104500D01*
X29176302Y48368772D01*
X29200157Y48346204D01*
G36*
X34429574Y48104500D02*
G01*
X33971198Y47840228D01*
X33947342Y47862797D01*
X33946594Y47863450D01*
X33914395Y47889460D01*
X33913568Y47890075D01*
X33879900Y47913025D01*
X33879003Y47913583D01*
X33843866Y47933473D01*
X33842915Y47933960D01*
X33806308Y47950790D01*
X33805322Y47951194D01*
X33767245Y47964964D01*
X33766246Y47965279D01*
X33726700Y47975989D01*
X33725709Y47976216D01*
X33684693Y47983866D01*
X33683728Y47984008D01*
X33641243Y47988598D01*
X33640321Y47988663D01*
X33608624Y47989766D01*
X33608624Y48219235D01*
X33640321Y48220338D01*
X33641243Y48220403D01*
X33683728Y48224993D01*
X33684693Y48225135D01*
X33725709Y48232785D01*
X33726700Y48233012D01*
X33766246Y48243722D01*
X33767245Y48244037D01*
X33805322Y48257807D01*
X33806308Y48258211D01*
X33842915Y48275041D01*
X33843866Y48275528D01*
X33879003Y48295418D01*
X33879900Y48295976D01*
X33913568Y48318926D01*
X33914395Y48319541D01*
X33946594Y48345551D01*
X33947342Y48346204D01*
X33971198Y48368772D01*
X34429574Y48104500D01*
G37*
X34429574Y48104500D02*
X33971198Y47840228D01*
X33947342Y47862797D01*
X33946594Y47863450D01*
X33914395Y47889460D01*
X33913568Y47890075D01*
X33879900Y47913025D01*
X33879003Y47913583D01*
X33843866Y47933473D01*
X33842915Y47933960D01*
X33806308Y47950790D01*
X33805322Y47951194D01*
X33767245Y47964964D01*
X33766246Y47965279D01*
X33726700Y47975989D01*
X33725709Y47976216D01*
X33684693Y47983866D01*
X33683728Y47984008D01*
X33641243Y47988598D01*
X33640321Y47988663D01*
X33608624Y47989766D01*
X33608624Y48219235D01*
X33640321Y48220338D01*
X33641243Y48220403D01*
X33683728Y48224993D01*
X33684693Y48225135D01*
X33725709Y48232785D01*
X33726700Y48233012D01*
X33766246Y48243722D01*
X33767245Y48244037D01*
X33805322Y48257807D01*
X33806308Y48258211D01*
X33842915Y48275041D01*
X33843866Y48275528D01*
X33879003Y48295418D01*
X33879900Y48295976D01*
X33913568Y48318926D01*
X33914395Y48319541D01*
X33946594Y48345551D01*
X33947342Y48346204D01*
X33971198Y48368772D01*
X34429574Y48104500D01*
G36*
X30978157Y49800204D02*
G01*
X30978905Y49799551D01*
X31011104Y49773541D01*
X31011931Y49772926D01*
X31045599Y49749976D01*
X31046496Y49749418D01*
X31081633Y49729528D01*
X31082584Y49729041D01*
X31119191Y49712211D01*
X31120177Y49711807D01*
X31158254Y49698037D01*
X31159253Y49697722D01*
X31198799Y49687012D01*
X31199790Y49686785D01*
X31240806Y49679135D01*
X31241771Y49678993D01*
X31284256Y49674403D01*
X31285178Y49674338D01*
X31316876Y49673235D01*
X31316876Y49443766D01*
X31285179Y49442663D01*
X31284256Y49442598D01*
X31241771Y49438008D01*
X31240806Y49437866D01*
X31199790Y49430216D01*
X31198799Y49429989D01*
X31159253Y49419279D01*
X31158254Y49418964D01*
X31120177Y49405194D01*
X31119191Y49404790D01*
X31082584Y49387960D01*
X31081633Y49387473D01*
X31046496Y49367583D01*
X31045599Y49367025D01*
X31011931Y49344075D01*
X31011104Y49343460D01*
X30978905Y49317450D01*
X30978157Y49316797D01*
X30954302Y49294228D01*
X30495926Y49558500D01*
X30954302Y49822772D01*
X30978157Y49800204D01*
G37*
X30978157Y49800204D02*
X30978905Y49799551D01*
X31011104Y49773541D01*
X31011931Y49772926D01*
X31045599Y49749976D01*
X31046496Y49749418D01*
X31081633Y49729528D01*
X31082584Y49729041D01*
X31119191Y49712211D01*
X31120177Y49711807D01*
X31158254Y49698037D01*
X31159253Y49697722D01*
X31198799Y49687012D01*
X31199790Y49686785D01*
X31240806Y49679135D01*
X31241771Y49678993D01*
X31284256Y49674403D01*
X31285178Y49674338D01*
X31316876Y49673235D01*
X31316876Y49443766D01*
X31285179Y49442663D01*
X31284256Y49442598D01*
X31241771Y49438008D01*
X31240806Y49437866D01*
X31199790Y49430216D01*
X31198799Y49429989D01*
X31159253Y49419279D01*
X31158254Y49418964D01*
X31120177Y49405194D01*
X31119191Y49404790D01*
X31082584Y49387960D01*
X31081633Y49387473D01*
X31046496Y49367583D01*
X31045599Y49367025D01*
X31011931Y49344075D01*
X31011104Y49343460D01*
X30978905Y49317450D01*
X30978157Y49316797D01*
X30954302Y49294228D01*
X30495926Y49558500D01*
X30954302Y49822772D01*
X30978157Y49800204D01*
G36*
X36369574Y49558500D02*
G01*
X35911198Y49294228D01*
X35887342Y49316797D01*
X35886594Y49317450D01*
X35854395Y49343460D01*
X35853568Y49344075D01*
X35819900Y49367025D01*
X35819003Y49367583D01*
X35783866Y49387473D01*
X35782915Y49387960D01*
X35746308Y49404790D01*
X35745322Y49405194D01*
X35707245Y49418964D01*
X35706246Y49419279D01*
X35666700Y49429989D01*
X35665709Y49430216D01*
X35624693Y49437866D01*
X35623728Y49438008D01*
X35581243Y49442598D01*
X35580321Y49442663D01*
X35548624Y49443766D01*
X35548624Y49673235D01*
X35580321Y49674338D01*
X35581243Y49674403D01*
X35623728Y49678993D01*
X35624693Y49679135D01*
X35665709Y49686785D01*
X35666700Y49687012D01*
X35706246Y49697722D01*
X35707245Y49698037D01*
X35745322Y49711807D01*
X35746308Y49712211D01*
X35782915Y49729041D01*
X35783866Y49729528D01*
X35819003Y49749418D01*
X35819900Y49749976D01*
X35853568Y49772926D01*
X35854395Y49773541D01*
X35886594Y49799551D01*
X35887342Y49800204D01*
X35911198Y49822772D01*
X36369574Y49558500D01*
G37*
X36369574Y49558500D02*
X35911198Y49294228D01*
X35887342Y49316797D01*
X35886594Y49317450D01*
X35854395Y49343460D01*
X35853568Y49344075D01*
X35819900Y49367025D01*
X35819003Y49367583D01*
X35783866Y49387473D01*
X35782915Y49387960D01*
X35746308Y49404790D01*
X35745322Y49405194D01*
X35707245Y49418964D01*
X35706246Y49419279D01*
X35666700Y49429989D01*
X35665709Y49430216D01*
X35624693Y49437866D01*
X35623728Y49438008D01*
X35581243Y49442598D01*
X35580321Y49442663D01*
X35548624Y49443766D01*
X35548624Y49673235D01*
X35580321Y49674338D01*
X35581243Y49674403D01*
X35623728Y49678993D01*
X35624693Y49679135D01*
X35665709Y49686785D01*
X35666700Y49687012D01*
X35706246Y49697722D01*
X35707245Y49698037D01*
X35745322Y49711807D01*
X35746308Y49712211D01*
X35782915Y49729041D01*
X35783866Y49729528D01*
X35819003Y49749418D01*
X35819900Y49749976D01*
X35853568Y49772926D01*
X35854395Y49773541D01*
X35886594Y49799551D01*
X35887342Y49800204D01*
X35911198Y49822772D01*
X36369574Y49558500D01*
G36*
X43107058Y40436824D02*
G01*
X43107805Y40436171D01*
X43140423Y40409821D01*
X43141250Y40409206D01*
X43175355Y40385956D01*
X43176252Y40385398D01*
X43211845Y40365248D01*
X43212796Y40364761D01*
X43249877Y40347711D01*
X43250863Y40347307D01*
X43289432Y40333357D01*
X43290432Y40333042D01*
X43330488Y40322192D01*
X43331479Y40321965D01*
X43373023Y40314215D01*
X43373988Y40314074D01*
X43417020Y40309424D01*
X43417942Y40309358D01*
X43450204Y40308235D01*
X43450204Y40082766D01*
X43417942Y40081643D01*
X43417020Y40081577D01*
X43373988Y40076927D01*
X43373023Y40076786D01*
X43331479Y40069036D01*
X43330488Y40068809D01*
X43290432Y40057959D01*
X43289432Y40057644D01*
X43250863Y40043694D01*
X43249877Y40043290D01*
X43212796Y40026240D01*
X43211845Y40025753D01*
X43176252Y40005603D01*
X43175355Y40005045D01*
X43141250Y39981795D01*
X43140423Y39981180D01*
X43107805Y39954830D01*
X43107058Y39954176D01*
X43082803Y39931228D01*
X42624426Y40195500D01*
X43082802Y40459772D01*
X43107058Y40436824D01*
G37*
X43107058Y40436824D02*
X43107805Y40436171D01*
X43140423Y40409821D01*
X43141250Y40409206D01*
X43175355Y40385956D01*
X43176252Y40385398D01*
X43211845Y40365248D01*
X43212796Y40364761D01*
X43249877Y40347711D01*
X43250863Y40347307D01*
X43289432Y40333357D01*
X43290432Y40333042D01*
X43330488Y40322192D01*
X43331479Y40321965D01*
X43373023Y40314215D01*
X43373988Y40314074D01*
X43417020Y40309424D01*
X43417942Y40309358D01*
X43450204Y40308235D01*
X43450204Y40082766D01*
X43417942Y40081643D01*
X43417020Y40081577D01*
X43373988Y40076927D01*
X43373023Y40076786D01*
X43331479Y40069036D01*
X43330488Y40068809D01*
X43290432Y40057959D01*
X43289432Y40057644D01*
X43250863Y40043694D01*
X43249877Y40043290D01*
X43212796Y40026240D01*
X43211845Y40025753D01*
X43176252Y40005603D01*
X43175355Y40005045D01*
X43141250Y39981795D01*
X43140423Y39981180D01*
X43107805Y39954830D01*
X43107058Y39954176D01*
X43082803Y39931228D01*
X42624426Y40195500D01*
X43082802Y40459772D01*
X43107058Y40436824D01*
G36*
X38154197Y40500186D02*
G01*
X38154931Y40499543D01*
X38187969Y40472773D01*
X38188765Y40472178D01*
X38223570Y40448228D01*
X38224416Y40447693D01*
X38260989Y40426563D01*
X38261869Y40426100D01*
X38300210Y40407790D01*
X38301108Y40407403D01*
X38341217Y40391913D01*
X38342114Y40391604D01*
X38383990Y40378934D01*
X38384872Y40378702D01*
X38428516Y40368852D01*
X38429369Y40368689D01*
X38474781Y40361659D01*
X38475595Y40361560D01*
X38511204Y40358383D01*
X38511204Y40133002D01*
X38477023Y40133807D01*
X38476090Y40133795D01*
X38430678Y40131525D01*
X38429682Y40131436D01*
X38386038Y40125786D01*
X38384991Y40125606D01*
X38343115Y40116576D01*
X38342038Y40116294D01*
X38301929Y40103884D01*
X38300847Y40103494D01*
X38262506Y40087704D01*
X38261446Y40087209D01*
X38224873Y40068039D01*
X38223863Y40067449D01*
X38189058Y40044899D01*
X38188123Y40044231D01*
X38155085Y40018301D01*
X38154241Y40017577D01*
X38129842Y39994706D01*
X37671426Y40259000D01*
X38129802Y40523271D01*
X38154197Y40500186D01*
G37*
X38154197Y40500186D02*
X38154931Y40499543D01*
X38187969Y40472773D01*
X38188765Y40472178D01*
X38223570Y40448228D01*
X38224416Y40447693D01*
X38260989Y40426563D01*
X38261869Y40426100D01*
X38300210Y40407790D01*
X38301108Y40407403D01*
X38341217Y40391913D01*
X38342114Y40391604D01*
X38383990Y40378934D01*
X38384872Y40378702D01*
X38428516Y40368852D01*
X38429369Y40368689D01*
X38474781Y40361659D01*
X38475595Y40361560D01*
X38511204Y40358383D01*
X38511204Y40133002D01*
X38477023Y40133807D01*
X38476090Y40133795D01*
X38430678Y40131525D01*
X38429682Y40131436D01*
X38386038Y40125786D01*
X38384991Y40125606D01*
X38343115Y40116576D01*
X38342038Y40116294D01*
X38301929Y40103884D01*
X38300847Y40103494D01*
X38262506Y40087704D01*
X38261446Y40087209D01*
X38224873Y40068039D01*
X38223863Y40067449D01*
X38189058Y40044899D01*
X38188123Y40044231D01*
X38155085Y40018301D01*
X38154241Y40017577D01*
X38129842Y39994706D01*
X37671426Y40259000D01*
X38129802Y40523271D01*
X38154197Y40500186D01*
G36*
X19103657Y43393204D02*
G01*
X19104405Y43392551D01*
X19136604Y43366541D01*
X19137431Y43365926D01*
X19171099Y43342976D01*
X19171996Y43342418D01*
X19207133Y43322528D01*
X19208084Y43322041D01*
X19244691Y43305211D01*
X19245677Y43304807D01*
X19283754Y43291037D01*
X19284753Y43290722D01*
X19324299Y43280012D01*
X19325290Y43279785D01*
X19366306Y43272135D01*
X19367271Y43271993D01*
X19409756Y43267403D01*
X19410678Y43267338D01*
X19442376Y43266235D01*
X19442376Y43036766D01*
X19410679Y43035663D01*
X19409756Y43035598D01*
X19367271Y43031008D01*
X19366306Y43030866D01*
X19325290Y43023216D01*
X19324299Y43022989D01*
X19284753Y43012279D01*
X19283754Y43011964D01*
X19245677Y42998194D01*
X19244691Y42997790D01*
X19208084Y42980960D01*
X19207133Y42980473D01*
X19171996Y42960583D01*
X19171099Y42960025D01*
X19137431Y42937075D01*
X19136604Y42936460D01*
X19104405Y42910450D01*
X19103657Y42909797D01*
X19079802Y42887228D01*
X18621426Y43151500D01*
X19079802Y43415772D01*
X19103657Y43393204D01*
G37*
X19103657Y43393204D02*
X19104405Y43392551D01*
X19136604Y43366541D01*
X19137431Y43365926D01*
X19171099Y43342976D01*
X19171996Y43342418D01*
X19207133Y43322528D01*
X19208084Y43322041D01*
X19244691Y43305211D01*
X19245677Y43304807D01*
X19283754Y43291037D01*
X19284753Y43290722D01*
X19324299Y43280012D01*
X19325290Y43279785D01*
X19366306Y43272135D01*
X19367271Y43271993D01*
X19409756Y43267403D01*
X19410678Y43267338D01*
X19442376Y43266235D01*
X19442376Y43036766D01*
X19410679Y43035663D01*
X19409756Y43035598D01*
X19367271Y43031008D01*
X19366306Y43030866D01*
X19325290Y43023216D01*
X19324299Y43022989D01*
X19284753Y43012279D01*
X19283754Y43011964D01*
X19245677Y42998194D01*
X19244691Y42997790D01*
X19208084Y42980960D01*
X19207133Y42980473D01*
X19171996Y42960583D01*
X19171099Y42960025D01*
X19137431Y42937075D01*
X19136604Y42936460D01*
X19104405Y42910450D01*
X19103657Y42909797D01*
X19079802Y42887228D01*
X18621426Y43151500D01*
X19079802Y43415772D01*
X19103657Y43393204D01*
G36*
X24558574Y43151500D02*
G01*
X24100198Y42887228D01*
X24076342Y42909797D01*
X24075594Y42910450D01*
X24043395Y42936460D01*
X24042568Y42937075D01*
X24008900Y42960025D01*
X24008003Y42960583D01*
X23972866Y42980473D01*
X23971915Y42980960D01*
X23935308Y42997790D01*
X23934322Y42998194D01*
X23896245Y43011964D01*
X23895246Y43012279D01*
X23855700Y43022989D01*
X23854709Y43023216D01*
X23813693Y43030866D01*
X23812728Y43031008D01*
X23770243Y43035598D01*
X23769321Y43035663D01*
X23737624Y43036766D01*
X23737624Y43266235D01*
X23769321Y43267338D01*
X23770243Y43267403D01*
X23812728Y43271993D01*
X23813693Y43272135D01*
X23854709Y43279785D01*
X23855700Y43280012D01*
X23895246Y43290722D01*
X23896245Y43291037D01*
X23934322Y43304807D01*
X23935308Y43305211D01*
X23971915Y43322041D01*
X23972866Y43322528D01*
X24008003Y43342418D01*
X24008900Y43342976D01*
X24042568Y43365926D01*
X24043395Y43366541D01*
X24075594Y43392551D01*
X24076342Y43393204D01*
X24100198Y43415772D01*
X24558574Y43151500D01*
G37*
X24558574Y43151500D02*
X24100198Y42887228D01*
X24076342Y42909797D01*
X24075594Y42910450D01*
X24043395Y42936460D01*
X24042568Y42937075D01*
X24008900Y42960025D01*
X24008003Y42960583D01*
X23972866Y42980473D01*
X23971915Y42980960D01*
X23935308Y42997790D01*
X23934322Y42998194D01*
X23896245Y43011964D01*
X23895246Y43012279D01*
X23855700Y43022989D01*
X23854709Y43023216D01*
X23813693Y43030866D01*
X23812728Y43031008D01*
X23770243Y43035598D01*
X23769321Y43035663D01*
X23737624Y43036766D01*
X23737624Y43266235D01*
X23769321Y43267338D01*
X23770243Y43267403D01*
X23812728Y43271993D01*
X23813693Y43272135D01*
X23854709Y43279785D01*
X23855700Y43280012D01*
X23895246Y43290722D01*
X23896245Y43291037D01*
X23934322Y43304807D01*
X23935308Y43305211D01*
X23971915Y43322041D01*
X23972866Y43322528D01*
X24008003Y43342418D01*
X24008900Y43342976D01*
X24042568Y43365926D01*
X24043395Y43366541D01*
X24075594Y43392551D01*
X24076342Y43393204D01*
X24100198Y43415772D01*
X24558574Y43151500D01*
G36*
X33245058Y20024324D02*
G01*
X33245805Y20023671D01*
X33278423Y19997321D01*
X33279250Y19996706D01*
X33313355Y19973456D01*
X33314252Y19972898D01*
X33349845Y19952748D01*
X33350796Y19952261D01*
X33387877Y19935211D01*
X33388863Y19934807D01*
X33427432Y19920857D01*
X33428432Y19920542D01*
X33468488Y19909692D01*
X33469479Y19909465D01*
X33511023Y19901715D01*
X33511988Y19901574D01*
X33555020Y19896924D01*
X33555942Y19896858D01*
X33588204Y19895735D01*
X33588204Y19670266D01*
X33555942Y19669143D01*
X33555020Y19669077D01*
X33511988Y19664427D01*
X33511023Y19664286D01*
X33469479Y19656536D01*
X33468488Y19656309D01*
X33428432Y19645459D01*
X33427432Y19645144D01*
X33388863Y19631194D01*
X33387877Y19630790D01*
X33350796Y19613740D01*
X33349845Y19613253D01*
X33314252Y19593103D01*
X33313355Y19592545D01*
X33279250Y19569295D01*
X33278423Y19568680D01*
X33245805Y19542330D01*
X33245058Y19541676D01*
X33220803Y19518728D01*
X32762426Y19783000D01*
X33220802Y20047272D01*
X33245058Y20024324D01*
G37*
X33245058Y20024324D02*
X33245805Y20023671D01*
X33278423Y19997321D01*
X33279250Y19996706D01*
X33313355Y19973456D01*
X33314252Y19972898D01*
X33349845Y19952748D01*
X33350796Y19952261D01*
X33387877Y19935211D01*
X33388863Y19934807D01*
X33427432Y19920857D01*
X33428432Y19920542D01*
X33468488Y19909692D01*
X33469479Y19909465D01*
X33511023Y19901715D01*
X33511988Y19901574D01*
X33555020Y19896924D01*
X33555942Y19896858D01*
X33588204Y19895735D01*
X33588204Y19670266D01*
X33555942Y19669143D01*
X33555020Y19669077D01*
X33511988Y19664427D01*
X33511023Y19664286D01*
X33469479Y19656536D01*
X33468488Y19656309D01*
X33428432Y19645459D01*
X33427432Y19645144D01*
X33388863Y19631194D01*
X33387877Y19630790D01*
X33350796Y19613740D01*
X33349845Y19613253D01*
X33314252Y19593103D01*
X33313355Y19592545D01*
X33279250Y19569295D01*
X33278423Y19568680D01*
X33245805Y19542330D01*
X33245058Y19541676D01*
X33220803Y19518728D01*
X32762426Y19783000D01*
X33220802Y20047272D01*
X33245058Y20024324D01*
G36*
X35482690Y19932454D02*
G01*
X35449311Y19931528D01*
X35448321Y19931462D01*
X35406625Y19927030D01*
X35405605Y19926879D01*
X35365048Y19919203D01*
X35364019Y19918964D01*
X35324603Y19908044D01*
X35323586Y19907716D01*
X35285310Y19893552D01*
X35284328Y19893140D01*
X35247191Y19875732D01*
X35246261Y19875249D01*
X35210265Y19854597D01*
X35209404Y19854056D01*
X35174548Y19830160D01*
X35173765Y19829578D01*
X35140049Y19802438D01*
X35139350Y19801832D01*
X35115744Y19779813D01*
X34956313Y19939244D01*
X34978331Y19962852D01*
X34978937Y19963550D01*
X35006077Y19997266D01*
X35006659Y19998049D01*
X35030555Y20032905D01*
X35031096Y20033766D01*
X35051748Y20069762D01*
X35052231Y20070692D01*
X35069639Y20107829D01*
X35070051Y20108811D01*
X35084215Y20147087D01*
X35084543Y20148104D01*
X35095463Y20187520D01*
X35095702Y20188549D01*
X35103378Y20229106D01*
X35103529Y20230126D01*
X35107961Y20271822D01*
X35108027Y20272812D01*
X35108953Y20306190D01*
X35619942Y20443442D01*
X35482690Y19932454D01*
G37*
X35482690Y19932454D02*
X35449311Y19931528D01*
X35448321Y19931462D01*
X35406625Y19927030D01*
X35405605Y19926879D01*
X35365048Y19919203D01*
X35364019Y19918964D01*
X35324603Y19908044D01*
X35323586Y19907716D01*
X35285310Y19893552D01*
X35284328Y19893140D01*
X35247191Y19875732D01*
X35246261Y19875249D01*
X35210265Y19854597D01*
X35209404Y19854056D01*
X35174548Y19830160D01*
X35173765Y19829578D01*
X35140049Y19802438D01*
X35139350Y19801832D01*
X35115744Y19779813D01*
X34956313Y19939244D01*
X34978331Y19962852D01*
X34978937Y19963550D01*
X35006077Y19997266D01*
X35006659Y19998049D01*
X35030555Y20032905D01*
X35031096Y20033766D01*
X35051748Y20069762D01*
X35052231Y20070692D01*
X35069639Y20107829D01*
X35070051Y20108811D01*
X35084215Y20147087D01*
X35084543Y20148104D01*
X35095463Y20187520D01*
X35095702Y20188549D01*
X35103378Y20229106D01*
X35103529Y20230126D01*
X35107961Y20271822D01*
X35108027Y20272812D01*
X35108953Y20306190D01*
X35619942Y20443442D01*
X35482690Y19932454D01*
G36*
X9725772Y48420698D02*
G01*
X9703203Y48396843D01*
X9702550Y48396095D01*
X9676540Y48363896D01*
X9675925Y48363069D01*
X9652975Y48329401D01*
X9652417Y48328504D01*
X9632527Y48293367D01*
X9632040Y48292416D01*
X9615210Y48255809D01*
X9614806Y48254823D01*
X9601036Y48216746D01*
X9600721Y48215747D01*
X9590011Y48176201D01*
X9589784Y48175210D01*
X9582134Y48134194D01*
X9581992Y48133229D01*
X9577402Y48090744D01*
X9577337Y48089821D01*
X9576234Y48058124D01*
X9346765Y48058124D01*
X9345662Y48089822D01*
X9345597Y48090744D01*
X9341007Y48133229D01*
X9340865Y48134194D01*
X9333215Y48175210D01*
X9332988Y48176201D01*
X9322278Y48215747D01*
X9321963Y48216746D01*
X9308193Y48254823D01*
X9307789Y48255809D01*
X9290959Y48292416D01*
X9290472Y48293367D01*
X9270582Y48328504D01*
X9270024Y48329401D01*
X9247074Y48363069D01*
X9246459Y48363896D01*
X9220449Y48396095D01*
X9219796Y48396843D01*
X9197228Y48420698D01*
X9461500Y48879074D01*
X9725772Y48420698D01*
G37*
X9725772Y48420698D02*
X9703203Y48396843D01*
X9702550Y48396095D01*
X9676540Y48363896D01*
X9675925Y48363069D01*
X9652975Y48329401D01*
X9652417Y48328504D01*
X9632527Y48293367D01*
X9632040Y48292416D01*
X9615210Y48255809D01*
X9614806Y48254823D01*
X9601036Y48216746D01*
X9600721Y48215747D01*
X9590011Y48176201D01*
X9589784Y48175210D01*
X9582134Y48134194D01*
X9581992Y48133229D01*
X9577402Y48090744D01*
X9577337Y48089821D01*
X9576234Y48058124D01*
X9346765Y48058124D01*
X9345662Y48089822D01*
X9345597Y48090744D01*
X9341007Y48133229D01*
X9340865Y48134194D01*
X9333215Y48175210D01*
X9332988Y48176201D01*
X9322278Y48215747D01*
X9321963Y48216746D01*
X9308193Y48254823D01*
X9307789Y48255809D01*
X9290959Y48292416D01*
X9290472Y48293367D01*
X9270582Y48328504D01*
X9270024Y48329401D01*
X9247074Y48363069D01*
X9246459Y48363896D01*
X9220449Y48396095D01*
X9219796Y48396843D01*
X9197228Y48420698D01*
X9461500Y48879074D01*
X9725772Y48420698D01*
G36*
X35189574Y44005500D02*
G01*
X34731198Y43741228D01*
X34706941Y43764177D01*
X34706194Y43764830D01*
X34673576Y43791180D01*
X34672749Y43791795D01*
X34638644Y43815045D01*
X34637747Y43815603D01*
X34602154Y43835753D01*
X34601203Y43836240D01*
X34564122Y43853290D01*
X34563136Y43853694D01*
X34524567Y43867644D01*
X34523567Y43867959D01*
X34483511Y43878809D01*
X34482520Y43879036D01*
X34440976Y43886786D01*
X34440011Y43886927D01*
X34396979Y43891577D01*
X34396057Y43891643D01*
X34363796Y43892765D01*
X34363796Y44118235D01*
X34396057Y44119358D01*
X34396979Y44119424D01*
X34440011Y44124074D01*
X34440976Y44124215D01*
X34482520Y44131965D01*
X34483511Y44132192D01*
X34523567Y44143042D01*
X34524567Y44143357D01*
X34563136Y44157307D01*
X34564122Y44157711D01*
X34601203Y44174761D01*
X34602154Y44175248D01*
X34637747Y44195398D01*
X34638644Y44195956D01*
X34672749Y44219206D01*
X34673576Y44219821D01*
X34706194Y44246171D01*
X34706941Y44246824D01*
X34731198Y44269772D01*
X35189574Y44005500D01*
G37*
X35189574Y44005500D02*
X34731198Y43741228D01*
X34706941Y43764177D01*
X34706194Y43764830D01*
X34673576Y43791180D01*
X34672749Y43791795D01*
X34638644Y43815045D01*
X34637747Y43815603D01*
X34602154Y43835753D01*
X34601203Y43836240D01*
X34564122Y43853290D01*
X34563136Y43853694D01*
X34524567Y43867644D01*
X34523567Y43867959D01*
X34483511Y43878809D01*
X34482520Y43879036D01*
X34440976Y43886786D01*
X34440011Y43886927D01*
X34396979Y43891577D01*
X34396057Y43891643D01*
X34363796Y43892765D01*
X34363796Y44118235D01*
X34396057Y44119358D01*
X34396979Y44119424D01*
X34440011Y44124074D01*
X34440976Y44124215D01*
X34482520Y44131965D01*
X34483511Y44132192D01*
X34523567Y44143042D01*
X34524567Y44143357D01*
X34563136Y44157307D01*
X34564122Y44157711D01*
X34601203Y44174761D01*
X34602154Y44175248D01*
X34637747Y44195398D01*
X34638644Y44195956D01*
X34672749Y44219206D01*
X34673576Y44219821D01*
X34706194Y44246171D01*
X34706941Y44246824D01*
X34731198Y44269772D01*
X35189574Y44005500D01*
G36*
X97669546Y35800190D02*
G01*
X97670472Y35766812D01*
X97670538Y35765822D01*
X97674970Y35724126D01*
X97675121Y35723106D01*
X97682797Y35682549D01*
X97683036Y35681520D01*
X97693956Y35642104D01*
X97694284Y35641087D01*
X97708448Y35602811D01*
X97708860Y35601829D01*
X97726268Y35564692D01*
X97726751Y35563762D01*
X97747403Y35527766D01*
X97747944Y35526905D01*
X97771840Y35492049D01*
X97772422Y35491266D01*
X97799562Y35457550D01*
X97800168Y35456852D01*
X97822187Y35433244D01*
X97662756Y35273813D01*
X97639148Y35295832D01*
X97638450Y35296438D01*
X97604734Y35323578D01*
X97603951Y35324160D01*
X97569095Y35348056D01*
X97568234Y35348597D01*
X97532238Y35369249D01*
X97531308Y35369732D01*
X97494171Y35387140D01*
X97493189Y35387552D01*
X97454913Y35401716D01*
X97453896Y35402044D01*
X97414480Y35412964D01*
X97413451Y35413203D01*
X97372894Y35420879D01*
X97371874Y35421030D01*
X97330178Y35425462D01*
X97329188Y35425528D01*
X97295810Y35426454D01*
X97158558Y35937442D01*
X97669546Y35800190D01*
G37*
X97669546Y35800190D02*
X97670472Y35766812D01*
X97670538Y35765822D01*
X97674970Y35724126D01*
X97675121Y35723106D01*
X97682797Y35682549D01*
X97683036Y35681520D01*
X97693956Y35642104D01*
X97694284Y35641087D01*
X97708448Y35602811D01*
X97708860Y35601829D01*
X97726268Y35564692D01*
X97726751Y35563762D01*
X97747403Y35527766D01*
X97747944Y35526905D01*
X97771840Y35492049D01*
X97772422Y35491266D01*
X97799562Y35457550D01*
X97800168Y35456852D01*
X97822187Y35433244D01*
X97662756Y35273813D01*
X97639148Y35295832D01*
X97638450Y35296438D01*
X97604734Y35323578D01*
X97603951Y35324160D01*
X97569095Y35348056D01*
X97568234Y35348597D01*
X97532238Y35369249D01*
X97531308Y35369732D01*
X97494171Y35387140D01*
X97493189Y35387552D01*
X97454913Y35401716D01*
X97453896Y35402044D01*
X97414480Y35412964D01*
X97413451Y35413203D01*
X97372894Y35420879D01*
X97371874Y35421030D01*
X97330178Y35425462D01*
X97329188Y35425528D01*
X97295810Y35426454D01*
X97158558Y35937442D01*
X97669546Y35800190D01*
G36*
X92716546Y35736690D02*
G01*
X92717472Y35703312D01*
X92717538Y35702322D01*
X92721970Y35660626D01*
X92722121Y35659606D01*
X92729797Y35619049D01*
X92730036Y35618020D01*
X92740956Y35578604D01*
X92741284Y35577587D01*
X92755448Y35539311D01*
X92755860Y35538329D01*
X92773268Y35501192D01*
X92773751Y35500262D01*
X92794403Y35464266D01*
X92794944Y35463405D01*
X92818840Y35428549D01*
X92819422Y35427766D01*
X92846562Y35394050D01*
X92847168Y35393352D01*
X92869187Y35369744D01*
X92709756Y35210313D01*
X92686148Y35232332D01*
X92685450Y35232938D01*
X92651734Y35260078D01*
X92650951Y35260660D01*
X92616095Y35284556D01*
X92615234Y35285097D01*
X92579238Y35305749D01*
X92578308Y35306232D01*
X92541171Y35323640D01*
X92540189Y35324052D01*
X92501913Y35338216D01*
X92500896Y35338544D01*
X92461480Y35349464D01*
X92460451Y35349703D01*
X92419894Y35357379D01*
X92418874Y35357530D01*
X92377178Y35361962D01*
X92376188Y35362028D01*
X92342810Y35362954D01*
X92205558Y35873942D01*
X92716546Y35736690D01*
G37*
X92716546Y35736690D02*
X92717472Y35703312D01*
X92717538Y35702322D01*
X92721970Y35660626D01*
X92722121Y35659606D01*
X92729797Y35619049D01*
X92730036Y35618020D01*
X92740956Y35578604D01*
X92741284Y35577587D01*
X92755448Y35539311D01*
X92755860Y35538329D01*
X92773268Y35501192D01*
X92773751Y35500262D01*
X92794403Y35464266D01*
X92794944Y35463405D01*
X92818840Y35428549D01*
X92819422Y35427766D01*
X92846562Y35394050D01*
X92847168Y35393352D01*
X92869187Y35369744D01*
X92709756Y35210313D01*
X92686148Y35232332D01*
X92685450Y35232938D01*
X92651734Y35260078D01*
X92650951Y35260660D01*
X92616095Y35284556D01*
X92615234Y35285097D01*
X92579238Y35305749D01*
X92578308Y35306232D01*
X92541171Y35323640D01*
X92540189Y35324052D01*
X92501913Y35338216D01*
X92500896Y35338544D01*
X92461480Y35349464D01*
X92460451Y35349703D01*
X92419894Y35357379D01*
X92418874Y35357530D01*
X92377178Y35361962D01*
X92376188Y35362028D01*
X92342810Y35362954D01*
X92205558Y35873942D01*
X92716546Y35736690D01*
G36*
X87827046Y35609690D02*
G01*
X87827972Y35576312D01*
X87828038Y35575322D01*
X87832470Y35533626D01*
X87832621Y35532606D01*
X87840297Y35492049D01*
X87840536Y35491020D01*
X87851456Y35451604D01*
X87851784Y35450587D01*
X87865948Y35412311D01*
X87866360Y35411329D01*
X87883768Y35374192D01*
X87884251Y35373262D01*
X87904903Y35337266D01*
X87905444Y35336405D01*
X87929340Y35301549D01*
X87929922Y35300766D01*
X87957062Y35267050D01*
X87957668Y35266352D01*
X87979687Y35242744D01*
X87820256Y35083313D01*
X87796648Y35105332D01*
X87795950Y35105938D01*
X87762234Y35133078D01*
X87761451Y35133660D01*
X87726595Y35157556D01*
X87725734Y35158097D01*
X87689738Y35178749D01*
X87688808Y35179232D01*
X87651671Y35196640D01*
X87650689Y35197052D01*
X87612413Y35211216D01*
X87611396Y35211544D01*
X87571980Y35222464D01*
X87570951Y35222703D01*
X87530394Y35230379D01*
X87529374Y35230530D01*
X87487678Y35234962D01*
X87486688Y35235028D01*
X87453310Y35235954D01*
X87316058Y35746942D01*
X87827046Y35609690D01*
G37*
X87827046Y35609690D02*
X87827972Y35576312D01*
X87828038Y35575322D01*
X87832470Y35533626D01*
X87832621Y35532606D01*
X87840297Y35492049D01*
X87840536Y35491020D01*
X87851456Y35451604D01*
X87851784Y35450587D01*
X87865948Y35412311D01*
X87866360Y35411329D01*
X87883768Y35374192D01*
X87884251Y35373262D01*
X87904903Y35337266D01*
X87905444Y35336405D01*
X87929340Y35301549D01*
X87929922Y35300766D01*
X87957062Y35267050D01*
X87957668Y35266352D01*
X87979687Y35242744D01*
X87820256Y35083313D01*
X87796648Y35105332D01*
X87795950Y35105938D01*
X87762234Y35133078D01*
X87761451Y35133660D01*
X87726595Y35157556D01*
X87725734Y35158097D01*
X87689738Y35178749D01*
X87688808Y35179232D01*
X87651671Y35196640D01*
X87650689Y35197052D01*
X87612413Y35211216D01*
X87611396Y35211544D01*
X87571980Y35222464D01*
X87570951Y35222703D01*
X87530394Y35230379D01*
X87529374Y35230530D01*
X87487678Y35234962D01*
X87486688Y35235028D01*
X87453310Y35235954D01*
X87316058Y35746942D01*
X87827046Y35609690D01*
G36*
X78112324Y35672981D02*
G01*
X78116171Y35638746D01*
X78116870Y35635787D01*
X78132177Y35594091D01*
X78133384Y35591651D01*
X78159185Y35551094D01*
X78160557Y35549308D01*
X78196852Y35509892D01*
X78198154Y35508665D01*
X78244943Y35470389D01*
X78246075Y35469563D01*
X78303358Y35432426D01*
X78304310Y35431866D01*
X78372087Y35395870D01*
X78372878Y35395484D01*
X78451149Y35360628D01*
X78451805Y35360358D01*
X78540570Y35326642D01*
X78541120Y35326447D01*
X78620754Y35300311D01*
X78463944Y35143501D01*
X78369755Y35171711D01*
X78369588Y35171760D01*
X78274247Y35198900D01*
X78274055Y35198953D01*
X78184824Y35222849D01*
X78184601Y35222906D01*
X78101480Y35243558D01*
X78101218Y35243620D01*
X78024206Y35261028D01*
X78023894Y35261095D01*
X77952993Y35275259D01*
X77952616Y35275328D01*
X77887825Y35286248D01*
X77887361Y35286318D01*
X77828679Y35293994D01*
X77828099Y35294056D01*
X77775528Y35298488D01*
X77774786Y35298529D01*
X77737805Y35299475D01*
X77600558Y35810442D01*
X78112324Y35672981D01*
G37*
X78112324Y35672981D02*
X78116171Y35638746D01*
X78116870Y35635787D01*
X78132177Y35594091D01*
X78133384Y35591651D01*
X78159185Y35551094D01*
X78160557Y35549308D01*
X78196852Y35509892D01*
X78198154Y35508665D01*
X78244943Y35470389D01*
X78246075Y35469563D01*
X78303358Y35432426D01*
X78304310Y35431866D01*
X78372087Y35395870D01*
X78372878Y35395484D01*
X78451149Y35360628D01*
X78451805Y35360358D01*
X78540570Y35326642D01*
X78541120Y35326447D01*
X78620754Y35300311D01*
X78463944Y35143501D01*
X78369755Y35171711D01*
X78369588Y35171760D01*
X78274247Y35198900D01*
X78274055Y35198953D01*
X78184824Y35222849D01*
X78184601Y35222906D01*
X78101480Y35243558D01*
X78101218Y35243620D01*
X78024206Y35261028D01*
X78023894Y35261095D01*
X77952993Y35275259D01*
X77952616Y35275328D01*
X77887825Y35286248D01*
X77887361Y35286318D01*
X77828679Y35293994D01*
X77828099Y35294056D01*
X77775528Y35298488D01*
X77774786Y35298529D01*
X77737805Y35299475D01*
X77600558Y35810442D01*
X78112324Y35672981D01*
G36*
X73285546Y35800190D02*
G01*
X73286472Y35766812D01*
X73286538Y35765822D01*
X73290970Y35724126D01*
X73291121Y35723106D01*
X73298797Y35682549D01*
X73299036Y35681520D01*
X73309956Y35642104D01*
X73310284Y35641087D01*
X73324448Y35602811D01*
X73324860Y35601829D01*
X73342268Y35564692D01*
X73342751Y35563762D01*
X73363403Y35527766D01*
X73363944Y35526905D01*
X73387840Y35492049D01*
X73388422Y35491266D01*
X73415562Y35457550D01*
X73416168Y35456852D01*
X73438187Y35433244D01*
X73278756Y35273813D01*
X73255148Y35295832D01*
X73254450Y35296438D01*
X73220734Y35323578D01*
X73219951Y35324160D01*
X73185095Y35348056D01*
X73184234Y35348597D01*
X73148238Y35369249D01*
X73147308Y35369732D01*
X73110171Y35387140D01*
X73109189Y35387552D01*
X73070913Y35401716D01*
X73069896Y35402044D01*
X73030480Y35412964D01*
X73029451Y35413203D01*
X72988894Y35420879D01*
X72987874Y35421030D01*
X72946178Y35425462D01*
X72945188Y35425528D01*
X72911810Y35426454D01*
X72774558Y35937442D01*
X73285546Y35800190D01*
G37*
X73285546Y35800190D02*
X73286472Y35766812D01*
X73286538Y35765822D01*
X73290970Y35724126D01*
X73291121Y35723106D01*
X73298797Y35682549D01*
X73299036Y35681520D01*
X73309956Y35642104D01*
X73310284Y35641087D01*
X73324448Y35602811D01*
X73324860Y35601829D01*
X73342268Y35564692D01*
X73342751Y35563762D01*
X73363403Y35527766D01*
X73363944Y35526905D01*
X73387840Y35492049D01*
X73388422Y35491266D01*
X73415562Y35457550D01*
X73416168Y35456852D01*
X73438187Y35433244D01*
X73278756Y35273813D01*
X73255148Y35295832D01*
X73254450Y35296438D01*
X73220734Y35323578D01*
X73219951Y35324160D01*
X73185095Y35348056D01*
X73184234Y35348597D01*
X73148238Y35369249D01*
X73147308Y35369732D01*
X73110171Y35387140D01*
X73109189Y35387552D01*
X73070913Y35401716D01*
X73069896Y35402044D01*
X73030480Y35412964D01*
X73029451Y35413203D01*
X72988894Y35420879D01*
X72987874Y35421030D01*
X72946178Y35425462D01*
X72945188Y35425528D01*
X72911810Y35426454D01*
X72774558Y35937442D01*
X73285546Y35800190D01*
G36*
X68459546Y35863690D02*
G01*
X68460472Y35830312D01*
X68460538Y35829322D01*
X68464970Y35787626D01*
X68465121Y35786606D01*
X68472797Y35746049D01*
X68473036Y35745020D01*
X68483956Y35705604D01*
X68484284Y35704587D01*
X68498448Y35666311D01*
X68498860Y35665329D01*
X68516268Y35628192D01*
X68516751Y35627262D01*
X68537403Y35591266D01*
X68537944Y35590405D01*
X68561840Y35555549D01*
X68562422Y35554766D01*
X68589562Y35521050D01*
X68590168Y35520352D01*
X68612187Y35496744D01*
X68452756Y35337313D01*
X68429148Y35359332D01*
X68428450Y35359938D01*
X68394734Y35387078D01*
X68393951Y35387660D01*
X68359095Y35411556D01*
X68358234Y35412097D01*
X68322238Y35432749D01*
X68321308Y35433232D01*
X68284171Y35450640D01*
X68283189Y35451052D01*
X68244913Y35465216D01*
X68243896Y35465544D01*
X68204480Y35476464D01*
X68203451Y35476703D01*
X68162894Y35484379D01*
X68161874Y35484530D01*
X68120178Y35488962D01*
X68119188Y35489028D01*
X68085810Y35489954D01*
X67948558Y36000942D01*
X68459546Y35863690D01*
G37*
X68459546Y35863690D02*
X68460472Y35830312D01*
X68460538Y35829322D01*
X68464970Y35787626D01*
X68465121Y35786606D01*
X68472797Y35746049D01*
X68473036Y35745020D01*
X68483956Y35705604D01*
X68484284Y35704587D01*
X68498448Y35666311D01*
X68498860Y35665329D01*
X68516268Y35628192D01*
X68516751Y35627262D01*
X68537403Y35591266D01*
X68537944Y35590405D01*
X68561840Y35555549D01*
X68562422Y35554766D01*
X68589562Y35521050D01*
X68590168Y35520352D01*
X68612187Y35496744D01*
X68452756Y35337313D01*
X68429148Y35359332D01*
X68428450Y35359938D01*
X68394734Y35387078D01*
X68393951Y35387660D01*
X68359095Y35411556D01*
X68358234Y35412097D01*
X68322238Y35432749D01*
X68321308Y35433232D01*
X68284171Y35450640D01*
X68283189Y35451052D01*
X68244913Y35465216D01*
X68243896Y35465544D01*
X68204480Y35476464D01*
X68203451Y35476703D01*
X68162894Y35484379D01*
X68161874Y35484530D01*
X68120178Y35488962D01*
X68119188Y35489028D01*
X68085810Y35489954D01*
X67948558Y36000942D01*
X68459546Y35863690D01*
G36*
X63570046Y35863690D02*
G01*
X63570972Y35830312D01*
X63571038Y35829322D01*
X63575470Y35787626D01*
X63575621Y35786606D01*
X63583297Y35746049D01*
X63583536Y35745020D01*
X63594456Y35705604D01*
X63594784Y35704587D01*
X63608948Y35666311D01*
X63609360Y35665329D01*
X63626768Y35628192D01*
X63627251Y35627262D01*
X63647903Y35591266D01*
X63648444Y35590405D01*
X63672340Y35555549D01*
X63672922Y35554766D01*
X63700062Y35521050D01*
X63700668Y35520352D01*
X63722687Y35496744D01*
X63563256Y35337313D01*
X63539648Y35359332D01*
X63538950Y35359938D01*
X63505234Y35387078D01*
X63504451Y35387660D01*
X63469595Y35411556D01*
X63468734Y35412097D01*
X63432738Y35432749D01*
X63431808Y35433232D01*
X63394671Y35450640D01*
X63393689Y35451052D01*
X63355413Y35465216D01*
X63354396Y35465544D01*
X63314980Y35476464D01*
X63313951Y35476703D01*
X63273394Y35484379D01*
X63272374Y35484530D01*
X63230678Y35488962D01*
X63229688Y35489028D01*
X63196310Y35489954D01*
X63059058Y36000942D01*
X63570046Y35863690D01*
G37*
X63570046Y35863690D02*
X63570972Y35830312D01*
X63571038Y35829322D01*
X63575470Y35787626D01*
X63575621Y35786606D01*
X63583297Y35746049D01*
X63583536Y35745020D01*
X63594456Y35705604D01*
X63594784Y35704587D01*
X63608948Y35666311D01*
X63609360Y35665329D01*
X63626768Y35628192D01*
X63627251Y35627262D01*
X63647903Y35591266D01*
X63648444Y35590405D01*
X63672340Y35555549D01*
X63672922Y35554766D01*
X63700062Y35521050D01*
X63700668Y35520352D01*
X63722687Y35496744D01*
X63563256Y35337313D01*
X63539648Y35359332D01*
X63538950Y35359938D01*
X63505234Y35387078D01*
X63504451Y35387660D01*
X63469595Y35411556D01*
X63468734Y35412097D01*
X63432738Y35432749D01*
X63431808Y35433232D01*
X63394671Y35450640D01*
X63393689Y35451052D01*
X63355413Y35465216D01*
X63354396Y35465544D01*
X63314980Y35476464D01*
X63313951Y35476703D01*
X63273394Y35484379D01*
X63272374Y35484530D01*
X63230678Y35488962D01*
X63229688Y35489028D01*
X63196310Y35489954D01*
X63059058Y36000942D01*
X63570046Y35863690D01*
G36*
X58680546Y35863690D02*
G01*
X58681472Y35830312D01*
X58681538Y35829322D01*
X58685970Y35787626D01*
X58686121Y35786606D01*
X58693797Y35746049D01*
X58694036Y35745020D01*
X58704956Y35705604D01*
X58705284Y35704587D01*
X58719448Y35666311D01*
X58719860Y35665329D01*
X58737268Y35628192D01*
X58737751Y35627262D01*
X58758403Y35591266D01*
X58758944Y35590405D01*
X58782840Y35555549D01*
X58783422Y35554766D01*
X58810562Y35521050D01*
X58811168Y35520352D01*
X58833187Y35496744D01*
X58673756Y35337313D01*
X58650148Y35359332D01*
X58649450Y35359938D01*
X58615734Y35387078D01*
X58614951Y35387660D01*
X58580095Y35411556D01*
X58579234Y35412097D01*
X58543238Y35432749D01*
X58542308Y35433232D01*
X58505171Y35450640D01*
X58504189Y35451052D01*
X58465913Y35465216D01*
X58464896Y35465544D01*
X58425480Y35476464D01*
X58424451Y35476703D01*
X58383894Y35484379D01*
X58382874Y35484530D01*
X58341178Y35488962D01*
X58340188Y35489028D01*
X58306810Y35489954D01*
X58169558Y36000942D01*
X58680546Y35863690D01*
G37*
X58680546Y35863690D02*
X58681472Y35830312D01*
X58681538Y35829322D01*
X58685970Y35787626D01*
X58686121Y35786606D01*
X58693797Y35746049D01*
X58694036Y35745020D01*
X58704956Y35705604D01*
X58705284Y35704587D01*
X58719448Y35666311D01*
X58719860Y35665329D01*
X58737268Y35628192D01*
X58737751Y35627262D01*
X58758403Y35591266D01*
X58758944Y35590405D01*
X58782840Y35555549D01*
X58783422Y35554766D01*
X58810562Y35521050D01*
X58811168Y35520352D01*
X58833187Y35496744D01*
X58673756Y35337313D01*
X58650148Y35359332D01*
X58649450Y35359938D01*
X58615734Y35387078D01*
X58614951Y35387660D01*
X58580095Y35411556D01*
X58579234Y35412097D01*
X58543238Y35432749D01*
X58542308Y35433232D01*
X58505171Y35450640D01*
X58504189Y35451052D01*
X58465913Y35465216D01*
X58464896Y35465544D01*
X58425480Y35476464D01*
X58424451Y35476703D01*
X58383894Y35484379D01*
X58382874Y35484530D01*
X58341178Y35488962D01*
X58340188Y35489028D01*
X58306810Y35489954D01*
X58169558Y36000942D01*
X58680546Y35863690D01*
G36*
X53854546Y35863690D02*
G01*
X53855472Y35830312D01*
X53855538Y35829322D01*
X53859970Y35787626D01*
X53860121Y35786606D01*
X53867797Y35746049D01*
X53868036Y35745020D01*
X53878956Y35705604D01*
X53879284Y35704587D01*
X53893448Y35666311D01*
X53893860Y35665329D01*
X53911268Y35628192D01*
X53911751Y35627262D01*
X53932403Y35591266D01*
X53932944Y35590405D01*
X53956840Y35555549D01*
X53957422Y35554766D01*
X53984562Y35521050D01*
X53985168Y35520352D01*
X54007187Y35496744D01*
X53847756Y35337313D01*
X53824148Y35359332D01*
X53823450Y35359938D01*
X53789734Y35387078D01*
X53788951Y35387660D01*
X53754095Y35411556D01*
X53753234Y35412097D01*
X53717238Y35432749D01*
X53716308Y35433232D01*
X53679171Y35450640D01*
X53678189Y35451052D01*
X53639913Y35465216D01*
X53638896Y35465544D01*
X53599480Y35476464D01*
X53598451Y35476703D01*
X53557894Y35484379D01*
X53556874Y35484530D01*
X53515178Y35488962D01*
X53514188Y35489028D01*
X53480810Y35489954D01*
X53343558Y36000942D01*
X53854546Y35863690D01*
G37*
X53854546Y35863690D02*
X53855472Y35830312D01*
X53855538Y35829322D01*
X53859970Y35787626D01*
X53860121Y35786606D01*
X53867797Y35746049D01*
X53868036Y35745020D01*
X53878956Y35705604D01*
X53879284Y35704587D01*
X53893448Y35666311D01*
X53893860Y35665329D01*
X53911268Y35628192D01*
X53911751Y35627262D01*
X53932403Y35591266D01*
X53932944Y35590405D01*
X53956840Y35555549D01*
X53957422Y35554766D01*
X53984562Y35521050D01*
X53985168Y35520352D01*
X54007187Y35496744D01*
X53847756Y35337313D01*
X53824148Y35359332D01*
X53823450Y35359938D01*
X53789734Y35387078D01*
X53788951Y35387660D01*
X53754095Y35411556D01*
X53753234Y35412097D01*
X53717238Y35432749D01*
X53716308Y35433232D01*
X53679171Y35450640D01*
X53678189Y35451052D01*
X53639913Y35465216D01*
X53638896Y35465544D01*
X53599480Y35476464D01*
X53598451Y35476703D01*
X53557894Y35484379D01*
X53556874Y35484530D01*
X53515178Y35488962D01*
X53514188Y35489028D01*
X53480810Y35489954D01*
X53343558Y36000942D01*
X53854546Y35863690D01*
G36*
X48965046Y35927190D02*
G01*
X48965972Y35893812D01*
X48966038Y35892822D01*
X48970470Y35851126D01*
X48970621Y35850106D01*
X48978297Y35809549D01*
X48978536Y35808520D01*
X48989456Y35769104D01*
X48989784Y35768087D01*
X49003948Y35729811D01*
X49004360Y35728829D01*
X49021768Y35691692D01*
X49022251Y35690762D01*
X49042903Y35654766D01*
X49043444Y35653905D01*
X49067340Y35619049D01*
X49067922Y35618266D01*
X49095062Y35584550D01*
X49095668Y35583852D01*
X49117687Y35560244D01*
X48958256Y35400813D01*
X48934648Y35422832D01*
X48933950Y35423438D01*
X48900234Y35450578D01*
X48899451Y35451160D01*
X48864595Y35475056D01*
X48863734Y35475597D01*
X48827738Y35496249D01*
X48826808Y35496732D01*
X48789671Y35514140D01*
X48788689Y35514552D01*
X48750413Y35528716D01*
X48749396Y35529044D01*
X48709980Y35539964D01*
X48708951Y35540203D01*
X48668394Y35547879D01*
X48667374Y35548030D01*
X48625678Y35552462D01*
X48624688Y35552528D01*
X48591310Y35553454D01*
X48454058Y36064442D01*
X48965046Y35927190D01*
G37*
X48965046Y35927190D02*
X48965972Y35893812D01*
X48966038Y35892822D01*
X48970470Y35851126D01*
X48970621Y35850106D01*
X48978297Y35809549D01*
X48978536Y35808520D01*
X48989456Y35769104D01*
X48989784Y35768087D01*
X49003948Y35729811D01*
X49004360Y35728829D01*
X49021768Y35691692D01*
X49022251Y35690762D01*
X49042903Y35654766D01*
X49043444Y35653905D01*
X49067340Y35619049D01*
X49067922Y35618266D01*
X49095062Y35584550D01*
X49095668Y35583852D01*
X49117687Y35560244D01*
X48958256Y35400813D01*
X48934648Y35422832D01*
X48933950Y35423438D01*
X48900234Y35450578D01*
X48899451Y35451160D01*
X48864595Y35475056D01*
X48863734Y35475597D01*
X48827738Y35496249D01*
X48826808Y35496732D01*
X48789671Y35514140D01*
X48788689Y35514552D01*
X48750413Y35528716D01*
X48749396Y35529044D01*
X48709980Y35539964D01*
X48708951Y35540203D01*
X48668394Y35547879D01*
X48667374Y35548030D01*
X48625678Y35552462D01*
X48624688Y35552528D01*
X48591310Y35553454D01*
X48454058Y36064442D01*
X48965046Y35927190D01*
G36*
X44075546Y35863690D02*
G01*
X44076472Y35830312D01*
X44076538Y35829322D01*
X44080970Y35787626D01*
X44081121Y35786606D01*
X44088797Y35746049D01*
X44089036Y35745020D01*
X44099956Y35705604D01*
X44100284Y35704587D01*
X44114448Y35666311D01*
X44114860Y35665329D01*
X44132268Y35628192D01*
X44132751Y35627262D01*
X44153403Y35591266D01*
X44153944Y35590405D01*
X44177840Y35555549D01*
X44178422Y35554766D01*
X44205562Y35521050D01*
X44206168Y35520352D01*
X44228187Y35496744D01*
X44068756Y35337313D01*
X44045148Y35359332D01*
X44044450Y35359938D01*
X44010734Y35387078D01*
X44009951Y35387660D01*
X43975095Y35411556D01*
X43974234Y35412097D01*
X43938238Y35432749D01*
X43937308Y35433232D01*
X43900171Y35450640D01*
X43899189Y35451052D01*
X43860913Y35465216D01*
X43859896Y35465544D01*
X43820480Y35476464D01*
X43819451Y35476703D01*
X43778894Y35484379D01*
X43777874Y35484530D01*
X43736178Y35488962D01*
X43735188Y35489028D01*
X43701810Y35489954D01*
X43564558Y36000942D01*
X44075546Y35863690D01*
G37*
X44075546Y35863690D02*
X44076472Y35830312D01*
X44076538Y35829322D01*
X44080970Y35787626D01*
X44081121Y35786606D01*
X44088797Y35746049D01*
X44089036Y35745020D01*
X44099956Y35705604D01*
X44100284Y35704587D01*
X44114448Y35666311D01*
X44114860Y35665329D01*
X44132268Y35628192D01*
X44132751Y35627262D01*
X44153403Y35591266D01*
X44153944Y35590405D01*
X44177840Y35555549D01*
X44178422Y35554766D01*
X44205562Y35521050D01*
X44206168Y35520352D01*
X44228187Y35496744D01*
X44068756Y35337313D01*
X44045148Y35359332D01*
X44044450Y35359938D01*
X44010734Y35387078D01*
X44009951Y35387660D01*
X43975095Y35411556D01*
X43974234Y35412097D01*
X43938238Y35432749D01*
X43937308Y35433232D01*
X43900171Y35450640D01*
X43899189Y35451052D01*
X43860913Y35465216D01*
X43859896Y35465544D01*
X43820480Y35476464D01*
X43819451Y35476703D01*
X43778894Y35484379D01*
X43777874Y35484530D01*
X43736178Y35488962D01*
X43735188Y35489028D01*
X43701810Y35489954D01*
X43564558Y36000942D01*
X44075546Y35863690D01*
G36*
X38995825Y35990615D02*
G01*
X38997758Y35956936D01*
X38997978Y35955201D01*
X39006220Y35913505D01*
X39006676Y35911817D01*
X39020702Y35871260D01*
X39021358Y35869708D01*
X39041168Y35830292D01*
X39041958Y35828936D01*
X39067552Y35790660D01*
X39068408Y35789522D01*
X39099786Y35752385D01*
X39100651Y35751460D01*
X39137813Y35715464D01*
X39138646Y35714725D01*
X39181592Y35679869D01*
X39182369Y35679286D01*
X39231099Y35645570D01*
X39231810Y35645112D01*
X39272337Y35620894D01*
X39113750Y35462307D01*
X39065354Y35488239D01*
X39064951Y35488446D01*
X39009645Y35515586D01*
X39009197Y35515795D01*
X38955291Y35539691D01*
X38954793Y35539900D01*
X38902287Y35560552D01*
X38901733Y35560755D01*
X38850626Y35578163D01*
X38850011Y35578355D01*
X38800305Y35592519D01*
X38799625Y35592692D01*
X38751319Y35603612D01*
X38750570Y35603758D01*
X38703663Y35611434D01*
X38702843Y35611541D01*
X38657337Y35615973D01*
X38656448Y35616028D01*
X38621808Y35616961D01*
X38484558Y36127942D01*
X38995825Y35990615D01*
G37*
X38995825Y35990615D02*
X38997758Y35956936D01*
X38997978Y35955201D01*
X39006220Y35913505D01*
X39006676Y35911817D01*
X39020702Y35871260D01*
X39021358Y35869708D01*
X39041168Y35830292D01*
X39041958Y35828936D01*
X39067552Y35790660D01*
X39068408Y35789522D01*
X39099786Y35752385D01*
X39100651Y35751460D01*
X39137813Y35715464D01*
X39138646Y35714725D01*
X39181592Y35679869D01*
X39182369Y35679286D01*
X39231099Y35645570D01*
X39231810Y35645112D01*
X39272337Y35620894D01*
X39113750Y35462307D01*
X39065354Y35488239D01*
X39064951Y35488446D01*
X39009645Y35515586D01*
X39009197Y35515795D01*
X38955291Y35539691D01*
X38954793Y35539900D01*
X38902287Y35560552D01*
X38901733Y35560755D01*
X38850626Y35578163D01*
X38850011Y35578355D01*
X38800305Y35592519D01*
X38799625Y35592692D01*
X38751319Y35603612D01*
X38750570Y35603758D01*
X38703663Y35611434D01*
X38702843Y35611541D01*
X38657337Y35615973D01*
X38656448Y35616028D01*
X38621808Y35616961D01*
X38484558Y36127942D01*
X38995825Y35990615D01*
M02*
