G04 #@! TF.GenerationSoftware,KiCad,Pcbnew,(5.1.5)-3*
G04 #@! TF.CreationDate,2020-03-16T20:43:13+08:00*
G04 #@! TF.ProjectId,sd04,73643034-2e6b-4696-9361-645f70636258,v0.2*
G04 #@! TF.SameCoordinates,PX3e41030PY7464a18*
G04 #@! TF.FileFunction,OtherDrawing,Comment*
%FSLAX46Y46*%
G04 Gerber Fmt 4.6, Leading zero omitted, Abs format (unit mm)*
G04 Created by KiCad (PCBNEW (5.1.5)-3) date 2020-03-16 20:43:13*
%MOMM*%
%LPD*%
G04 APERTURE LIST*
%ADD10C,0.150000*%
G04 APERTURE END LIST*
D10*
X-3927381Y29019048D02*
X-3927381Y29495239D01*
X-4403572Y29542858D01*
X-4355953Y29495239D01*
X-4308334Y29400000D01*
X-4308334Y29161905D01*
X-4355953Y29066667D01*
X-4403572Y29019048D01*
X-4498810Y28971429D01*
X-4736905Y28971429D01*
X-4832143Y29019048D01*
X-4879762Y29066667D01*
X-4927381Y29161905D01*
X-4927381Y29400000D01*
X-4879762Y29495239D01*
X-4832143Y29542858D01*
X-3927381Y28352381D02*
X-3927381Y28257143D01*
X-3975000Y28161905D01*
X-4022620Y28114286D01*
X-4117858Y28066667D01*
X-4308334Y28019048D01*
X-4546429Y28019048D01*
X-4736905Y28066667D01*
X-4832143Y28114286D01*
X-4879762Y28161905D01*
X-4927381Y28257143D01*
X-4927381Y28352381D01*
X-4879762Y28447620D01*
X-4832143Y28495239D01*
X-4736905Y28542858D01*
X-4546429Y28590477D01*
X-4308334Y28590477D01*
X-4117858Y28542858D01*
X-4022620Y28495239D01*
X-3975000Y28447620D01*
X-3927381Y28352381D01*
X-4832143Y27590477D02*
X-4879762Y27542858D01*
X-4927381Y27590477D01*
X-4879762Y27638096D01*
X-4832143Y27590477D01*
X-4927381Y27590477D01*
X-4355953Y26971429D02*
X-4308334Y27066667D01*
X-4260715Y27114286D01*
X-4165477Y27161905D01*
X-4117858Y27161905D01*
X-4022620Y27114286D01*
X-3975000Y27066667D01*
X-3927381Y26971429D01*
X-3927381Y26780953D01*
X-3975000Y26685715D01*
X-4022620Y26638096D01*
X-4117858Y26590477D01*
X-4165477Y26590477D01*
X-4260715Y26638096D01*
X-4308334Y26685715D01*
X-4355953Y26780953D01*
X-4355953Y26971429D01*
X-4403572Y27066667D01*
X-4451191Y27114286D01*
X-4546429Y27161905D01*
X-4736905Y27161905D01*
X-4832143Y27114286D01*
X-4879762Y27066667D01*
X-4927381Y26971429D01*
X-4927381Y26780953D01*
X-4879762Y26685715D01*
X-4832143Y26638096D01*
X-4736905Y26590477D01*
X-4546429Y26590477D01*
X-4451191Y26638096D01*
X-4403572Y26685715D01*
X-4355953Y26780953D01*
X-3927381Y25971429D02*
X-3927381Y25876191D01*
X-3975000Y25780953D01*
X-4022620Y25733334D01*
X-4117858Y25685715D01*
X-4308334Y25638096D01*
X-4546429Y25638096D01*
X-4736905Y25685715D01*
X-4832143Y25733334D01*
X-4879762Y25780953D01*
X-4927381Y25876191D01*
X-4927381Y25971429D01*
X-4879762Y26066667D01*
X-4832143Y26114286D01*
X-4736905Y26161905D01*
X-4546429Y26209524D01*
X-4308334Y26209524D01*
X-4117858Y26161905D01*
X-4022620Y26114286D01*
X-3975000Y26066667D01*
X-3927381Y25971429D01*
X-3927381Y25019048D02*
X-3927381Y24923810D01*
X-3975000Y24828572D01*
X-4022620Y24780953D01*
X-4117858Y24733334D01*
X-4308334Y24685715D01*
X-4546429Y24685715D01*
X-4736905Y24733334D01*
X-4832143Y24780953D01*
X-4879762Y24828572D01*
X-4927381Y24923810D01*
X-4927381Y25019048D01*
X-4879762Y25114286D01*
X-4832143Y25161905D01*
X-4736905Y25209524D01*
X-4546429Y25257143D01*
X-4308334Y25257143D01*
X-4117858Y25209524D01*
X-4022620Y25161905D01*
X-3975000Y25114286D01*
X-3927381Y25019048D01*
X-4927381Y23495239D02*
X-4260715Y23495239D01*
X-4355953Y23495239D02*
X-4308334Y23447620D01*
X-4260715Y23352381D01*
X-4260715Y23209524D01*
X-4308334Y23114286D01*
X-4403572Y23066667D01*
X-4927381Y23066667D01*
X-4403572Y23066667D02*
X-4308334Y23019048D01*
X-4260715Y22923810D01*
X-4260715Y22780953D01*
X-4308334Y22685715D01*
X-4403572Y22638096D01*
X-4927381Y22638096D01*
X-4927381Y22161905D02*
X-4260715Y22161905D01*
X-4355953Y22161905D02*
X-4308334Y22114286D01*
X-4260715Y22019048D01*
X-4260715Y21876191D01*
X-4308334Y21780953D01*
X-4403572Y21733334D01*
X-4927381Y21733334D01*
X-4403572Y21733334D02*
X-4308334Y21685715D01*
X-4260715Y21590477D01*
X-4260715Y21447620D01*
X-4308334Y21352381D01*
X-4403572Y21304762D01*
X-4927381Y21304762D01*
X-3175000Y50800000D02*
X-3175000Y0D01*
X0Y50800000D02*
X-3761421Y50800000D01*
X0Y0D02*
X-3761421Y0D01*
X-3175000Y0D02*
X-3761421Y1126504D01*
X-3175000Y0D02*
X-2588579Y1126504D01*
X-3175000Y50800000D02*
X-3761421Y49673496D01*
X-3175000Y50800000D02*
X-2588579Y49673496D01*
X45863380Y54822620D02*
X46053857Y54822620D01*
X46149095Y54870239D01*
X46196714Y54917858D01*
X46291952Y55060715D01*
X46339571Y55251191D01*
X46339571Y55632143D01*
X46291952Y55727381D01*
X46244333Y55775000D01*
X46149095Y55822620D01*
X45958619Y55822620D01*
X45863380Y55775000D01*
X45815761Y55727381D01*
X45768142Y55632143D01*
X45768142Y55394048D01*
X45815761Y55298810D01*
X45863380Y55251191D01*
X45958619Y55203572D01*
X46149095Y55203572D01*
X46244333Y55251191D01*
X46291952Y55298810D01*
X46339571Y55394048D01*
X46815761Y54822620D02*
X47006238Y54822620D01*
X47101476Y54870239D01*
X47149095Y54917858D01*
X47244333Y55060715D01*
X47291952Y55251191D01*
X47291952Y55632143D01*
X47244333Y55727381D01*
X47196714Y55775000D01*
X47101476Y55822620D01*
X46911000Y55822620D01*
X46815761Y55775000D01*
X46768142Y55727381D01*
X46720523Y55632143D01*
X46720523Y55394048D01*
X46768142Y55298810D01*
X46815761Y55251191D01*
X46911000Y55203572D01*
X47101476Y55203572D01*
X47196714Y55251191D01*
X47244333Y55298810D01*
X47291952Y55394048D01*
X47720523Y54917858D02*
X47768142Y54870239D01*
X47720523Y54822620D01*
X47672904Y54870239D01*
X47720523Y54917858D01*
X47720523Y54822620D01*
X48339571Y55394048D02*
X48244333Y55441667D01*
X48196714Y55489286D01*
X48149095Y55584524D01*
X48149095Y55632143D01*
X48196714Y55727381D01*
X48244333Y55775000D01*
X48339571Y55822620D01*
X48530047Y55822620D01*
X48625285Y55775000D01*
X48672904Y55727381D01*
X48720523Y55632143D01*
X48720523Y55584524D01*
X48672904Y55489286D01*
X48625285Y55441667D01*
X48530047Y55394048D01*
X48339571Y55394048D01*
X48244333Y55346429D01*
X48196714Y55298810D01*
X48149095Y55203572D01*
X48149095Y55013096D01*
X48196714Y54917858D01*
X48244333Y54870239D01*
X48339571Y54822620D01*
X48530047Y54822620D01*
X48625285Y54870239D01*
X48672904Y54917858D01*
X48720523Y55013096D01*
X48720523Y55203572D01*
X48672904Y55298810D01*
X48625285Y55346429D01*
X48530047Y55394048D01*
X49101476Y55727381D02*
X49149095Y55775000D01*
X49244333Y55822620D01*
X49482428Y55822620D01*
X49577666Y55775000D01*
X49625285Y55727381D01*
X49672904Y55632143D01*
X49672904Y55536905D01*
X49625285Y55394048D01*
X49053857Y54822620D01*
X49672904Y54822620D01*
X50053857Y55727381D02*
X50101476Y55775000D01*
X50196714Y55822620D01*
X50434809Y55822620D01*
X50530047Y55775000D01*
X50577666Y55727381D01*
X50625285Y55632143D01*
X50625285Y55536905D01*
X50577666Y55394048D01*
X50006238Y54822620D01*
X50625285Y54822620D01*
X51815761Y54822620D02*
X51815761Y55489286D01*
X51815761Y55394048D02*
X51863380Y55441667D01*
X51958619Y55489286D01*
X52101476Y55489286D01*
X52196714Y55441667D01*
X52244333Y55346429D01*
X52244333Y54822620D01*
X52244333Y55346429D02*
X52291952Y55441667D01*
X52387190Y55489286D01*
X52530047Y55489286D01*
X52625285Y55441667D01*
X52672904Y55346429D01*
X52672904Y54822620D01*
X53149095Y54822620D02*
X53149095Y55489286D01*
X53149095Y55394048D02*
X53196714Y55441667D01*
X53291952Y55489286D01*
X53434809Y55489286D01*
X53530047Y55441667D01*
X53577666Y55346429D01*
X53577666Y54822620D01*
X53577666Y55346429D02*
X53625285Y55441667D01*
X53720523Y55489286D01*
X53863380Y55489286D01*
X53958619Y55441667D01*
X54006238Y55346429D01*
X54006238Y54822620D01*
X0Y53975000D02*
X99822000Y53975000D01*
X0Y50800000D02*
X0Y54561421D01*
X99822000Y50800000D02*
X99822000Y54561421D01*
X99822000Y53975000D02*
X98695496Y53388579D01*
X99822000Y53975000D02*
X98695496Y54561421D01*
X0Y53975000D02*
X1126504Y53388579D01*
X0Y53975000D02*
X1126504Y54561421D01*
M02*
