G04 #@! TF.GenerationSoftware,KiCad,Pcbnew,(5.1.5)-3*
G04 #@! TF.CreationDate,2020-03-16T20:43:13+08:00*
G04 #@! TF.ProjectId,sd04,73643034-2e6b-4696-9361-645f70636258,v0.2*
G04 #@! TF.SameCoordinates,PX3e41030PY7464a18*
G04 #@! TF.FileFunction,Other,User*
%FSLAX46Y46*%
G04 Gerber Fmt 4.6, Leading zero omitted, Abs format (unit mm)*
G04 Created by KiCad (PCBNEW (5.1.5)-3) date 2020-03-16 20:43:13*
%MOMM*%
%LPD*%
G04 APERTURE LIST*
%ADD10C,0.050000*%
%ADD11C,0.120000*%
G04 APERTURE END LIST*
D10*
X21348300Y44627500D02*
X21348300Y47927500D01*
X22808300Y44627500D02*
X21348300Y44627500D01*
X22808300Y47927500D02*
X22808300Y44627500D01*
X21348300Y47927500D02*
X22808300Y47927500D01*
X39569000Y32748232D02*
X36069000Y32748232D01*
X39569000Y36148232D02*
X39569000Y32748232D01*
X36069000Y36148232D02*
X39569000Y36148232D01*
X36069000Y32748232D02*
X36069000Y36148232D01*
X89537201Y27572848D02*
X89537201Y32372848D01*
X89537201Y32372848D02*
X93137201Y32372848D01*
X93137201Y32372848D02*
X93137201Y27572848D01*
X93137201Y27572848D02*
X89537201Y27572848D01*
X31560000Y50497500D02*
X39560000Y50497500D01*
X31560000Y46657500D02*
X31560000Y50497500D01*
X39560000Y46657500D02*
X31560000Y46657500D01*
X39560000Y50497500D02*
X39560000Y46657500D01*
D11*
X93218000Y44450000D02*
X93345000Y44450000D01*
X93218000Y49784000D02*
X93218000Y44450000D01*
X98552000Y49784000D02*
X93218000Y49784000D01*
X98552000Y44450000D02*
X98552000Y49784000D01*
X93345000Y44450000D02*
X98552000Y44450000D01*
X83947000Y44386500D02*
X84074000Y44386500D01*
X83947000Y49720500D02*
X83947000Y44386500D01*
X89281000Y49720500D02*
X83947000Y49720500D01*
X89281000Y44386500D02*
X89281000Y49720500D01*
X84074000Y44386500D02*
X89281000Y44386500D01*
D10*
X28390500Y28553800D02*
X28390500Y35553800D01*
X28390500Y35553800D02*
X17290500Y35553800D01*
X17290500Y35553800D02*
X17290500Y28553800D01*
X17290500Y28553800D02*
X28390500Y28553800D01*
X6134000Y28493000D02*
X6134000Y21493000D01*
X6134000Y21493000D02*
X17234000Y21493000D01*
X17234000Y21493000D02*
X17234000Y28493000D01*
X17234000Y28493000D02*
X6134000Y28493000D01*
X6134000Y35554000D02*
X6134000Y28554000D01*
X6134000Y28554000D02*
X17234000Y28554000D01*
X17234000Y28554000D02*
X17234000Y35554000D01*
X17234000Y35554000D02*
X6134000Y35554000D01*
X6134000Y21432000D02*
X6134000Y14432000D01*
X6134000Y14432000D02*
X17234000Y14432000D01*
X17234000Y14432000D02*
X17234000Y21432000D01*
X17234000Y21432000D02*
X6134000Y21432000D01*
X6134000Y14371000D02*
X6134000Y7371000D01*
X6134000Y7371000D02*
X17234000Y7371000D01*
X17234000Y7371000D02*
X17234000Y14371000D01*
X17234000Y14371000D02*
X6134000Y14371000D01*
X28390500Y35615000D02*
X28390500Y42615000D01*
X28390500Y42615000D02*
X17290500Y42615000D01*
X17290500Y42615000D02*
X17290500Y35615000D01*
X17290500Y35615000D02*
X28390500Y35615000D01*
X28390500Y309000D02*
X28390500Y7309000D01*
X28390500Y7309000D02*
X17290500Y7309000D01*
X17290500Y7309000D02*
X17290500Y309000D01*
X17290500Y309000D02*
X28390500Y309000D01*
X28390500Y7370200D02*
X28390500Y14370200D01*
X28390500Y14370200D02*
X17290500Y14370200D01*
X17290500Y14370200D02*
X17290500Y7370200D01*
X17290500Y7370200D02*
X28390500Y7370200D01*
X28390500Y14431400D02*
X28390500Y21431400D01*
X28390500Y21431400D02*
X17290500Y21431400D01*
X17290500Y21431400D02*
X17290500Y14431400D01*
X17290500Y14431400D02*
X28390500Y14431400D01*
X6134000Y7310000D02*
X6134000Y310000D01*
X6134000Y310000D02*
X17234000Y310000D01*
X17234000Y310000D02*
X17234000Y7310000D01*
X17234000Y7310000D02*
X6134000Y7310000D01*
X28390500Y21492600D02*
X28390500Y28492600D01*
X28390500Y28492600D02*
X17290500Y28492600D01*
X17290500Y28492600D02*
X17290500Y21492600D01*
X17290500Y21492600D02*
X28390500Y21492600D01*
X6134000Y42615000D02*
X6134000Y35615000D01*
X6134000Y35615000D02*
X17234000Y35615000D01*
X17234000Y35615000D02*
X17234000Y42615000D01*
X17234000Y42615000D02*
X6134000Y42615000D01*
X45888500Y45361000D02*
X45888500Y41761000D01*
X82488500Y45361000D02*
X45888500Y45361000D01*
X82488500Y41761000D02*
X82488500Y45361000D01*
X45888500Y41761000D02*
X82488500Y41761000D01*
D11*
X6350000Y44577000D02*
X6350000Y49784000D01*
X6350000Y49784000D02*
X1016000Y49784000D01*
X1016000Y49784000D02*
X1016000Y44450000D01*
X1016000Y44450000D02*
X6350000Y44450000D01*
X6350000Y44450000D02*
X6350000Y44577000D01*
X45148500Y44831000D02*
X45148500Y44958000D01*
X39814500Y44831000D02*
X45148500Y44831000D01*
X39814500Y50165000D02*
X39814500Y44831000D01*
X45148500Y50165000D02*
X39814500Y50165000D01*
X45148500Y44958000D02*
X45148500Y50165000D01*
D10*
X99123996Y41379000D02*
X99123996Y39139000D01*
X99123996Y39139000D02*
X94223996Y39139000D01*
X94223996Y39139000D02*
X94223996Y41379000D01*
X94223996Y41379000D02*
X99123996Y41379000D01*
X94223996Y38763616D02*
X99123996Y38763616D01*
X94223996Y36523616D02*
X94223996Y38763616D01*
X99123996Y36523616D02*
X94223996Y36523616D01*
X99123996Y38763616D02*
X99123996Y36523616D01*
X36019000Y27572848D02*
X36019000Y32372848D01*
X36019000Y32372848D02*
X39619000Y32372848D01*
X39619000Y32372848D02*
X39619000Y27572848D01*
X39619000Y27572848D02*
X36019000Y27572848D01*
X40884291Y27572848D02*
X40884291Y32372848D01*
X40884291Y32372848D02*
X44484291Y32372848D01*
X44484291Y32372848D02*
X44484291Y27572848D01*
X44484291Y27572848D02*
X40884291Y27572848D01*
X45749582Y27572848D02*
X45749582Y32372848D01*
X45749582Y32372848D02*
X49349582Y32372848D01*
X49349582Y32372848D02*
X49349582Y27572848D01*
X49349582Y27572848D02*
X45749582Y27572848D01*
X44434291Y32748232D02*
X40934291Y32748232D01*
X44434291Y36148232D02*
X44434291Y32748232D01*
X40934291Y36148232D02*
X44434291Y36148232D01*
X40934291Y32748232D02*
X40934291Y36148232D01*
X49299582Y32748232D02*
X45799582Y32748232D01*
X49299582Y36148232D02*
X49299582Y32748232D01*
X45799582Y36148232D02*
X49299582Y36148232D01*
X45799582Y32748232D02*
X45799582Y36148232D01*
X50614873Y27572848D02*
X50614873Y32372848D01*
X50614873Y32372848D02*
X54214873Y32372848D01*
X54214873Y32372848D02*
X54214873Y27572848D01*
X54214873Y27572848D02*
X50614873Y27572848D01*
X55480164Y27572848D02*
X55480164Y32372848D01*
X55480164Y32372848D02*
X59080164Y32372848D01*
X59080164Y32372848D02*
X59080164Y27572848D01*
X59080164Y27572848D02*
X55480164Y27572848D01*
X60345455Y27572848D02*
X60345455Y32372848D01*
X60345455Y32372848D02*
X63945455Y32372848D01*
X63945455Y32372848D02*
X63945455Y27572848D01*
X63945455Y27572848D02*
X60345455Y27572848D01*
X65210746Y27572848D02*
X65210746Y32372848D01*
X65210746Y32372848D02*
X68810746Y32372848D01*
X68810746Y32372848D02*
X68810746Y27572848D01*
X68810746Y27572848D02*
X65210746Y27572848D01*
X70076037Y27572848D02*
X70076037Y32372848D01*
X70076037Y32372848D02*
X73676037Y32372848D01*
X73676037Y32372848D02*
X73676037Y27572848D01*
X73676037Y27572848D02*
X70076037Y27572848D01*
X74941328Y27572848D02*
X74941328Y32372848D01*
X74941328Y32372848D02*
X78541328Y32372848D01*
X78541328Y32372848D02*
X78541328Y27572848D01*
X78541328Y27572848D02*
X74941328Y27572848D01*
X79806619Y27572848D02*
X79806619Y32372848D01*
X79806619Y32372848D02*
X83406619Y32372848D01*
X83406619Y32372848D02*
X83406619Y27572848D01*
X83406619Y27572848D02*
X79806619Y27572848D01*
X84671910Y27572848D02*
X84671910Y32372848D01*
X84671910Y32372848D02*
X88271910Y32372848D01*
X88271910Y32372848D02*
X88271910Y27572848D01*
X88271910Y27572848D02*
X84671910Y27572848D01*
X94402492Y27572848D02*
X94402492Y32372848D01*
X94402492Y32372848D02*
X98002492Y32372848D01*
X98002492Y32372848D02*
X98002492Y27572848D01*
X98002492Y27572848D02*
X94402492Y27572848D01*
X54164873Y32748232D02*
X50664873Y32748232D01*
X54164873Y36148232D02*
X54164873Y32748232D01*
X50664873Y36148232D02*
X54164873Y36148232D01*
X50664873Y32748232D02*
X50664873Y36148232D01*
X59030164Y32748232D02*
X55530164Y32748232D01*
X59030164Y36148232D02*
X59030164Y32748232D01*
X55530164Y36148232D02*
X59030164Y36148232D01*
X55530164Y32748232D02*
X55530164Y36148232D01*
X63895455Y32748232D02*
X60395455Y32748232D01*
X63895455Y36148232D02*
X63895455Y32748232D01*
X60395455Y36148232D02*
X63895455Y36148232D01*
X60395455Y32748232D02*
X60395455Y36148232D01*
X68760746Y32748232D02*
X65260746Y32748232D01*
X68760746Y36148232D02*
X68760746Y32748232D01*
X65260746Y36148232D02*
X68760746Y36148232D01*
X65260746Y32748232D02*
X65260746Y36148232D01*
X73626037Y32748232D02*
X70126037Y32748232D01*
X73626037Y36148232D02*
X73626037Y32748232D01*
X70126037Y36148232D02*
X73626037Y36148232D01*
X70126037Y32748232D02*
X70126037Y36148232D01*
X78491328Y32748232D02*
X74991328Y32748232D01*
X78491328Y36148232D02*
X78491328Y32748232D01*
X74991328Y36148232D02*
X78491328Y36148232D01*
X74991328Y32748232D02*
X74991328Y36148232D01*
X83356619Y32748232D02*
X79856619Y32748232D01*
X83356619Y36148232D02*
X83356619Y32748232D01*
X79856619Y36148232D02*
X83356619Y36148232D01*
X79856619Y32748232D02*
X79856619Y36148232D01*
X88221910Y32748232D02*
X84721910Y32748232D01*
X88221910Y36148232D02*
X88221910Y32748232D01*
X84721910Y36148232D02*
X88221910Y36148232D01*
X84721910Y32748232D02*
X84721910Y36148232D01*
X93087201Y32748232D02*
X89587201Y32748232D01*
X93087201Y36148232D02*
X93087201Y32748232D01*
X89587201Y36148232D02*
X93087201Y36148232D01*
X89587201Y32748232D02*
X89587201Y36148232D01*
X97952492Y32748232D02*
X94452492Y32748232D01*
X97952492Y36148232D02*
X97952492Y32748232D01*
X94452492Y36148232D02*
X97952492Y36148232D01*
X94452492Y32748232D02*
X94452492Y36148232D01*
X9430000Y44627500D02*
X9430000Y47927500D01*
X10890000Y44627500D02*
X9430000Y44627500D01*
X10890000Y47927500D02*
X10890000Y44627500D01*
X9430000Y47927500D02*
X10890000Y47927500D01*
X36169000Y25362080D02*
X39469000Y25362080D01*
X36169000Y23902080D02*
X36169000Y25362080D01*
X39469000Y23902080D02*
X36169000Y23902080D01*
X39469000Y25362080D02*
X39469000Y23902080D01*
X41034291Y25362080D02*
X44334291Y25362080D01*
X41034291Y23902080D02*
X41034291Y25362080D01*
X44334291Y23902080D02*
X41034291Y23902080D01*
X44334291Y25362080D02*
X44334291Y23902080D01*
X45899582Y25362080D02*
X49199582Y25362080D01*
X45899582Y23902080D02*
X45899582Y25362080D01*
X49199582Y23902080D02*
X45899582Y23902080D01*
X49199582Y25362080D02*
X49199582Y23902080D01*
X16156100Y47927500D02*
X16156100Y44627500D01*
X14696100Y47927500D02*
X16156100Y47927500D01*
X14696100Y44627500D02*
X14696100Y47927500D01*
X16156100Y44627500D02*
X14696100Y44627500D01*
X19685250Y44627500D02*
X19685250Y47927500D01*
X21145250Y44627500D02*
X19685250Y44627500D01*
X21145250Y47927500D02*
X21145250Y44627500D01*
X19685250Y47927500D02*
X21145250Y47927500D01*
X16359150Y44627500D02*
X16359150Y47927500D01*
X17819150Y44627500D02*
X16359150Y44627500D01*
X17819150Y47927500D02*
X17819150Y44627500D01*
X16359150Y47927500D02*
X17819150Y47927500D01*
X19482200Y47927500D02*
X19482200Y44627500D01*
X18022200Y47927500D02*
X19482200Y47927500D01*
X18022200Y44627500D02*
X18022200Y47927500D01*
X19482200Y44627500D02*
X18022200Y44627500D01*
X31560000Y46560500D02*
X39560000Y46560500D01*
X31560000Y42720500D02*
X31560000Y46560500D01*
X39560000Y42720500D02*
X31560000Y42720500D01*
X39560000Y46560500D02*
X39560000Y42720500D01*
X36169000Y23526696D02*
X39469000Y23526696D01*
X36169000Y22066696D02*
X36169000Y23526696D01*
X39469000Y22066696D02*
X36169000Y22066696D01*
X39469000Y23526696D02*
X39469000Y22066696D01*
X41034291Y23526696D02*
X44334291Y23526696D01*
X41034291Y22066696D02*
X41034291Y23526696D01*
X44334291Y22066696D02*
X41034291Y22066696D01*
X44334291Y23526696D02*
X44334291Y22066696D01*
X45899582Y23526696D02*
X49199582Y23526696D01*
X45899582Y22066696D02*
X45899582Y23526696D01*
X49199582Y22066696D02*
X45899582Y22066696D01*
X49199582Y23526696D02*
X49199582Y22066696D01*
X35909000Y19825000D02*
X35909000Y16525000D01*
X34449000Y19825000D02*
X35909000Y19825000D01*
X34449000Y16525000D02*
X34449000Y19825000D01*
X35909000Y16525000D02*
X34449000Y16525000D01*
X26134400Y47927500D02*
X26134400Y44627500D01*
X24674400Y47927500D02*
X26134400Y47927500D01*
X24674400Y44627500D02*
X24674400Y47927500D01*
X26134400Y44627500D02*
X24674400Y44627500D01*
X36417500Y11380544D02*
X36417500Y14680544D01*
X37877500Y11380544D02*
X36417500Y11380544D01*
X37877500Y14680544D02*
X37877500Y11380544D01*
X36417500Y14680544D02*
X37877500Y14680544D01*
X37941500Y11380544D02*
X37941500Y14680544D01*
X39401500Y11380544D02*
X37941500Y11380544D01*
X39401500Y14680544D02*
X39401500Y11380544D01*
X37941500Y14680544D02*
X39401500Y14680544D01*
X40608500Y11380544D02*
X40608500Y14680544D01*
X42068500Y11380544D02*
X40608500Y11380544D01*
X42068500Y14680544D02*
X42068500Y11380544D01*
X40608500Y14680544D02*
X42068500Y14680544D01*
X42640500Y11380544D02*
X42640500Y14680544D01*
X44100500Y11380544D02*
X42640500Y11380544D01*
X44100500Y14680544D02*
X44100500Y11380544D01*
X42640500Y14680544D02*
X44100500Y14680544D01*
X45688500Y11380544D02*
X45688500Y14680544D01*
X47148500Y11380544D02*
X45688500Y11380544D01*
X47148500Y14680544D02*
X47148500Y11380544D01*
X45688500Y14680544D02*
X47148500Y14680544D01*
X47593500Y11380544D02*
X47593500Y14680544D01*
X49053500Y11380544D02*
X47593500Y11380544D01*
X49053500Y14680544D02*
X49053500Y11380544D01*
X47593500Y14680544D02*
X49053500Y14680544D01*
X31400500Y47927500D02*
X31400500Y44627500D01*
X29940500Y47927500D02*
X31400500Y47927500D01*
X29940500Y44627500D02*
X29940500Y47927500D01*
X31400500Y44627500D02*
X29940500Y44627500D01*
X39355000Y95500D02*
X36055000Y95500D01*
X39355000Y1555500D02*
X39355000Y95500D01*
X36055000Y1555500D02*
X39355000Y1555500D01*
X36055000Y95500D02*
X36055000Y1555500D01*
X44224499Y95500D02*
X40924499Y95500D01*
X44224499Y1555500D02*
X44224499Y95500D01*
X40924499Y1555500D02*
X44224499Y1555500D01*
X40924499Y95500D02*
X40924499Y1555500D01*
X49093998Y95500D02*
X45793998Y95500D01*
X49093998Y1555500D02*
X49093998Y95500D01*
X45793998Y1555500D02*
X49093998Y1555500D01*
X45793998Y95500D02*
X45793998Y1555500D01*
X39342000Y1613392D02*
X36042000Y1613392D01*
X39342000Y3073392D02*
X39342000Y1613392D01*
X36042000Y3073392D02*
X39342000Y3073392D01*
X36042000Y1613392D02*
X36042000Y3073392D01*
X44217874Y1613392D02*
X40917874Y1613392D01*
X44217874Y3073392D02*
X44217874Y1613392D01*
X40917874Y3073392D02*
X44217874Y3073392D01*
X40917874Y1613392D02*
X40917874Y3073392D01*
X49093748Y1613392D02*
X45793748Y1613392D01*
X49093748Y3073392D02*
X49093748Y1613392D01*
X45793748Y3073392D02*
X49093748Y3073392D01*
X45793748Y1613392D02*
X45793748Y3073392D01*
X50764873Y25362080D02*
X54064873Y25362080D01*
X50764873Y23902080D02*
X50764873Y25362080D01*
X54064873Y23902080D02*
X50764873Y23902080D01*
X54064873Y25362080D02*
X54064873Y23902080D01*
X55630164Y25362080D02*
X58930164Y25362080D01*
X55630164Y23902080D02*
X55630164Y25362080D01*
X58930164Y23902080D02*
X55630164Y23902080D01*
X58930164Y25362080D02*
X58930164Y23902080D01*
X60495455Y25362080D02*
X63795455Y25362080D01*
X60495455Y23902080D02*
X60495455Y25362080D01*
X63795455Y23902080D02*
X60495455Y23902080D01*
X63795455Y25362080D02*
X63795455Y23902080D01*
X65360746Y25362080D02*
X68660746Y25362080D01*
X65360746Y23902080D02*
X65360746Y25362080D01*
X68660746Y23902080D02*
X65360746Y23902080D01*
X68660746Y25362080D02*
X68660746Y23902080D01*
X70226037Y25362080D02*
X73526037Y25362080D01*
X70226037Y23902080D02*
X70226037Y25362080D01*
X73526037Y23902080D02*
X70226037Y23902080D01*
X73526037Y25362080D02*
X73526037Y23902080D01*
X75091328Y25362080D02*
X78391328Y25362080D01*
X75091328Y23902080D02*
X75091328Y25362080D01*
X78391328Y23902080D02*
X75091328Y23902080D01*
X78391328Y25362080D02*
X78391328Y23902080D01*
X79956619Y25362080D02*
X83256619Y25362080D01*
X79956619Y23902080D02*
X79956619Y25362080D01*
X83256619Y23902080D02*
X79956619Y23902080D01*
X83256619Y25362080D02*
X83256619Y23902080D01*
X84821910Y25362080D02*
X88121910Y25362080D01*
X84821910Y23902080D02*
X84821910Y25362080D01*
X88121910Y23902080D02*
X84821910Y23902080D01*
X88121910Y25362080D02*
X88121910Y23902080D01*
X89687201Y25362080D02*
X92987201Y25362080D01*
X89687201Y23902080D02*
X89687201Y25362080D01*
X92987201Y23902080D02*
X89687201Y23902080D01*
X92987201Y25362080D02*
X92987201Y23902080D01*
X94552492Y25362080D02*
X97852492Y25362080D01*
X94552492Y23902080D02*
X94552492Y25362080D01*
X97852492Y23902080D02*
X94552492Y23902080D01*
X97852492Y25362080D02*
X97852492Y23902080D01*
X50764873Y23526696D02*
X54064873Y23526696D01*
X50764873Y22066696D02*
X50764873Y23526696D01*
X54064873Y22066696D02*
X50764873Y22066696D01*
X54064873Y23526696D02*
X54064873Y22066696D01*
X55630164Y23526696D02*
X58930164Y23526696D01*
X55630164Y22066696D02*
X55630164Y23526696D01*
X58930164Y22066696D02*
X55630164Y22066696D01*
X58930164Y23526696D02*
X58930164Y22066696D01*
X60495455Y23526696D02*
X63795455Y23526696D01*
X60495455Y22066696D02*
X60495455Y23526696D01*
X63795455Y22066696D02*
X60495455Y22066696D01*
X63795455Y23526696D02*
X63795455Y22066696D01*
X65360746Y23526696D02*
X68660746Y23526696D01*
X65360746Y22066696D02*
X65360746Y23526696D01*
X68660746Y22066696D02*
X65360746Y22066696D01*
X68660746Y23526696D02*
X68660746Y22066696D01*
X70226037Y23526696D02*
X73526037Y23526696D01*
X70226037Y22066696D02*
X70226037Y23526696D01*
X73526037Y22066696D02*
X70226037Y22066696D01*
X73526037Y23526696D02*
X73526037Y22066696D01*
X75091328Y23526696D02*
X78391328Y23526696D01*
X75091328Y22066696D02*
X75091328Y23526696D01*
X78391328Y22066696D02*
X75091328Y22066696D01*
X78391328Y23526696D02*
X78391328Y22066696D01*
X79956619Y23526696D02*
X83256619Y23526696D01*
X79956619Y22066696D02*
X79956619Y23526696D01*
X83256619Y22066696D02*
X79956619Y22066696D01*
X83256619Y23526696D02*
X83256619Y22066696D01*
X84821910Y23526696D02*
X88121910Y23526696D01*
X84821910Y22066696D02*
X84821910Y23526696D01*
X88121910Y22066696D02*
X84821910Y22066696D01*
X88121910Y23526696D02*
X88121910Y22066696D01*
X89687201Y23526696D02*
X92987201Y23526696D01*
X89687201Y22066696D02*
X89687201Y23526696D01*
X92987201Y22066696D02*
X89687201Y22066696D01*
X92987201Y23526696D02*
X92987201Y22066696D01*
X94552492Y23526696D02*
X97852492Y23526696D01*
X94552492Y22066696D02*
X94552492Y23526696D01*
X97852492Y22066696D02*
X94552492Y22066696D01*
X97852492Y23526696D02*
X97852492Y22066696D01*
X50387500Y11380544D02*
X50387500Y14680544D01*
X51847500Y11380544D02*
X50387500Y11380544D01*
X51847500Y14680544D02*
X51847500Y11380544D01*
X50387500Y14680544D02*
X51847500Y14680544D01*
X52165500Y11380544D02*
X52165500Y14680544D01*
X53625500Y11380544D02*
X52165500Y11380544D01*
X53625500Y14680544D02*
X53625500Y11380544D01*
X52165500Y14680544D02*
X53625500Y14680544D01*
X55594500Y11380544D02*
X55594500Y14680544D01*
X57054500Y11380544D02*
X55594500Y11380544D01*
X57054500Y14680544D02*
X57054500Y11380544D01*
X55594500Y14680544D02*
X57054500Y14680544D01*
X57245500Y11380544D02*
X57245500Y14680544D01*
X58705500Y11380544D02*
X57245500Y11380544D01*
X58705500Y14680544D02*
X58705500Y11380544D01*
X57245500Y14680544D02*
X58705500Y14680544D01*
X60293500Y11380544D02*
X60293500Y14680544D01*
X61753500Y11380544D02*
X60293500Y11380544D01*
X61753500Y14680544D02*
X61753500Y11380544D01*
X60293500Y14680544D02*
X61753500Y14680544D01*
X61944500Y11380544D02*
X61944500Y14680544D01*
X63404500Y11380544D02*
X61944500Y11380544D01*
X63404500Y14680544D02*
X63404500Y11380544D01*
X61944500Y14680544D02*
X63404500Y14680544D01*
X65119500Y11380544D02*
X65119500Y14680544D01*
X66579500Y11380544D02*
X65119500Y11380544D01*
X66579500Y14680544D02*
X66579500Y11380544D01*
X65119500Y14680544D02*
X66579500Y14680544D01*
X67024500Y11380544D02*
X67024500Y14680544D01*
X68484500Y11380544D02*
X67024500Y11380544D01*
X68484500Y14680544D02*
X68484500Y11380544D01*
X67024500Y14680544D02*
X68484500Y14680544D01*
X70072500Y11380544D02*
X70072500Y14680544D01*
X71532500Y11380544D02*
X70072500Y11380544D01*
X71532500Y14680544D02*
X71532500Y11380544D01*
X70072500Y14680544D02*
X71532500Y14680544D01*
X71850500Y11380544D02*
X71850500Y14680544D01*
X73310500Y11380544D02*
X71850500Y11380544D01*
X73310500Y14680544D02*
X73310500Y11380544D01*
X71850500Y14680544D02*
X73310500Y14680544D01*
X74771500Y11380544D02*
X74771500Y14680544D01*
X76231500Y11380544D02*
X74771500Y11380544D01*
X76231500Y14680544D02*
X76231500Y11380544D01*
X74771500Y14680544D02*
X76231500Y14680544D01*
X76676500Y11380544D02*
X76676500Y14680544D01*
X78136500Y11380544D02*
X76676500Y11380544D01*
X78136500Y14680544D02*
X78136500Y11380544D01*
X76676500Y14680544D02*
X78136500Y14680544D01*
X79724500Y11380544D02*
X79724500Y14680544D01*
X81184500Y11380544D02*
X79724500Y11380544D01*
X81184500Y14680544D02*
X81184500Y11380544D01*
X79724500Y14680544D02*
X81184500Y14680544D01*
X81502500Y11380544D02*
X81502500Y14680544D01*
X82962500Y11380544D02*
X81502500Y11380544D01*
X82962500Y14680544D02*
X82962500Y11380544D01*
X81502500Y14680544D02*
X82962500Y14680544D01*
X84804500Y11380544D02*
X84804500Y14680544D01*
X86264500Y11380544D02*
X84804500Y11380544D01*
X86264500Y14680544D02*
X86264500Y11380544D01*
X84804500Y14680544D02*
X86264500Y14680544D01*
X86582500Y11380544D02*
X86582500Y14680544D01*
X88042500Y11380544D02*
X86582500Y11380544D01*
X88042500Y14680544D02*
X88042500Y11380544D01*
X86582500Y14680544D02*
X88042500Y14680544D01*
X89884500Y11380544D02*
X89884500Y14680544D01*
X91344500Y11380544D02*
X89884500Y11380544D01*
X91344500Y14680544D02*
X91344500Y11380544D01*
X89884500Y14680544D02*
X91344500Y14680544D01*
X91408500Y11380544D02*
X91408500Y14680544D01*
X92868500Y11380544D02*
X91408500Y11380544D01*
X92868500Y14680544D02*
X92868500Y11380544D01*
X91408500Y14680544D02*
X92868500Y14680544D01*
X94710500Y11380544D02*
X94710500Y14680544D01*
X96170500Y11380544D02*
X94710500Y11380544D01*
X96170500Y14680544D02*
X96170500Y11380544D01*
X94710500Y14680544D02*
X96170500Y14680544D01*
X96234500Y11380544D02*
X96234500Y14680544D01*
X97694500Y11380544D02*
X96234500Y11380544D01*
X97694500Y14680544D02*
X97694500Y11380544D01*
X96234500Y14680544D02*
X97694500Y14680544D01*
X53963497Y95500D02*
X50663497Y95500D01*
X53963497Y1555500D02*
X53963497Y95500D01*
X50663497Y1555500D02*
X53963497Y1555500D01*
X50663497Y95500D02*
X50663497Y1555500D01*
X58832996Y95500D02*
X55532996Y95500D01*
X58832996Y1555500D02*
X58832996Y95500D01*
X55532996Y1555500D02*
X58832996Y1555500D01*
X55532996Y95500D02*
X55532996Y1555500D01*
X63702495Y95500D02*
X60402495Y95500D01*
X63702495Y1555500D02*
X63702495Y95500D01*
X60402495Y1555500D02*
X63702495Y1555500D01*
X60402495Y95500D02*
X60402495Y1555500D01*
X68571994Y95500D02*
X65271994Y95500D01*
X68571994Y1555500D02*
X68571994Y95500D01*
X65271994Y1555500D02*
X68571994Y1555500D01*
X65271994Y95500D02*
X65271994Y1555500D01*
X73441493Y95500D02*
X70141493Y95500D01*
X73441493Y1555500D02*
X73441493Y95500D01*
X70141493Y1555500D02*
X73441493Y1555500D01*
X70141493Y95500D02*
X70141493Y1555500D01*
X78310992Y95500D02*
X75010992Y95500D01*
X78310992Y1555500D02*
X78310992Y95500D01*
X75010992Y1555500D02*
X78310992Y1555500D01*
X75010992Y95500D02*
X75010992Y1555500D01*
X83180491Y95500D02*
X79880491Y95500D01*
X83180491Y1555500D02*
X83180491Y95500D01*
X79880491Y1555500D02*
X83180491Y1555500D01*
X79880491Y95500D02*
X79880491Y1555500D01*
X88049990Y95500D02*
X84749990Y95500D01*
X88049990Y1555500D02*
X88049990Y95500D01*
X84749990Y1555500D02*
X88049990Y1555500D01*
X84749990Y95500D02*
X84749990Y1555500D01*
X92919489Y95500D02*
X89619489Y95500D01*
X92919489Y1555500D02*
X92919489Y95500D01*
X89619489Y1555500D02*
X92919489Y1555500D01*
X89619489Y95500D02*
X89619489Y1555500D01*
X97788992Y95500D02*
X94488992Y95500D01*
X97788992Y1555500D02*
X97788992Y95500D01*
X94488992Y1555500D02*
X97788992Y1555500D01*
X94488992Y95500D02*
X94488992Y1555500D01*
X53969622Y1613392D02*
X50669622Y1613392D01*
X53969622Y3073392D02*
X53969622Y1613392D01*
X50669622Y3073392D02*
X53969622Y3073392D01*
X50669622Y1613392D02*
X50669622Y3073392D01*
X58845496Y1613392D02*
X55545496Y1613392D01*
X58845496Y3073392D02*
X58845496Y1613392D01*
X55545496Y3073392D02*
X58845496Y3073392D01*
X55545496Y1613392D02*
X55545496Y3073392D01*
X63721370Y1613392D02*
X60421370Y1613392D01*
X63721370Y3073392D02*
X63721370Y1613392D01*
X60421370Y3073392D02*
X63721370Y3073392D01*
X60421370Y1613392D02*
X60421370Y3073392D01*
X68597244Y1613392D02*
X65297244Y1613392D01*
X68597244Y3073392D02*
X68597244Y1613392D01*
X65297244Y3073392D02*
X68597244Y3073392D01*
X65297244Y1613392D02*
X65297244Y3073392D01*
X73473118Y1613392D02*
X70173118Y1613392D01*
X73473118Y3073392D02*
X73473118Y1613392D01*
X70173118Y3073392D02*
X73473118Y3073392D01*
X70173118Y1613392D02*
X70173118Y3073392D01*
X78348992Y1613392D02*
X75048992Y1613392D01*
X78348992Y3073392D02*
X78348992Y1613392D01*
X75048992Y3073392D02*
X78348992Y3073392D01*
X75048992Y1613392D02*
X75048992Y3073392D01*
X83224866Y1613392D02*
X79924866Y1613392D01*
X83224866Y3073392D02*
X83224866Y1613392D01*
X79924866Y3073392D02*
X83224866Y3073392D01*
X79924866Y1613392D02*
X79924866Y3073392D01*
X88100740Y1613392D02*
X84800740Y1613392D01*
X88100740Y3073392D02*
X88100740Y1613392D01*
X84800740Y3073392D02*
X88100740Y3073392D01*
X84800740Y1613392D02*
X84800740Y3073392D01*
X92976614Y1613392D02*
X89676614Y1613392D01*
X92976614Y3073392D02*
X92976614Y1613392D01*
X89676614Y3073392D02*
X92976614Y3073392D01*
X89676614Y1613392D02*
X89676614Y3073392D01*
X97852492Y1613392D02*
X94552492Y1613392D01*
X97852492Y3073392D02*
X97852492Y1613392D01*
X94552492Y3073392D02*
X97852492Y3073392D01*
X94552492Y1613392D02*
X94552492Y3073392D01*
X11093050Y44527500D02*
X11093050Y48027500D01*
X14493050Y44527500D02*
X11093050Y44527500D01*
X14493050Y48027500D02*
X14493050Y44527500D01*
X11093050Y48027500D02*
X14493050Y48027500D01*
X26337450Y44527500D02*
X26337450Y48027500D01*
X29737450Y44527500D02*
X26337450Y44527500D01*
X29737450Y48027500D02*
X29737450Y44527500D01*
X26337450Y48027500D02*
X29737450Y48027500D01*
X36069000Y11005160D02*
X39569000Y11005160D01*
X36069000Y7605160D02*
X36069000Y11005160D01*
X39569000Y7605160D02*
X36069000Y7605160D01*
X39569000Y11005160D02*
X39569000Y7605160D01*
X36069000Y7229776D02*
X39569000Y7229776D01*
X36069000Y3829776D02*
X36069000Y7229776D01*
X39569000Y3829776D02*
X36069000Y3829776D01*
X39569000Y7229776D02*
X39569000Y3829776D01*
X40934291Y11005160D02*
X44434291Y11005160D01*
X40934291Y7605160D02*
X40934291Y11005160D01*
X44434291Y7605160D02*
X40934291Y7605160D01*
X44434291Y11005160D02*
X44434291Y7605160D01*
X40934291Y7229776D02*
X44434291Y7229776D01*
X40934291Y3829776D02*
X40934291Y7229776D01*
X44434291Y3829776D02*
X40934291Y3829776D01*
X44434291Y7229776D02*
X44434291Y3829776D01*
X45799582Y11005160D02*
X49299582Y11005160D01*
X45799582Y7605160D02*
X45799582Y11005160D01*
X49299582Y7605160D02*
X45799582Y7605160D01*
X49299582Y11005160D02*
X49299582Y7605160D01*
X45799582Y7229776D02*
X49299582Y7229776D01*
X45799582Y3829776D02*
X45799582Y7229776D01*
X49299582Y3829776D02*
X45799582Y3829776D01*
X49299582Y7229776D02*
X49299582Y3829776D01*
X50664873Y11005160D02*
X54164873Y11005160D01*
X50664873Y7605160D02*
X50664873Y11005160D01*
X54164873Y7605160D02*
X50664873Y7605160D01*
X54164873Y11005160D02*
X54164873Y7605160D01*
X50664873Y7229776D02*
X54164873Y7229776D01*
X50664873Y3829776D02*
X50664873Y7229776D01*
X54164873Y3829776D02*
X50664873Y3829776D01*
X54164873Y7229776D02*
X54164873Y3829776D01*
X55530164Y11005160D02*
X59030164Y11005160D01*
X55530164Y7605160D02*
X55530164Y11005160D01*
X59030164Y7605160D02*
X55530164Y7605160D01*
X59030164Y11005160D02*
X59030164Y7605160D01*
X55530164Y7229776D02*
X59030164Y7229776D01*
X55530164Y3829776D02*
X55530164Y7229776D01*
X59030164Y3829776D02*
X55530164Y3829776D01*
X59030164Y7229776D02*
X59030164Y3829776D01*
X60395455Y11005160D02*
X63895455Y11005160D01*
X60395455Y7605160D02*
X60395455Y11005160D01*
X63895455Y7605160D02*
X60395455Y7605160D01*
X63895455Y11005160D02*
X63895455Y7605160D01*
X60395455Y7229776D02*
X63895455Y7229776D01*
X60395455Y3829776D02*
X60395455Y7229776D01*
X63895455Y3829776D02*
X60395455Y3829776D01*
X63895455Y7229776D02*
X63895455Y3829776D01*
X65260746Y11005160D02*
X68760746Y11005160D01*
X65260746Y7605160D02*
X65260746Y11005160D01*
X68760746Y7605160D02*
X65260746Y7605160D01*
X68760746Y11005160D02*
X68760746Y7605160D01*
X65260746Y7229776D02*
X68760746Y7229776D01*
X65260746Y3829776D02*
X65260746Y7229776D01*
X68760746Y3829776D02*
X65260746Y3829776D01*
X68760746Y7229776D02*
X68760746Y3829776D01*
X70126037Y11005160D02*
X73626037Y11005160D01*
X70126037Y7605160D02*
X70126037Y11005160D01*
X73626037Y7605160D02*
X70126037Y7605160D01*
X73626037Y11005160D02*
X73626037Y7605160D01*
X70126037Y7229776D02*
X73626037Y7229776D01*
X70126037Y3829776D02*
X70126037Y7229776D01*
X73626037Y3829776D02*
X70126037Y3829776D01*
X73626037Y7229776D02*
X73626037Y3829776D01*
X74991328Y11005160D02*
X78491328Y11005160D01*
X74991328Y7605160D02*
X74991328Y11005160D01*
X78491328Y7605160D02*
X74991328Y7605160D01*
X78491328Y11005160D02*
X78491328Y7605160D01*
X74991328Y7229776D02*
X78491328Y7229776D01*
X74991328Y3829776D02*
X74991328Y7229776D01*
X78491328Y3829776D02*
X74991328Y3829776D01*
X78491328Y7229776D02*
X78491328Y3829776D01*
X79856619Y11005160D02*
X83356619Y11005160D01*
X79856619Y7605160D02*
X79856619Y11005160D01*
X83356619Y7605160D02*
X79856619Y7605160D01*
X83356619Y11005160D02*
X83356619Y7605160D01*
X79856619Y7229776D02*
X83356619Y7229776D01*
X79856619Y3829776D02*
X79856619Y7229776D01*
X83356619Y3829776D02*
X79856619Y3829776D01*
X83356619Y7229776D02*
X83356619Y3829776D01*
X84721910Y11005160D02*
X88221910Y11005160D01*
X84721910Y7605160D02*
X84721910Y11005160D01*
X88221910Y7605160D02*
X84721910Y7605160D01*
X88221910Y11005160D02*
X88221910Y7605160D01*
X84721910Y7229776D02*
X88221910Y7229776D01*
X84721910Y3829776D02*
X84721910Y7229776D01*
X88221910Y3829776D02*
X84721910Y3829776D01*
X88221910Y7229776D02*
X88221910Y3829776D01*
X89587201Y11005160D02*
X93087201Y11005160D01*
X89587201Y7605160D02*
X89587201Y11005160D01*
X93087201Y7605160D02*
X89587201Y7605160D01*
X93087201Y11005160D02*
X93087201Y7605160D01*
X89587201Y7229776D02*
X93087201Y7229776D01*
X89587201Y3829776D02*
X89587201Y7229776D01*
X93087201Y3829776D02*
X89587201Y3829776D01*
X93087201Y7229776D02*
X93087201Y3829776D01*
X94452492Y11005160D02*
X97952492Y11005160D01*
X94452492Y7605160D02*
X94452492Y11005160D01*
X97952492Y7605160D02*
X94452492Y7605160D01*
X97952492Y11005160D02*
X97952492Y7605160D01*
X94452492Y7229776D02*
X97952492Y7229776D01*
X94452492Y3829776D02*
X94452492Y7229776D01*
X97952492Y3829776D02*
X94452492Y3829776D01*
X97952492Y7229776D02*
X97952492Y3829776D01*
X36019000Y15055928D02*
X36019000Y19855928D01*
X36019000Y19855928D02*
X39619000Y19855928D01*
X39619000Y19855928D02*
X39619000Y15055928D01*
X39619000Y15055928D02*
X36019000Y15055928D01*
X40884291Y15055928D02*
X40884291Y19855928D01*
X40884291Y19855928D02*
X44484291Y19855928D01*
X44484291Y19855928D02*
X44484291Y15055928D01*
X44484291Y15055928D02*
X40884291Y15055928D01*
X45749582Y15055928D02*
X45749582Y19855928D01*
X45749582Y19855928D02*
X49349582Y19855928D01*
X49349582Y19855928D02*
X49349582Y15055928D01*
X49349582Y15055928D02*
X45749582Y15055928D01*
X50614873Y15055928D02*
X50614873Y19855928D01*
X50614873Y19855928D02*
X54214873Y19855928D01*
X54214873Y19855928D02*
X54214873Y15055928D01*
X54214873Y15055928D02*
X50614873Y15055928D01*
X55480164Y15055928D02*
X55480164Y19855928D01*
X55480164Y19855928D02*
X59080164Y19855928D01*
X59080164Y19855928D02*
X59080164Y15055928D01*
X59080164Y15055928D02*
X55480164Y15055928D01*
X60345455Y15055928D02*
X60345455Y19855928D01*
X60345455Y19855928D02*
X63945455Y19855928D01*
X63945455Y19855928D02*
X63945455Y15055928D01*
X63945455Y15055928D02*
X60345455Y15055928D01*
X65210746Y15055928D02*
X65210746Y19855928D01*
X65210746Y19855928D02*
X68810746Y19855928D01*
X68810746Y19855928D02*
X68810746Y15055928D01*
X68810746Y15055928D02*
X65210746Y15055928D01*
X70076037Y15055928D02*
X70076037Y19855928D01*
X70076037Y19855928D02*
X73676037Y19855928D01*
X73676037Y19855928D02*
X73676037Y15055928D01*
X73676037Y15055928D02*
X70076037Y15055928D01*
X74941328Y15055928D02*
X74941328Y19855928D01*
X74941328Y19855928D02*
X78541328Y19855928D01*
X78541328Y19855928D02*
X78541328Y15055928D01*
X78541328Y15055928D02*
X74941328Y15055928D01*
X79806619Y15055928D02*
X79806619Y19855928D01*
X79806619Y19855928D02*
X83406619Y19855928D01*
X83406619Y19855928D02*
X83406619Y15055928D01*
X83406619Y15055928D02*
X79806619Y15055928D01*
X84671910Y15055928D02*
X84671910Y19855928D01*
X84671910Y19855928D02*
X88271910Y19855928D01*
X88271910Y19855928D02*
X88271910Y15055928D01*
X88271910Y15055928D02*
X84671910Y15055928D01*
X89537201Y15055928D02*
X89537201Y19855928D01*
X89537201Y19855928D02*
X93137201Y19855928D01*
X93137201Y19855928D02*
X93137201Y15055928D01*
X93137201Y15055928D02*
X89537201Y15055928D01*
X94402492Y15055928D02*
X94402492Y19855928D01*
X94402492Y19855928D02*
X98002492Y19855928D01*
X98002492Y19855928D02*
X98002492Y15055928D01*
X98002492Y15055928D02*
X94402492Y15055928D01*
X39469000Y25692312D02*
X36169000Y25692312D01*
X39469000Y27152312D02*
X39469000Y25692312D01*
X36169000Y27152312D02*
X39469000Y27152312D01*
X36169000Y25692312D02*
X36169000Y27152312D01*
X44334291Y25692312D02*
X41034291Y25692312D01*
X44334291Y27152312D02*
X44334291Y25692312D01*
X41034291Y27152312D02*
X44334291Y27152312D01*
X41034291Y25692312D02*
X41034291Y27152312D01*
X49199582Y25692312D02*
X45899582Y25692312D01*
X49199582Y27152312D02*
X49199582Y25692312D01*
X45899582Y27152312D02*
X49199582Y27152312D01*
X45899582Y25692312D02*
X45899582Y27152312D01*
X39469000Y20276464D02*
X36169000Y20276464D01*
X39469000Y21736464D02*
X39469000Y20276464D01*
X36169000Y21736464D02*
X39469000Y21736464D01*
X36169000Y20276464D02*
X36169000Y21736464D01*
X44334291Y20276464D02*
X41034291Y20276464D01*
X44334291Y21736464D02*
X44334291Y20276464D01*
X41034291Y21736464D02*
X44334291Y21736464D01*
X41034291Y20276464D02*
X41034291Y21736464D01*
X49199582Y20276464D02*
X45899582Y20276464D01*
X49199582Y21736464D02*
X49199582Y20276464D01*
X45899582Y21736464D02*
X49199582Y21736464D01*
X45899582Y20276464D02*
X45899582Y21736464D01*
X23011350Y44627500D02*
X23011350Y47927500D01*
X24471350Y44627500D02*
X23011350Y44627500D01*
X24471350Y47927500D02*
X24471350Y44627500D01*
X23011350Y47927500D02*
X24471350Y47927500D01*
X54064873Y25692312D02*
X50764873Y25692312D01*
X54064873Y27152312D02*
X54064873Y25692312D01*
X50764873Y27152312D02*
X54064873Y27152312D01*
X50764873Y25692312D02*
X50764873Y27152312D01*
X58930164Y25692312D02*
X55630164Y25692312D01*
X58930164Y27152312D02*
X58930164Y25692312D01*
X55630164Y27152312D02*
X58930164Y27152312D01*
X55630164Y25692312D02*
X55630164Y27152312D01*
X63795455Y25692312D02*
X60495455Y25692312D01*
X63795455Y27152312D02*
X63795455Y25692312D01*
X60495455Y27152312D02*
X63795455Y27152312D01*
X60495455Y25692312D02*
X60495455Y27152312D01*
X68660746Y25692312D02*
X65360746Y25692312D01*
X68660746Y27152312D02*
X68660746Y25692312D01*
X65360746Y27152312D02*
X68660746Y27152312D01*
X65360746Y25692312D02*
X65360746Y27152312D01*
X73526037Y25692312D02*
X70226037Y25692312D01*
X73526037Y27152312D02*
X73526037Y25692312D01*
X70226037Y27152312D02*
X73526037Y27152312D01*
X70226037Y25692312D02*
X70226037Y27152312D01*
X78391328Y25692312D02*
X75091328Y25692312D01*
X78391328Y27152312D02*
X78391328Y25692312D01*
X75091328Y27152312D02*
X78391328Y27152312D01*
X75091328Y25692312D02*
X75091328Y27152312D01*
X83256619Y25692312D02*
X79956619Y25692312D01*
X83256619Y27152312D02*
X83256619Y25692312D01*
X79956619Y27152312D02*
X83256619Y27152312D01*
X79956619Y25692312D02*
X79956619Y27152312D01*
X88121910Y25692312D02*
X84821910Y25692312D01*
X88121910Y27152312D02*
X88121910Y25692312D01*
X84821910Y27152312D02*
X88121910Y27152312D01*
X84821910Y25692312D02*
X84821910Y27152312D01*
X92987201Y25737464D02*
X89687201Y25737464D01*
X92987201Y27197464D02*
X92987201Y25737464D01*
X89687201Y27197464D02*
X92987201Y27197464D01*
X89687201Y25737464D02*
X89687201Y27197464D01*
X97852492Y25737464D02*
X94552492Y25737464D01*
X97852492Y27197464D02*
X97852492Y25737464D01*
X94552492Y27197464D02*
X97852492Y27197464D01*
X94552492Y25737464D02*
X94552492Y27197464D01*
X54064873Y20276464D02*
X50764873Y20276464D01*
X54064873Y21736464D02*
X54064873Y20276464D01*
X50764873Y21736464D02*
X54064873Y21736464D01*
X50764873Y20276464D02*
X50764873Y21736464D01*
X58930164Y20276464D02*
X55630164Y20276464D01*
X58930164Y21736464D02*
X58930164Y20276464D01*
X55630164Y21736464D02*
X58930164Y21736464D01*
X55630164Y20276464D02*
X55630164Y21736464D01*
X63795455Y20276464D02*
X60495455Y20276464D01*
X63795455Y21736464D02*
X63795455Y20276464D01*
X60495455Y21736464D02*
X63795455Y21736464D01*
X60495455Y20276464D02*
X60495455Y21736464D01*
X68660746Y20276464D02*
X65360746Y20276464D01*
X68660746Y21736464D02*
X68660746Y20276464D01*
X65360746Y21736464D02*
X68660746Y21736464D01*
X65360746Y20276464D02*
X65360746Y21736464D01*
X73526037Y20276464D02*
X70226037Y20276464D01*
X73526037Y21736464D02*
X73526037Y20276464D01*
X70226037Y21736464D02*
X73526037Y21736464D01*
X70226037Y20276464D02*
X70226037Y21736464D01*
X78391328Y20276464D02*
X75091328Y20276464D01*
X78391328Y21736464D02*
X78391328Y20276464D01*
X75091328Y21736464D02*
X78391328Y21736464D01*
X75091328Y20276464D02*
X75091328Y21736464D01*
X83256619Y20276464D02*
X79956619Y20276464D01*
X83256619Y21736464D02*
X83256619Y20276464D01*
X79956619Y21736464D02*
X83256619Y21736464D01*
X79956619Y20276464D02*
X79956619Y21736464D01*
X88121910Y20276464D02*
X84821910Y20276464D01*
X88121910Y21736464D02*
X88121910Y20276464D01*
X84821910Y21736464D02*
X88121910Y21736464D01*
X84821910Y20276464D02*
X84821910Y21736464D01*
X92987201Y20231312D02*
X89687201Y20231312D01*
X92987201Y21691312D02*
X92987201Y20231312D01*
X89687201Y21691312D02*
X92987201Y21691312D01*
X89687201Y20231312D02*
X89687201Y21691312D01*
X97852492Y20231312D02*
X94552492Y20231312D01*
X97852492Y21691312D02*
X97852492Y20231312D01*
X94552492Y21691312D02*
X97852492Y21691312D01*
X94552492Y20231312D02*
X94552492Y21691312D01*
X89319413Y38763616D02*
X94219413Y38763616D01*
X89319413Y36523616D02*
X89319413Y38763616D01*
X94219413Y36523616D02*
X89319413Y36523616D01*
X94219413Y38763616D02*
X94219413Y36523616D01*
X89314830Y38763616D02*
X89314830Y36523616D01*
X89314830Y36523616D02*
X84414830Y36523616D01*
X84414830Y36523616D02*
X84414830Y38763616D01*
X84414830Y38763616D02*
X89314830Y38763616D01*
X79510247Y38763616D02*
X84410247Y38763616D01*
X79510247Y36523616D02*
X79510247Y38763616D01*
X84410247Y36523616D02*
X79510247Y36523616D01*
X84410247Y38763616D02*
X84410247Y36523616D01*
X74605664Y38763616D02*
X79505664Y38763616D01*
X74605664Y36523616D02*
X74605664Y38763616D01*
X79505664Y36523616D02*
X74605664Y36523616D01*
X79505664Y38763616D02*
X79505664Y36523616D01*
X69701081Y38763616D02*
X74601081Y38763616D01*
X69701081Y36523616D02*
X69701081Y38763616D01*
X74601081Y36523616D02*
X69701081Y36523616D01*
X74601081Y38763616D02*
X74601081Y36523616D01*
X69696498Y38763616D02*
X69696498Y36523616D01*
X69696498Y36523616D02*
X64796498Y36523616D01*
X64796498Y36523616D02*
X64796498Y38763616D01*
X64796498Y38763616D02*
X69696498Y38763616D01*
X59891915Y38763616D02*
X64791915Y38763616D01*
X59891915Y36523616D02*
X59891915Y38763616D01*
X64791915Y36523616D02*
X59891915Y36523616D01*
X64791915Y38763616D02*
X64791915Y36523616D01*
X54987332Y38763616D02*
X59887332Y38763616D01*
X54987332Y36523616D02*
X54987332Y38763616D01*
X59887332Y36523616D02*
X54987332Y36523616D01*
X59887332Y38763616D02*
X59887332Y36523616D01*
X50082749Y38763616D02*
X54982749Y38763616D01*
X50082749Y36523616D02*
X50082749Y38763616D01*
X54982749Y36523616D02*
X50082749Y36523616D01*
X54982749Y38763616D02*
X54982749Y36523616D01*
X94219413Y41379000D02*
X94219413Y39139000D01*
X94219413Y39139000D02*
X89319413Y39139000D01*
X89319413Y39139000D02*
X89319413Y41379000D01*
X89319413Y41379000D02*
X94219413Y41379000D01*
X84414830Y41379000D02*
X89314830Y41379000D01*
X84414830Y39139000D02*
X84414830Y41379000D01*
X89314830Y39139000D02*
X84414830Y39139000D01*
X89314830Y41379000D02*
X89314830Y39139000D01*
X84410247Y41379000D02*
X84410247Y39139000D01*
X84410247Y39139000D02*
X79510247Y39139000D01*
X79510247Y39139000D02*
X79510247Y41379000D01*
X79510247Y41379000D02*
X84410247Y41379000D01*
X79505664Y41379000D02*
X79505664Y39139000D01*
X79505664Y39139000D02*
X74605664Y39139000D01*
X74605664Y39139000D02*
X74605664Y41379000D01*
X74605664Y41379000D02*
X79505664Y41379000D01*
X74601081Y41379000D02*
X74601081Y39139000D01*
X74601081Y39139000D02*
X69701081Y39139000D01*
X69701081Y39139000D02*
X69701081Y41379000D01*
X69701081Y41379000D02*
X74601081Y41379000D01*
X69696498Y41379000D02*
X69696498Y39139000D01*
X69696498Y39139000D02*
X64796498Y39139000D01*
X64796498Y39139000D02*
X64796498Y41379000D01*
X64796498Y41379000D02*
X69696498Y41379000D01*
X64791915Y41379000D02*
X64791915Y39139000D01*
X64791915Y39139000D02*
X59891915Y39139000D01*
X59891915Y39139000D02*
X59891915Y41379000D01*
X59891915Y41379000D02*
X64791915Y41379000D01*
X59887332Y41379000D02*
X59887332Y39139000D01*
X59887332Y39139000D02*
X54987332Y39139000D01*
X54987332Y39139000D02*
X54987332Y41379000D01*
X54987332Y41379000D02*
X59887332Y41379000D01*
X54982749Y41379000D02*
X54982749Y39139000D01*
X54982749Y39139000D02*
X50082749Y39139000D01*
X50082749Y39139000D02*
X50082749Y41379000D01*
X50082749Y41379000D02*
X54982749Y41379000D01*
X45178166Y38763616D02*
X50078166Y38763616D01*
X45178166Y36523616D02*
X45178166Y38763616D01*
X50078166Y36523616D02*
X45178166Y36523616D01*
X50078166Y38763616D02*
X50078166Y36523616D01*
X40273583Y38763616D02*
X45173583Y38763616D01*
X40273583Y36523616D02*
X40273583Y38763616D01*
X45173583Y36523616D02*
X40273583Y36523616D01*
X45173583Y38763616D02*
X45173583Y36523616D01*
X35369000Y38763616D02*
X40269000Y38763616D01*
X35369000Y36523616D02*
X35369000Y38763616D01*
X40269000Y36523616D02*
X35369000Y36523616D01*
X40269000Y38763616D02*
X40269000Y36523616D01*
X50078166Y41379000D02*
X50078166Y39139000D01*
X50078166Y39139000D02*
X45178166Y39139000D01*
X45178166Y39139000D02*
X45178166Y41379000D01*
X45178166Y41379000D02*
X50078166Y41379000D01*
X45173583Y41379000D02*
X45173583Y39139000D01*
X45173583Y39139000D02*
X40273583Y39139000D01*
X40273583Y39139000D02*
X40273583Y41379000D01*
X40273583Y41379000D02*
X45173583Y41379000D01*
X35369000Y41379000D02*
X40269000Y41379000D01*
X35369000Y39139000D02*
X35369000Y41379000D01*
X40269000Y39139000D02*
X35369000Y39139000D01*
X40269000Y41379000D02*
X40269000Y39139000D01*
M02*
